M48
; DRILL file KiCad 10.0.3 date 2026-06-09T14:37:26
; FORMAT={-:-/ absolute / metric / decimal}
; #@! TF.CreationDate,2026-06-09T14:37:26+09:00
; #@! TF.GenerationSoftware,Kicad,Pcbnew,10.0.3
; #@! TF.FileFunction,MixedPlating,1,4
FMAT,2
METRIC
; #@! TA.AperFunction,Plated,PTH,ComponentDrill
T1C0.600
; #@! TA.AperFunction,Plated,PTH,ComponentDrill
T2C0.800
; #@! TA.AperFunction,Plated,PTH,ComponentDrill
T3C0.900
; #@! TA.AperFunction,Plated,PTH,ComponentDrill
T4C1.000
; #@! TA.AperFunction,Plated,PTH,ComponentDrill
T5C1.100
; #@! TA.AperFunction,Plated,PTH,ComponentDrill
T6C1.700
; #@! TA.AperFunction,NonPlated,NPTH,ComponentDrill
T7C2.850
; #@! TA.AperFunction,NonPlated,NPTH,ComponentDrill
T8C3.200
%
G90
G05
T1
X15.75Y57.195
X17.25Y57.195
T2
X22.35Y57.195
X24.85Y57.195
X93.98Y43.18
X93.98Y33.02
T3
X57.785Y10.16
X67.945Y10.16
T4
X10.795Y37.465
X10.795Y34.925
X10.795Y32.385
X10.795Y29.845
X10.795Y27.305
X10.795Y24.765
X10.795Y22.225
X10.795Y19.685
X10.795Y17.145
X10.795Y14.605
X12.17Y66.72
X12.17Y64.18
X12.17Y61.64
X13.335Y37.465
X13.335Y34.925
X13.335Y32.385
X13.335Y29.845
X13.335Y27.305
X13.335Y24.765
X13.335Y22.225
X13.335Y19.685
X13.335Y17.145
X13.335Y14.605
X14.71Y66.72
X14.71Y64.18
X14.71Y61.64
X17.14Y51.435
X17.25Y66.72
X17.25Y64.18
X17.25Y61.64
X19.68Y51.435
X19.79Y66.72
X19.79Y64.18
X19.79Y61.64
X22.33Y66.72
X22.33Y64.18
X22.33Y61.64
X24.87Y66.72
X24.87Y64.18
X24.87Y61.64
X27.305Y22.5
X27.305Y19.96
X27.41Y66.72
X27.41Y64.18
X27.41Y61.64
X29.845Y22.5
X29.845Y19.96
X29.95Y66.72
X29.95Y64.18
X29.95Y61.64
X32.385Y22.5
X32.385Y19.96
X32.49Y66.72
X32.49Y64.18
X32.49Y61.64
X34.925Y22.5
X34.925Y19.96
X35.03Y66.72
X35.03Y64.18
X35.03Y61.64
X37.465Y22.5
X37.465Y19.96
X37.57Y66.72
X37.57Y64.18
X37.57Y61.64
X40.005Y22.5
X40.005Y19.96
X40.11Y66.72
X40.11Y64.18
X40.11Y61.64
X42.545Y22.5
X42.545Y19.96
X42.65Y66.72
X42.65Y64.18
X42.65Y61.64
X45.085Y22.5
X45.085Y19.96
X45.19Y66.72
X45.19Y64.18
X45.19Y61.64
X47.625Y22.5
X47.625Y19.96
X47.73Y66.72
X47.73Y64.18
X47.73Y61.64
X50.165Y22.5
X50.165Y19.96
X50.27Y66.72
X50.27Y64.18
X50.27Y61.64
X52.705Y22.5
X52.705Y19.96
X52.81Y66.72
X52.81Y64.18
X52.81Y61.64
X55.245Y22.5
X55.245Y19.96
X55.35Y66.72
X55.35Y64.18
X55.35Y61.64
X57.785Y22.5
X57.785Y19.96
X57.89Y66.72
X57.89Y64.18
X57.89Y61.64
X60.325Y22.5
X60.325Y19.96
X60.43Y66.72
X60.43Y64.18
X60.43Y61.64
X62.865Y22.5
X62.865Y19.96
X62.97Y66.72
X62.97Y64.18
X62.97Y61.64
X65.405Y22.5
X65.405Y19.96
X65.51Y66.72
X65.51Y64.18
X65.51Y61.64
X67.945Y22.5
X67.945Y19.96
X68.05Y66.72
X68.05Y64.18
X68.05Y61.64
X70.485Y22.5
X70.485Y19.96
X70.59Y66.72
X70.59Y64.18
X70.59Y61.64
X73.025Y22.5
X73.025Y19.96
X73.13Y66.72
X73.13Y64.18
X73.13Y61.64
X75.565Y22.5
X75.565Y19.96
X75.67Y66.72
X75.67Y64.18
X75.67Y61.64
X78.105Y22.5
X78.105Y19.96
X78.21Y66.72
X78.21Y64.18
X78.21Y61.64
X80.645Y22.5
X80.645Y19.96
X80.75Y66.72
X80.75Y64.18
X80.75Y61.64
X83.185Y22.5
X83.185Y19.96
X83.29Y66.72
X83.29Y64.18
X83.29Y61.64
X85.725Y22.5
X85.725Y19.96
X85.83Y66.72
X85.83Y64.18
X85.83Y61.64
X88.265Y22.5
X88.265Y19.96
X88.37Y66.72
X88.37Y64.18
X88.37Y61.64
X90.91Y66.72
X90.91Y64.18
X90.91Y61.64
X93.98Y53.34
X93.98Y50.8
X93.98Y48.26
T5
X10.72Y9.235
X10.72Y4.735
X17.22Y9.235
X17.22Y4.735
T6
X5.185Y57.862
X5.185Y53.902
X5.185Y49.942
X5.185Y45.982
X5.185Y42.023
T7
X7.09Y69.26
X95.99Y69.26
T8
X3.0Y3.0
X97.0Y3.0
M30
