G04 #@! TF.GenerationSoftware,KiCad,Pcbnew,10.0.3*
G04 #@! TF.CreationDate,2026-06-09T14:37:22+09:00*
G04 #@! TF.ProjectId,VME_axpvme230_p2,564d455f-6178-4707-966d-653233305f70,0.0*
G04 #@! TF.SameCoordinates,PX4a62f80PY6edd590*
G04 #@! TF.FileFunction,Soldermask,Top*
G04 #@! TF.FilePolarity,Negative*
%FSLAX46Y46*%
G04 Gerber Fmt 4.6, Leading zero omitted, Abs format (unit mm)*
G04 Created by KiCad (PCBNEW 10.0.3) date 2026-06-09 14:37:22*
%MOMM*%
%LPD*%
G01*
G04 APERTURE LIST*
G04 Aperture macros list*
%AMRoundRect*
0 Rectangle with rounded corners*
0 $1 Rounding radius*
0 $2 $3 $4 $5 $6 $7 $8 $9 X,Y pos of 4 corners*
0 Add a 4 corners polygon primitive as box body*
4,1,4,$2,$3,$4,$5,$6,$7,$8,$9,$2,$3,0*
0 Add four circle primitives for the rounded corners*
1,1,$1+$1,$2,$3*
1,1,$1+$1,$4,$5*
1,1,$1+$1,$6,$7*
1,1,$1+$1,$8,$9*
0 Add four rect primitives between the rounded corners*
20,1,$1+$1,$2,$3,$4,$5,0*
20,1,$1+$1,$4,$5,$6,$7,0*
20,1,$1+$1,$6,$7,$8,$9,0*
20,1,$1+$1,$8,$9,$2,$3,0*%
G04 Aperture macros list end*
%ADD10RoundRect,0.250000X-0.600000X0.600000X-0.600000X-0.600000X0.600000X-0.600000X0.600000X0.600000X0*%
%ADD11C,1.700000*%
%ADD12C,1.600000*%
%ADD13C,2.000000*%
%ADD14C,1.200000*%
%ADD15C,3.200000*%
%ADD16RoundRect,0.250001X-1.099999X1.099999X-1.099999X-1.099999X1.099999X-1.099999X1.099999X1.099999X0*%
%ADD17C,2.700000*%
%ADD18R,1.700000X1.700000*%
%ADD19C,2.850000*%
%ADD20RoundRect,0.249999X-0.525001X-0.525001X0.525001X-0.525001X0.525001X0.525001X-0.525001X0.525001X0*%
%ADD21C,1.550000*%
%ADD22RoundRect,0.250000X-0.650000X-0.650000X0.650000X-0.650000X0.650000X0.650000X-0.650000X0.650000X0*%
%ADD23C,1.800000*%
G04 APERTURE END LIST*
D10*
X88265000Y22500000D03*
D11*
X88265000Y19960000D03*
X85725000Y22500000D03*
X85725000Y19960000D03*
X83185000Y22500000D03*
X83185000Y19960000D03*
X80645000Y22500000D03*
X80645000Y19960000D03*
X78105000Y22500000D03*
X78105000Y19960000D03*
X75565000Y22500000D03*
X75565000Y19960000D03*
X73025000Y22500000D03*
X73025000Y19960000D03*
X70485000Y22500000D03*
X70485000Y19960000D03*
X67945000Y22500000D03*
X67945000Y19960000D03*
X65405000Y22500000D03*
X65405000Y19960000D03*
X62865000Y22500000D03*
X62865000Y19960000D03*
X60325000Y22500000D03*
X60325000Y19960000D03*
X57785000Y22500000D03*
X57785000Y19960000D03*
X55245000Y22500000D03*
X55245000Y19960000D03*
X52705000Y22500000D03*
X52705000Y19960000D03*
X50165000Y22500000D03*
X50165000Y19960000D03*
X47625000Y22500000D03*
X47625000Y19960000D03*
X45085000Y22500000D03*
X45085000Y19960000D03*
X42545000Y22500000D03*
X42545000Y19960000D03*
X40005000Y22500000D03*
X40005000Y19960000D03*
X37465000Y22500000D03*
X37465000Y19960000D03*
X34925000Y22500000D03*
X34925000Y19960000D03*
X32385000Y22500000D03*
X32385000Y19960000D03*
X29845000Y22500000D03*
X29845000Y19960000D03*
X27305000Y22500000D03*
X27305000Y19960000D03*
D12*
X22350000Y57195000D03*
X24850000Y57195000D03*
D13*
X17220000Y4735000D03*
X10720000Y4735000D03*
X17220000Y9235000D03*
X10720000Y9235000D03*
D14*
X15750000Y57195000D03*
X17250000Y57195000D03*
D15*
X97000000Y3000000D03*
D16*
X5185000Y57862500D03*
D17*
X5185000Y53902500D03*
X5185000Y49942500D03*
X5185000Y45982500D03*
X5185000Y42022500D03*
D18*
X13335000Y14605000D03*
D11*
X10795000Y14605000D03*
X13335000Y17145000D03*
X10795000Y17145000D03*
X13335000Y19685000D03*
X10795000Y19685000D03*
X13335000Y22225000D03*
X10795000Y22225000D03*
X13335000Y24765000D03*
X10795000Y24765000D03*
X13335000Y27305000D03*
X10795000Y27305000D03*
X13335000Y29845000D03*
X10795000Y29845000D03*
X13335000Y32385000D03*
X10795000Y32385000D03*
X13335000Y34925000D03*
X10795000Y34925000D03*
X13335000Y37465000D03*
X10795000Y37465000D03*
D15*
X3000000Y3000000D03*
D12*
X93980000Y43180000D03*
X93980000Y33020000D03*
D19*
X7090000Y69260000D03*
X95990000Y69260000D03*
D20*
X90910000Y66720000D03*
D21*
X88370000Y66720000D03*
X85830000Y66720000D03*
X83290000Y66720000D03*
X80750000Y66720000D03*
X78210000Y66720000D03*
X75670000Y66720000D03*
X73130000Y66720000D03*
X70590000Y66720000D03*
X68050000Y66720000D03*
X65510000Y66720000D03*
X62970000Y66720000D03*
X60430000Y66720000D03*
X57890000Y66720000D03*
X55350000Y66720000D03*
X52810000Y66720000D03*
X50270000Y66720000D03*
X47730000Y66720000D03*
X45190000Y66720000D03*
X42650000Y66720000D03*
X40110000Y66720000D03*
X37570000Y66720000D03*
X35030000Y66720000D03*
X32490000Y66720000D03*
X29950000Y66720000D03*
X27410000Y66720000D03*
X24870000Y66720000D03*
X22330000Y66720000D03*
X19790000Y66720000D03*
X17250000Y66720000D03*
X14710000Y66720000D03*
X12170000Y66720000D03*
X90910000Y64180000D03*
X88370000Y64180000D03*
X85830000Y64180000D03*
X83290000Y64180000D03*
X80750000Y64180000D03*
X78210000Y64180000D03*
X75670000Y64180000D03*
X73130000Y64180000D03*
X70590000Y64180000D03*
X68050000Y64180000D03*
X65510000Y64180000D03*
X62970000Y64180000D03*
X60430000Y64180000D03*
X57890000Y64180000D03*
X55350000Y64180000D03*
X52810000Y64180000D03*
X50270000Y64180000D03*
X47730000Y64180000D03*
X45190000Y64180000D03*
X42650000Y64180000D03*
X40110000Y64180000D03*
X37570000Y64180000D03*
X35030000Y64180000D03*
X32490000Y64180000D03*
X29950000Y64180000D03*
X27410000Y64180000D03*
X24870000Y64180000D03*
X22330000Y64180000D03*
X19790000Y64180000D03*
X17250000Y64180000D03*
X14710000Y64180000D03*
X12170000Y64180000D03*
X90910000Y61640000D03*
X88370000Y61640000D03*
X85830000Y61640000D03*
X83290000Y61640000D03*
X80750000Y61640000D03*
X78210000Y61640000D03*
X75670000Y61640000D03*
X73130000Y61640000D03*
X70590000Y61640000D03*
X68050000Y61640000D03*
X65510000Y61640000D03*
X62970000Y61640000D03*
X60430000Y61640000D03*
X57890000Y61640000D03*
X55350000Y61640000D03*
X52810000Y61640000D03*
X50270000Y61640000D03*
X47730000Y61640000D03*
X45190000Y61640000D03*
X42650000Y61640000D03*
X40110000Y61640000D03*
X37570000Y61640000D03*
X35030000Y61640000D03*
X32490000Y61640000D03*
X29950000Y61640000D03*
X27410000Y61640000D03*
X24870000Y61640000D03*
X22330000Y61640000D03*
X19790000Y61640000D03*
X17250000Y61640000D03*
X14710000Y61640000D03*
X12170000Y61640000D03*
D22*
X57785000Y10160000D03*
D23*
X67945000Y10160000D03*
D18*
X17140000Y51435000D03*
D11*
X19680000Y51435000D03*
D18*
X93980000Y48260000D03*
D11*
X93980000Y50800000D03*
X93980000Y53340000D03*
M02*
