G04 #@! TF.GenerationSoftware,KiCad,Pcbnew,10.0.3*
G04 #@! TF.CreationDate,2026-06-09T14:37:21+09:00*
G04 #@! TF.ProjectId,VME_axpvme230_p2,564d455f-6178-4707-966d-653233305f70,0.0*
G04 #@! TF.SameCoordinates,PX4a62f80PY6edd590*
G04 #@! TF.FileFunction,Copper,L3,Inr*
G04 #@! TF.FilePolarity,Positive*
%FSLAX46Y46*%
G04 Gerber Fmt 4.6, Leading zero omitted, Abs format (unit mm)*
G04 Created by KiCad (PCBNEW 10.0.3) date 2026-06-09 14:37:21*
%MOMM*%
%LPD*%
G01*
G04 APERTURE LIST*
G04 Aperture macros list*
%AMRoundRect*
0 Rectangle with rounded corners*
0 $1 Rounding radius*
0 $2 $3 $4 $5 $6 $7 $8 $9 X,Y pos of 4 corners*
0 Add a 4 corners polygon primitive as box body*
4,1,4,$2,$3,$4,$5,$6,$7,$8,$9,$2,$3,0*
0 Add four circle primitives for the rounded corners*
1,1,$1+$1,$2,$3*
1,1,$1+$1,$4,$5*
1,1,$1+$1,$6,$7*
1,1,$1+$1,$8,$9*
0 Add four rect primitives between the rounded corners*
20,1,$1+$1,$2,$3,$4,$5,0*
20,1,$1+$1,$4,$5,$6,$7,0*
20,1,$1+$1,$6,$7,$8,$9,0*
20,1,$1+$1,$8,$9,$2,$3,0*%
G04 Aperture macros list end*
G04 #@! TA.AperFunction,ComponentPad*
%ADD10RoundRect,0.250000X-0.600000X0.600000X-0.600000X-0.600000X0.600000X-0.600000X0.600000X0.600000X0*%
G04 #@! TD*
G04 #@! TA.AperFunction,ComponentPad*
%ADD11C,1.700000*%
G04 #@! TD*
G04 #@! TA.AperFunction,ComponentPad*
%ADD12C,1.600000*%
G04 #@! TD*
G04 #@! TA.AperFunction,ComponentPad*
%ADD13C,2.000000*%
G04 #@! TD*
G04 #@! TA.AperFunction,ComponentPad*
%ADD14C,1.200000*%
G04 #@! TD*
G04 #@! TA.AperFunction,ComponentPad*
%ADD15RoundRect,0.250001X-1.099999X1.099999X-1.099999X-1.099999X1.099999X-1.099999X1.099999X1.099999X0*%
G04 #@! TD*
G04 #@! TA.AperFunction,ComponentPad*
%ADD16C,2.700000*%
G04 #@! TD*
G04 #@! TA.AperFunction,ComponentPad*
%ADD17R,1.700000X1.700000*%
G04 #@! TD*
G04 #@! TA.AperFunction,ComponentPad*
%ADD18RoundRect,0.249999X-0.525001X-0.525001X0.525001X-0.525001X0.525001X0.525001X-0.525001X0.525001X0*%
G04 #@! TD*
G04 #@! TA.AperFunction,ComponentPad*
%ADD19C,1.550000*%
G04 #@! TD*
G04 #@! TA.AperFunction,ComponentPad*
%ADD20RoundRect,0.250000X-0.650000X-0.650000X0.650000X-0.650000X0.650000X0.650000X-0.650000X0.650000X0*%
G04 #@! TD*
G04 #@! TA.AperFunction,ComponentPad*
%ADD21C,1.800000*%
G04 #@! TD*
G04 APERTURE END LIST*
D10*
X88265000Y22500000D03*
D11*
X88265000Y19960000D03*
X85725000Y22500000D03*
X85725000Y19960000D03*
X83185000Y22500000D03*
X83185000Y19960000D03*
X80645000Y22500000D03*
X80645000Y19960000D03*
X78105000Y22500000D03*
X78105000Y19960000D03*
X75565000Y22500000D03*
X75565000Y19960000D03*
X73025000Y22500000D03*
X73025000Y19960000D03*
X70485000Y22500000D03*
X70485000Y19960000D03*
X67945000Y22500000D03*
X67945000Y19960000D03*
X65405000Y22500000D03*
X65405000Y19960000D03*
X62865000Y22500000D03*
X62865000Y19960000D03*
X60325000Y22500000D03*
X60325000Y19960000D03*
X57785000Y22500000D03*
X57785000Y19960000D03*
X55245000Y22500000D03*
X55245000Y19960000D03*
X52705000Y22500000D03*
X52705000Y19960000D03*
X50165000Y22500000D03*
X50165000Y19960000D03*
X47625000Y22500000D03*
X47625000Y19960000D03*
X45085000Y22500000D03*
X45085000Y19960000D03*
X42545000Y22500000D03*
X42545000Y19960000D03*
X40005000Y22500000D03*
X40005000Y19960000D03*
X37465000Y22500000D03*
X37465000Y19960000D03*
X34925000Y22500000D03*
X34925000Y19960000D03*
X32385000Y22500000D03*
X32385000Y19960000D03*
X29845000Y22500000D03*
X29845000Y19960000D03*
X27305000Y22500000D03*
X27305000Y19960000D03*
D12*
X22350000Y57195000D03*
X24850000Y57195000D03*
D13*
X17220000Y4735000D03*
X10720000Y4735000D03*
X17220000Y9235000D03*
X10720000Y9235000D03*
D14*
X15750000Y57195000D03*
X17250000Y57195000D03*
D15*
X5185000Y57862500D03*
D16*
X5185000Y53902500D03*
X5185000Y49942500D03*
X5185000Y45982500D03*
X5185000Y42022500D03*
D17*
X13335000Y14605000D03*
D11*
X10795000Y14605000D03*
X13335000Y17145000D03*
X10795000Y17145000D03*
X13335000Y19685000D03*
X10795000Y19685000D03*
X13335000Y22225000D03*
X10795000Y22225000D03*
X13335000Y24765000D03*
X10795000Y24765000D03*
X13335000Y27305000D03*
X10795000Y27305000D03*
X13335000Y29845000D03*
X10795000Y29845000D03*
X13335000Y32385000D03*
X10795000Y32385000D03*
X13335000Y34925000D03*
X10795000Y34925000D03*
X13335000Y37465000D03*
X10795000Y37465000D03*
D12*
X93980000Y43180000D03*
X93980000Y33020000D03*
D18*
X90910000Y66720000D03*
D19*
X88370000Y66720000D03*
X85830000Y66720000D03*
X83290000Y66720000D03*
X80750000Y66720000D03*
X78210000Y66720000D03*
X75670000Y66720000D03*
X73130000Y66720000D03*
X70590000Y66720000D03*
X68050000Y66720000D03*
X65510000Y66720000D03*
X62970000Y66720000D03*
X60430000Y66720000D03*
X57890000Y66720000D03*
X55350000Y66720000D03*
X52810000Y66720000D03*
X50270000Y66720000D03*
X47730000Y66720000D03*
X45190000Y66720000D03*
X42650000Y66720000D03*
X40110000Y66720000D03*
X37570000Y66720000D03*
X35030000Y66720000D03*
X32490000Y66720000D03*
X29950000Y66720000D03*
X27410000Y66720000D03*
X24870000Y66720000D03*
X22330000Y66720000D03*
X19790000Y66720000D03*
X17250000Y66720000D03*
X14710000Y66720000D03*
X12170000Y66720000D03*
X90910000Y64180000D03*
X88370000Y64180000D03*
X85830000Y64180000D03*
X83290000Y64180000D03*
X80750000Y64180000D03*
X78210000Y64180000D03*
X75670000Y64180000D03*
X73130000Y64180000D03*
X70590000Y64180000D03*
X68050000Y64180000D03*
X65510000Y64180000D03*
X62970000Y64180000D03*
X60430000Y64180000D03*
X57890000Y64180000D03*
X55350000Y64180000D03*
X52810000Y64180000D03*
X50270000Y64180000D03*
X47730000Y64180000D03*
X45190000Y64180000D03*
X42650000Y64180000D03*
X40110000Y64180000D03*
X37570000Y64180000D03*
X35030000Y64180000D03*
X32490000Y64180000D03*
X29950000Y64180000D03*
X27410000Y64180000D03*
X24870000Y64180000D03*
X22330000Y64180000D03*
X19790000Y64180000D03*
X17250000Y64180000D03*
X14710000Y64180000D03*
X12170000Y64180000D03*
X90910000Y61640000D03*
X88370000Y61640000D03*
X85830000Y61640000D03*
X83290000Y61640000D03*
X80750000Y61640000D03*
X78210000Y61640000D03*
X75670000Y61640000D03*
X73130000Y61640000D03*
X70590000Y61640000D03*
X68050000Y61640000D03*
X65510000Y61640000D03*
X62970000Y61640000D03*
X60430000Y61640000D03*
X57890000Y61640000D03*
X55350000Y61640000D03*
X52810000Y61640000D03*
X50270000Y61640000D03*
X47730000Y61640000D03*
X45190000Y61640000D03*
X42650000Y61640000D03*
X40110000Y61640000D03*
X37570000Y61640000D03*
X35030000Y61640000D03*
X32490000Y61640000D03*
X29950000Y61640000D03*
X27410000Y61640000D03*
X24870000Y61640000D03*
X22330000Y61640000D03*
X19790000Y61640000D03*
X17250000Y61640000D03*
X14710000Y61640000D03*
X12170000Y61640000D03*
D20*
X57785000Y10160000D03*
D21*
X67945000Y10160000D03*
D17*
X17140000Y51435000D03*
D11*
X19680000Y51435000D03*
D17*
X93980000Y48260000D03*
D11*
X93980000Y50800000D03*
X93980000Y53340000D03*
G04 #@! TA.AperFunction,Conductor*
G36*
X13511445Y63691201D02*
G01*
X13550484Y63646148D01*
X13619095Y63511492D01*
X13737103Y63349068D01*
X13879068Y63207103D01*
X14041492Y63089095D01*
X14154157Y63031690D01*
X14176696Y63020205D01*
X14227492Y62972230D01*
X14244287Y62904409D01*
X14221750Y62838274D01*
X14176697Y62799236D01*
X14041757Y62730480D01*
X14001976Y62701578D01*
X14580591Y62122963D01*
X14517007Y62105925D01*
X14402993Y62040099D01*
X14309901Y61947007D01*
X14244075Y61832993D01*
X14227037Y61769409D01*
X13648422Y62348024D01*
X13619521Y62308245D01*
X13550485Y62172753D01*
X13502510Y62121957D01*
X13434689Y62105162D01*
X13368554Y62127700D01*
X13329515Y62172753D01*
X13260478Y62308246D01*
X13231576Y62348024D01*
X13231576Y62348025D01*
X12652962Y61769410D01*
X12635925Y61832993D01*
X12570099Y61947007D01*
X12477007Y62040099D01*
X12362993Y62105925D01*
X12299409Y62122963D01*
X12878023Y62701577D01*
X12878022Y62701578D01*
X12838246Y62730478D01*
X12703303Y62799235D01*
X12652507Y62847210D01*
X12635712Y62915031D01*
X12658249Y62981166D01*
X12703301Y63020205D01*
X12838508Y63089095D01*
X13000932Y63207103D01*
X13142897Y63349068D01*
X13260905Y63511492D01*
X13329515Y63646148D01*
X13377490Y63696943D01*
X13445311Y63713738D01*
X13511445Y63691201D01*
G37*
G04 #@! TD.AperFunction*
G04 #@! TA.AperFunction,Conductor*
G36*
X18591445Y63691201D02*
G01*
X18630484Y63646148D01*
X18699095Y63511492D01*
X18817103Y63349068D01*
X18959068Y63207103D01*
X19121492Y63089095D01*
X19234157Y63031690D01*
X19256696Y63020205D01*
X19307492Y62972230D01*
X19324287Y62904409D01*
X19301750Y62838274D01*
X19256697Y62799236D01*
X19121757Y62730480D01*
X19081976Y62701578D01*
X19660591Y62122963D01*
X19597007Y62105925D01*
X19482993Y62040099D01*
X19389901Y61947007D01*
X19324075Y61832993D01*
X19307037Y61769409D01*
X18728422Y62348024D01*
X18699520Y62308243D01*
X18630764Y62173303D01*
X18582790Y62122508D01*
X18514969Y62105713D01*
X18448834Y62128251D01*
X18409795Y62173304D01*
X18341038Y62308246D01*
X18340905Y62308508D01*
X18222897Y62470932D01*
X18080932Y62612897D01*
X17918508Y62730905D01*
X17783852Y62799516D01*
X17733057Y62847490D01*
X17716262Y62915311D01*
X17738799Y62981445D01*
X17783853Y63020485D01*
X17918508Y63089095D01*
X18080932Y63207103D01*
X18222897Y63349068D01*
X18340905Y63511492D01*
X18409515Y63646148D01*
X18457490Y63696943D01*
X18525311Y63713738D01*
X18591445Y63691201D01*
G37*
G04 #@! TD.AperFunction*
G04 #@! TA.AperFunction,Conductor*
G36*
X21131445Y63691201D02*
G01*
X21170484Y63646148D01*
X21239095Y63511492D01*
X21357103Y63349068D01*
X21499068Y63207103D01*
X21661492Y63089095D01*
X21774157Y63031690D01*
X21796696Y63020205D01*
X21847492Y62972230D01*
X21864287Y62904409D01*
X21841750Y62838274D01*
X21796697Y62799236D01*
X21661757Y62730480D01*
X21621976Y62701578D01*
X22200591Y62122963D01*
X22137007Y62105925D01*
X22022993Y62040099D01*
X21929901Y61947007D01*
X21864075Y61832993D01*
X21847037Y61769409D01*
X21268422Y62348024D01*
X21239521Y62308245D01*
X21170485Y62172753D01*
X21122510Y62121957D01*
X21054689Y62105162D01*
X20988554Y62127700D01*
X20949515Y62172753D01*
X20880478Y62308246D01*
X20851576Y62348024D01*
X20851576Y62348025D01*
X20272962Y61769410D01*
X20255925Y61832993D01*
X20190099Y61947007D01*
X20097007Y62040099D01*
X19982993Y62105925D01*
X19919409Y62122963D01*
X20498023Y62701577D01*
X20498022Y62701578D01*
X20458246Y62730478D01*
X20323303Y62799235D01*
X20272507Y62847210D01*
X20255712Y62915031D01*
X20278249Y62981166D01*
X20323301Y63020205D01*
X20458508Y63089095D01*
X20620932Y63207103D01*
X20762897Y63349068D01*
X20880905Y63511492D01*
X20949515Y63646148D01*
X20997490Y63696943D01*
X21065311Y63713738D01*
X21131445Y63691201D01*
G37*
G04 #@! TD.AperFunction*
G04 #@! TA.AperFunction,Conductor*
G36*
X59231445Y63691201D02*
G01*
X59270484Y63646148D01*
X59339095Y63511492D01*
X59457103Y63349068D01*
X59599068Y63207103D01*
X59761492Y63089095D01*
X59874157Y63031690D01*
X59896696Y63020205D01*
X59947492Y62972230D01*
X59964287Y62904409D01*
X59941750Y62838274D01*
X59896697Y62799236D01*
X59761757Y62730480D01*
X59721976Y62701578D01*
X60300591Y62122963D01*
X60237007Y62105925D01*
X60122993Y62040099D01*
X60029901Y61947007D01*
X59964075Y61832993D01*
X59947037Y61769409D01*
X59368422Y62348024D01*
X59339520Y62308243D01*
X59270764Y62173303D01*
X59222790Y62122508D01*
X59154969Y62105713D01*
X59088834Y62128251D01*
X59049795Y62173304D01*
X58981038Y62308246D01*
X58980905Y62308508D01*
X58862897Y62470932D01*
X58720932Y62612897D01*
X58558508Y62730905D01*
X58423852Y62799516D01*
X58373057Y62847490D01*
X58356262Y62915311D01*
X58378799Y62981445D01*
X58423853Y63020485D01*
X58558508Y63089095D01*
X58720932Y63207103D01*
X58862897Y63349068D01*
X58980905Y63511492D01*
X59049515Y63646148D01*
X59097490Y63696943D01*
X59165311Y63713738D01*
X59231445Y63691201D01*
G37*
G04 #@! TD.AperFunction*
G04 #@! TA.AperFunction,Conductor*
G36*
X61771445Y63691201D02*
G01*
X61810484Y63646148D01*
X61879095Y63511492D01*
X61997103Y63349068D01*
X62139068Y63207103D01*
X62301492Y63089095D01*
X62414157Y63031690D01*
X62436696Y63020205D01*
X62487492Y62972230D01*
X62504287Y62904409D01*
X62481750Y62838274D01*
X62436697Y62799236D01*
X62301757Y62730480D01*
X62261976Y62701578D01*
X62840591Y62122963D01*
X62777007Y62105925D01*
X62662993Y62040099D01*
X62569901Y61947007D01*
X62504075Y61832993D01*
X62487037Y61769409D01*
X61908422Y62348024D01*
X61879521Y62308245D01*
X61810485Y62172753D01*
X61762510Y62121957D01*
X61694689Y62105162D01*
X61628554Y62127700D01*
X61589515Y62172753D01*
X61520478Y62308246D01*
X61491576Y62348024D01*
X61491576Y62348025D01*
X60912962Y61769410D01*
X60895925Y61832993D01*
X60830099Y61947007D01*
X60737007Y62040099D01*
X60622993Y62105925D01*
X60559409Y62122963D01*
X61138023Y62701577D01*
X61138022Y62701578D01*
X61098246Y62730478D01*
X60963303Y62799235D01*
X60912507Y62847210D01*
X60895712Y62915031D01*
X60918249Y62981166D01*
X60963301Y63020205D01*
X61098508Y63089095D01*
X61260932Y63207103D01*
X61402897Y63349068D01*
X61520905Y63511492D01*
X61589515Y63646148D01*
X61637490Y63696943D01*
X61705311Y63713738D01*
X61771445Y63691201D01*
G37*
G04 #@! TD.AperFunction*
G04 #@! TA.AperFunction,Conductor*
G36*
X77011445Y63691201D02*
G01*
X77050484Y63646148D01*
X77119095Y63511492D01*
X77237103Y63349068D01*
X77379068Y63207103D01*
X77541492Y63089095D01*
X77654157Y63031690D01*
X77676696Y63020205D01*
X77727492Y62972230D01*
X77744287Y62904409D01*
X77721750Y62838274D01*
X77676697Y62799236D01*
X77541757Y62730480D01*
X77501976Y62701578D01*
X78080591Y62122963D01*
X78017007Y62105925D01*
X77902993Y62040099D01*
X77809901Y61947007D01*
X77744075Y61832993D01*
X77727037Y61769409D01*
X77148422Y62348024D01*
X77119520Y62308243D01*
X77050764Y62173303D01*
X77002790Y62122508D01*
X76934969Y62105713D01*
X76868834Y62128251D01*
X76829795Y62173304D01*
X76761038Y62308246D01*
X76760905Y62308508D01*
X76642897Y62470932D01*
X76500932Y62612897D01*
X76338508Y62730905D01*
X76203852Y62799516D01*
X76153057Y62847490D01*
X76136262Y62915311D01*
X76158799Y62981445D01*
X76203853Y63020485D01*
X76338508Y63089095D01*
X76500932Y63207103D01*
X76642897Y63349068D01*
X76760905Y63511492D01*
X76829515Y63646148D01*
X76877490Y63696943D01*
X76945311Y63713738D01*
X77011445Y63691201D01*
G37*
G04 #@! TD.AperFunction*
G04 #@! TA.AperFunction,Conductor*
G36*
X79551445Y63691201D02*
G01*
X79590484Y63646148D01*
X79659095Y63511492D01*
X79777103Y63349068D01*
X79919068Y63207103D01*
X80081492Y63089095D01*
X80194157Y63031690D01*
X80216696Y63020205D01*
X80267492Y62972230D01*
X80284287Y62904409D01*
X80261750Y62838274D01*
X80216697Y62799236D01*
X80081757Y62730480D01*
X80041976Y62701578D01*
X80620591Y62122963D01*
X80557007Y62105925D01*
X80442993Y62040099D01*
X80349901Y61947007D01*
X80284075Y61832993D01*
X80267037Y61769409D01*
X79688422Y62348024D01*
X79659521Y62308245D01*
X79590485Y62172753D01*
X79542510Y62121957D01*
X79474689Y62105162D01*
X79408554Y62127700D01*
X79369515Y62172753D01*
X79300478Y62308246D01*
X79271576Y62348024D01*
X79271576Y62348025D01*
X78692962Y61769410D01*
X78675925Y61832993D01*
X78610099Y61947007D01*
X78517007Y62040099D01*
X78402993Y62105925D01*
X78339409Y62122963D01*
X78918023Y62701577D01*
X78918022Y62701578D01*
X78878246Y62730478D01*
X78743303Y62799235D01*
X78692507Y62847210D01*
X78675712Y62915031D01*
X78698249Y62981166D01*
X78743301Y63020205D01*
X78878508Y63089095D01*
X79040932Y63207103D01*
X79182897Y63349068D01*
X79300905Y63511492D01*
X79369515Y63646148D01*
X79417490Y63696943D01*
X79485311Y63713738D01*
X79551445Y63691201D01*
G37*
G04 #@! TD.AperFunction*
G04 #@! TA.AperFunction,Conductor*
G36*
X87171445Y63691201D02*
G01*
X87210484Y63646148D01*
X87279095Y63511492D01*
X87397103Y63349068D01*
X87539068Y63207103D01*
X87701492Y63089095D01*
X87814157Y63031690D01*
X87836696Y63020205D01*
X87887492Y62972230D01*
X87904287Y62904409D01*
X87881750Y62838274D01*
X87836697Y62799236D01*
X87701757Y62730480D01*
X87661976Y62701578D01*
X88240591Y62122963D01*
X88177007Y62105925D01*
X88062993Y62040099D01*
X87969901Y61947007D01*
X87904075Y61832993D01*
X87887037Y61769409D01*
X87308422Y62348024D01*
X87279520Y62308243D01*
X87210764Y62173303D01*
X87162790Y62122508D01*
X87094969Y62105713D01*
X87028834Y62128251D01*
X86989795Y62173304D01*
X86921038Y62308246D01*
X86920905Y62308508D01*
X86802897Y62470932D01*
X86660932Y62612897D01*
X86498508Y62730905D01*
X86363852Y62799516D01*
X86313057Y62847490D01*
X86296262Y62915311D01*
X86318799Y62981445D01*
X86363853Y63020485D01*
X86498508Y63089095D01*
X86660932Y63207103D01*
X86802897Y63349068D01*
X86920905Y63511492D01*
X86989515Y63646148D01*
X87037490Y63696943D01*
X87105311Y63713738D01*
X87171445Y63691201D01*
G37*
G04 #@! TD.AperFunction*
G04 #@! TA.AperFunction,Conductor*
G36*
X89711445Y63691201D02*
G01*
X89750484Y63646148D01*
X89819095Y63511492D01*
X89937103Y63349068D01*
X90079068Y63207103D01*
X90241492Y63089095D01*
X90354157Y63031690D01*
X90376696Y63020205D01*
X90427492Y62972230D01*
X90444287Y62904409D01*
X90421750Y62838274D01*
X90376697Y62799236D01*
X90241757Y62730480D01*
X90201976Y62701578D01*
X90780591Y62122963D01*
X90717007Y62105925D01*
X90602993Y62040099D01*
X90509901Y61947007D01*
X90444075Y61832993D01*
X90427037Y61769409D01*
X89848422Y62348024D01*
X89819521Y62308245D01*
X89750485Y62172753D01*
X89702510Y62121957D01*
X89634689Y62105162D01*
X89568554Y62127700D01*
X89529515Y62172753D01*
X89460478Y62308246D01*
X89431576Y62348024D01*
X89431576Y62348025D01*
X88852962Y61769410D01*
X88835925Y61832993D01*
X88770099Y61947007D01*
X88677007Y62040099D01*
X88562993Y62105925D01*
X88499409Y62122963D01*
X89078023Y62701577D01*
X89078022Y62701578D01*
X89038246Y62730478D01*
X88903303Y62799235D01*
X88852507Y62847210D01*
X88835712Y62915031D01*
X88858249Y62981166D01*
X88903301Y63020205D01*
X89038508Y63089095D01*
X89200932Y63207103D01*
X89342897Y63349068D01*
X89460905Y63511492D01*
X89529515Y63646148D01*
X89577490Y63696943D01*
X89645311Y63713738D01*
X89711445Y63691201D01*
G37*
G04 #@! TD.AperFunction*
G04 #@! TA.AperFunction,Conductor*
G36*
X16051445Y63691201D02*
G01*
X16090484Y63646148D01*
X16159095Y63511492D01*
X16277103Y63349068D01*
X16419068Y63207103D01*
X16581492Y63089095D01*
X16661285Y63048439D01*
X16716146Y63020485D01*
X16766942Y62972510D01*
X16783737Y62904689D01*
X16761199Y62838554D01*
X16716146Y62799515D01*
X16581491Y62730905D01*
X16541125Y62701577D01*
X16419068Y62612897D01*
X16419066Y62612895D01*
X16419065Y62612895D01*
X16277105Y62470935D01*
X16277105Y62470934D01*
X16277103Y62470932D01*
X16241649Y62422135D01*
X16159093Y62308507D01*
X16090203Y62173303D01*
X16042229Y62122508D01*
X15974408Y62105713D01*
X15908273Y62128251D01*
X15869234Y62173304D01*
X15800478Y62308246D01*
X15771576Y62348024D01*
X15771576Y62348025D01*
X15192962Y61769410D01*
X15175925Y61832993D01*
X15110099Y61947007D01*
X15017007Y62040099D01*
X14902993Y62105925D01*
X14839409Y62122963D01*
X15418023Y62701577D01*
X15418022Y62701578D01*
X15378246Y62730478D01*
X15243303Y62799235D01*
X15192507Y62847210D01*
X15175712Y62915031D01*
X15198249Y62981166D01*
X15243301Y63020205D01*
X15378508Y63089095D01*
X15540932Y63207103D01*
X15682897Y63349068D01*
X15800905Y63511492D01*
X15869515Y63646148D01*
X15917490Y63696943D01*
X15985311Y63713738D01*
X16051445Y63691201D01*
G37*
G04 #@! TD.AperFunction*
G04 #@! TA.AperFunction,Conductor*
G36*
X23671445Y63691201D02*
G01*
X23710484Y63646148D01*
X23779095Y63511492D01*
X23897103Y63349068D01*
X24039068Y63207103D01*
X24201492Y63089095D01*
X24281285Y63048439D01*
X24336146Y63020485D01*
X24386942Y62972510D01*
X24403737Y62904689D01*
X24381199Y62838554D01*
X24336146Y62799515D01*
X24201491Y62730905D01*
X24161125Y62701577D01*
X24039068Y62612897D01*
X24039066Y62612895D01*
X24039065Y62612895D01*
X23897105Y62470935D01*
X23897105Y62470934D01*
X23897103Y62470932D01*
X23861649Y62422135D01*
X23779093Y62308507D01*
X23710203Y62173303D01*
X23662229Y62122508D01*
X23594408Y62105713D01*
X23528273Y62128251D01*
X23489234Y62173304D01*
X23420478Y62308246D01*
X23391576Y62348024D01*
X23391576Y62348025D01*
X22812962Y61769410D01*
X22795925Y61832993D01*
X22730099Y61947007D01*
X22637007Y62040099D01*
X22522993Y62105925D01*
X22459409Y62122963D01*
X23038023Y62701577D01*
X23038022Y62701578D01*
X22998246Y62730478D01*
X22863303Y62799235D01*
X22812507Y62847210D01*
X22795712Y62915031D01*
X22818249Y62981166D01*
X22863301Y63020205D01*
X22998508Y63089095D01*
X23160932Y63207103D01*
X23302897Y63349068D01*
X23420905Y63511492D01*
X23489515Y63646148D01*
X23537490Y63696943D01*
X23605311Y63713738D01*
X23671445Y63691201D01*
G37*
G04 #@! TD.AperFunction*
G04 #@! TA.AperFunction,Conductor*
G36*
X64311445Y63691201D02*
G01*
X64350484Y63646148D01*
X64419095Y63511492D01*
X64537103Y63349068D01*
X64679068Y63207103D01*
X64841492Y63089095D01*
X64921285Y63048439D01*
X64976146Y63020485D01*
X65026942Y62972510D01*
X65043737Y62904689D01*
X65021199Y62838554D01*
X64976146Y62799515D01*
X64841491Y62730905D01*
X64801125Y62701577D01*
X64679068Y62612897D01*
X64679066Y62612895D01*
X64679065Y62612895D01*
X64537105Y62470935D01*
X64537105Y62470934D01*
X64537103Y62470932D01*
X64501649Y62422135D01*
X64419093Y62308507D01*
X64350203Y62173303D01*
X64302229Y62122508D01*
X64234408Y62105713D01*
X64168273Y62128251D01*
X64129234Y62173304D01*
X64060478Y62308246D01*
X64031576Y62348024D01*
X64031576Y62348025D01*
X63452962Y61769410D01*
X63435925Y61832993D01*
X63370099Y61947007D01*
X63277007Y62040099D01*
X63162993Y62105925D01*
X63099409Y62122963D01*
X63678023Y62701577D01*
X63678022Y62701578D01*
X63638246Y62730478D01*
X63503303Y62799235D01*
X63452507Y62847210D01*
X63435712Y62915031D01*
X63458249Y62981166D01*
X63503301Y63020205D01*
X63638508Y63089095D01*
X63800932Y63207103D01*
X63942897Y63349068D01*
X64060905Y63511492D01*
X64129515Y63646148D01*
X64177490Y63696943D01*
X64245311Y63713738D01*
X64311445Y63691201D01*
G37*
G04 #@! TD.AperFunction*
G04 #@! TA.AperFunction,Conductor*
G36*
X82091445Y63691201D02*
G01*
X82130484Y63646148D01*
X82199095Y63511492D01*
X82317103Y63349068D01*
X82459068Y63207103D01*
X82621492Y63089095D01*
X82701285Y63048439D01*
X82756146Y63020485D01*
X82806942Y62972510D01*
X82823737Y62904689D01*
X82801199Y62838554D01*
X82756146Y62799515D01*
X82621491Y62730905D01*
X82581125Y62701577D01*
X82459068Y62612897D01*
X82459066Y62612895D01*
X82459065Y62612895D01*
X82317105Y62470935D01*
X82317105Y62470934D01*
X82317103Y62470932D01*
X82281649Y62422135D01*
X82199093Y62308507D01*
X82130203Y62173303D01*
X82082229Y62122508D01*
X82014408Y62105713D01*
X81948273Y62128251D01*
X81909234Y62173304D01*
X81840478Y62308246D01*
X81811576Y62348024D01*
X81811576Y62348025D01*
X81232962Y61769410D01*
X81215925Y61832993D01*
X81150099Y61947007D01*
X81057007Y62040099D01*
X80942993Y62105925D01*
X80879409Y62122963D01*
X81458023Y62701577D01*
X81458022Y62701578D01*
X81418246Y62730478D01*
X81283303Y62799235D01*
X81232507Y62847210D01*
X81215712Y62915031D01*
X81238249Y62981166D01*
X81283301Y63020205D01*
X81418508Y63089095D01*
X81580932Y63207103D01*
X81722897Y63349068D01*
X81840905Y63511492D01*
X81909515Y63646148D01*
X81957490Y63696943D01*
X82025311Y63713738D01*
X82091445Y63691201D01*
G37*
G04 #@! TD.AperFunction*
G04 #@! TA.AperFunction,Conductor*
G36*
X14244075Y66527007D02*
G01*
X14309901Y66412993D01*
X14402993Y66319901D01*
X14517007Y66254075D01*
X14580590Y66237038D01*
X14001975Y65658424D01*
X14041754Y65629522D01*
X14176696Y65560766D01*
X14227492Y65512792D01*
X14244287Y65444971D01*
X14221750Y65378836D01*
X14176697Y65339797D01*
X14041493Y65270907D01*
X13927865Y65188351D01*
X13879068Y65152897D01*
X13879066Y65152895D01*
X13879065Y65152895D01*
X13737105Y65010935D01*
X13737105Y65010934D01*
X13737103Y65010932D01*
X13686423Y64941178D01*
X13619095Y64848509D01*
X13550485Y64713854D01*
X13502510Y64663058D01*
X13434689Y64646263D01*
X13368554Y64668801D01*
X13329515Y64713854D01*
X13260904Y64848509D01*
X13142897Y65010932D01*
X13000932Y65152897D01*
X12838508Y65270905D01*
X12838504Y65270907D01*
X12703303Y65339796D01*
X12652507Y65387771D01*
X12635712Y65455592D01*
X12658250Y65521727D01*
X12703304Y65560766D01*
X12838243Y65629521D01*
X12838245Y65629522D01*
X12878022Y65658424D01*
X12299408Y66237038D01*
X12362993Y66254075D01*
X12477007Y66319901D01*
X12570099Y66412993D01*
X12635925Y66527007D01*
X12652962Y66590592D01*
X13231576Y66011978D01*
X13260477Y66051753D01*
X13329515Y66187248D01*
X13377489Y66238044D01*
X13445310Y66254839D01*
X13511445Y66232302D01*
X13550485Y66187248D01*
X13619522Y66051754D01*
X13648422Y66011978D01*
X13648423Y66011977D01*
X14227037Y66590592D01*
X14244075Y66527007D01*
G37*
G04 #@! TD.AperFunction*
G04 #@! TA.AperFunction,Conductor*
G36*
X15771576Y66011978D02*
G01*
X15800478Y66051755D01*
X15800479Y66051757D01*
X15869234Y66186696D01*
X15917208Y66237493D01*
X15985029Y66254288D01*
X16051164Y66231751D01*
X16090204Y66186697D01*
X16157786Y66054062D01*
X16159095Y66051492D01*
X16277103Y65889068D01*
X16419068Y65747103D01*
X16581492Y65629095D01*
X16634100Y65602290D01*
X16716146Y65560485D01*
X16766942Y65512510D01*
X16783737Y65444689D01*
X16761199Y65378554D01*
X16716146Y65339515D01*
X16581491Y65270905D01*
X16488822Y65203577D01*
X16419068Y65152897D01*
X16419066Y65152895D01*
X16419065Y65152895D01*
X16277105Y65010935D01*
X16277105Y65010934D01*
X16277103Y65010932D01*
X16226423Y64941178D01*
X16159095Y64848509D01*
X16090485Y64713854D01*
X16042510Y64663058D01*
X15974689Y64646263D01*
X15908554Y64668801D01*
X15869515Y64713854D01*
X15800904Y64848509D01*
X15682897Y65010932D01*
X15540932Y65152897D01*
X15378508Y65270905D01*
X15378504Y65270907D01*
X15243303Y65339796D01*
X15192507Y65387771D01*
X15175712Y65455592D01*
X15198250Y65521727D01*
X15243304Y65560766D01*
X15378243Y65629521D01*
X15378245Y65629522D01*
X15418022Y65658424D01*
X14839408Y66237038D01*
X14902993Y66254075D01*
X15017007Y66319901D01*
X15110099Y66412993D01*
X15175925Y66527007D01*
X15192962Y66590592D01*
X15771576Y66011978D01*
G37*
G04 #@! TD.AperFunction*
G04 #@! TA.AperFunction,Conductor*
G36*
X24404075Y66527007D02*
G01*
X24469901Y66412993D01*
X24562993Y66319901D01*
X24677007Y66254075D01*
X24740590Y66237038D01*
X24161975Y65658424D01*
X24201754Y65629522D01*
X24336696Y65560766D01*
X24387492Y65512792D01*
X24404287Y65444971D01*
X24381750Y65378836D01*
X24336697Y65339797D01*
X24201493Y65270907D01*
X24087865Y65188351D01*
X24039068Y65152897D01*
X24039066Y65152895D01*
X24039065Y65152895D01*
X23897105Y65010935D01*
X23897105Y65010934D01*
X23897103Y65010932D01*
X23846423Y64941178D01*
X23779095Y64848509D01*
X23710485Y64713854D01*
X23662510Y64663058D01*
X23594689Y64646263D01*
X23528554Y64668801D01*
X23489515Y64713854D01*
X23420904Y64848509D01*
X23302897Y65010932D01*
X23160932Y65152897D01*
X22998508Y65270905D01*
X22863852Y65339516D01*
X22813057Y65387490D01*
X22796262Y65455311D01*
X22818799Y65521445D01*
X22863853Y65560485D01*
X22998508Y65629095D01*
X23160932Y65747103D01*
X23302897Y65889068D01*
X23420905Y66051492D01*
X23489795Y66186698D01*
X23537769Y66237493D01*
X23605590Y66254288D01*
X23671725Y66231751D01*
X23710765Y66186697D01*
X23779522Y66051754D01*
X23808422Y66011978D01*
X23808423Y66011977D01*
X24387037Y66590592D01*
X24404075Y66527007D01*
G37*
G04 #@! TD.AperFunction*
G04 #@! TA.AperFunction,Conductor*
G36*
X26944075Y66527007D02*
G01*
X27009901Y66412993D01*
X27102993Y66319901D01*
X27217007Y66254075D01*
X27280590Y66237038D01*
X26701975Y65658424D01*
X26741754Y65629522D01*
X26876696Y65560766D01*
X26927492Y65512792D01*
X26944287Y65444971D01*
X26921750Y65378836D01*
X26876697Y65339797D01*
X26741493Y65270907D01*
X26627865Y65188351D01*
X26579068Y65152897D01*
X26579066Y65152895D01*
X26579065Y65152895D01*
X26437105Y65010935D01*
X26437105Y65010934D01*
X26437103Y65010932D01*
X26386423Y64941178D01*
X26319095Y64848509D01*
X26250485Y64713854D01*
X26202510Y64663058D01*
X26134689Y64646263D01*
X26068554Y64668801D01*
X26029515Y64713854D01*
X25960904Y64848509D01*
X25842897Y65010932D01*
X25700932Y65152897D01*
X25538508Y65270905D01*
X25538504Y65270907D01*
X25403303Y65339796D01*
X25352507Y65387771D01*
X25335712Y65455592D01*
X25358250Y65521727D01*
X25403304Y65560766D01*
X25538243Y65629521D01*
X25538245Y65629522D01*
X25578022Y65658424D01*
X24999408Y66237038D01*
X25062993Y66254075D01*
X25177007Y66319901D01*
X25270099Y66412993D01*
X25335925Y66527007D01*
X25352962Y66590592D01*
X25931576Y66011978D01*
X25960477Y66051753D01*
X26029515Y66187248D01*
X26077489Y66238044D01*
X26145310Y66254839D01*
X26211445Y66232302D01*
X26250485Y66187248D01*
X26319522Y66051754D01*
X26348422Y66011978D01*
X26348423Y66011977D01*
X26927037Y66590592D01*
X26944075Y66527007D01*
G37*
G04 #@! TD.AperFunction*
G04 #@! TA.AperFunction,Conductor*
G36*
X29484075Y66527007D02*
G01*
X29549901Y66412993D01*
X29642993Y66319901D01*
X29757007Y66254075D01*
X29820590Y66237038D01*
X29241975Y65658424D01*
X29281754Y65629522D01*
X29416696Y65560766D01*
X29467492Y65512792D01*
X29484287Y65444971D01*
X29461750Y65378836D01*
X29416697Y65339797D01*
X29281493Y65270907D01*
X29167865Y65188351D01*
X29119068Y65152897D01*
X29119066Y65152895D01*
X29119065Y65152895D01*
X28977105Y65010935D01*
X28977105Y65010934D01*
X28977103Y65010932D01*
X28926423Y64941178D01*
X28859095Y64848509D01*
X28790485Y64713854D01*
X28742510Y64663058D01*
X28674689Y64646263D01*
X28608554Y64668801D01*
X28569515Y64713854D01*
X28500904Y64848509D01*
X28382897Y65010932D01*
X28240932Y65152897D01*
X28078508Y65270905D01*
X28078504Y65270907D01*
X27943303Y65339796D01*
X27892507Y65387771D01*
X27875712Y65455592D01*
X27898250Y65521727D01*
X27943304Y65560766D01*
X28078243Y65629521D01*
X28078245Y65629522D01*
X28118022Y65658424D01*
X27539408Y66237038D01*
X27602993Y66254075D01*
X27717007Y66319901D01*
X27810099Y66412993D01*
X27875925Y66527007D01*
X27892962Y66590592D01*
X28471576Y66011978D01*
X28500477Y66051753D01*
X28569515Y66187248D01*
X28617489Y66238044D01*
X28685310Y66254839D01*
X28751445Y66232302D01*
X28790485Y66187248D01*
X28859522Y66051754D01*
X28888422Y66011978D01*
X28888423Y66011977D01*
X29467037Y66590592D01*
X29484075Y66527007D01*
G37*
G04 #@! TD.AperFunction*
G04 #@! TA.AperFunction,Conductor*
G36*
X32024075Y66527007D02*
G01*
X32089901Y66412993D01*
X32182993Y66319901D01*
X32297007Y66254075D01*
X32360590Y66237038D01*
X31781975Y65658424D01*
X31821754Y65629522D01*
X31956696Y65560766D01*
X32007492Y65512792D01*
X32024287Y65444971D01*
X32001750Y65378836D01*
X31956697Y65339797D01*
X31821493Y65270907D01*
X31707865Y65188351D01*
X31659068Y65152897D01*
X31659066Y65152895D01*
X31659065Y65152895D01*
X31517105Y65010935D01*
X31517105Y65010934D01*
X31517103Y65010932D01*
X31466423Y64941178D01*
X31399095Y64848509D01*
X31330485Y64713854D01*
X31282510Y64663058D01*
X31214689Y64646263D01*
X31148554Y64668801D01*
X31109515Y64713854D01*
X31040904Y64848509D01*
X30922897Y65010932D01*
X30780932Y65152897D01*
X30618508Y65270905D01*
X30618504Y65270907D01*
X30483303Y65339796D01*
X30432507Y65387771D01*
X30415712Y65455592D01*
X30438250Y65521727D01*
X30483304Y65560766D01*
X30618243Y65629521D01*
X30618245Y65629522D01*
X30658022Y65658424D01*
X30079408Y66237038D01*
X30142993Y66254075D01*
X30257007Y66319901D01*
X30350099Y66412993D01*
X30415925Y66527007D01*
X30432962Y66590592D01*
X31011576Y66011978D01*
X31040477Y66051753D01*
X31109515Y66187248D01*
X31157489Y66238044D01*
X31225310Y66254839D01*
X31291445Y66232302D01*
X31330485Y66187248D01*
X31399522Y66051754D01*
X31428422Y66011978D01*
X31428423Y66011977D01*
X32007037Y66590592D01*
X32024075Y66527007D01*
G37*
G04 #@! TD.AperFunction*
G04 #@! TA.AperFunction,Conductor*
G36*
X33551576Y66011978D02*
G01*
X33580478Y66051755D01*
X33580479Y66051757D01*
X33649234Y66186696D01*
X33697208Y66237493D01*
X33765029Y66254288D01*
X33831164Y66231751D01*
X33870204Y66186697D01*
X33937786Y66054062D01*
X33939095Y66051492D01*
X34057103Y65889068D01*
X34199068Y65747103D01*
X34361492Y65629095D01*
X34414100Y65602290D01*
X34496146Y65560485D01*
X34546942Y65512510D01*
X34563737Y65444689D01*
X34541199Y65378554D01*
X34496146Y65339515D01*
X34361491Y65270905D01*
X34268822Y65203577D01*
X34199068Y65152897D01*
X34199066Y65152895D01*
X34199065Y65152895D01*
X34057105Y65010935D01*
X34057105Y65010934D01*
X34057103Y65010932D01*
X34006423Y64941178D01*
X33939095Y64848509D01*
X33870485Y64713854D01*
X33822510Y64663058D01*
X33754689Y64646263D01*
X33688554Y64668801D01*
X33649515Y64713854D01*
X33580904Y64848509D01*
X33462897Y65010932D01*
X33320932Y65152897D01*
X33158508Y65270905D01*
X33158504Y65270907D01*
X33023303Y65339796D01*
X32972507Y65387771D01*
X32955712Y65455592D01*
X32978250Y65521727D01*
X33023304Y65560766D01*
X33158243Y65629521D01*
X33158245Y65629522D01*
X33198022Y65658424D01*
X32619408Y66237038D01*
X32682993Y66254075D01*
X32797007Y66319901D01*
X32890099Y66412993D01*
X32955925Y66527007D01*
X32972962Y66590592D01*
X33551576Y66011978D01*
G37*
G04 #@! TD.AperFunction*
G04 #@! TA.AperFunction,Conductor*
G36*
X99443039Y71480315D02*
G01*
X99488794Y71427511D01*
X99500000Y71376000D01*
X99500000Y624000D01*
X99480315Y556961D01*
X99427511Y511206D01*
X99376000Y500000D01*
X624000Y500000D01*
X556961Y519685D01*
X511206Y572489D01*
X500000Y624000D01*
X500000Y3124559D01*
X1099500Y3124559D01*
X1099500Y2875442D01*
X1099501Y2875425D01*
X1132017Y2628439D01*
X1196498Y2387793D01*
X1291830Y2157639D01*
X1291837Y2157624D01*
X1416400Y1941874D01*
X1568060Y1744226D01*
X1568066Y1744219D01*
X1744218Y1568067D01*
X1744225Y1568061D01*
X1941873Y1416401D01*
X2157623Y1291838D01*
X2157638Y1291831D01*
X2256825Y1250747D01*
X2387793Y1196498D01*
X2628435Y1132018D01*
X2875435Y1099500D01*
X2875442Y1099500D01*
X3124558Y1099500D01*
X3124565Y1099500D01*
X3371565Y1132018D01*
X3612207Y1196498D01*
X3842373Y1291836D01*
X4058127Y1416401D01*
X4255776Y1568062D01*
X4431938Y1744224D01*
X4583599Y1941873D01*
X4708164Y2157627D01*
X4803502Y2387793D01*
X4867982Y2628435D01*
X4900500Y2875435D01*
X4900500Y3124559D01*
X95099500Y3124559D01*
X95099500Y2875442D01*
X95099501Y2875425D01*
X95132017Y2628439D01*
X95196498Y2387793D01*
X95291830Y2157639D01*
X95291837Y2157624D01*
X95416400Y1941874D01*
X95568060Y1744226D01*
X95568066Y1744219D01*
X95744218Y1568067D01*
X95744225Y1568061D01*
X95941873Y1416401D01*
X96157623Y1291838D01*
X96157638Y1291831D01*
X96256825Y1250747D01*
X96387793Y1196498D01*
X96628435Y1132018D01*
X96875435Y1099500D01*
X96875442Y1099500D01*
X97124558Y1099500D01*
X97124565Y1099500D01*
X97371565Y1132018D01*
X97612207Y1196498D01*
X97842373Y1291836D01*
X98058127Y1416401D01*
X98255776Y1568062D01*
X98431938Y1744224D01*
X98583599Y1941873D01*
X98708164Y2157627D01*
X98803502Y2387793D01*
X98867982Y2628435D01*
X98900500Y2875435D01*
X98900500Y3124565D01*
X98867982Y3371565D01*
X98803502Y3612207D01*
X98708164Y3842373D01*
X98583599Y4058127D01*
X98506194Y4159004D01*
X98431939Y4255775D01*
X98431933Y4255782D01*
X98255781Y4431934D01*
X98255774Y4431940D01*
X98058126Y4583600D01*
X97842376Y4708163D01*
X97842361Y4708170D01*
X97612207Y4803502D01*
X97427135Y4853092D01*
X97371565Y4867982D01*
X97371564Y4867983D01*
X97371561Y4867983D01*
X97124575Y4900499D01*
X97124570Y4900500D01*
X97124565Y4900500D01*
X96875435Y4900500D01*
X96875429Y4900500D01*
X96875424Y4900499D01*
X96628438Y4867983D01*
X96387792Y4803502D01*
X96157638Y4708170D01*
X96157623Y4708163D01*
X95941873Y4583600D01*
X95744225Y4431940D01*
X95744218Y4431934D01*
X95568066Y4255782D01*
X95568060Y4255775D01*
X95416400Y4058127D01*
X95291837Y3842377D01*
X95291830Y3842362D01*
X95196498Y3612208D01*
X95132017Y3371562D01*
X95099501Y3124576D01*
X95099500Y3124559D01*
X4900500Y3124559D01*
X4900500Y3124565D01*
X4867982Y3371565D01*
X4803502Y3612207D01*
X4708164Y3842373D01*
X4583599Y4058127D01*
X4506194Y4159004D01*
X4431939Y4255775D01*
X4431933Y4255782D01*
X4255781Y4431934D01*
X4255774Y4431940D01*
X4058126Y4583600D01*
X3842376Y4708163D01*
X3842361Y4708170D01*
X3757299Y4743403D01*
X3612207Y4803502D01*
X3427135Y4853092D01*
X3427113Y4853098D01*
X9219500Y4853098D01*
X9219500Y4616903D01*
X9256446Y4383632D01*
X9329433Y4159004D01*
X9380833Y4058127D01*
X9436657Y3948567D01*
X9575483Y3757490D01*
X9742490Y3590483D01*
X9933567Y3451657D01*
X10032991Y3400998D01*
X10144003Y3344434D01*
X10144005Y3344434D01*
X10144008Y3344432D01*
X10264412Y3305311D01*
X10368631Y3271447D01*
X10601903Y3234500D01*
X10601908Y3234500D01*
X10838097Y3234500D01*
X11071368Y3271447D01*
X11295992Y3344432D01*
X11506433Y3451657D01*
X11697510Y3590483D01*
X11864517Y3757490D01*
X12003343Y3948567D01*
X12110568Y4159008D01*
X12183553Y4383632D01*
X12191204Y4431940D01*
X12220500Y4616903D01*
X12220500Y4853098D01*
X15719500Y4853098D01*
X15719500Y4616903D01*
X15756446Y4383632D01*
X15829433Y4159004D01*
X15880833Y4058127D01*
X15936657Y3948567D01*
X16075483Y3757490D01*
X16242490Y3590483D01*
X16433567Y3451657D01*
X16532991Y3400998D01*
X16644003Y3344434D01*
X16644005Y3344434D01*
X16644008Y3344432D01*
X16764412Y3305311D01*
X16868631Y3271447D01*
X17101903Y3234500D01*
X17101908Y3234500D01*
X17338097Y3234500D01*
X17442886Y3251097D01*
X17571368Y3271447D01*
X17795992Y3344432D01*
X18006433Y3451657D01*
X18197510Y3590483D01*
X18364517Y3757490D01*
X18503343Y3948567D01*
X18610568Y4159008D01*
X18683553Y4383632D01*
X18691204Y4431940D01*
X18720500Y4616903D01*
X18720500Y4853098D01*
X18683553Y5086369D01*
X18610566Y5310997D01*
X18503342Y5521434D01*
X18364517Y5712510D01*
X18197510Y5879517D01*
X18006433Y6018343D01*
X17795996Y6125567D01*
X17571368Y6198554D01*
X17338097Y6235500D01*
X17338092Y6235500D01*
X17101908Y6235500D01*
X17101903Y6235500D01*
X16868631Y6198554D01*
X16644003Y6125567D01*
X16433566Y6018343D01*
X16324550Y5939138D01*
X16242490Y5879517D01*
X16242488Y5879515D01*
X16242487Y5879515D01*
X16075485Y5712513D01*
X16075485Y5712512D01*
X16075483Y5712510D01*
X16015862Y5630450D01*
X15936657Y5521434D01*
X15829433Y5310997D01*
X15756446Y5086369D01*
X15719500Y4853098D01*
X12220500Y4853098D01*
X12183553Y5086369D01*
X12110566Y5310997D01*
X12003342Y5521434D01*
X11864517Y5712510D01*
X11697510Y5879517D01*
X11506433Y6018343D01*
X11295996Y6125567D01*
X11071368Y6198554D01*
X10838097Y6235500D01*
X10838092Y6235500D01*
X10601908Y6235500D01*
X10601903Y6235500D01*
X10368631Y6198554D01*
X10144003Y6125567D01*
X9933566Y6018343D01*
X9824550Y5939138D01*
X9742490Y5879517D01*
X9742488Y5879515D01*
X9742487Y5879515D01*
X9575485Y5712513D01*
X9575485Y5712512D01*
X9575483Y5712510D01*
X9515862Y5630450D01*
X9436657Y5521434D01*
X9329433Y5310997D01*
X9256446Y5086369D01*
X9219500Y4853098D01*
X3427113Y4853098D01*
X3371565Y4867982D01*
X3371564Y4867983D01*
X3371561Y4867983D01*
X3124575Y4900499D01*
X3124570Y4900500D01*
X3124565Y4900500D01*
X2875435Y4900500D01*
X2875429Y4900500D01*
X2875424Y4900499D01*
X2628438Y4867983D01*
X2387792Y4803502D01*
X2157638Y4708170D01*
X2157623Y4708163D01*
X1941873Y4583600D01*
X1744225Y4431940D01*
X1744218Y4431934D01*
X1568066Y4255782D01*
X1568060Y4255775D01*
X1416400Y4058127D01*
X1291837Y3842377D01*
X1291830Y3842362D01*
X1196498Y3612208D01*
X1132017Y3371562D01*
X1099501Y3124576D01*
X1099500Y3124559D01*
X500000Y3124559D01*
X500000Y9353098D01*
X9219500Y9353098D01*
X9219500Y9116903D01*
X9256446Y8883632D01*
X9329433Y8659004D01*
X9436657Y8448567D01*
X9575483Y8257490D01*
X9742490Y8090483D01*
X9933567Y7951657D01*
X10032991Y7900998D01*
X10144003Y7844434D01*
X10144005Y7844434D01*
X10144008Y7844432D01*
X10264412Y7805311D01*
X10368631Y7771447D01*
X10601903Y7734500D01*
X10601908Y7734500D01*
X10838097Y7734500D01*
X11071368Y7771447D01*
X11295992Y7844432D01*
X11506433Y7951657D01*
X11697510Y8090483D01*
X11864517Y8257490D01*
X12003343Y8448567D01*
X12110568Y8659008D01*
X12183553Y8883632D01*
X12196062Y8962612D01*
X12220500Y9116903D01*
X12220500Y9353098D01*
X15719500Y9353098D01*
X15719500Y9116903D01*
X15756446Y8883632D01*
X15829433Y8659004D01*
X15936657Y8448567D01*
X16075483Y8257490D01*
X16242490Y8090483D01*
X16433567Y7951657D01*
X16532991Y7900998D01*
X16644003Y7844434D01*
X16644005Y7844434D01*
X16644008Y7844432D01*
X16764412Y7805311D01*
X16868631Y7771447D01*
X17101903Y7734500D01*
X17101908Y7734500D01*
X17338097Y7734500D01*
X17571368Y7771447D01*
X17795992Y7844432D01*
X18006433Y7951657D01*
X18197510Y8090483D01*
X18364517Y8257490D01*
X18503343Y8448567D01*
X18610568Y8659008D01*
X18683553Y8883632D01*
X18696062Y8962612D01*
X18720500Y9116903D01*
X18720500Y9353098D01*
X18683553Y9586369D01*
X18633418Y9740667D01*
X18610568Y9810992D01*
X18610566Y9810995D01*
X18610566Y9810997D01*
X18503342Y10021434D01*
X18482719Y10049819D01*
X18364517Y10212510D01*
X18197510Y10379517D01*
X18006433Y10518343D01*
X18003004Y10520090D01*
X17795996Y10625567D01*
X17571368Y10698554D01*
X17338097Y10735500D01*
X17338092Y10735500D01*
X17101908Y10735500D01*
X17101903Y10735500D01*
X16868631Y10698554D01*
X16644003Y10625567D01*
X16433566Y10518343D01*
X16324550Y10439138D01*
X16242490Y10379517D01*
X16242488Y10379515D01*
X16242487Y10379515D01*
X16075485Y10212513D01*
X16075485Y10212512D01*
X16075483Y10212510D01*
X16015862Y10130450D01*
X15936657Y10021434D01*
X15829433Y9810997D01*
X15756446Y9586369D01*
X15719500Y9353098D01*
X12220500Y9353098D01*
X12183553Y9586369D01*
X12133418Y9740667D01*
X12110568Y9810992D01*
X12110566Y9810995D01*
X12110566Y9810997D01*
X12003342Y10021434D01*
X11982719Y10049819D01*
X11864517Y10212510D01*
X11697510Y10379517D01*
X11506433Y10518343D01*
X11503004Y10520090D01*
X11295996Y10625567D01*
X11071368Y10698554D01*
X10838097Y10735500D01*
X10838092Y10735500D01*
X10601908Y10735500D01*
X10601903Y10735500D01*
X10368631Y10698554D01*
X10144003Y10625567D01*
X9933566Y10518343D01*
X9824550Y10439138D01*
X9742490Y10379517D01*
X9742488Y10379515D01*
X9742487Y10379515D01*
X9575485Y10212513D01*
X9575485Y10212512D01*
X9575483Y10212510D01*
X9515862Y10130450D01*
X9436657Y10021434D01*
X9329433Y9810997D01*
X9256446Y9586369D01*
X9219500Y9353098D01*
X500000Y9353098D01*
X500000Y10860017D01*
X56384500Y10860017D01*
X56384500Y9459999D01*
X56384501Y9459982D01*
X56395000Y9357204D01*
X56395001Y9357201D01*
X56396361Y9353098D01*
X56450186Y9190666D01*
X56542288Y9041344D01*
X56666344Y8917288D01*
X56815666Y8825186D01*
X56982203Y8770001D01*
X57084991Y8759500D01*
X58485008Y8759501D01*
X58587797Y8770001D01*
X58754334Y8825186D01*
X58903656Y8917288D01*
X59027712Y9041344D01*
X59119814Y9190666D01*
X59174999Y9357203D01*
X59185500Y9459991D01*
X59185499Y10270182D01*
X66545000Y10270182D01*
X66545000Y10049819D01*
X66579473Y9832165D01*
X66647567Y9622590D01*
X66747611Y9426244D01*
X66793932Y9362487D01*
X67502861Y10071416D01*
X67525667Y9986306D01*
X67584910Y9883694D01*
X67668694Y9799910D01*
X67771306Y9740667D01*
X67856414Y9717863D01*
X67147485Y9008935D01*
X67147485Y9008934D01*
X67211243Y8962612D01*
X67407589Y8862568D01*
X67617164Y8794474D01*
X67834819Y8760000D01*
X68055181Y8760000D01*
X68272835Y8794474D01*
X68482410Y8862568D01*
X68678760Y8962614D01*
X68742513Y9008934D01*
X68742514Y9008934D01*
X68033585Y9717862D01*
X68118694Y9740667D01*
X68221306Y9799910D01*
X68305090Y9883694D01*
X68364333Y9986306D01*
X68387137Y10071415D01*
X69096066Y9362486D01*
X69096066Y9362487D01*
X69142386Y9426240D01*
X69242432Y9622590D01*
X69310526Y9832165D01*
X69345000Y10049819D01*
X69345000Y10270182D01*
X69310526Y10487836D01*
X69242431Y10697414D01*
X69142388Y10893757D01*
X69096066Y10957515D01*
X69096065Y10957515D01*
X68387137Y10248587D01*
X68364333Y10333694D01*
X68305090Y10436306D01*
X68221306Y10520090D01*
X68118694Y10579333D01*
X68033583Y10602139D01*
X68742513Y11311068D01*
X68678756Y11357389D01*
X68482410Y11457433D01*
X68272835Y11525527D01*
X68055181Y11560000D01*
X67834819Y11560000D01*
X67617164Y11525527D01*
X67407589Y11457433D01*
X67211233Y11357384D01*
X67147485Y11311069D01*
X67147485Y11311068D01*
X67856414Y10602139D01*
X67771306Y10579333D01*
X67668694Y10520090D01*
X67584910Y10436306D01*
X67525667Y10333694D01*
X67502861Y10248586D01*
X66793932Y10957515D01*
X66793931Y10957515D01*
X66747616Y10893767D01*
X66647569Y10697414D01*
X66647568Y10697414D01*
X66579473Y10487836D01*
X66545000Y10270182D01*
X59185499Y10270182D01*
X59185499Y10860008D01*
X59182050Y10893767D01*
X59174999Y10962797D01*
X59174998Y10962800D01*
X59119814Y11129334D01*
X59027712Y11278656D01*
X58903656Y11402712D01*
X58754334Y11494814D01*
X58587797Y11549999D01*
X58587795Y11550000D01*
X58485010Y11560500D01*
X57084998Y11560500D01*
X57084981Y11560499D01*
X56982203Y11550000D01*
X56982200Y11549999D01*
X56815668Y11494815D01*
X56815663Y11494813D01*
X56666342Y11402711D01*
X56542289Y11278658D01*
X56450187Y11129337D01*
X56450186Y11129334D01*
X56395001Y10962797D01*
X56395001Y10962796D01*
X56395000Y10962796D01*
X56384500Y10860017D01*
X500000Y10860017D01*
X500000Y37571287D01*
X9444500Y37571287D01*
X9444500Y37358714D01*
X9477753Y37148761D01*
X9543444Y36946586D01*
X9639951Y36757180D01*
X9764890Y36585214D01*
X9915213Y36434891D01*
X10087182Y36309950D01*
X10095946Y36305484D01*
X10146742Y36257509D01*
X10163536Y36189688D01*
X10140998Y36123553D01*
X10095946Y36084516D01*
X10087182Y36080051D01*
X9915213Y35955110D01*
X9764890Y35804787D01*
X9639951Y35632821D01*
X9543444Y35443415D01*
X9477753Y35241240D01*
X9444500Y35031287D01*
X9444500Y34818714D01*
X9477753Y34608761D01*
X9543444Y34406586D01*
X9639951Y34217180D01*
X9764890Y34045214D01*
X9915213Y33894891D01*
X10087182Y33769950D01*
X10095946Y33765484D01*
X10146742Y33717509D01*
X10163536Y33649688D01*
X10140998Y33583553D01*
X10095946Y33544516D01*
X10087182Y33540051D01*
X9915213Y33415110D01*
X9764890Y33264787D01*
X9639951Y33092821D01*
X9543444Y32903415D01*
X9477753Y32701240D01*
X9464886Y32620000D01*
X9444500Y32491287D01*
X9444500Y32278713D01*
X9477754Y32068757D01*
X9491613Y32026103D01*
X9543444Y31866586D01*
X9639951Y31677180D01*
X9764890Y31505214D01*
X9915213Y31354891D01*
X10087182Y31229950D01*
X10095946Y31225484D01*
X10146742Y31177509D01*
X10163536Y31109688D01*
X10140998Y31043553D01*
X10095946Y31004516D01*
X10087182Y31000051D01*
X9915213Y30875110D01*
X9764890Y30724787D01*
X9639951Y30552821D01*
X9543444Y30363415D01*
X9477753Y30161240D01*
X9444500Y29951287D01*
X9444500Y29738714D01*
X9477753Y29528761D01*
X9543444Y29326586D01*
X9639951Y29137180D01*
X9764890Y28965214D01*
X9915213Y28814891D01*
X10087182Y28689950D01*
X10095946Y28685484D01*
X10146742Y28637509D01*
X10163536Y28569688D01*
X10140998Y28503553D01*
X10095946Y28464516D01*
X10087182Y28460051D01*
X9915213Y28335110D01*
X9764890Y28184787D01*
X9639951Y28012821D01*
X9543444Y27823415D01*
X9477753Y27621240D01*
X9444500Y27411287D01*
X9444500Y27198714D01*
X9477753Y26988761D01*
X9543444Y26786586D01*
X9639951Y26597180D01*
X9764890Y26425214D01*
X9915213Y26274891D01*
X10087182Y26149950D01*
X10095946Y26145484D01*
X10146742Y26097509D01*
X10163536Y26029688D01*
X10140998Y25963553D01*
X10095946Y25924516D01*
X10087182Y25920051D01*
X9915213Y25795110D01*
X9764890Y25644787D01*
X9639951Y25472821D01*
X9543444Y25283415D01*
X9477753Y25081240D01*
X9444500Y24871287D01*
X9444500Y24658714D01*
X9477753Y24448761D01*
X9543444Y24246586D01*
X9639951Y24057180D01*
X9764890Y23885214D01*
X9915213Y23734891D01*
X10087182Y23609950D01*
X10095946Y23605484D01*
X10146742Y23557509D01*
X10163536Y23489688D01*
X10140998Y23423553D01*
X10095946Y23384516D01*
X10087182Y23380051D01*
X9915213Y23255110D01*
X9764890Y23104787D01*
X9639951Y22932821D01*
X9543444Y22743415D01*
X9477753Y22541240D01*
X9444500Y22331287D01*
X9444500Y22118714D01*
X9466218Y21981588D01*
X9477754Y21908757D01*
X9530246Y21747203D01*
X9543444Y21706586D01*
X9639951Y21517180D01*
X9764890Y21345214D01*
X9915213Y21194891D01*
X10087182Y21069950D01*
X10095946Y21065484D01*
X10146742Y21017509D01*
X10163536Y20949688D01*
X10140998Y20883553D01*
X10095946Y20844516D01*
X10087182Y20840051D01*
X9915213Y20715110D01*
X9764890Y20564787D01*
X9639951Y20392821D01*
X9543444Y20203415D01*
X9477753Y20001240D01*
X9444500Y19791287D01*
X9444500Y19578714D01*
X9466218Y19441588D01*
X9477754Y19368757D01*
X9515632Y19252180D01*
X9543444Y19166586D01*
X9639951Y18977180D01*
X9764890Y18805214D01*
X9915213Y18654891D01*
X10087182Y18529950D01*
X10095946Y18525484D01*
X10146742Y18477509D01*
X10163536Y18409688D01*
X10140998Y18343553D01*
X10095946Y18304516D01*
X10087182Y18300051D01*
X9915213Y18175110D01*
X9764890Y18024787D01*
X9639951Y17852821D01*
X9543444Y17663415D01*
X9477753Y17461240D01*
X9444500Y17251287D01*
X9444500Y17038714D01*
X9477753Y16828761D01*
X9543444Y16626586D01*
X9639951Y16437180D01*
X9764890Y16265214D01*
X9915213Y16114891D01*
X10087182Y15989950D01*
X10095946Y15985484D01*
X10146742Y15937509D01*
X10163536Y15869688D01*
X10140998Y15803553D01*
X10095946Y15764516D01*
X10087182Y15760051D01*
X9915213Y15635110D01*
X9764890Y15484787D01*
X9639951Y15312821D01*
X9543444Y15123415D01*
X9477753Y14921240D01*
X9444500Y14711287D01*
X9444500Y14498714D01*
X9477753Y14288761D01*
X9543444Y14086586D01*
X9639951Y13897180D01*
X9764890Y13725214D01*
X9915213Y13574891D01*
X10087179Y13449952D01*
X10087181Y13449951D01*
X10087184Y13449949D01*
X10276588Y13353443D01*
X10478757Y13287754D01*
X10688713Y13254500D01*
X10688714Y13254500D01*
X10901286Y13254500D01*
X10901287Y13254500D01*
X11111243Y13287754D01*
X11313412Y13353443D01*
X11502816Y13449949D01*
X11674792Y13574896D01*
X11788329Y13688434D01*
X11849648Y13721916D01*
X11919340Y13716932D01*
X11975274Y13675061D01*
X11992189Y13644083D01*
X12041202Y13512672D01*
X12041206Y13512665D01*
X12127452Y13397456D01*
X12127455Y13397453D01*
X12242664Y13311207D01*
X12242671Y13311203D01*
X12377517Y13260909D01*
X12377516Y13260909D01*
X12384444Y13260165D01*
X12437127Y13254500D01*
X14232872Y13254501D01*
X14292483Y13260909D01*
X14427331Y13311204D01*
X14542546Y13397454D01*
X14628796Y13512669D01*
X14679091Y13647517D01*
X14685500Y13707127D01*
X14685499Y15502872D01*
X14679091Y15562483D01*
X14677810Y15565917D01*
X14628797Y15697329D01*
X14628793Y15697336D01*
X14542547Y15812545D01*
X14542544Y15812548D01*
X14427335Y15898794D01*
X14427328Y15898798D01*
X14295917Y15947811D01*
X14239983Y15989682D01*
X14215566Y16055147D01*
X14230418Y16123420D01*
X14251563Y16151668D01*
X14365104Y16265208D01*
X14490051Y16437184D01*
X14586557Y16626588D01*
X14652246Y16828757D01*
X14685500Y17038713D01*
X14685500Y17251287D01*
X14652246Y17461243D01*
X14586557Y17663412D01*
X14490051Y17852816D01*
X14490049Y17852819D01*
X14490048Y17852821D01*
X14365109Y18024787D01*
X14214786Y18175110D01*
X14042820Y18300049D01*
X14042115Y18300409D01*
X14034054Y18304515D01*
X13983259Y18352488D01*
X13966463Y18420308D01*
X13988999Y18486444D01*
X14034054Y18525485D01*
X14042816Y18529949D01*
X14064789Y18545914D01*
X14214786Y18654891D01*
X14214788Y18654894D01*
X14214792Y18654896D01*
X14365104Y18805208D01*
X14365106Y18805212D01*
X14365109Y18805214D01*
X14490048Y18977180D01*
X14490047Y18977180D01*
X14490051Y18977184D01*
X14586557Y19166588D01*
X14652246Y19368757D01*
X14685500Y19578713D01*
X14685500Y19791287D01*
X14652246Y20001243D01*
X14586557Y20203412D01*
X14490051Y20392816D01*
X14490049Y20392819D01*
X14490048Y20392821D01*
X14365109Y20564787D01*
X14214786Y20715110D01*
X14042820Y20840049D01*
X14042115Y20840409D01*
X14034054Y20844515D01*
X13983259Y20892488D01*
X13966463Y20960308D01*
X13988999Y21026444D01*
X14034054Y21065485D01*
X14042816Y21069949D01*
X14111040Y21119516D01*
X14214786Y21194891D01*
X14214788Y21194894D01*
X14214792Y21194896D01*
X14365104Y21345208D01*
X14365106Y21345212D01*
X14365109Y21345214D01*
X14490048Y21517180D01*
X14490047Y21517180D01*
X14490051Y21517184D01*
X14586557Y21706588D01*
X14652246Y21908757D01*
X14685500Y22118713D01*
X14685500Y22331287D01*
X14652246Y22541243D01*
X14631112Y22606287D01*
X25954500Y22606287D01*
X25954500Y22393714D01*
X25987753Y22183761D01*
X26053444Y21981586D01*
X26149951Y21792180D01*
X26274890Y21620214D01*
X26425213Y21469891D01*
X26597182Y21344950D01*
X26605946Y21340484D01*
X26656742Y21292509D01*
X26673536Y21224688D01*
X26650998Y21158553D01*
X26605946Y21119516D01*
X26597182Y21115051D01*
X26425213Y20990110D01*
X26274890Y20839787D01*
X26149951Y20667821D01*
X26053444Y20478415D01*
X25987753Y20276240D01*
X25954500Y20066287D01*
X25954500Y19853714D01*
X25987753Y19643761D01*
X26053444Y19441586D01*
X26149951Y19252180D01*
X26274890Y19080214D01*
X26425213Y18929891D01*
X26597179Y18804952D01*
X26597181Y18804951D01*
X26597184Y18804949D01*
X26786588Y18708443D01*
X26988757Y18642754D01*
X27198713Y18609500D01*
X27198714Y18609500D01*
X27411286Y18609500D01*
X27411287Y18609500D01*
X27621243Y18642754D01*
X27823412Y18708443D01*
X28012816Y18804949D01*
X28034789Y18820914D01*
X28184786Y18929891D01*
X28184788Y18929894D01*
X28184792Y18929896D01*
X28335104Y19080208D01*
X28335106Y19080212D01*
X28335109Y19080214D01*
X28460048Y19252180D01*
X28460047Y19252180D01*
X28460051Y19252184D01*
X28464514Y19260946D01*
X28512488Y19311741D01*
X28580308Y19328537D01*
X28646444Y19306001D01*
X28685486Y19260944D01*
X28689951Y19252180D01*
X28814890Y19080214D01*
X28965213Y18929891D01*
X29137179Y18804952D01*
X29137181Y18804951D01*
X29137184Y18804949D01*
X29326588Y18708443D01*
X29528757Y18642754D01*
X29738713Y18609500D01*
X29738714Y18609500D01*
X29951286Y18609500D01*
X29951287Y18609500D01*
X30161243Y18642754D01*
X30363412Y18708443D01*
X30552816Y18804949D01*
X30574789Y18820914D01*
X30724786Y18929891D01*
X30724788Y18929894D01*
X30724792Y18929896D01*
X30875104Y19080208D01*
X30875106Y19080212D01*
X30875109Y19080214D01*
X31000048Y19252180D01*
X31000047Y19252180D01*
X31000051Y19252184D01*
X31004514Y19260946D01*
X31052488Y19311741D01*
X31120308Y19328537D01*
X31186444Y19306001D01*
X31225486Y19260944D01*
X31229951Y19252180D01*
X31354890Y19080214D01*
X31505213Y18929891D01*
X31677179Y18804952D01*
X31677181Y18804951D01*
X31677184Y18804949D01*
X31866588Y18708443D01*
X32068757Y18642754D01*
X32278713Y18609500D01*
X32278714Y18609500D01*
X32491286Y18609500D01*
X32491287Y18609500D01*
X32701243Y18642754D01*
X32903412Y18708443D01*
X33092816Y18804949D01*
X33114789Y18820914D01*
X33264786Y18929891D01*
X33264788Y18929894D01*
X33264792Y18929896D01*
X33415104Y19080208D01*
X33415106Y19080212D01*
X33415109Y19080214D01*
X33540048Y19252180D01*
X33540047Y19252180D01*
X33540051Y19252184D01*
X33544514Y19260946D01*
X33592488Y19311741D01*
X33660308Y19328537D01*
X33726444Y19306001D01*
X33765486Y19260944D01*
X33769951Y19252180D01*
X33894890Y19080214D01*
X34045213Y18929891D01*
X34217179Y18804952D01*
X34217181Y18804951D01*
X34217184Y18804949D01*
X34406588Y18708443D01*
X34608757Y18642754D01*
X34818713Y18609500D01*
X34818714Y18609500D01*
X35031286Y18609500D01*
X35031287Y18609500D01*
X35241243Y18642754D01*
X35443412Y18708443D01*
X35632816Y18804949D01*
X35654789Y18820914D01*
X35804786Y18929891D01*
X35804788Y18929894D01*
X35804792Y18929896D01*
X35955104Y19080208D01*
X35955106Y19080212D01*
X35955109Y19080214D01*
X36080048Y19252180D01*
X36080047Y19252180D01*
X36080051Y19252184D01*
X36084514Y19260946D01*
X36132488Y19311741D01*
X36200308Y19328537D01*
X36266444Y19306001D01*
X36305486Y19260944D01*
X36309951Y19252180D01*
X36434890Y19080214D01*
X36585213Y18929891D01*
X36757179Y18804952D01*
X36757181Y18804951D01*
X36757184Y18804949D01*
X36946588Y18708443D01*
X37148757Y18642754D01*
X37358713Y18609500D01*
X37358714Y18609500D01*
X37571286Y18609500D01*
X37571287Y18609500D01*
X37781243Y18642754D01*
X37983412Y18708443D01*
X38172816Y18804949D01*
X38194789Y18820914D01*
X38344786Y18929891D01*
X38344788Y18929894D01*
X38344792Y18929896D01*
X38495104Y19080208D01*
X38495106Y19080212D01*
X38495109Y19080214D01*
X38620048Y19252180D01*
X38620047Y19252180D01*
X38620051Y19252184D01*
X38624514Y19260946D01*
X38672488Y19311741D01*
X38740308Y19328537D01*
X38806444Y19306001D01*
X38845486Y19260944D01*
X38849951Y19252180D01*
X38974890Y19080214D01*
X39125213Y18929891D01*
X39297179Y18804952D01*
X39297181Y18804951D01*
X39297184Y18804949D01*
X39486588Y18708443D01*
X39688757Y18642754D01*
X39898713Y18609500D01*
X39898714Y18609500D01*
X40111286Y18609500D01*
X40111287Y18609500D01*
X40321243Y18642754D01*
X40523412Y18708443D01*
X40712816Y18804949D01*
X40734789Y18820914D01*
X40884786Y18929891D01*
X40884788Y18929894D01*
X40884792Y18929896D01*
X41035104Y19080208D01*
X41035106Y19080212D01*
X41035109Y19080214D01*
X41160048Y19252180D01*
X41160047Y19252180D01*
X41160051Y19252184D01*
X41164514Y19260946D01*
X41212488Y19311741D01*
X41280308Y19328537D01*
X41346444Y19306001D01*
X41385486Y19260944D01*
X41389951Y19252180D01*
X41514890Y19080214D01*
X41665213Y18929891D01*
X41837179Y18804952D01*
X41837181Y18804951D01*
X41837184Y18804949D01*
X42026588Y18708443D01*
X42228757Y18642754D01*
X42438713Y18609500D01*
X42438714Y18609500D01*
X42651286Y18609500D01*
X42651287Y18609500D01*
X42861243Y18642754D01*
X43063412Y18708443D01*
X43252816Y18804949D01*
X43274789Y18820914D01*
X43424786Y18929891D01*
X43424788Y18929894D01*
X43424792Y18929896D01*
X43575104Y19080208D01*
X43575106Y19080212D01*
X43575109Y19080214D01*
X43700048Y19252180D01*
X43700047Y19252180D01*
X43700051Y19252184D01*
X43704514Y19260946D01*
X43752488Y19311741D01*
X43820308Y19328537D01*
X43886444Y19306001D01*
X43925486Y19260944D01*
X43929951Y19252180D01*
X44054890Y19080214D01*
X44205213Y18929891D01*
X44377179Y18804952D01*
X44377181Y18804951D01*
X44377184Y18804949D01*
X44566588Y18708443D01*
X44768757Y18642754D01*
X44978713Y18609500D01*
X44978714Y18609500D01*
X45191286Y18609500D01*
X45191287Y18609500D01*
X45401243Y18642754D01*
X45603412Y18708443D01*
X45792816Y18804949D01*
X45814789Y18820914D01*
X45964786Y18929891D01*
X45964788Y18929894D01*
X45964792Y18929896D01*
X46115104Y19080208D01*
X46115106Y19080212D01*
X46115109Y19080214D01*
X46240048Y19252180D01*
X46240047Y19252180D01*
X46240051Y19252184D01*
X46244514Y19260946D01*
X46292488Y19311741D01*
X46360308Y19328537D01*
X46426444Y19306001D01*
X46465486Y19260944D01*
X46469951Y19252180D01*
X46594890Y19080214D01*
X46745213Y18929891D01*
X46917179Y18804952D01*
X46917181Y18804951D01*
X46917184Y18804949D01*
X47106588Y18708443D01*
X47308757Y18642754D01*
X47518713Y18609500D01*
X47518714Y18609500D01*
X47731286Y18609500D01*
X47731287Y18609500D01*
X47941243Y18642754D01*
X48143412Y18708443D01*
X48332816Y18804949D01*
X48354789Y18820914D01*
X48504786Y18929891D01*
X48504788Y18929894D01*
X48504792Y18929896D01*
X48655104Y19080208D01*
X48655106Y19080212D01*
X48655109Y19080214D01*
X48780048Y19252180D01*
X48780047Y19252180D01*
X48780051Y19252184D01*
X48784514Y19260946D01*
X48832488Y19311741D01*
X48900308Y19328537D01*
X48966444Y19306001D01*
X49005486Y19260944D01*
X49009951Y19252180D01*
X49134890Y19080214D01*
X49285213Y18929891D01*
X49457179Y18804952D01*
X49457181Y18804951D01*
X49457184Y18804949D01*
X49646588Y18708443D01*
X49848757Y18642754D01*
X50058713Y18609500D01*
X50058714Y18609500D01*
X50271286Y18609500D01*
X50271287Y18609500D01*
X50481243Y18642754D01*
X50683412Y18708443D01*
X50872816Y18804949D01*
X50894789Y18820914D01*
X51044786Y18929891D01*
X51044788Y18929894D01*
X51044792Y18929896D01*
X51195104Y19080208D01*
X51195106Y19080212D01*
X51195109Y19080214D01*
X51320048Y19252180D01*
X51320047Y19252180D01*
X51320051Y19252184D01*
X51324514Y19260946D01*
X51372488Y19311741D01*
X51440308Y19328537D01*
X51506444Y19306001D01*
X51545486Y19260944D01*
X51549951Y19252180D01*
X51674890Y19080214D01*
X51825213Y18929891D01*
X51997179Y18804952D01*
X51997181Y18804951D01*
X51997184Y18804949D01*
X52186588Y18708443D01*
X52388757Y18642754D01*
X52598713Y18609500D01*
X52598714Y18609500D01*
X52811286Y18609500D01*
X52811287Y18609500D01*
X53021243Y18642754D01*
X53223412Y18708443D01*
X53412816Y18804949D01*
X53434789Y18820914D01*
X53584786Y18929891D01*
X53584788Y18929894D01*
X53584792Y18929896D01*
X53735104Y19080208D01*
X53735106Y19080212D01*
X53735109Y19080214D01*
X53860048Y19252180D01*
X53860047Y19252180D01*
X53860051Y19252184D01*
X53864514Y19260946D01*
X53912488Y19311741D01*
X53980308Y19328537D01*
X54046444Y19306001D01*
X54085486Y19260944D01*
X54089951Y19252180D01*
X54214890Y19080214D01*
X54365213Y18929891D01*
X54537179Y18804952D01*
X54537181Y18804951D01*
X54537184Y18804949D01*
X54726588Y18708443D01*
X54928757Y18642754D01*
X55138713Y18609500D01*
X55138714Y18609500D01*
X55351286Y18609500D01*
X55351287Y18609500D01*
X55561243Y18642754D01*
X55763412Y18708443D01*
X55952816Y18804949D01*
X55974789Y18820914D01*
X56124786Y18929891D01*
X56124788Y18929894D01*
X56124792Y18929896D01*
X56275104Y19080208D01*
X56275106Y19080212D01*
X56275109Y19080214D01*
X56400048Y19252180D01*
X56400047Y19252180D01*
X56400051Y19252184D01*
X56404514Y19260946D01*
X56452488Y19311741D01*
X56520308Y19328537D01*
X56586444Y19306001D01*
X56625486Y19260944D01*
X56629951Y19252180D01*
X56754890Y19080214D01*
X56905213Y18929891D01*
X57077179Y18804952D01*
X57077181Y18804951D01*
X57077184Y18804949D01*
X57266588Y18708443D01*
X57468757Y18642754D01*
X57678713Y18609500D01*
X57678714Y18609500D01*
X57891286Y18609500D01*
X57891287Y18609500D01*
X58101243Y18642754D01*
X58303412Y18708443D01*
X58492816Y18804949D01*
X58514789Y18820914D01*
X58664786Y18929891D01*
X58664788Y18929894D01*
X58664792Y18929896D01*
X58815104Y19080208D01*
X58815106Y19080212D01*
X58815109Y19080214D01*
X58940048Y19252180D01*
X58940047Y19252180D01*
X58940051Y19252184D01*
X58944514Y19260946D01*
X58992488Y19311741D01*
X59060308Y19328537D01*
X59126444Y19306001D01*
X59165486Y19260944D01*
X59169951Y19252180D01*
X59294890Y19080214D01*
X59445213Y18929891D01*
X59617179Y18804952D01*
X59617181Y18804951D01*
X59617184Y18804949D01*
X59806588Y18708443D01*
X60008757Y18642754D01*
X60218713Y18609500D01*
X60218714Y18609500D01*
X60431286Y18609500D01*
X60431287Y18609500D01*
X60641243Y18642754D01*
X60843412Y18708443D01*
X61032816Y18804949D01*
X61054789Y18820914D01*
X61204786Y18929891D01*
X61204788Y18929894D01*
X61204792Y18929896D01*
X61355104Y19080208D01*
X61355106Y19080212D01*
X61355109Y19080214D01*
X61480048Y19252180D01*
X61480047Y19252180D01*
X61480051Y19252184D01*
X61484514Y19260946D01*
X61532488Y19311741D01*
X61600308Y19328537D01*
X61666444Y19306001D01*
X61705486Y19260944D01*
X61709951Y19252180D01*
X61834890Y19080214D01*
X61985213Y18929891D01*
X62157179Y18804952D01*
X62157181Y18804951D01*
X62157184Y18804949D01*
X62346588Y18708443D01*
X62548757Y18642754D01*
X62758713Y18609500D01*
X62758714Y18609500D01*
X62971286Y18609500D01*
X62971287Y18609500D01*
X63181243Y18642754D01*
X63383412Y18708443D01*
X63572816Y18804949D01*
X63594789Y18820914D01*
X63744786Y18929891D01*
X63744788Y18929894D01*
X63744792Y18929896D01*
X63895104Y19080208D01*
X63895106Y19080212D01*
X63895109Y19080214D01*
X64020048Y19252180D01*
X64020047Y19252180D01*
X64020051Y19252184D01*
X64024514Y19260946D01*
X64072488Y19311741D01*
X64140308Y19328537D01*
X64206444Y19306001D01*
X64245486Y19260944D01*
X64249951Y19252180D01*
X64374890Y19080214D01*
X64525213Y18929891D01*
X64697179Y18804952D01*
X64697181Y18804951D01*
X64697184Y18804949D01*
X64886588Y18708443D01*
X65088757Y18642754D01*
X65298713Y18609500D01*
X65298714Y18609500D01*
X65511286Y18609500D01*
X65511287Y18609500D01*
X65721243Y18642754D01*
X65923412Y18708443D01*
X66112816Y18804949D01*
X66134789Y18820914D01*
X66284786Y18929891D01*
X66284788Y18929894D01*
X66284792Y18929896D01*
X66435104Y19080208D01*
X66435106Y19080212D01*
X66435109Y19080214D01*
X66560048Y19252180D01*
X66560047Y19252180D01*
X66560051Y19252184D01*
X66564514Y19260946D01*
X66612488Y19311741D01*
X66680308Y19328537D01*
X66746444Y19306001D01*
X66785486Y19260944D01*
X66789951Y19252180D01*
X66914890Y19080214D01*
X67065213Y18929891D01*
X67237179Y18804952D01*
X67237181Y18804951D01*
X67237184Y18804949D01*
X67426588Y18708443D01*
X67628757Y18642754D01*
X67838713Y18609500D01*
X67838714Y18609500D01*
X68051286Y18609500D01*
X68051287Y18609500D01*
X68261243Y18642754D01*
X68463412Y18708443D01*
X68652816Y18804949D01*
X68674789Y18820914D01*
X68824786Y18929891D01*
X68824788Y18929894D01*
X68824792Y18929896D01*
X68975104Y19080208D01*
X68975106Y19080212D01*
X68975109Y19080214D01*
X69100048Y19252180D01*
X69100047Y19252180D01*
X69100051Y19252184D01*
X69104514Y19260946D01*
X69152488Y19311741D01*
X69220308Y19328537D01*
X69286444Y19306001D01*
X69325486Y19260944D01*
X69329951Y19252180D01*
X69454890Y19080214D01*
X69605213Y18929891D01*
X69777179Y18804952D01*
X69777181Y18804951D01*
X69777184Y18804949D01*
X69966588Y18708443D01*
X70168757Y18642754D01*
X70378713Y18609500D01*
X70378714Y18609500D01*
X70591286Y18609500D01*
X70591287Y18609500D01*
X70801243Y18642754D01*
X71003412Y18708443D01*
X71192816Y18804949D01*
X71214789Y18820914D01*
X71364786Y18929891D01*
X71364788Y18929894D01*
X71364792Y18929896D01*
X71515104Y19080208D01*
X71515106Y19080212D01*
X71515109Y19080214D01*
X71640048Y19252180D01*
X71640047Y19252180D01*
X71640051Y19252184D01*
X71644514Y19260946D01*
X71692488Y19311741D01*
X71760308Y19328537D01*
X71826444Y19306001D01*
X71865486Y19260944D01*
X71869951Y19252180D01*
X71994890Y19080214D01*
X72145213Y18929891D01*
X72317179Y18804952D01*
X72317181Y18804951D01*
X72317184Y18804949D01*
X72506588Y18708443D01*
X72708757Y18642754D01*
X72918713Y18609500D01*
X72918714Y18609500D01*
X73131286Y18609500D01*
X73131287Y18609500D01*
X73341243Y18642754D01*
X73543412Y18708443D01*
X73732816Y18804949D01*
X73754789Y18820914D01*
X73904786Y18929891D01*
X73904788Y18929894D01*
X73904792Y18929896D01*
X74055104Y19080208D01*
X74055106Y19080212D01*
X74055109Y19080214D01*
X74180048Y19252180D01*
X74180047Y19252180D01*
X74180051Y19252184D01*
X74184514Y19260946D01*
X74232488Y19311741D01*
X74300308Y19328537D01*
X74366444Y19306001D01*
X74405486Y19260944D01*
X74409951Y19252180D01*
X74534890Y19080214D01*
X74685213Y18929891D01*
X74857179Y18804952D01*
X74857181Y18804951D01*
X74857184Y18804949D01*
X75046588Y18708443D01*
X75248757Y18642754D01*
X75458713Y18609500D01*
X75458714Y18609500D01*
X75671286Y18609500D01*
X75671287Y18609500D01*
X75881243Y18642754D01*
X76083412Y18708443D01*
X76272816Y18804949D01*
X76294789Y18820914D01*
X76444786Y18929891D01*
X76444788Y18929894D01*
X76444792Y18929896D01*
X76595104Y19080208D01*
X76595106Y19080212D01*
X76595109Y19080214D01*
X76720048Y19252180D01*
X76720047Y19252180D01*
X76720051Y19252184D01*
X76724514Y19260946D01*
X76772488Y19311741D01*
X76840308Y19328537D01*
X76906444Y19306001D01*
X76945486Y19260944D01*
X76949951Y19252180D01*
X77074890Y19080214D01*
X77225213Y18929891D01*
X77397179Y18804952D01*
X77397181Y18804951D01*
X77397184Y18804949D01*
X77586588Y18708443D01*
X77788757Y18642754D01*
X77998713Y18609500D01*
X77998714Y18609500D01*
X78211286Y18609500D01*
X78211287Y18609500D01*
X78421243Y18642754D01*
X78623412Y18708443D01*
X78812816Y18804949D01*
X78834789Y18820914D01*
X78984786Y18929891D01*
X78984788Y18929894D01*
X78984792Y18929896D01*
X79135104Y19080208D01*
X79135106Y19080212D01*
X79135109Y19080214D01*
X79260048Y19252180D01*
X79260047Y19252180D01*
X79260051Y19252184D01*
X79264514Y19260946D01*
X79312488Y19311741D01*
X79380308Y19328537D01*
X79446444Y19306001D01*
X79485486Y19260944D01*
X79489951Y19252180D01*
X79614890Y19080214D01*
X79765213Y18929891D01*
X79937179Y18804952D01*
X79937181Y18804951D01*
X79937184Y18804949D01*
X80126588Y18708443D01*
X80328757Y18642754D01*
X80538713Y18609500D01*
X80538714Y18609500D01*
X80751286Y18609500D01*
X80751287Y18609500D01*
X80961243Y18642754D01*
X81163412Y18708443D01*
X81352816Y18804949D01*
X81374789Y18820914D01*
X81524786Y18929891D01*
X81524788Y18929894D01*
X81524792Y18929896D01*
X81675104Y19080208D01*
X81675106Y19080212D01*
X81675109Y19080214D01*
X81800048Y19252180D01*
X81800047Y19252180D01*
X81800051Y19252184D01*
X81804514Y19260946D01*
X81852488Y19311741D01*
X81920308Y19328537D01*
X81986444Y19306001D01*
X82025486Y19260944D01*
X82029951Y19252180D01*
X82154890Y19080214D01*
X82305213Y18929891D01*
X82477179Y18804952D01*
X82477181Y18804951D01*
X82477184Y18804949D01*
X82666588Y18708443D01*
X82868757Y18642754D01*
X83078713Y18609500D01*
X83078714Y18609500D01*
X83291286Y18609500D01*
X83291287Y18609500D01*
X83501243Y18642754D01*
X83703412Y18708443D01*
X83892816Y18804949D01*
X83914789Y18820914D01*
X84064786Y18929891D01*
X84064788Y18929894D01*
X84064792Y18929896D01*
X84215104Y19080208D01*
X84215106Y19080212D01*
X84215109Y19080214D01*
X84340048Y19252180D01*
X84340047Y19252180D01*
X84340051Y19252184D01*
X84344514Y19260946D01*
X84392488Y19311741D01*
X84460308Y19328537D01*
X84526444Y19306001D01*
X84565486Y19260944D01*
X84569951Y19252180D01*
X84694890Y19080214D01*
X84845213Y18929891D01*
X85017179Y18804952D01*
X85017181Y18804951D01*
X85017184Y18804949D01*
X85206588Y18708443D01*
X85408757Y18642754D01*
X85618713Y18609500D01*
X85618714Y18609500D01*
X85831286Y18609500D01*
X85831287Y18609500D01*
X86041243Y18642754D01*
X86243412Y18708443D01*
X86432816Y18804949D01*
X86454789Y18820914D01*
X86604786Y18929891D01*
X86604788Y18929894D01*
X86604792Y18929896D01*
X86755104Y19080208D01*
X86755106Y19080212D01*
X86755109Y19080214D01*
X86880048Y19252180D01*
X86880047Y19252180D01*
X86880051Y19252184D01*
X86884514Y19260946D01*
X86932488Y19311741D01*
X87000308Y19328537D01*
X87066444Y19306001D01*
X87105486Y19260944D01*
X87109951Y19252180D01*
X87234890Y19080214D01*
X87385213Y18929891D01*
X87557179Y18804952D01*
X87557181Y18804951D01*
X87557184Y18804949D01*
X87746588Y18708443D01*
X87948757Y18642754D01*
X88158713Y18609500D01*
X88158714Y18609500D01*
X88371286Y18609500D01*
X88371287Y18609500D01*
X88581243Y18642754D01*
X88783412Y18708443D01*
X88972816Y18804949D01*
X88994789Y18820914D01*
X89144786Y18929891D01*
X89144788Y18929894D01*
X89144792Y18929896D01*
X89295104Y19080208D01*
X89295106Y19080212D01*
X89295109Y19080214D01*
X89420048Y19252180D01*
X89420047Y19252180D01*
X89420051Y19252184D01*
X89516557Y19441588D01*
X89582246Y19643757D01*
X89615500Y19853713D01*
X89615500Y20066287D01*
X89582246Y20276243D01*
X89516557Y20478412D01*
X89420051Y20667816D01*
X89420049Y20667819D01*
X89420048Y20667821D01*
X89295109Y20839787D01*
X89144790Y20990106D01*
X89144785Y20990110D01*
X89139891Y20993666D01*
X89097227Y21048997D01*
X89091249Y21118610D01*
X89123857Y21180405D01*
X89173774Y21211688D01*
X89184334Y21215186D01*
X89333656Y21307288D01*
X89457712Y21431344D01*
X89549814Y21580666D01*
X89604999Y21747203D01*
X89615500Y21849991D01*
X89615499Y23150008D01*
X89604999Y23252797D01*
X89549814Y23419334D01*
X89457712Y23568656D01*
X89333656Y23692712D01*
X89184334Y23784814D01*
X89017797Y23839999D01*
X89017795Y23840000D01*
X88915010Y23850500D01*
X87614998Y23850500D01*
X87614981Y23850499D01*
X87512203Y23840000D01*
X87512200Y23839999D01*
X87345668Y23784815D01*
X87345663Y23784813D01*
X87196342Y23692711D01*
X87072289Y23568658D01*
X86980187Y23419337D01*
X86980183Y23419327D01*
X86976685Y23408771D01*
X86936910Y23351328D01*
X86872393Y23324507D01*
X86803618Y23336826D01*
X86758663Y23374894D01*
X86755105Y23379791D01*
X86604786Y23530110D01*
X86432820Y23655049D01*
X86243414Y23751556D01*
X86243413Y23751557D01*
X86243412Y23751557D01*
X86041243Y23817246D01*
X86041241Y23817247D01*
X86041240Y23817247D01*
X85879957Y23842792D01*
X85831287Y23850500D01*
X85618713Y23850500D01*
X85570042Y23842792D01*
X85408760Y23817247D01*
X85206585Y23751556D01*
X85017179Y23655049D01*
X84845213Y23530110D01*
X84694890Y23379787D01*
X84569949Y23207818D01*
X84565484Y23199054D01*
X84517509Y23148258D01*
X84449688Y23131464D01*
X84383553Y23154002D01*
X84344516Y23199054D01*
X84340050Y23207818D01*
X84215109Y23379787D01*
X84064786Y23530110D01*
X83892820Y23655049D01*
X83703414Y23751556D01*
X83703413Y23751557D01*
X83703412Y23751557D01*
X83501243Y23817246D01*
X83501241Y23817247D01*
X83501240Y23817247D01*
X83339957Y23842792D01*
X83291287Y23850500D01*
X83078713Y23850500D01*
X83030042Y23842792D01*
X82868760Y23817247D01*
X82666585Y23751556D01*
X82477179Y23655049D01*
X82305213Y23530110D01*
X82154890Y23379787D01*
X82029949Y23207818D01*
X82025484Y23199054D01*
X81977509Y23148258D01*
X81909688Y23131464D01*
X81843553Y23154002D01*
X81804516Y23199054D01*
X81800050Y23207818D01*
X81675109Y23379787D01*
X81524786Y23530110D01*
X81352820Y23655049D01*
X81163414Y23751556D01*
X81163413Y23751557D01*
X81163412Y23751557D01*
X80961243Y23817246D01*
X80961241Y23817247D01*
X80961240Y23817247D01*
X80799957Y23842792D01*
X80751287Y23850500D01*
X80538713Y23850500D01*
X80490042Y23842792D01*
X80328760Y23817247D01*
X80126585Y23751556D01*
X79937179Y23655049D01*
X79765213Y23530110D01*
X79614890Y23379787D01*
X79489949Y23207818D01*
X79485484Y23199054D01*
X79437509Y23148258D01*
X79369688Y23131464D01*
X79303553Y23154002D01*
X79264516Y23199054D01*
X79260050Y23207818D01*
X79135109Y23379787D01*
X78984786Y23530110D01*
X78812820Y23655049D01*
X78623414Y23751556D01*
X78623413Y23751557D01*
X78623412Y23751557D01*
X78421243Y23817246D01*
X78421241Y23817247D01*
X78421240Y23817247D01*
X78259957Y23842792D01*
X78211287Y23850500D01*
X77998713Y23850500D01*
X77950042Y23842792D01*
X77788760Y23817247D01*
X77586585Y23751556D01*
X77397179Y23655049D01*
X77225213Y23530110D01*
X77074890Y23379787D01*
X76949949Y23207818D01*
X76945484Y23199054D01*
X76897509Y23148258D01*
X76829688Y23131464D01*
X76763553Y23154002D01*
X76724516Y23199054D01*
X76720050Y23207818D01*
X76595109Y23379787D01*
X76444786Y23530110D01*
X76272820Y23655049D01*
X76083414Y23751556D01*
X76083413Y23751557D01*
X76083412Y23751557D01*
X75881243Y23817246D01*
X75881241Y23817247D01*
X75881240Y23817247D01*
X75719957Y23842792D01*
X75671287Y23850500D01*
X75458713Y23850500D01*
X75410042Y23842792D01*
X75248760Y23817247D01*
X75046585Y23751556D01*
X74857179Y23655049D01*
X74685213Y23530110D01*
X74534890Y23379787D01*
X74409949Y23207818D01*
X74405484Y23199054D01*
X74357509Y23148258D01*
X74289688Y23131464D01*
X74223553Y23154002D01*
X74184516Y23199054D01*
X74180050Y23207818D01*
X74055109Y23379787D01*
X73904786Y23530110D01*
X73732820Y23655049D01*
X73543414Y23751556D01*
X73543413Y23751557D01*
X73543412Y23751557D01*
X73341243Y23817246D01*
X73341241Y23817247D01*
X73341240Y23817247D01*
X73179957Y23842792D01*
X73131287Y23850500D01*
X72918713Y23850500D01*
X72870042Y23842792D01*
X72708760Y23817247D01*
X72506585Y23751556D01*
X72317179Y23655049D01*
X72145213Y23530110D01*
X71994890Y23379787D01*
X71869949Y23207818D01*
X71865484Y23199054D01*
X71817509Y23148258D01*
X71749688Y23131464D01*
X71683553Y23154002D01*
X71644516Y23199054D01*
X71640050Y23207818D01*
X71515109Y23379787D01*
X71364786Y23530110D01*
X71192820Y23655049D01*
X71003414Y23751556D01*
X71003413Y23751557D01*
X71003412Y23751557D01*
X70801243Y23817246D01*
X70801241Y23817247D01*
X70801240Y23817247D01*
X70639957Y23842792D01*
X70591287Y23850500D01*
X70378713Y23850500D01*
X70330042Y23842792D01*
X70168760Y23817247D01*
X69966585Y23751556D01*
X69777179Y23655049D01*
X69605213Y23530110D01*
X69454890Y23379787D01*
X69329949Y23207818D01*
X69325484Y23199054D01*
X69277509Y23148258D01*
X69209688Y23131464D01*
X69143553Y23154002D01*
X69104516Y23199054D01*
X69100050Y23207818D01*
X68975109Y23379787D01*
X68824786Y23530110D01*
X68652820Y23655049D01*
X68463414Y23751556D01*
X68463413Y23751557D01*
X68463412Y23751557D01*
X68261243Y23817246D01*
X68261241Y23817247D01*
X68261240Y23817247D01*
X68099957Y23842792D01*
X68051287Y23850500D01*
X67838713Y23850500D01*
X67790042Y23842792D01*
X67628760Y23817247D01*
X67426585Y23751556D01*
X67237179Y23655049D01*
X67065213Y23530110D01*
X66914890Y23379787D01*
X66789949Y23207818D01*
X66785484Y23199054D01*
X66737509Y23148258D01*
X66669688Y23131464D01*
X66603553Y23154002D01*
X66564516Y23199054D01*
X66560050Y23207818D01*
X66435109Y23379787D01*
X66284786Y23530110D01*
X66112820Y23655049D01*
X65923414Y23751556D01*
X65923413Y23751557D01*
X65923412Y23751557D01*
X65721243Y23817246D01*
X65721241Y23817247D01*
X65721240Y23817247D01*
X65559957Y23842792D01*
X65511287Y23850500D01*
X65298713Y23850500D01*
X65250042Y23842792D01*
X65088760Y23817247D01*
X64886585Y23751556D01*
X64697179Y23655049D01*
X64525213Y23530110D01*
X64374890Y23379787D01*
X64249949Y23207818D01*
X64245484Y23199054D01*
X64197509Y23148258D01*
X64129688Y23131464D01*
X64063553Y23154002D01*
X64024516Y23199054D01*
X64020050Y23207818D01*
X63895109Y23379787D01*
X63744786Y23530110D01*
X63572820Y23655049D01*
X63383414Y23751556D01*
X63383413Y23751557D01*
X63383412Y23751557D01*
X63181243Y23817246D01*
X63181241Y23817247D01*
X63181240Y23817247D01*
X63019957Y23842792D01*
X62971287Y23850500D01*
X62758713Y23850500D01*
X62710042Y23842792D01*
X62548760Y23817247D01*
X62346585Y23751556D01*
X62157179Y23655049D01*
X61985213Y23530110D01*
X61834890Y23379787D01*
X61709949Y23207818D01*
X61705484Y23199054D01*
X61657509Y23148258D01*
X61589688Y23131464D01*
X61523553Y23154002D01*
X61484516Y23199054D01*
X61480050Y23207818D01*
X61355109Y23379787D01*
X61204786Y23530110D01*
X61032820Y23655049D01*
X60843414Y23751556D01*
X60843413Y23751557D01*
X60843412Y23751557D01*
X60641243Y23817246D01*
X60641241Y23817247D01*
X60641240Y23817247D01*
X60479957Y23842792D01*
X60431287Y23850500D01*
X60218713Y23850500D01*
X60170042Y23842792D01*
X60008760Y23817247D01*
X59806585Y23751556D01*
X59617179Y23655049D01*
X59445213Y23530110D01*
X59294890Y23379787D01*
X59169949Y23207818D01*
X59165484Y23199054D01*
X59117509Y23148258D01*
X59049688Y23131464D01*
X58983553Y23154002D01*
X58944516Y23199054D01*
X58940050Y23207818D01*
X58815109Y23379787D01*
X58664786Y23530110D01*
X58492820Y23655049D01*
X58303414Y23751556D01*
X58303413Y23751557D01*
X58303412Y23751557D01*
X58101243Y23817246D01*
X58101241Y23817247D01*
X58101240Y23817247D01*
X57939957Y23842792D01*
X57891287Y23850500D01*
X57678713Y23850500D01*
X57630042Y23842792D01*
X57468760Y23817247D01*
X57266585Y23751556D01*
X57077179Y23655049D01*
X56905213Y23530110D01*
X56754890Y23379787D01*
X56629949Y23207818D01*
X56625484Y23199054D01*
X56577509Y23148258D01*
X56509688Y23131464D01*
X56443553Y23154002D01*
X56404516Y23199054D01*
X56400050Y23207818D01*
X56275109Y23379787D01*
X56124786Y23530110D01*
X55952820Y23655049D01*
X55763414Y23751556D01*
X55763413Y23751557D01*
X55763412Y23751557D01*
X55561243Y23817246D01*
X55561241Y23817247D01*
X55561240Y23817247D01*
X55399957Y23842792D01*
X55351287Y23850500D01*
X55138713Y23850500D01*
X55090042Y23842792D01*
X54928760Y23817247D01*
X54726585Y23751556D01*
X54537179Y23655049D01*
X54365213Y23530110D01*
X54214890Y23379787D01*
X54089949Y23207818D01*
X54085484Y23199054D01*
X54037509Y23148258D01*
X53969688Y23131464D01*
X53903553Y23154002D01*
X53864516Y23199054D01*
X53860050Y23207818D01*
X53735109Y23379787D01*
X53584786Y23530110D01*
X53412820Y23655049D01*
X53223414Y23751556D01*
X53223413Y23751557D01*
X53223412Y23751557D01*
X53021243Y23817246D01*
X53021241Y23817247D01*
X53021240Y23817247D01*
X52859957Y23842792D01*
X52811287Y23850500D01*
X52598713Y23850500D01*
X52550042Y23842792D01*
X52388760Y23817247D01*
X52186585Y23751556D01*
X51997179Y23655049D01*
X51825213Y23530110D01*
X51674890Y23379787D01*
X51549949Y23207818D01*
X51545484Y23199054D01*
X51497509Y23148258D01*
X51429688Y23131464D01*
X51363553Y23154002D01*
X51324516Y23199054D01*
X51320050Y23207818D01*
X51195109Y23379787D01*
X51044786Y23530110D01*
X50872820Y23655049D01*
X50683414Y23751556D01*
X50683413Y23751557D01*
X50683412Y23751557D01*
X50481243Y23817246D01*
X50481241Y23817247D01*
X50481240Y23817247D01*
X50319957Y23842792D01*
X50271287Y23850500D01*
X50058713Y23850500D01*
X50010042Y23842792D01*
X49848760Y23817247D01*
X49646585Y23751556D01*
X49457179Y23655049D01*
X49285213Y23530110D01*
X49134890Y23379787D01*
X49009949Y23207818D01*
X49005484Y23199054D01*
X48957509Y23148258D01*
X48889688Y23131464D01*
X48823553Y23154002D01*
X48784516Y23199054D01*
X48780050Y23207818D01*
X48655109Y23379787D01*
X48504786Y23530110D01*
X48332820Y23655049D01*
X48143414Y23751556D01*
X48143413Y23751557D01*
X48143412Y23751557D01*
X47941243Y23817246D01*
X47941241Y23817247D01*
X47941240Y23817247D01*
X47779957Y23842792D01*
X47731287Y23850500D01*
X47518713Y23850500D01*
X47470042Y23842792D01*
X47308760Y23817247D01*
X47106585Y23751556D01*
X46917179Y23655049D01*
X46745213Y23530110D01*
X46594890Y23379787D01*
X46469949Y23207818D01*
X46465484Y23199054D01*
X46417509Y23148258D01*
X46349688Y23131464D01*
X46283553Y23154002D01*
X46244516Y23199054D01*
X46240050Y23207818D01*
X46115109Y23379787D01*
X45964786Y23530110D01*
X45792820Y23655049D01*
X45603414Y23751556D01*
X45603413Y23751557D01*
X45603412Y23751557D01*
X45401243Y23817246D01*
X45401241Y23817247D01*
X45401240Y23817247D01*
X45239957Y23842792D01*
X45191287Y23850500D01*
X44978713Y23850500D01*
X44930042Y23842792D01*
X44768760Y23817247D01*
X44566585Y23751556D01*
X44377179Y23655049D01*
X44205213Y23530110D01*
X44054890Y23379787D01*
X43929949Y23207818D01*
X43925484Y23199054D01*
X43877509Y23148258D01*
X43809688Y23131464D01*
X43743553Y23154002D01*
X43704516Y23199054D01*
X43700050Y23207818D01*
X43575109Y23379787D01*
X43424786Y23530110D01*
X43252820Y23655049D01*
X43063414Y23751556D01*
X43063413Y23751557D01*
X43063412Y23751557D01*
X42861243Y23817246D01*
X42861241Y23817247D01*
X42861240Y23817247D01*
X42699957Y23842792D01*
X42651287Y23850500D01*
X42438713Y23850500D01*
X42390042Y23842792D01*
X42228760Y23817247D01*
X42026585Y23751556D01*
X41837179Y23655049D01*
X41665213Y23530110D01*
X41514890Y23379787D01*
X41389949Y23207818D01*
X41385484Y23199054D01*
X41337509Y23148258D01*
X41269688Y23131464D01*
X41203553Y23154002D01*
X41164516Y23199054D01*
X41160050Y23207818D01*
X41035109Y23379787D01*
X40884786Y23530110D01*
X40712820Y23655049D01*
X40523414Y23751556D01*
X40523413Y23751557D01*
X40523412Y23751557D01*
X40321243Y23817246D01*
X40321241Y23817247D01*
X40321240Y23817247D01*
X40159957Y23842792D01*
X40111287Y23850500D01*
X39898713Y23850500D01*
X39850042Y23842792D01*
X39688760Y23817247D01*
X39486585Y23751556D01*
X39297179Y23655049D01*
X39125213Y23530110D01*
X38974890Y23379787D01*
X38849949Y23207818D01*
X38845484Y23199054D01*
X38797509Y23148258D01*
X38729688Y23131464D01*
X38663553Y23154002D01*
X38624516Y23199054D01*
X38620050Y23207818D01*
X38495109Y23379787D01*
X38344786Y23530110D01*
X38172820Y23655049D01*
X37983414Y23751556D01*
X37983413Y23751557D01*
X37983412Y23751557D01*
X37781243Y23817246D01*
X37781241Y23817247D01*
X37781240Y23817247D01*
X37619957Y23842792D01*
X37571287Y23850500D01*
X37358713Y23850500D01*
X37310042Y23842792D01*
X37148760Y23817247D01*
X36946585Y23751556D01*
X36757179Y23655049D01*
X36585213Y23530110D01*
X36434890Y23379787D01*
X36309949Y23207818D01*
X36305484Y23199054D01*
X36257509Y23148258D01*
X36189688Y23131464D01*
X36123553Y23154002D01*
X36084516Y23199054D01*
X36080050Y23207818D01*
X35955109Y23379787D01*
X35804786Y23530110D01*
X35632820Y23655049D01*
X35443414Y23751556D01*
X35443413Y23751557D01*
X35443412Y23751557D01*
X35241243Y23817246D01*
X35241241Y23817247D01*
X35241240Y23817247D01*
X35079957Y23842792D01*
X35031287Y23850500D01*
X34818713Y23850500D01*
X34770042Y23842792D01*
X34608760Y23817247D01*
X34406585Y23751556D01*
X34217179Y23655049D01*
X34045213Y23530110D01*
X33894890Y23379787D01*
X33769949Y23207818D01*
X33765484Y23199054D01*
X33717509Y23148258D01*
X33649688Y23131464D01*
X33583553Y23154002D01*
X33544516Y23199054D01*
X33540050Y23207818D01*
X33415109Y23379787D01*
X33264786Y23530110D01*
X33092820Y23655049D01*
X32903414Y23751556D01*
X32903413Y23751557D01*
X32903412Y23751557D01*
X32701243Y23817246D01*
X32701241Y23817247D01*
X32701240Y23817247D01*
X32539957Y23842792D01*
X32491287Y23850500D01*
X32278713Y23850500D01*
X32230042Y23842792D01*
X32068760Y23817247D01*
X31866585Y23751556D01*
X31677179Y23655049D01*
X31505213Y23530110D01*
X31354890Y23379787D01*
X31229949Y23207818D01*
X31225484Y23199054D01*
X31177509Y23148258D01*
X31109688Y23131464D01*
X31043553Y23154002D01*
X31004516Y23199054D01*
X31000050Y23207818D01*
X30875109Y23379787D01*
X30724786Y23530110D01*
X30552820Y23655049D01*
X30363414Y23751556D01*
X30363413Y23751557D01*
X30363412Y23751557D01*
X30161243Y23817246D01*
X30161241Y23817247D01*
X30161240Y23817247D01*
X29999957Y23842792D01*
X29951287Y23850500D01*
X29738713Y23850500D01*
X29690042Y23842792D01*
X29528760Y23817247D01*
X29326585Y23751556D01*
X29137179Y23655049D01*
X28965213Y23530110D01*
X28814890Y23379787D01*
X28689949Y23207818D01*
X28685484Y23199054D01*
X28637509Y23148258D01*
X28569688Y23131464D01*
X28503553Y23154002D01*
X28464516Y23199054D01*
X28460050Y23207818D01*
X28335109Y23379787D01*
X28184786Y23530110D01*
X28012820Y23655049D01*
X27823414Y23751556D01*
X27823413Y23751557D01*
X27823412Y23751557D01*
X27621243Y23817246D01*
X27621241Y23817247D01*
X27621240Y23817247D01*
X27459957Y23842792D01*
X27411287Y23850500D01*
X27198713Y23850500D01*
X27150042Y23842792D01*
X26988760Y23817247D01*
X26786585Y23751556D01*
X26597179Y23655049D01*
X26425213Y23530110D01*
X26274890Y23379787D01*
X26149951Y23207821D01*
X26053444Y23018415D01*
X25987753Y22816240D01*
X25954500Y22606287D01*
X14631112Y22606287D01*
X14586557Y22743412D01*
X14490051Y22932816D01*
X14490049Y22932819D01*
X14490048Y22932821D01*
X14365109Y23104787D01*
X14214786Y23255110D01*
X14042820Y23380049D01*
X14042115Y23380409D01*
X14034054Y23384515D01*
X13983259Y23432488D01*
X13966463Y23500308D01*
X13988999Y23566444D01*
X14034054Y23605485D01*
X14042816Y23609949D01*
X14156729Y23692711D01*
X14214786Y23734891D01*
X14214788Y23734894D01*
X14214792Y23734896D01*
X14365104Y23885208D01*
X14365106Y23885212D01*
X14365109Y23885214D01*
X14490048Y24057180D01*
X14490047Y24057180D01*
X14490051Y24057184D01*
X14586557Y24246588D01*
X14652246Y24448757D01*
X14685500Y24658713D01*
X14685500Y24871287D01*
X14652246Y25081243D01*
X14586557Y25283412D01*
X14490051Y25472816D01*
X14490049Y25472819D01*
X14490048Y25472821D01*
X14365109Y25644787D01*
X14214786Y25795110D01*
X14042820Y25920049D01*
X14042115Y25920409D01*
X14034054Y25924515D01*
X13983259Y25972488D01*
X13966463Y26040308D01*
X13988999Y26106444D01*
X14034054Y26145485D01*
X14042816Y26149949D01*
X14064789Y26165914D01*
X14214786Y26274891D01*
X14214788Y26274894D01*
X14214792Y26274896D01*
X14365104Y26425208D01*
X14365106Y26425212D01*
X14365109Y26425214D01*
X14490048Y26597180D01*
X14490047Y26597180D01*
X14490051Y26597184D01*
X14586557Y26786588D01*
X14652246Y26988757D01*
X14685500Y27198713D01*
X14685500Y27411287D01*
X14652246Y27621243D01*
X14586557Y27823412D01*
X14490051Y28012816D01*
X14490049Y28012819D01*
X14490048Y28012821D01*
X14365109Y28184787D01*
X14214786Y28335110D01*
X14042820Y28460049D01*
X14042115Y28460409D01*
X14034054Y28464515D01*
X13983259Y28512488D01*
X13966463Y28580308D01*
X13988999Y28646444D01*
X14034054Y28685485D01*
X14042816Y28689949D01*
X14064789Y28705914D01*
X14214786Y28814891D01*
X14214788Y28814894D01*
X14214792Y28814896D01*
X14365104Y28965208D01*
X14365106Y28965212D01*
X14365109Y28965214D01*
X14490048Y29137180D01*
X14490047Y29137180D01*
X14490051Y29137184D01*
X14586557Y29326588D01*
X14652246Y29528757D01*
X14685500Y29738713D01*
X14685500Y29951287D01*
X14652246Y30161243D01*
X14586557Y30363412D01*
X14490051Y30552816D01*
X14490049Y30552819D01*
X14490048Y30552821D01*
X14365109Y30724787D01*
X14214786Y30875110D01*
X14042820Y31000049D01*
X14042115Y31000409D01*
X14034054Y31004515D01*
X13983259Y31052488D01*
X13966463Y31120308D01*
X13988999Y31186444D01*
X14034054Y31225485D01*
X14042816Y31229949D01*
X14064789Y31245914D01*
X14214786Y31354891D01*
X14214788Y31354894D01*
X14214792Y31354896D01*
X14365104Y31505208D01*
X14365106Y31505212D01*
X14365109Y31505214D01*
X14490048Y31677180D01*
X14490047Y31677180D01*
X14490051Y31677184D01*
X14586557Y31866588D01*
X14652246Y32068757D01*
X14685500Y32278713D01*
X14685500Y32491287D01*
X14652246Y32701243D01*
X14586557Y32903412D01*
X14490051Y33092816D01*
X14490050Y33092818D01*
X14468617Y33122318D01*
X92680000Y33122318D01*
X92680000Y32917683D01*
X92712009Y32715583D01*
X92775244Y32520969D01*
X92868141Y32338650D01*
X92868147Y32338641D01*
X92900523Y32294079D01*
X92900524Y32294078D01*
X93580000Y32973554D01*
X93580000Y32967339D01*
X93607259Y32865606D01*
X93659920Y32774394D01*
X93734394Y32699920D01*
X93825606Y32647259D01*
X93927339Y32620000D01*
X93933553Y32620000D01*
X93254076Y31940526D01*
X93298650Y31908141D01*
X93480968Y31815245D01*
X93675582Y31752010D01*
X93877683Y31720000D01*
X94082317Y31720000D01*
X94284417Y31752010D01*
X94479031Y31815245D01*
X94661349Y31908141D01*
X94705921Y31940526D01*
X94026447Y32620000D01*
X94032661Y32620000D01*
X94134394Y32647259D01*
X94225606Y32699920D01*
X94300080Y32774394D01*
X94352741Y32865606D01*
X94380000Y32967339D01*
X94380000Y32973553D01*
X95059474Y32294079D01*
X95091859Y32338651D01*
X95184755Y32520969D01*
X95247990Y32715583D01*
X95280000Y32917683D01*
X95280000Y33122318D01*
X95247990Y33324418D01*
X95184755Y33519032D01*
X95091859Y33701350D01*
X95059474Y33745923D01*
X95059474Y33745924D01*
X94380000Y33066449D01*
X94380000Y33072661D01*
X94352741Y33174394D01*
X94300080Y33265606D01*
X94225606Y33340080D01*
X94134394Y33392741D01*
X94032661Y33420000D01*
X94026446Y33420000D01*
X94705922Y34099476D01*
X94705921Y34099477D01*
X94661359Y34131853D01*
X94661350Y34131859D01*
X94479031Y34224756D01*
X94284417Y34287991D01*
X94082317Y34320000D01*
X93877683Y34320000D01*
X93675582Y34287991D01*
X93480968Y34224756D01*
X93298644Y34131857D01*
X93254077Y34099477D01*
X93254077Y34099476D01*
X93933554Y33420000D01*
X93927339Y33420000D01*
X93825606Y33392741D01*
X93734394Y33340080D01*
X93659920Y33265606D01*
X93607259Y33174394D01*
X93580000Y33072661D01*
X93580000Y33066447D01*
X92900524Y33745923D01*
X92900523Y33745923D01*
X92868143Y33701356D01*
X92775244Y33519032D01*
X92712009Y33324418D01*
X92680000Y33122318D01*
X14468617Y33122318D01*
X14365109Y33264787D01*
X14214786Y33415110D01*
X14042820Y33540049D01*
X14042115Y33540409D01*
X14034054Y33544515D01*
X13983259Y33592488D01*
X13966463Y33660308D01*
X13988999Y33726444D01*
X14034054Y33765485D01*
X14042816Y33769949D01*
X14064789Y33785914D01*
X14214786Y33894891D01*
X14214788Y33894894D01*
X14214792Y33894896D01*
X14365104Y34045208D01*
X14404532Y34099476D01*
X14423148Y34125099D01*
X14423150Y34125102D01*
X14428059Y34131859D01*
X14490051Y34217184D01*
X14586557Y34406588D01*
X14652246Y34608757D01*
X14685500Y34818713D01*
X14685500Y35031287D01*
X14652246Y35241243D01*
X14586557Y35443412D01*
X14490051Y35632816D01*
X14490049Y35632819D01*
X14490048Y35632821D01*
X14365109Y35804787D01*
X14214786Y35955110D01*
X14042820Y36080049D01*
X14042115Y36080409D01*
X14034054Y36084515D01*
X13983259Y36132488D01*
X13966463Y36200308D01*
X13988999Y36266444D01*
X14034054Y36305485D01*
X14042816Y36309949D01*
X14064789Y36325914D01*
X14214786Y36434891D01*
X14214788Y36434894D01*
X14214792Y36434896D01*
X14365104Y36585208D01*
X14365106Y36585212D01*
X14365109Y36585214D01*
X14490048Y36757180D01*
X14490047Y36757180D01*
X14490051Y36757184D01*
X14586557Y36946588D01*
X14652246Y37148757D01*
X14685500Y37358713D01*
X14685500Y37571287D01*
X14652246Y37781243D01*
X14586557Y37983412D01*
X14490051Y38172816D01*
X14490049Y38172819D01*
X14490048Y38172821D01*
X14365109Y38344787D01*
X14214786Y38495110D01*
X14042820Y38620049D01*
X13853414Y38716556D01*
X13853413Y38716557D01*
X13853412Y38716557D01*
X13651243Y38782246D01*
X13651241Y38782247D01*
X13651240Y38782247D01*
X13489957Y38807792D01*
X13441287Y38815500D01*
X13228713Y38815500D01*
X13180042Y38807792D01*
X13018760Y38782247D01*
X12816585Y38716556D01*
X12627179Y38620049D01*
X12455213Y38495110D01*
X12304890Y38344787D01*
X12179949Y38172818D01*
X12175484Y38164054D01*
X12127509Y38113258D01*
X12059688Y38096464D01*
X11993553Y38119002D01*
X11954516Y38164054D01*
X11950050Y38172818D01*
X11825109Y38344787D01*
X11674786Y38495110D01*
X11502820Y38620049D01*
X11313414Y38716556D01*
X11313413Y38716557D01*
X11313412Y38716557D01*
X11111243Y38782246D01*
X11111241Y38782247D01*
X11111240Y38782247D01*
X10949957Y38807792D01*
X10901287Y38815500D01*
X10688713Y38815500D01*
X10640042Y38807792D01*
X10478760Y38782247D01*
X10276585Y38716556D01*
X10087179Y38620049D01*
X9915213Y38495110D01*
X9764890Y38344787D01*
X9639951Y38172821D01*
X9543444Y37983415D01*
X9477753Y37781240D01*
X9444500Y37571287D01*
X500000Y37571287D01*
X500000Y42143789D01*
X3334500Y42143789D01*
X3334500Y41901212D01*
X3366161Y41660715D01*
X3428947Y41426396D01*
X3521773Y41202295D01*
X3521776Y41202288D01*
X3643064Y40992211D01*
X3643066Y40992208D01*
X3643067Y40992207D01*
X3790733Y40799764D01*
X3790739Y40799757D01*
X3962256Y40628240D01*
X3962262Y40628235D01*
X4154711Y40480564D01*
X4364788Y40359276D01*
X4588900Y40266446D01*
X4823211Y40203662D01*
X5003586Y40179916D01*
X5063711Y40172000D01*
X5063712Y40172000D01*
X5306289Y40172000D01*
X5354388Y40178333D01*
X5546789Y40203662D01*
X5781100Y40266446D01*
X6005212Y40359276D01*
X6215289Y40480564D01*
X6407738Y40628235D01*
X6579265Y40799762D01*
X6726936Y40992211D01*
X6848224Y41202288D01*
X6941054Y41426400D01*
X7003838Y41660711D01*
X7035500Y41901212D01*
X7035500Y42143788D01*
X7003838Y42384289D01*
X6941054Y42618600D01*
X6848224Y42842712D01*
X6726936Y43052789D01*
X6700834Y43086805D01*
X6604971Y43211738D01*
X6579266Y43245237D01*
X6579260Y43245244D01*
X6542152Y43282352D01*
X92679500Y43282352D01*
X92679500Y43077649D01*
X92711522Y42875466D01*
X92774781Y42680777D01*
X92867715Y42498387D01*
X92988028Y42332787D01*
X93132786Y42188029D01*
X93287749Y42075444D01*
X93298390Y42067713D01*
X93414607Y42008497D01*
X93480776Y41974782D01*
X93480778Y41974782D01*
X93480781Y41974780D01*
X93585137Y41940873D01*
X93675465Y41911523D01*
X93740566Y41901212D01*
X93877648Y41879500D01*
X93877649Y41879500D01*
X94082351Y41879500D01*
X94082352Y41879500D01*
X94284534Y41911523D01*
X94479219Y41974780D01*
X94661610Y42067713D01*
X94766319Y42143788D01*
X94827213Y42188029D01*
X94827215Y42188032D01*
X94827219Y42188034D01*
X94971966Y42332781D01*
X94971968Y42332785D01*
X94971971Y42332787D01*
X95024732Y42405410D01*
X95092287Y42498390D01*
X95185220Y42680781D01*
X95248477Y42875466D01*
X95280500Y43077648D01*
X95280500Y43282352D01*
X95259211Y43416765D01*
X95248477Y43484535D01*
X95185218Y43679224D01*
X95151503Y43745393D01*
X95092287Y43861610D01*
X95084012Y43873000D01*
X94971971Y44027214D01*
X94827213Y44171972D01*
X94661613Y44292285D01*
X94661612Y44292286D01*
X94661610Y44292287D01*
X94604653Y44321309D01*
X94479223Y44385219D01*
X94284534Y44448478D01*
X94109995Y44476122D01*
X94082352Y44480500D01*
X93877648Y44480500D01*
X93853329Y44476649D01*
X93675465Y44448478D01*
X93480776Y44385219D01*
X93298386Y44292285D01*
X93132786Y44171972D01*
X92988028Y44027214D01*
X92867715Y43861614D01*
X92774781Y43679224D01*
X92711522Y43484535D01*
X92679500Y43282352D01*
X6542152Y43282352D01*
X6407743Y43416761D01*
X6407736Y43416767D01*
X6215293Y43564433D01*
X6215292Y43564434D01*
X6215289Y43564436D01*
X6016479Y43679219D01*
X6005214Y43685723D01*
X6005205Y43685727D01*
X5781104Y43778553D01*
X5546785Y43841339D01*
X5306289Y43873000D01*
X5306288Y43873000D01*
X5063712Y43873000D01*
X5063711Y43873000D01*
X4823214Y43841339D01*
X4588895Y43778553D01*
X4364794Y43685727D01*
X4364785Y43685723D01*
X4154706Y43564433D01*
X3962263Y43416767D01*
X3962256Y43416761D01*
X3790739Y43245244D01*
X3790733Y43245237D01*
X3643067Y43052794D01*
X3521777Y42842715D01*
X3521773Y42842706D01*
X3428947Y42618605D01*
X3366161Y42384286D01*
X3334500Y42143789D01*
X500000Y42143789D01*
X500000Y46103789D01*
X3334500Y46103789D01*
X3334500Y45861212D01*
X3366161Y45620715D01*
X3428947Y45386396D01*
X3521773Y45162295D01*
X3521776Y45162288D01*
X3643064Y44952211D01*
X3643066Y44952208D01*
X3643067Y44952207D01*
X3790733Y44759764D01*
X3790739Y44759757D01*
X3962256Y44588240D01*
X3962262Y44588235D01*
X4154711Y44440564D01*
X4364788Y44319276D01*
X4588900Y44226446D01*
X4823211Y44163662D01*
X5003586Y44139916D01*
X5063711Y44132000D01*
X5063712Y44132000D01*
X5306289Y44132000D01*
X5354388Y44138333D01*
X5546789Y44163662D01*
X5781100Y44226446D01*
X6005212Y44319276D01*
X6215289Y44440564D01*
X6407738Y44588235D01*
X6579265Y44759762D01*
X6726936Y44952211D01*
X6848224Y45162288D01*
X6941054Y45386400D01*
X7003838Y45620711D01*
X7035500Y45861212D01*
X7035500Y46103788D01*
X7003838Y46344289D01*
X6941054Y46578600D01*
X6848224Y46802712D01*
X6726936Y47012789D01*
X6608093Y47167669D01*
X6579266Y47205237D01*
X6579260Y47205244D01*
X6407743Y47376761D01*
X6407736Y47376767D01*
X6215293Y47524433D01*
X6215292Y47524434D01*
X6215289Y47524436D01*
X6005212Y47645724D01*
X6005205Y47645727D01*
X5781104Y47738553D01*
X5546785Y47801339D01*
X5306289Y47833000D01*
X5306288Y47833000D01*
X5063712Y47833000D01*
X5063711Y47833000D01*
X4823214Y47801339D01*
X4588895Y47738553D01*
X4364794Y47645727D01*
X4364785Y47645723D01*
X4154706Y47524433D01*
X3962263Y47376767D01*
X3962256Y47376761D01*
X3790739Y47205244D01*
X3790733Y47205237D01*
X3643067Y47012794D01*
X3521777Y46802715D01*
X3521773Y46802706D01*
X3428947Y46578605D01*
X3366161Y46344286D01*
X3334500Y46103789D01*
X500000Y46103789D01*
X500000Y50063789D01*
X3334500Y50063789D01*
X3334500Y49821212D01*
X3363252Y49602811D01*
X3366162Y49580711D01*
X3396484Y49467548D01*
X3428947Y49346396D01*
X3521773Y49122295D01*
X3521776Y49122288D01*
X3643064Y48912211D01*
X3643066Y48912208D01*
X3643067Y48912207D01*
X3790733Y48719764D01*
X3790739Y48719757D01*
X3962256Y48548240D01*
X3962262Y48548235D01*
X4154711Y48400564D01*
X4364788Y48279276D01*
X4588900Y48186446D01*
X4823211Y48123662D01*
X5003586Y48099916D01*
X5063711Y48092000D01*
X5063712Y48092000D01*
X5306289Y48092000D01*
X5354388Y48098333D01*
X5546789Y48123662D01*
X5781100Y48186446D01*
X6005212Y48279276D01*
X6215289Y48400564D01*
X6407738Y48548235D01*
X6579265Y48719762D01*
X6726936Y48912211D01*
X6848224Y49122288D01*
X6941054Y49346400D01*
X7003838Y49580711D01*
X7035500Y49821212D01*
X7035500Y50063788D01*
X7003838Y50304289D01*
X6941054Y50538600D01*
X6848224Y50762712D01*
X6726936Y50972789D01*
X6666018Y51052179D01*
X6579266Y51165237D01*
X6579260Y51165244D01*
X6407743Y51336761D01*
X6407736Y51336767D01*
X6215293Y51484433D01*
X6215292Y51484434D01*
X6215289Y51484436D01*
X6005212Y51605724D01*
X6005205Y51605727D01*
X5781104Y51698553D01*
X5546785Y51761339D01*
X5306289Y51793000D01*
X5306288Y51793000D01*
X5063712Y51793000D01*
X5063711Y51793000D01*
X4823214Y51761339D01*
X4588895Y51698553D01*
X4364794Y51605727D01*
X4364785Y51605723D01*
X4154706Y51484433D01*
X3962263Y51336767D01*
X3962256Y51336761D01*
X3790739Y51165244D01*
X3790733Y51165237D01*
X3643067Y50972794D01*
X3521777Y50762715D01*
X3521773Y50762706D01*
X3428947Y50538605D01*
X3366161Y50304286D01*
X3334500Y50063789D01*
X500000Y50063789D01*
X500000Y54023749D01*
X3335000Y54023749D01*
X3335000Y53781252D01*
X3335001Y53781236D01*
X3366653Y53540813D01*
X3429421Y53306561D01*
X3522220Y53082522D01*
X3522227Y53082508D01*
X3643481Y52872490D01*
X3712061Y52783116D01*
X4430884Y53501940D01*
X4431740Y53499874D01*
X4524762Y53360656D01*
X4643156Y53242262D01*
X4782374Y53149240D01*
X4784437Y53148386D01*
X4065614Y52429564D01*
X4065614Y52429563D01*
X4154989Y52360983D01*
X4154996Y52360978D01*
X4365007Y52239728D01*
X4365021Y52239721D01*
X4589060Y52146922D01*
X4823312Y52084154D01*
X5063735Y52052502D01*
X5063752Y52052500D01*
X5306248Y52052500D01*
X5306264Y52052502D01*
X5546687Y52084154D01*
X5780939Y52146922D01*
X6004978Y52239721D01*
X6004992Y52239728D01*
X6166310Y52332865D01*
X15789500Y52332865D01*
X15789500Y50537130D01*
X15789501Y50537124D01*
X15795908Y50477517D01*
X15846202Y50342672D01*
X15846206Y50342665D01*
X15932452Y50227456D01*
X15932455Y50227453D01*
X16047664Y50141207D01*
X16047671Y50141203D01*
X16182517Y50090909D01*
X16182516Y50090909D01*
X16189444Y50090165D01*
X16242127Y50084500D01*
X18037872Y50084501D01*
X18097483Y50090909D01*
X18232331Y50141204D01*
X18347546Y50227454D01*
X18433796Y50342669D01*
X18482810Y50474084D01*
X18524681Y50530016D01*
X18590145Y50554434D01*
X18658418Y50539583D01*
X18686673Y50518431D01*
X18800213Y50404891D01*
X18972179Y50279952D01*
X18972181Y50279951D01*
X18972184Y50279949D01*
X19161588Y50183443D01*
X19363757Y50117754D01*
X19573713Y50084500D01*
X19573714Y50084500D01*
X19786286Y50084500D01*
X19786287Y50084500D01*
X19996243Y50117754D01*
X20198412Y50183443D01*
X20387816Y50279949D01*
X20474138Y50342665D01*
X20559786Y50404891D01*
X20559788Y50404894D01*
X20559792Y50404896D01*
X20710104Y50555208D01*
X20710106Y50555212D01*
X20710109Y50555214D01*
X20835048Y50727180D01*
X20835047Y50727180D01*
X20835051Y50727184D01*
X20931557Y50916588D01*
X20997246Y51118757D01*
X21030500Y51328713D01*
X21030500Y51541287D01*
X20997246Y51751243D01*
X20931557Y51953412D01*
X20835051Y52142816D01*
X20835049Y52142819D01*
X20835048Y52142821D01*
X20710109Y52314787D01*
X20559786Y52465110D01*
X20387820Y52590049D01*
X20198414Y52686556D01*
X20198413Y52686557D01*
X20198412Y52686557D01*
X19996243Y52752246D01*
X19996241Y52752247D01*
X19996240Y52752247D01*
X19834957Y52777792D01*
X19786287Y52785500D01*
X19573713Y52785500D01*
X19525042Y52777792D01*
X19363760Y52752247D01*
X19161585Y52686556D01*
X18972179Y52590049D01*
X18800215Y52465111D01*
X18686673Y52351569D01*
X18625350Y52318085D01*
X18555658Y52323069D01*
X18499725Y52364941D01*
X18482810Y52395918D01*
X18433797Y52527329D01*
X18433793Y52527336D01*
X18347547Y52642545D01*
X18347544Y52642548D01*
X18232335Y52728794D01*
X18232328Y52728798D01*
X18097482Y52779092D01*
X18097483Y52779092D01*
X18037883Y52785499D01*
X18037881Y52785500D01*
X18037873Y52785500D01*
X18037864Y52785500D01*
X16242129Y52785500D01*
X16242123Y52785499D01*
X16182516Y52779092D01*
X16047671Y52728798D01*
X16047664Y52728794D01*
X15932455Y52642548D01*
X15932452Y52642545D01*
X15846206Y52527336D01*
X15846202Y52527329D01*
X15795908Y52392483D01*
X15789501Y52332884D01*
X15789500Y52332865D01*
X6166310Y52332865D01*
X6215012Y52360983D01*
X6304384Y52429562D01*
X6304384Y52429564D01*
X5585562Y53148386D01*
X5587626Y53149240D01*
X5726844Y53242262D01*
X5845238Y53360656D01*
X5938260Y53499874D01*
X5939114Y53501938D01*
X6657936Y52783116D01*
X6657939Y52783116D01*
X6726515Y52872484D01*
X6847772Y53082508D01*
X6847779Y53082522D01*
X6940579Y53306563D01*
X6978018Y53446287D01*
X92629500Y53446287D01*
X92629500Y53233714D01*
X92662753Y53023761D01*
X92728444Y52821586D01*
X92824951Y52632180D01*
X92949890Y52460214D01*
X93100213Y52309891D01*
X93272182Y52184950D01*
X93280946Y52180484D01*
X93331742Y52132509D01*
X93348536Y52064688D01*
X93325998Y51998553D01*
X93280946Y51959516D01*
X93272182Y51955051D01*
X93100213Y51830110D01*
X92949890Y51679787D01*
X92824951Y51507821D01*
X92728444Y51318415D01*
X92662753Y51116240D01*
X92629500Y50906287D01*
X92629500Y50693714D01*
X92654067Y50538600D01*
X92662754Y50483757D01*
X92708596Y50342669D01*
X92728444Y50281586D01*
X92824951Y50092180D01*
X92949890Y49920214D01*
X93063430Y49806674D01*
X93096915Y49745351D01*
X93091931Y49675659D01*
X93050059Y49619726D01*
X93019083Y49602811D01*
X92887669Y49553797D01*
X92887664Y49553794D01*
X92772455Y49467548D01*
X92772452Y49467545D01*
X92686206Y49352336D01*
X92686202Y49352329D01*
X92635908Y49217483D01*
X92629501Y49157884D01*
X92629501Y49157877D01*
X92629500Y49157865D01*
X92629500Y47362130D01*
X92629501Y47362124D01*
X92635908Y47302517D01*
X92686202Y47167672D01*
X92686206Y47167665D01*
X92772452Y47052456D01*
X92772455Y47052453D01*
X92887664Y46966207D01*
X92887671Y46966203D01*
X93022517Y46915909D01*
X93022516Y46915909D01*
X93029444Y46915165D01*
X93082127Y46909500D01*
X94877872Y46909501D01*
X94937483Y46915909D01*
X95072331Y46966204D01*
X95187546Y47052454D01*
X95273796Y47167669D01*
X95324091Y47302517D01*
X95330500Y47362127D01*
X95330499Y49157872D01*
X95324091Y49217483D01*
X95273796Y49352331D01*
X95273795Y49352332D01*
X95273793Y49352336D01*
X95187547Y49467545D01*
X95187544Y49467548D01*
X95072335Y49553794D01*
X95072328Y49553798D01*
X94940917Y49602811D01*
X94884983Y49644682D01*
X94860566Y49710147D01*
X94875418Y49778420D01*
X94896563Y49806668D01*
X95010104Y49920208D01*
X95135051Y50092184D01*
X95231557Y50281588D01*
X95297246Y50483757D01*
X95330500Y50693713D01*
X95330500Y50906287D01*
X95297246Y51116243D01*
X95231557Y51318412D01*
X95135051Y51507816D01*
X95135049Y51507819D01*
X95135048Y51507821D01*
X95010109Y51679787D01*
X94859786Y51830110D01*
X94687820Y51955049D01*
X94687115Y51955409D01*
X94679054Y51959515D01*
X94628259Y52007488D01*
X94611463Y52075308D01*
X94633999Y52141444D01*
X94679054Y52180485D01*
X94687816Y52184949D01*
X94763204Y52239721D01*
X94859786Y52309891D01*
X94859788Y52309894D01*
X94859792Y52309896D01*
X95010104Y52460208D01*
X95010106Y52460212D01*
X95010109Y52460214D01*
X95135048Y52632180D01*
X95135047Y52632180D01*
X95135051Y52632184D01*
X95231557Y52821588D01*
X95297246Y53023757D01*
X95330500Y53233713D01*
X95330500Y53446287D01*
X95297246Y53656243D01*
X95231557Y53858412D01*
X95135051Y54047816D01*
X95135049Y54047819D01*
X95135048Y54047821D01*
X95010109Y54219787D01*
X94859786Y54370110D01*
X94687820Y54495049D01*
X94498414Y54591556D01*
X94498413Y54591557D01*
X94498412Y54591557D01*
X94296243Y54657246D01*
X94296241Y54657247D01*
X94296240Y54657247D01*
X94134957Y54682792D01*
X94086287Y54690500D01*
X93873713Y54690500D01*
X93825042Y54682792D01*
X93663760Y54657247D01*
X93461585Y54591556D01*
X93272179Y54495049D01*
X93100213Y54370110D01*
X92949890Y54219787D01*
X92824951Y54047821D01*
X92728444Y53858415D01*
X92662753Y53656240D01*
X92629500Y53446287D01*
X6978018Y53446287D01*
X6987923Y53483252D01*
X6987923Y53483253D01*
X7003346Y53540814D01*
X7034998Y53781236D01*
X7035000Y53781252D01*
X7035000Y54023749D01*
X7034998Y54023765D01*
X7003346Y54264188D01*
X6940578Y54498440D01*
X6847779Y54722479D01*
X6847772Y54722493D01*
X6726522Y54932504D01*
X6726517Y54932511D01*
X6657937Y55021886D01*
X6657936Y55021886D01*
X5939114Y54303064D01*
X5938260Y54305126D01*
X5845238Y54444344D01*
X5726844Y54562738D01*
X5587626Y54655760D01*
X5585560Y54656616D01*
X6304384Y55375439D01*
X6215010Y55444019D01*
X6004992Y55565273D01*
X6004978Y55565280D01*
X5780939Y55658079D01*
X5546687Y55720847D01*
X5306264Y55752499D01*
X5306248Y55752500D01*
X5063752Y55752500D01*
X5063735Y55752499D01*
X4823312Y55720847D01*
X4589060Y55658079D01*
X4365021Y55565280D01*
X4365006Y55565273D01*
X4154990Y55444020D01*
X4065614Y55375440D01*
X4065614Y55375439D01*
X4784438Y54656615D01*
X4782374Y54655760D01*
X4643156Y54562738D01*
X4524762Y54444344D01*
X4431740Y54305126D01*
X4430885Y54303062D01*
X3712061Y55021886D01*
X3712060Y55021886D01*
X3643480Y54932510D01*
X3522227Y54722494D01*
X3522220Y54722479D01*
X3429421Y54498440D01*
X3366653Y54264188D01*
X3335001Y54023765D01*
X3335000Y54023749D01*
X500000Y54023749D01*
X500000Y59012486D01*
X3335000Y59012486D01*
X3335000Y58112500D01*
X4368520Y58112500D01*
X4367665Y58110436D01*
X4335000Y57946218D01*
X4335000Y57778782D01*
X4367665Y57614564D01*
X4368520Y57612500D01*
X3335000Y57612500D01*
X3335000Y56712515D01*
X3345493Y56609811D01*
X3345494Y56609804D01*
X3400641Y56443382D01*
X3400643Y56443377D01*
X3492684Y56294156D01*
X3616655Y56170185D01*
X3765876Y56078144D01*
X3765881Y56078142D01*
X3932303Y56022995D01*
X3932310Y56022994D01*
X4035014Y56012501D01*
X4035027Y56012500D01*
X4935000Y56012500D01*
X4935000Y57046020D01*
X4937064Y57045165D01*
X5101282Y57012500D01*
X5268718Y57012500D01*
X5432936Y57045165D01*
X5435000Y57046020D01*
X5435000Y56012500D01*
X6334973Y56012500D01*
X6334985Y56012501D01*
X6437689Y56022994D01*
X6437696Y56022995D01*
X6604118Y56078142D01*
X6604123Y56078144D01*
X6753344Y56170185D01*
X6877315Y56294156D01*
X6969356Y56443377D01*
X6969358Y56443382D01*
X7024505Y56609804D01*
X7024506Y56609811D01*
X7034999Y56712515D01*
X7035000Y56712528D01*
X7035000Y57281572D01*
X14650000Y57281572D01*
X14650000Y57108429D01*
X14677085Y56937416D01*
X14730592Y56772741D01*
X14809196Y56618475D01*
X14813709Y56612264D01*
X14813709Y56612263D01*
X15396446Y57194999D01*
X15396446Y57195001D01*
X14813709Y57777739D01*
X14813708Y57777739D01*
X14809203Y57771537D01*
X14809193Y57771520D01*
X14730592Y57617260D01*
X14677085Y57452585D01*
X14650000Y57281572D01*
X7035000Y57281572D01*
X7035000Y57612500D01*
X6001480Y57612500D01*
X6002335Y57614564D01*
X6035000Y57778782D01*
X6035000Y57946218D01*
X6002335Y58110436D01*
X6001480Y58112500D01*
X7035000Y58112500D01*
X7035000Y58131292D01*
X15167261Y58131292D01*
X15167261Y58131291D01*
X15808697Y57489855D01*
X15789496Y57495000D01*
X15710504Y57495000D01*
X15634204Y57474556D01*
X15565795Y57435060D01*
X15509940Y57379205D01*
X15470444Y57310796D01*
X15450000Y57234496D01*
X15450000Y57155504D01*
X15470444Y57079204D01*
X15509940Y57010795D01*
X15565795Y56954940D01*
X15634204Y56915444D01*
X15710504Y56895000D01*
X15789496Y56895000D01*
X15808696Y56900145D01*
X15167261Y56258711D01*
X15167262Y56258710D01*
X15173471Y56254199D01*
X15327742Y56175592D01*
X15492415Y56122086D01*
X15663429Y56095000D01*
X15836571Y56095000D01*
X16007584Y56122086D01*
X16172257Y56175592D01*
X16326525Y56254197D01*
X16426688Y56326969D01*
X16492495Y56350449D01*
X16560549Y56334624D01*
X16572458Y56326971D01*
X16673212Y56253768D01*
X16827555Y56175127D01*
X16992299Y56121598D01*
X17163389Y56094500D01*
X17163390Y56094500D01*
X17336610Y56094500D01*
X17336611Y56094500D01*
X17507701Y56121598D01*
X17672445Y56175127D01*
X17826788Y56253768D01*
X17966928Y56355586D01*
X18089414Y56478072D01*
X18191232Y56618212D01*
X18269873Y56772555D01*
X18323402Y56937299D01*
X18350500Y57108389D01*
X18350500Y57281611D01*
X18348012Y57297318D01*
X21050000Y57297318D01*
X21050000Y57092683D01*
X21082009Y56890583D01*
X21145244Y56695969D01*
X21238141Y56513650D01*
X21238147Y56513641D01*
X21270523Y56469079D01*
X21270524Y56469078D01*
X21950000Y57148554D01*
X21950000Y57142339D01*
X21977259Y57040606D01*
X22029920Y56949394D01*
X22104394Y56874920D01*
X22195606Y56822259D01*
X22297339Y56795000D01*
X22303553Y56795000D01*
X21624076Y56115526D01*
X21668650Y56083141D01*
X21850968Y55990245D01*
X22045582Y55927010D01*
X22247683Y55895000D01*
X22452317Y55895000D01*
X22654417Y55927010D01*
X22849031Y55990245D01*
X23031349Y56083141D01*
X23075921Y56115526D01*
X22396447Y56795000D01*
X22402661Y56795000D01*
X22504394Y56822259D01*
X22595606Y56874920D01*
X22670080Y56949394D01*
X22722741Y57040606D01*
X22750000Y57142339D01*
X22750000Y57148553D01*
X23429474Y56469079D01*
X23461859Y56513651D01*
X23489233Y56567376D01*
X23537207Y56618173D01*
X23605028Y56634969D01*
X23671163Y56612433D01*
X23710203Y56567379D01*
X23737713Y56513389D01*
X23858028Y56347787D01*
X24002786Y56203029D01*
X24123226Y56115526D01*
X24168390Y56082713D01*
X24284607Y56023497D01*
X24350776Y55989782D01*
X24350778Y55989782D01*
X24350781Y55989780D01*
X24455137Y55955873D01*
X24545465Y55926523D01*
X24646557Y55910512D01*
X24747648Y55894500D01*
X24747649Y55894500D01*
X24952351Y55894500D01*
X24952352Y55894500D01*
X25154534Y55926523D01*
X25349219Y55989780D01*
X25531610Y56082713D01*
X25659448Y56175592D01*
X25697213Y56203029D01*
X25697215Y56203032D01*
X25697219Y56203034D01*
X25841966Y56347781D01*
X25841968Y56347785D01*
X25841971Y56347787D01*
X25911420Y56443377D01*
X25962287Y56513390D01*
X26055220Y56695781D01*
X26118477Y56890466D01*
X26150500Y57092648D01*
X26150500Y57297352D01*
X26128689Y57435060D01*
X26118477Y57499535D01*
X26080164Y57617448D01*
X26055220Y57694219D01*
X26055218Y57694222D01*
X26055218Y57694224D01*
X26015824Y57771537D01*
X25962287Y57876610D01*
X25930092Y57920923D01*
X25841971Y58042214D01*
X25697213Y58186972D01*
X25531613Y58307285D01*
X25531612Y58307286D01*
X25531610Y58307287D01*
X25474653Y58336309D01*
X25349223Y58400219D01*
X25154534Y58463478D01*
X24979995Y58491122D01*
X24952352Y58495500D01*
X24747648Y58495500D01*
X24723329Y58491649D01*
X24545465Y58463478D01*
X24350776Y58400219D01*
X24168386Y58307285D01*
X24002786Y58186972D01*
X23858028Y58042214D01*
X23737714Y57876614D01*
X23710203Y57822621D01*
X23662227Y57771826D01*
X23594406Y57755032D01*
X23528272Y57777571D01*
X23489234Y57822624D01*
X23461861Y57876348D01*
X23429474Y57920923D01*
X23429474Y57920924D01*
X22750000Y57241449D01*
X22750000Y57247661D01*
X22722741Y57349394D01*
X22670080Y57440606D01*
X22595606Y57515080D01*
X22504394Y57567741D01*
X22402661Y57595000D01*
X22396446Y57595000D01*
X23075922Y58274476D01*
X23075921Y58274477D01*
X23031359Y58306853D01*
X23031350Y58306859D01*
X22849031Y58399756D01*
X22654417Y58462991D01*
X22452317Y58495000D01*
X22247683Y58495000D01*
X22045582Y58462991D01*
X21850968Y58399756D01*
X21668644Y58306857D01*
X21624077Y58274477D01*
X21624077Y58274476D01*
X22303554Y57595000D01*
X22297339Y57595000D01*
X22195606Y57567741D01*
X22104394Y57515080D01*
X22029920Y57440606D01*
X21977259Y57349394D01*
X21950000Y57247661D01*
X21950000Y57241447D01*
X21270524Y57920923D01*
X21270523Y57920923D01*
X21238143Y57876356D01*
X21145244Y57694032D01*
X21082009Y57499418D01*
X21050000Y57297318D01*
X18348012Y57297318D01*
X18323402Y57452701D01*
X18269873Y57617445D01*
X18191232Y57771788D01*
X18089414Y57911928D01*
X17966928Y58034414D01*
X17833589Y58131291D01*
X17826787Y58136233D01*
X17672447Y58214872D01*
X17672446Y58214873D01*
X17672445Y58214873D01*
X17507701Y58268402D01*
X17507699Y58268403D01*
X17507698Y58268403D01*
X17376271Y58289219D01*
X17336611Y58295500D01*
X17163389Y58295500D01*
X17123728Y58289219D01*
X16992302Y58268403D01*
X16827552Y58214872D01*
X16673207Y58136230D01*
X16572459Y58063032D01*
X16506653Y58039552D01*
X16438599Y58055378D01*
X16426689Y58063032D01*
X16326528Y58135802D01*
X16172257Y58214409D01*
X16007584Y58267915D01*
X15836571Y58295000D01*
X15663429Y58295000D01*
X15492415Y58267915D01*
X15327740Y58214408D01*
X15173480Y58135807D01*
X15173463Y58135797D01*
X15167261Y58131292D01*
X7035000Y58131292D01*
X7035000Y59012473D01*
X7034999Y59012486D01*
X7024506Y59115190D01*
X7024505Y59115197D01*
X6969358Y59281619D01*
X6969356Y59281624D01*
X6877315Y59430845D01*
X6753344Y59554816D01*
X6604123Y59646857D01*
X6604118Y59646859D01*
X6437696Y59702006D01*
X6437689Y59702007D01*
X6334985Y59712500D01*
X5435000Y59712500D01*
X5435000Y58678981D01*
X5432936Y58679835D01*
X5268718Y58712500D01*
X5101282Y58712500D01*
X4937064Y58679835D01*
X4935000Y58678981D01*
X4935000Y59712500D01*
X4035014Y59712500D01*
X3932310Y59702007D01*
X3932303Y59702006D01*
X3765881Y59646859D01*
X3765876Y59646857D01*
X3616655Y59554816D01*
X3492684Y59430845D01*
X3400643Y59281624D01*
X3400641Y59281619D01*
X3345494Y59115197D01*
X3345493Y59115190D01*
X3335000Y59012486D01*
X500000Y59012486D01*
X500000Y64280384D01*
X10894500Y64280384D01*
X10894500Y64079617D01*
X10925907Y63881320D01*
X10987949Y63690374D01*
X11079095Y63511492D01*
X11197103Y63349068D01*
X11339068Y63207103D01*
X11501492Y63089095D01*
X11614157Y63031690D01*
X11636696Y63020205D01*
X11687492Y62972230D01*
X11704287Y62904409D01*
X11681750Y62838274D01*
X11636697Y62799236D01*
X11501757Y62730480D01*
X11461976Y62701578D01*
X12040591Y62122963D01*
X11977007Y62105925D01*
X11862993Y62040099D01*
X11769901Y61947007D01*
X11704075Y61832993D01*
X11687037Y61769409D01*
X11108422Y62348024D01*
X11079521Y62308245D01*
X10988412Y62129433D01*
X10926393Y61938560D01*
X10895000Y61740351D01*
X10895000Y61539650D01*
X10926393Y61341441D01*
X10988412Y61150568D01*
X11079522Y60971754D01*
X11108422Y60931978D01*
X11108423Y60931977D01*
X11687037Y61510592D01*
X11704075Y61447007D01*
X11769901Y61332993D01*
X11862993Y61239901D01*
X11977007Y61174075D01*
X12040590Y61157038D01*
X11461975Y60578424D01*
X11501754Y60549522D01*
X11680567Y60458413D01*
X11871440Y60396394D01*
X12069650Y60365000D01*
X12270350Y60365000D01*
X12468559Y60396394D01*
X12659432Y60458413D01*
X12838246Y60549523D01*
X12878022Y60578424D01*
X12299408Y61157038D01*
X12362993Y61174075D01*
X12477007Y61239901D01*
X12570099Y61332993D01*
X12635925Y61447007D01*
X12652962Y61510592D01*
X13231576Y60931978D01*
X13260477Y60971753D01*
X13329515Y61107248D01*
X13377489Y61158044D01*
X13445310Y61174839D01*
X13511445Y61152302D01*
X13550485Y61107248D01*
X13619522Y60971754D01*
X13648422Y60931978D01*
X13648423Y60931977D01*
X14227037Y61510592D01*
X14244075Y61447007D01*
X14309901Y61332993D01*
X14402993Y61239901D01*
X14517007Y61174075D01*
X14580590Y61157038D01*
X14001975Y60578424D01*
X14041754Y60549522D01*
X14220567Y60458413D01*
X14411440Y60396394D01*
X14609650Y60365000D01*
X14810350Y60365000D01*
X15008559Y60396394D01*
X15199432Y60458413D01*
X15378246Y60549523D01*
X15418022Y60578424D01*
X14839408Y61157038D01*
X14902993Y61174075D01*
X15017007Y61239901D01*
X15110099Y61332993D01*
X15175925Y61447007D01*
X15192962Y61510592D01*
X15771576Y60931978D01*
X15800478Y60971755D01*
X15800479Y60971757D01*
X15869234Y61106696D01*
X15917208Y61157493D01*
X15985029Y61174288D01*
X16051164Y61151751D01*
X16090204Y61106697D01*
X16158960Y60971757D01*
X16159095Y60971492D01*
X16277103Y60809068D01*
X16419068Y60667103D01*
X16581492Y60549095D01*
X16666007Y60506033D01*
X16760373Y60457950D01*
X16760375Y60457950D01*
X16760378Y60457948D01*
X16951320Y60395907D01*
X17149616Y60364500D01*
X17149617Y60364500D01*
X17350383Y60364500D01*
X17350384Y60364500D01*
X17548680Y60395907D01*
X17739622Y60457948D01*
X17918508Y60549095D01*
X18080932Y60667103D01*
X18222897Y60809068D01*
X18340905Y60971492D01*
X18409795Y61106698D01*
X18457769Y61157493D01*
X18525590Y61174288D01*
X18591725Y61151751D01*
X18630765Y61106697D01*
X18699522Y60971754D01*
X18728422Y60931978D01*
X18728423Y60931977D01*
X19307037Y61510592D01*
X19324075Y61447007D01*
X19389901Y61332993D01*
X19482993Y61239901D01*
X19597007Y61174075D01*
X19660590Y61157038D01*
X19081975Y60578424D01*
X19121754Y60549522D01*
X19300567Y60458413D01*
X19491440Y60396394D01*
X19689650Y60365000D01*
X19890350Y60365000D01*
X20088559Y60396394D01*
X20279432Y60458413D01*
X20458246Y60549523D01*
X20498022Y60578424D01*
X19919408Y61157038D01*
X19982993Y61174075D01*
X20097007Y61239901D01*
X20190099Y61332993D01*
X20255925Y61447007D01*
X20272962Y61510592D01*
X20851576Y60931978D01*
X20880477Y60971753D01*
X20949515Y61107248D01*
X20997489Y61158044D01*
X21065310Y61174839D01*
X21131445Y61152302D01*
X21170485Y61107248D01*
X21239522Y60971754D01*
X21268422Y60931978D01*
X21268423Y60931977D01*
X21847037Y61510592D01*
X21864075Y61447007D01*
X21929901Y61332993D01*
X22022993Y61239901D01*
X22137007Y61174075D01*
X22200590Y61157038D01*
X21621975Y60578424D01*
X21661754Y60549522D01*
X21840567Y60458413D01*
X22031440Y60396394D01*
X22229650Y60365000D01*
X22430350Y60365000D01*
X22628559Y60396394D01*
X22819432Y60458413D01*
X22998246Y60549523D01*
X23038022Y60578424D01*
X22459408Y61157038D01*
X22522993Y61174075D01*
X22637007Y61239901D01*
X22730099Y61332993D01*
X22795925Y61447007D01*
X22812962Y61510592D01*
X23391576Y60931978D01*
X23420478Y60971755D01*
X23420479Y60971757D01*
X23489234Y61106696D01*
X23537208Y61157493D01*
X23605029Y61174288D01*
X23671164Y61151751D01*
X23710204Y61106697D01*
X23778960Y60971757D01*
X23779095Y60971492D01*
X23897103Y60809068D01*
X24039068Y60667103D01*
X24201492Y60549095D01*
X24286007Y60506033D01*
X24380373Y60457950D01*
X24380375Y60457950D01*
X24380378Y60457948D01*
X24571320Y60395907D01*
X24769616Y60364500D01*
X24769617Y60364500D01*
X24970383Y60364500D01*
X24970384Y60364500D01*
X25168680Y60395907D01*
X25359622Y60457948D01*
X25538508Y60549095D01*
X25700932Y60667103D01*
X25842897Y60809068D01*
X25960905Y60971492D01*
X26029515Y61106148D01*
X26077490Y61156943D01*
X26145311Y61173738D01*
X26211445Y61151201D01*
X26250484Y61106148D01*
X26319095Y60971492D01*
X26437103Y60809068D01*
X26579068Y60667103D01*
X26741492Y60549095D01*
X26826007Y60506033D01*
X26920373Y60457950D01*
X26920375Y60457950D01*
X26920378Y60457948D01*
X27111320Y60395907D01*
X27309616Y60364500D01*
X27309617Y60364500D01*
X27510383Y60364500D01*
X27510384Y60364500D01*
X27708680Y60395907D01*
X27899622Y60457948D01*
X28078508Y60549095D01*
X28240932Y60667103D01*
X28382897Y60809068D01*
X28500905Y60971492D01*
X28569515Y61106148D01*
X28617490Y61156943D01*
X28685311Y61173738D01*
X28751445Y61151201D01*
X28790484Y61106148D01*
X28859095Y60971492D01*
X28977103Y60809068D01*
X29119068Y60667103D01*
X29281492Y60549095D01*
X29366007Y60506033D01*
X29460373Y60457950D01*
X29460375Y60457950D01*
X29460378Y60457948D01*
X29651320Y60395907D01*
X29849616Y60364500D01*
X29849617Y60364500D01*
X30050383Y60364500D01*
X30050384Y60364500D01*
X30248680Y60395907D01*
X30439622Y60457948D01*
X30618508Y60549095D01*
X30780932Y60667103D01*
X30922897Y60809068D01*
X31040905Y60971492D01*
X31109515Y61106148D01*
X31157490Y61156943D01*
X31225311Y61173738D01*
X31291445Y61151201D01*
X31330484Y61106148D01*
X31399095Y60971492D01*
X31517103Y60809068D01*
X31659068Y60667103D01*
X31821492Y60549095D01*
X31906007Y60506033D01*
X32000373Y60457950D01*
X32000375Y60457950D01*
X32000378Y60457948D01*
X32191320Y60395907D01*
X32389616Y60364500D01*
X32389617Y60364500D01*
X32590383Y60364500D01*
X32590384Y60364500D01*
X32788680Y60395907D01*
X32979622Y60457948D01*
X33158508Y60549095D01*
X33320932Y60667103D01*
X33462897Y60809068D01*
X33580905Y60971492D01*
X33649515Y61106148D01*
X33697490Y61156943D01*
X33765311Y61173738D01*
X33831445Y61151201D01*
X33870484Y61106148D01*
X33939095Y60971492D01*
X34057103Y60809068D01*
X34199068Y60667103D01*
X34361492Y60549095D01*
X34446007Y60506033D01*
X34540373Y60457950D01*
X34540375Y60457950D01*
X34540378Y60457948D01*
X34731320Y60395907D01*
X34929616Y60364500D01*
X34929617Y60364500D01*
X35130383Y60364500D01*
X35130384Y60364500D01*
X35328680Y60395907D01*
X35519622Y60457948D01*
X35698508Y60549095D01*
X35860932Y60667103D01*
X36002897Y60809068D01*
X36120905Y60971492D01*
X36189515Y61106148D01*
X36237490Y61156943D01*
X36305311Y61173738D01*
X36371445Y61151201D01*
X36410484Y61106148D01*
X36479095Y60971492D01*
X36597103Y60809068D01*
X36739068Y60667103D01*
X36901492Y60549095D01*
X36986007Y60506033D01*
X37080373Y60457950D01*
X37080375Y60457950D01*
X37080378Y60457948D01*
X37271320Y60395907D01*
X37469616Y60364500D01*
X37469617Y60364500D01*
X37670383Y60364500D01*
X37670384Y60364500D01*
X37868680Y60395907D01*
X38059622Y60457948D01*
X38238508Y60549095D01*
X38400932Y60667103D01*
X38542897Y60809068D01*
X38660905Y60971492D01*
X38729515Y61106148D01*
X38777490Y61156943D01*
X38845311Y61173738D01*
X38911445Y61151201D01*
X38950484Y61106148D01*
X39019095Y60971492D01*
X39137103Y60809068D01*
X39279068Y60667103D01*
X39441492Y60549095D01*
X39526007Y60506033D01*
X39620373Y60457950D01*
X39620375Y60457950D01*
X39620378Y60457948D01*
X39811320Y60395907D01*
X40009616Y60364500D01*
X40009617Y60364500D01*
X40210383Y60364500D01*
X40210384Y60364500D01*
X40408680Y60395907D01*
X40599622Y60457948D01*
X40778508Y60549095D01*
X40940932Y60667103D01*
X41082897Y60809068D01*
X41200905Y60971492D01*
X41269515Y61106148D01*
X41317490Y61156943D01*
X41385311Y61173738D01*
X41451445Y61151201D01*
X41490484Y61106148D01*
X41559095Y60971492D01*
X41677103Y60809068D01*
X41819068Y60667103D01*
X41981492Y60549095D01*
X42066007Y60506033D01*
X42160373Y60457950D01*
X42160375Y60457950D01*
X42160378Y60457948D01*
X42351320Y60395907D01*
X42549616Y60364500D01*
X42549617Y60364500D01*
X42750383Y60364500D01*
X42750384Y60364500D01*
X42948680Y60395907D01*
X43139622Y60457948D01*
X43318508Y60549095D01*
X43480932Y60667103D01*
X43622897Y60809068D01*
X43740905Y60971492D01*
X43809515Y61106148D01*
X43857490Y61156943D01*
X43925311Y61173738D01*
X43991445Y61151201D01*
X44030484Y61106148D01*
X44099095Y60971492D01*
X44217103Y60809068D01*
X44359068Y60667103D01*
X44521492Y60549095D01*
X44606007Y60506033D01*
X44700373Y60457950D01*
X44700375Y60457950D01*
X44700378Y60457948D01*
X44891320Y60395907D01*
X45089616Y60364500D01*
X45089617Y60364500D01*
X45290383Y60364500D01*
X45290384Y60364500D01*
X45488680Y60395907D01*
X45679622Y60457948D01*
X45858508Y60549095D01*
X46020932Y60667103D01*
X46162897Y60809068D01*
X46280905Y60971492D01*
X46349515Y61106148D01*
X46397490Y61156943D01*
X46465311Y61173738D01*
X46531445Y61151201D01*
X46570484Y61106148D01*
X46639095Y60971492D01*
X46757103Y60809068D01*
X46899068Y60667103D01*
X47061492Y60549095D01*
X47146007Y60506033D01*
X47240373Y60457950D01*
X47240375Y60457950D01*
X47240378Y60457948D01*
X47431320Y60395907D01*
X47629616Y60364500D01*
X47629617Y60364500D01*
X47830383Y60364500D01*
X47830384Y60364500D01*
X48028680Y60395907D01*
X48219622Y60457948D01*
X48398508Y60549095D01*
X48560932Y60667103D01*
X48702897Y60809068D01*
X48820905Y60971492D01*
X48889515Y61106148D01*
X48937490Y61156943D01*
X49005311Y61173738D01*
X49071445Y61151201D01*
X49110484Y61106148D01*
X49179095Y60971492D01*
X49297103Y60809068D01*
X49439068Y60667103D01*
X49601492Y60549095D01*
X49686007Y60506033D01*
X49780373Y60457950D01*
X49780375Y60457950D01*
X49780378Y60457948D01*
X49971320Y60395907D01*
X50169616Y60364500D01*
X50169617Y60364500D01*
X50370383Y60364500D01*
X50370384Y60364500D01*
X50568680Y60395907D01*
X50759622Y60457948D01*
X50938508Y60549095D01*
X51100932Y60667103D01*
X51242897Y60809068D01*
X51360905Y60971492D01*
X51429515Y61106148D01*
X51477490Y61156943D01*
X51545311Y61173738D01*
X51611445Y61151201D01*
X51650484Y61106148D01*
X51719095Y60971492D01*
X51837103Y60809068D01*
X51979068Y60667103D01*
X52141492Y60549095D01*
X52226007Y60506033D01*
X52320373Y60457950D01*
X52320375Y60457950D01*
X52320378Y60457948D01*
X52511320Y60395907D01*
X52709616Y60364500D01*
X52709617Y60364500D01*
X52910383Y60364500D01*
X52910384Y60364500D01*
X53108680Y60395907D01*
X53299622Y60457948D01*
X53478508Y60549095D01*
X53640932Y60667103D01*
X53782897Y60809068D01*
X53900905Y60971492D01*
X53969515Y61106148D01*
X54017490Y61156943D01*
X54085311Y61173738D01*
X54151445Y61151201D01*
X54190484Y61106148D01*
X54259095Y60971492D01*
X54377103Y60809068D01*
X54519068Y60667103D01*
X54681492Y60549095D01*
X54766007Y60506033D01*
X54860373Y60457950D01*
X54860375Y60457950D01*
X54860378Y60457948D01*
X55051320Y60395907D01*
X55249616Y60364500D01*
X55249617Y60364500D01*
X55450383Y60364500D01*
X55450384Y60364500D01*
X55648680Y60395907D01*
X55839622Y60457948D01*
X56018508Y60549095D01*
X56180932Y60667103D01*
X56322897Y60809068D01*
X56440905Y60971492D01*
X56509515Y61106148D01*
X56557490Y61156943D01*
X56625311Y61173738D01*
X56691445Y61151201D01*
X56730484Y61106148D01*
X56799095Y60971492D01*
X56917103Y60809068D01*
X57059068Y60667103D01*
X57221492Y60549095D01*
X57306007Y60506033D01*
X57400373Y60457950D01*
X57400375Y60457950D01*
X57400378Y60457948D01*
X57591320Y60395907D01*
X57789616Y60364500D01*
X57789617Y60364500D01*
X57990383Y60364500D01*
X57990384Y60364500D01*
X58188680Y60395907D01*
X58379622Y60457948D01*
X58558508Y60549095D01*
X58720932Y60667103D01*
X58862897Y60809068D01*
X58980905Y60971492D01*
X59049795Y61106698D01*
X59097769Y61157493D01*
X59165590Y61174288D01*
X59231725Y61151751D01*
X59270765Y61106697D01*
X59339522Y60971754D01*
X59368422Y60931978D01*
X59368423Y60931977D01*
X59947037Y61510592D01*
X59964075Y61447007D01*
X60029901Y61332993D01*
X60122993Y61239901D01*
X60237007Y61174075D01*
X60300590Y61157038D01*
X59721975Y60578424D01*
X59761754Y60549522D01*
X59940567Y60458413D01*
X60131440Y60396394D01*
X60329650Y60365000D01*
X60530350Y60365000D01*
X60728559Y60396394D01*
X60919432Y60458413D01*
X61098246Y60549523D01*
X61138022Y60578424D01*
X60559408Y61157038D01*
X60622993Y61174075D01*
X60737007Y61239901D01*
X60830099Y61332993D01*
X60895925Y61447007D01*
X60912962Y61510592D01*
X61491576Y60931978D01*
X61520477Y60971753D01*
X61589515Y61107248D01*
X61637489Y61158044D01*
X61705310Y61174839D01*
X61771445Y61152302D01*
X61810485Y61107248D01*
X61879522Y60971754D01*
X61908422Y60931978D01*
X61908423Y60931977D01*
X62487037Y61510592D01*
X62504075Y61447007D01*
X62569901Y61332993D01*
X62662993Y61239901D01*
X62777007Y61174075D01*
X62840590Y61157038D01*
X62261975Y60578424D01*
X62301754Y60549522D01*
X62480567Y60458413D01*
X62671440Y60396394D01*
X62869650Y60365000D01*
X63070350Y60365000D01*
X63268559Y60396394D01*
X63459432Y60458413D01*
X63638246Y60549523D01*
X63678022Y60578424D01*
X63099408Y61157038D01*
X63162993Y61174075D01*
X63277007Y61239901D01*
X63370099Y61332993D01*
X63435925Y61447007D01*
X63452962Y61510592D01*
X64031576Y60931978D01*
X64060478Y60971755D01*
X64060479Y60971757D01*
X64129234Y61106696D01*
X64177208Y61157493D01*
X64245029Y61174288D01*
X64311164Y61151751D01*
X64350204Y61106697D01*
X64418960Y60971757D01*
X64419095Y60971492D01*
X64537103Y60809068D01*
X64679068Y60667103D01*
X64841492Y60549095D01*
X64926007Y60506033D01*
X65020373Y60457950D01*
X65020375Y60457950D01*
X65020378Y60457948D01*
X65211320Y60395907D01*
X65409616Y60364500D01*
X65409617Y60364500D01*
X65610383Y60364500D01*
X65610384Y60364500D01*
X65808680Y60395907D01*
X65999622Y60457948D01*
X66178508Y60549095D01*
X66340932Y60667103D01*
X66482897Y60809068D01*
X66600905Y60971492D01*
X66669515Y61106148D01*
X66717490Y61156943D01*
X66785311Y61173738D01*
X66851445Y61151201D01*
X66890484Y61106148D01*
X66959095Y60971492D01*
X67077103Y60809068D01*
X67219068Y60667103D01*
X67381492Y60549095D01*
X67466007Y60506033D01*
X67560373Y60457950D01*
X67560375Y60457950D01*
X67560378Y60457948D01*
X67751320Y60395907D01*
X67949616Y60364500D01*
X67949617Y60364500D01*
X68150383Y60364500D01*
X68150384Y60364500D01*
X68348680Y60395907D01*
X68539622Y60457948D01*
X68718508Y60549095D01*
X68880932Y60667103D01*
X69022897Y60809068D01*
X69140905Y60971492D01*
X69209515Y61106148D01*
X69257490Y61156943D01*
X69325311Y61173738D01*
X69391445Y61151201D01*
X69430484Y61106148D01*
X69499095Y60971492D01*
X69617103Y60809068D01*
X69759068Y60667103D01*
X69921492Y60549095D01*
X70006007Y60506033D01*
X70100373Y60457950D01*
X70100375Y60457950D01*
X70100378Y60457948D01*
X70291320Y60395907D01*
X70489616Y60364500D01*
X70489617Y60364500D01*
X70690383Y60364500D01*
X70690384Y60364500D01*
X70888680Y60395907D01*
X71079622Y60457948D01*
X71258508Y60549095D01*
X71420932Y60667103D01*
X71562897Y60809068D01*
X71680905Y60971492D01*
X71749515Y61106148D01*
X71797490Y61156943D01*
X71865311Y61173738D01*
X71931445Y61151201D01*
X71970484Y61106148D01*
X72039095Y60971492D01*
X72157103Y60809068D01*
X72299068Y60667103D01*
X72461492Y60549095D01*
X72546007Y60506033D01*
X72640373Y60457950D01*
X72640375Y60457950D01*
X72640378Y60457948D01*
X72831320Y60395907D01*
X73029616Y60364500D01*
X73029617Y60364500D01*
X73230383Y60364500D01*
X73230384Y60364500D01*
X73428680Y60395907D01*
X73619622Y60457948D01*
X73798508Y60549095D01*
X73960932Y60667103D01*
X74102897Y60809068D01*
X74220905Y60971492D01*
X74289515Y61106148D01*
X74337490Y61156943D01*
X74405311Y61173738D01*
X74471445Y61151201D01*
X74510484Y61106148D01*
X74579095Y60971492D01*
X74697103Y60809068D01*
X74839068Y60667103D01*
X75001492Y60549095D01*
X75086007Y60506033D01*
X75180373Y60457950D01*
X75180375Y60457950D01*
X75180378Y60457948D01*
X75371320Y60395907D01*
X75569616Y60364500D01*
X75569617Y60364500D01*
X75770383Y60364500D01*
X75770384Y60364500D01*
X75968680Y60395907D01*
X76159622Y60457948D01*
X76338508Y60549095D01*
X76500932Y60667103D01*
X76642897Y60809068D01*
X76760905Y60971492D01*
X76829795Y61106698D01*
X76877769Y61157493D01*
X76945590Y61174288D01*
X77011725Y61151751D01*
X77050765Y61106697D01*
X77119522Y60971754D01*
X77148422Y60931978D01*
X77148423Y60931977D01*
X77727037Y61510592D01*
X77744075Y61447007D01*
X77809901Y61332993D01*
X77902993Y61239901D01*
X78017007Y61174075D01*
X78080590Y61157038D01*
X77501975Y60578424D01*
X77541754Y60549522D01*
X77720567Y60458413D01*
X77911440Y60396394D01*
X78109650Y60365000D01*
X78310350Y60365000D01*
X78508559Y60396394D01*
X78699432Y60458413D01*
X78878246Y60549523D01*
X78918022Y60578424D01*
X78339408Y61157038D01*
X78402993Y61174075D01*
X78517007Y61239901D01*
X78610099Y61332993D01*
X78675925Y61447007D01*
X78692962Y61510592D01*
X79271576Y60931978D01*
X79300477Y60971753D01*
X79369515Y61107248D01*
X79417489Y61158044D01*
X79485310Y61174839D01*
X79551445Y61152302D01*
X79590485Y61107248D01*
X79659522Y60971754D01*
X79688422Y60931978D01*
X79688423Y60931977D01*
X80267037Y61510592D01*
X80284075Y61447007D01*
X80349901Y61332993D01*
X80442993Y61239901D01*
X80557007Y61174075D01*
X80620590Y61157038D01*
X80041975Y60578424D01*
X80081754Y60549522D01*
X80260567Y60458413D01*
X80451440Y60396394D01*
X80649650Y60365000D01*
X80850350Y60365000D01*
X81048559Y60396394D01*
X81239432Y60458413D01*
X81418246Y60549523D01*
X81458022Y60578424D01*
X80879408Y61157038D01*
X80942993Y61174075D01*
X81057007Y61239901D01*
X81150099Y61332993D01*
X81215925Y61447007D01*
X81232962Y61510592D01*
X81811576Y60931978D01*
X81840478Y60971755D01*
X81840479Y60971757D01*
X81909234Y61106696D01*
X81957208Y61157493D01*
X82025029Y61174288D01*
X82091164Y61151751D01*
X82130204Y61106697D01*
X82198960Y60971757D01*
X82199095Y60971492D01*
X82317103Y60809068D01*
X82459068Y60667103D01*
X82621492Y60549095D01*
X82706007Y60506033D01*
X82800373Y60457950D01*
X82800375Y60457950D01*
X82800378Y60457948D01*
X82991320Y60395907D01*
X83189616Y60364500D01*
X83189617Y60364500D01*
X83390383Y60364500D01*
X83390384Y60364500D01*
X83588680Y60395907D01*
X83779622Y60457948D01*
X83958508Y60549095D01*
X84120932Y60667103D01*
X84262897Y60809068D01*
X84380905Y60971492D01*
X84449515Y61106148D01*
X84497490Y61156943D01*
X84565311Y61173738D01*
X84631445Y61151201D01*
X84670484Y61106148D01*
X84739095Y60971492D01*
X84857103Y60809068D01*
X84999068Y60667103D01*
X85161492Y60549095D01*
X85246007Y60506033D01*
X85340373Y60457950D01*
X85340375Y60457950D01*
X85340378Y60457948D01*
X85531320Y60395907D01*
X85729616Y60364500D01*
X85729617Y60364500D01*
X85930383Y60364500D01*
X85930384Y60364500D01*
X86128680Y60395907D01*
X86319622Y60457948D01*
X86498508Y60549095D01*
X86660932Y60667103D01*
X86802897Y60809068D01*
X86920905Y60971492D01*
X86989795Y61106698D01*
X87037769Y61157493D01*
X87105590Y61174288D01*
X87171725Y61151751D01*
X87210765Y61106697D01*
X87279522Y60971754D01*
X87308422Y60931978D01*
X87308423Y60931977D01*
X87887037Y61510592D01*
X87904075Y61447007D01*
X87969901Y61332993D01*
X88062993Y61239901D01*
X88177007Y61174075D01*
X88240590Y61157038D01*
X87661975Y60578424D01*
X87701754Y60549522D01*
X87880567Y60458413D01*
X88071440Y60396394D01*
X88269650Y60365000D01*
X88470350Y60365000D01*
X88668559Y60396394D01*
X88859432Y60458413D01*
X89038246Y60549523D01*
X89078022Y60578424D01*
X88499408Y61157038D01*
X88562993Y61174075D01*
X88677007Y61239901D01*
X88770099Y61332993D01*
X88835925Y61447007D01*
X88852962Y61510592D01*
X89431576Y60931978D01*
X89460477Y60971753D01*
X89529515Y61107248D01*
X89577489Y61158044D01*
X89645310Y61174839D01*
X89711445Y61152302D01*
X89750485Y61107248D01*
X89819522Y60971754D01*
X89848422Y60931978D01*
X89848423Y60931977D01*
X90427037Y61510592D01*
X90444075Y61447007D01*
X90509901Y61332993D01*
X90602993Y61239901D01*
X90717007Y61174075D01*
X90780590Y61157038D01*
X90201975Y60578424D01*
X90241754Y60549522D01*
X90420567Y60458413D01*
X90611440Y60396394D01*
X90809650Y60365000D01*
X91010350Y60365000D01*
X91208559Y60396394D01*
X91399432Y60458413D01*
X91578246Y60549523D01*
X91618022Y60578424D01*
X91039408Y61157038D01*
X91102993Y61174075D01*
X91217007Y61239901D01*
X91310099Y61332993D01*
X91375925Y61447007D01*
X91392962Y61510592D01*
X91971576Y60931978D01*
X92000477Y60971754D01*
X92091587Y61150568D01*
X92153606Y61341441D01*
X92185000Y61539650D01*
X92185000Y61740351D01*
X92153606Y61938560D01*
X92091587Y62129433D01*
X92000478Y62308246D01*
X91971576Y62348024D01*
X91971576Y62348025D01*
X91392962Y61769410D01*
X91375925Y61832993D01*
X91310099Y61947007D01*
X91217007Y62040099D01*
X91102993Y62105925D01*
X91039409Y62122963D01*
X91618023Y62701577D01*
X91618022Y62701578D01*
X91578246Y62730478D01*
X91443303Y62799235D01*
X91392507Y62847210D01*
X91375712Y62915031D01*
X91398249Y62981166D01*
X91443301Y63020205D01*
X91578508Y63089095D01*
X91740932Y63207103D01*
X91882897Y63349068D01*
X92000905Y63511492D01*
X92092052Y63690378D01*
X92154093Y63881320D01*
X92185500Y64079616D01*
X92185500Y64280384D01*
X92154093Y64478680D01*
X92092052Y64669622D01*
X92092050Y64669625D01*
X92092050Y64669627D01*
X92000904Y64848509D01*
X91882897Y65010932D01*
X91740932Y65152897D01*
X91602874Y65253202D01*
X91560210Y65308531D01*
X91554231Y65378144D01*
X91586837Y65439939D01*
X91636755Y65471224D01*
X91754335Y65510186D01*
X91903656Y65602288D01*
X92027712Y65726344D01*
X92119814Y65875665D01*
X92174999Y66042202D01*
X92185500Y66144990D01*
X92185500Y67295010D01*
X92174999Y67397798D01*
X92119814Y67564335D01*
X92027712Y67713656D01*
X91903656Y67837712D01*
X91754335Y67929814D01*
X91587798Y67984999D01*
X91587796Y67985000D01*
X91485017Y67995500D01*
X91485010Y67995500D01*
X90334990Y67995500D01*
X90334982Y67995500D01*
X90232203Y67985000D01*
X90232202Y67984999D01*
X90156525Y67959922D01*
X90065667Y67929815D01*
X90065662Y67929813D01*
X89916342Y67837711D01*
X89792289Y67713658D01*
X89700187Y67564338D01*
X89700186Y67564335D01*
X89661224Y67446757D01*
X89621451Y67389312D01*
X89556934Y67362490D01*
X89488159Y67374805D01*
X89443200Y67412877D01*
X89402368Y67469077D01*
X89342897Y67550932D01*
X89200932Y67692897D01*
X89038508Y67810905D01*
X88995743Y67832695D01*
X88859626Y67902051D01*
X88668680Y67964093D01*
X88470384Y67995500D01*
X88269616Y67995500D01*
X88170468Y67979797D01*
X88071319Y67964093D01*
X87880373Y67902051D01*
X87701491Y67810905D01*
X87661125Y67781577D01*
X87539068Y67692897D01*
X87539066Y67692895D01*
X87539065Y67692895D01*
X87397105Y67550935D01*
X87397105Y67550934D01*
X87397103Y67550932D01*
X87346423Y67481178D01*
X87279095Y67388509D01*
X87210485Y67253854D01*
X87162510Y67203058D01*
X87094689Y67186263D01*
X87028554Y67208801D01*
X86989515Y67253854D01*
X86921038Y67388246D01*
X86920905Y67388508D01*
X86802897Y67550932D01*
X86660932Y67692897D01*
X86498508Y67810905D01*
X86455743Y67832695D01*
X86319626Y67902051D01*
X86128680Y67964093D01*
X85930384Y67995500D01*
X85729616Y67995500D01*
X85630468Y67979797D01*
X85531319Y67964093D01*
X85340373Y67902051D01*
X85161491Y67810905D01*
X85121125Y67781577D01*
X84999068Y67692897D01*
X84999066Y67692895D01*
X84999065Y67692895D01*
X84857105Y67550935D01*
X84857105Y67550934D01*
X84857103Y67550932D01*
X84806423Y67481178D01*
X84739095Y67388509D01*
X84670485Y67253854D01*
X84622510Y67203058D01*
X84554689Y67186263D01*
X84488554Y67208801D01*
X84449515Y67253854D01*
X84381038Y67388246D01*
X84380905Y67388508D01*
X84262897Y67550932D01*
X84120932Y67692897D01*
X83958508Y67810905D01*
X83915743Y67832695D01*
X83779626Y67902051D01*
X83588680Y67964093D01*
X83390384Y67995500D01*
X83189616Y67995500D01*
X83090468Y67979797D01*
X82991319Y67964093D01*
X82800373Y67902051D01*
X82621491Y67810905D01*
X82581125Y67781577D01*
X82459068Y67692897D01*
X82459066Y67692895D01*
X82459065Y67692895D01*
X82317105Y67550935D01*
X82317105Y67550934D01*
X82317103Y67550932D01*
X82266423Y67481178D01*
X82199095Y67388509D01*
X82130485Y67253854D01*
X82082510Y67203058D01*
X82014689Y67186263D01*
X81948554Y67208801D01*
X81909515Y67253854D01*
X81841038Y67388246D01*
X81840905Y67388508D01*
X81722897Y67550932D01*
X81580932Y67692897D01*
X81418508Y67810905D01*
X81375743Y67832695D01*
X81239626Y67902051D01*
X81048680Y67964093D01*
X80850384Y67995500D01*
X80649616Y67995500D01*
X80550468Y67979797D01*
X80451319Y67964093D01*
X80260373Y67902051D01*
X80081491Y67810905D01*
X80041125Y67781577D01*
X79919068Y67692897D01*
X79919066Y67692895D01*
X79919065Y67692895D01*
X79777105Y67550935D01*
X79777105Y67550934D01*
X79777103Y67550932D01*
X79726423Y67481178D01*
X79659095Y67388509D01*
X79590485Y67253854D01*
X79542510Y67203058D01*
X79474689Y67186263D01*
X79408554Y67208801D01*
X79369515Y67253854D01*
X79301038Y67388246D01*
X79300905Y67388508D01*
X79182897Y67550932D01*
X79040932Y67692897D01*
X78878508Y67810905D01*
X78835743Y67832695D01*
X78699626Y67902051D01*
X78508680Y67964093D01*
X78310384Y67995500D01*
X78109616Y67995500D01*
X78010468Y67979797D01*
X77911319Y67964093D01*
X77720373Y67902051D01*
X77541491Y67810905D01*
X77501125Y67781577D01*
X77379068Y67692897D01*
X77379066Y67692895D01*
X77379065Y67692895D01*
X77237105Y67550935D01*
X77237105Y67550934D01*
X77237103Y67550932D01*
X77186423Y67481178D01*
X77119095Y67388509D01*
X77050485Y67253854D01*
X77002510Y67203058D01*
X76934689Y67186263D01*
X76868554Y67208801D01*
X76829515Y67253854D01*
X76761038Y67388246D01*
X76760905Y67388508D01*
X76642897Y67550932D01*
X76500932Y67692897D01*
X76338508Y67810905D01*
X76295743Y67832695D01*
X76159626Y67902051D01*
X75968680Y67964093D01*
X75770384Y67995500D01*
X75569616Y67995500D01*
X75470468Y67979797D01*
X75371319Y67964093D01*
X75180373Y67902051D01*
X75001491Y67810905D01*
X74961125Y67781577D01*
X74839068Y67692897D01*
X74839066Y67692895D01*
X74839065Y67692895D01*
X74697105Y67550935D01*
X74697105Y67550934D01*
X74697103Y67550932D01*
X74646423Y67481178D01*
X74579095Y67388509D01*
X74510485Y67253854D01*
X74462510Y67203058D01*
X74394689Y67186263D01*
X74328554Y67208801D01*
X74289515Y67253854D01*
X74221038Y67388246D01*
X74220905Y67388508D01*
X74102897Y67550932D01*
X73960932Y67692897D01*
X73798508Y67810905D01*
X73755743Y67832695D01*
X73619626Y67902051D01*
X73428680Y67964093D01*
X73230384Y67995500D01*
X73029616Y67995500D01*
X72930468Y67979797D01*
X72831319Y67964093D01*
X72640373Y67902051D01*
X72461491Y67810905D01*
X72421125Y67781577D01*
X72299068Y67692897D01*
X72299066Y67692895D01*
X72299065Y67692895D01*
X72157105Y67550935D01*
X72157105Y67550934D01*
X72157103Y67550932D01*
X72106423Y67481178D01*
X72039095Y67388509D01*
X71970485Y67253854D01*
X71922510Y67203058D01*
X71854689Y67186263D01*
X71788554Y67208801D01*
X71749515Y67253854D01*
X71681038Y67388246D01*
X71680905Y67388508D01*
X71562897Y67550932D01*
X71420932Y67692897D01*
X71258508Y67810905D01*
X71215743Y67832695D01*
X71079626Y67902051D01*
X70888680Y67964093D01*
X70690384Y67995500D01*
X70489616Y67995500D01*
X70390468Y67979797D01*
X70291319Y67964093D01*
X70100373Y67902051D01*
X69921491Y67810905D01*
X69881125Y67781577D01*
X69759068Y67692897D01*
X69759066Y67692895D01*
X69759065Y67692895D01*
X69617105Y67550935D01*
X69617105Y67550934D01*
X69617103Y67550932D01*
X69566423Y67481178D01*
X69499095Y67388509D01*
X69430485Y67253854D01*
X69382510Y67203058D01*
X69314689Y67186263D01*
X69248554Y67208801D01*
X69209515Y67253854D01*
X69141038Y67388246D01*
X69140905Y67388508D01*
X69022897Y67550932D01*
X68880932Y67692897D01*
X68718508Y67810905D01*
X68675743Y67832695D01*
X68539626Y67902051D01*
X68348680Y67964093D01*
X68150384Y67995500D01*
X67949616Y67995500D01*
X67850468Y67979797D01*
X67751319Y67964093D01*
X67560373Y67902051D01*
X67381491Y67810905D01*
X67341125Y67781577D01*
X67219068Y67692897D01*
X67219066Y67692895D01*
X67219065Y67692895D01*
X67077105Y67550935D01*
X67077105Y67550934D01*
X67077103Y67550932D01*
X67026423Y67481178D01*
X66959095Y67388509D01*
X66890485Y67253854D01*
X66842510Y67203058D01*
X66774689Y67186263D01*
X66708554Y67208801D01*
X66669515Y67253854D01*
X66601038Y67388246D01*
X66600905Y67388508D01*
X66482897Y67550932D01*
X66340932Y67692897D01*
X66178508Y67810905D01*
X66135743Y67832695D01*
X65999626Y67902051D01*
X65808680Y67964093D01*
X65610384Y67995500D01*
X65409616Y67995500D01*
X65310468Y67979797D01*
X65211319Y67964093D01*
X65020373Y67902051D01*
X64841491Y67810905D01*
X64801125Y67781577D01*
X64679068Y67692897D01*
X64679066Y67692895D01*
X64679065Y67692895D01*
X64537105Y67550935D01*
X64537105Y67550934D01*
X64537103Y67550932D01*
X64486423Y67481178D01*
X64419095Y67388509D01*
X64350485Y67253854D01*
X64302510Y67203058D01*
X64234689Y67186263D01*
X64168554Y67208801D01*
X64129515Y67253854D01*
X64061038Y67388246D01*
X64060905Y67388508D01*
X63942897Y67550932D01*
X63800932Y67692897D01*
X63638508Y67810905D01*
X63595743Y67832695D01*
X63459626Y67902051D01*
X63268680Y67964093D01*
X63070384Y67995500D01*
X62869616Y67995500D01*
X62770468Y67979797D01*
X62671319Y67964093D01*
X62480373Y67902051D01*
X62301491Y67810905D01*
X62261125Y67781577D01*
X62139068Y67692897D01*
X62139066Y67692895D01*
X62139065Y67692895D01*
X61997105Y67550935D01*
X61997105Y67550934D01*
X61997103Y67550932D01*
X61946423Y67481178D01*
X61879095Y67388509D01*
X61810485Y67253854D01*
X61762510Y67203058D01*
X61694689Y67186263D01*
X61628554Y67208801D01*
X61589515Y67253854D01*
X61521038Y67388246D01*
X61520905Y67388508D01*
X61402897Y67550932D01*
X61260932Y67692897D01*
X61098508Y67810905D01*
X61055743Y67832695D01*
X60919626Y67902051D01*
X60728680Y67964093D01*
X60530384Y67995500D01*
X60329616Y67995500D01*
X60230468Y67979797D01*
X60131319Y67964093D01*
X59940373Y67902051D01*
X59761491Y67810905D01*
X59721125Y67781577D01*
X59599068Y67692897D01*
X59599066Y67692895D01*
X59599065Y67692895D01*
X59457105Y67550935D01*
X59457105Y67550934D01*
X59457103Y67550932D01*
X59406423Y67481178D01*
X59339095Y67388509D01*
X59270485Y67253854D01*
X59222510Y67203058D01*
X59154689Y67186263D01*
X59088554Y67208801D01*
X59049515Y67253854D01*
X58981038Y67388246D01*
X58980905Y67388508D01*
X58862897Y67550932D01*
X58720932Y67692897D01*
X58558508Y67810905D01*
X58515743Y67832695D01*
X58379626Y67902051D01*
X58188680Y67964093D01*
X57990384Y67995500D01*
X57789616Y67995500D01*
X57690468Y67979797D01*
X57591319Y67964093D01*
X57400373Y67902051D01*
X57221491Y67810905D01*
X57181125Y67781577D01*
X57059068Y67692897D01*
X57059066Y67692895D01*
X57059065Y67692895D01*
X56917105Y67550935D01*
X56917105Y67550934D01*
X56917103Y67550932D01*
X56866423Y67481178D01*
X56799095Y67388509D01*
X56730485Y67253854D01*
X56682510Y67203058D01*
X56614689Y67186263D01*
X56548554Y67208801D01*
X56509515Y67253854D01*
X56441038Y67388246D01*
X56440905Y67388508D01*
X56322897Y67550932D01*
X56180932Y67692897D01*
X56018508Y67810905D01*
X55975743Y67832695D01*
X55839626Y67902051D01*
X55648680Y67964093D01*
X55450384Y67995500D01*
X55249616Y67995500D01*
X55150468Y67979797D01*
X55051319Y67964093D01*
X54860373Y67902051D01*
X54681491Y67810905D01*
X54641125Y67781577D01*
X54519068Y67692897D01*
X54519066Y67692895D01*
X54519065Y67692895D01*
X54377105Y67550935D01*
X54377105Y67550934D01*
X54377103Y67550932D01*
X54326423Y67481178D01*
X54259095Y67388509D01*
X54190485Y67253854D01*
X54142510Y67203058D01*
X54074689Y67186263D01*
X54008554Y67208801D01*
X53969515Y67253854D01*
X53901038Y67388246D01*
X53900905Y67388508D01*
X53782897Y67550932D01*
X53640932Y67692897D01*
X53478508Y67810905D01*
X53435743Y67832695D01*
X53299626Y67902051D01*
X53108680Y67964093D01*
X52910384Y67995500D01*
X52709616Y67995500D01*
X52610468Y67979797D01*
X52511319Y67964093D01*
X52320373Y67902051D01*
X52141491Y67810905D01*
X52101125Y67781577D01*
X51979068Y67692897D01*
X51979066Y67692895D01*
X51979065Y67692895D01*
X51837105Y67550935D01*
X51837105Y67550934D01*
X51837103Y67550932D01*
X51786423Y67481178D01*
X51719095Y67388509D01*
X51650485Y67253854D01*
X51602510Y67203058D01*
X51534689Y67186263D01*
X51468554Y67208801D01*
X51429515Y67253854D01*
X51361038Y67388246D01*
X51360905Y67388508D01*
X51242897Y67550932D01*
X51100932Y67692897D01*
X50938508Y67810905D01*
X50895743Y67832695D01*
X50759626Y67902051D01*
X50568680Y67964093D01*
X50370384Y67995500D01*
X50169616Y67995500D01*
X50070468Y67979797D01*
X49971319Y67964093D01*
X49780373Y67902051D01*
X49601491Y67810905D01*
X49561125Y67781577D01*
X49439068Y67692897D01*
X49439066Y67692895D01*
X49439065Y67692895D01*
X49297105Y67550935D01*
X49297105Y67550934D01*
X49297103Y67550932D01*
X49246423Y67481178D01*
X49179095Y67388509D01*
X49110485Y67253854D01*
X49062510Y67203058D01*
X48994689Y67186263D01*
X48928554Y67208801D01*
X48889515Y67253854D01*
X48821038Y67388246D01*
X48820905Y67388508D01*
X48702897Y67550932D01*
X48560932Y67692897D01*
X48398508Y67810905D01*
X48355743Y67832695D01*
X48219626Y67902051D01*
X48028680Y67964093D01*
X47830384Y67995500D01*
X47629616Y67995500D01*
X47530468Y67979797D01*
X47431319Y67964093D01*
X47240373Y67902051D01*
X47061491Y67810905D01*
X47021125Y67781577D01*
X46899068Y67692897D01*
X46899066Y67692895D01*
X46899065Y67692895D01*
X46757105Y67550935D01*
X46757105Y67550934D01*
X46757103Y67550932D01*
X46706423Y67481178D01*
X46639095Y67388509D01*
X46570485Y67253854D01*
X46522510Y67203058D01*
X46454689Y67186263D01*
X46388554Y67208801D01*
X46349515Y67253854D01*
X46281038Y67388246D01*
X46280905Y67388508D01*
X46162897Y67550932D01*
X46020932Y67692897D01*
X45858508Y67810905D01*
X45815743Y67832695D01*
X45679626Y67902051D01*
X45488680Y67964093D01*
X45290384Y67995500D01*
X45089616Y67995500D01*
X44990468Y67979797D01*
X44891319Y67964093D01*
X44700373Y67902051D01*
X44521491Y67810905D01*
X44481125Y67781577D01*
X44359068Y67692897D01*
X44359066Y67692895D01*
X44359065Y67692895D01*
X44217105Y67550935D01*
X44217105Y67550934D01*
X44217103Y67550932D01*
X44166423Y67481178D01*
X44099095Y67388509D01*
X44030485Y67253854D01*
X43982510Y67203058D01*
X43914689Y67186263D01*
X43848554Y67208801D01*
X43809515Y67253854D01*
X43741038Y67388246D01*
X43740905Y67388508D01*
X43622897Y67550932D01*
X43480932Y67692897D01*
X43318508Y67810905D01*
X43275743Y67832695D01*
X43139626Y67902051D01*
X42948680Y67964093D01*
X42750384Y67995500D01*
X42549616Y67995500D01*
X42450468Y67979797D01*
X42351319Y67964093D01*
X42160373Y67902051D01*
X41981491Y67810905D01*
X41941125Y67781577D01*
X41819068Y67692897D01*
X41819066Y67692895D01*
X41819065Y67692895D01*
X41677105Y67550935D01*
X41677105Y67550934D01*
X41677103Y67550932D01*
X41626423Y67481178D01*
X41559095Y67388509D01*
X41490485Y67253854D01*
X41442510Y67203058D01*
X41374689Y67186263D01*
X41308554Y67208801D01*
X41269515Y67253854D01*
X41201038Y67388246D01*
X41200905Y67388508D01*
X41082897Y67550932D01*
X40940932Y67692897D01*
X40778508Y67810905D01*
X40735743Y67832695D01*
X40599626Y67902051D01*
X40408680Y67964093D01*
X40210384Y67995500D01*
X40009616Y67995500D01*
X39910468Y67979797D01*
X39811319Y67964093D01*
X39620373Y67902051D01*
X39441491Y67810905D01*
X39401125Y67781577D01*
X39279068Y67692897D01*
X39279066Y67692895D01*
X39279065Y67692895D01*
X39137105Y67550935D01*
X39137105Y67550934D01*
X39137103Y67550932D01*
X39086423Y67481178D01*
X39019095Y67388509D01*
X38950485Y67253854D01*
X38902510Y67203058D01*
X38834689Y67186263D01*
X38768554Y67208801D01*
X38729515Y67253854D01*
X38661038Y67388246D01*
X38660905Y67388508D01*
X38542897Y67550932D01*
X38400932Y67692897D01*
X38238508Y67810905D01*
X38195743Y67832695D01*
X38059626Y67902051D01*
X37868680Y67964093D01*
X37670384Y67995500D01*
X37469616Y67995500D01*
X37370468Y67979797D01*
X37271319Y67964093D01*
X37080373Y67902051D01*
X36901491Y67810905D01*
X36861125Y67781577D01*
X36739068Y67692897D01*
X36739066Y67692895D01*
X36739065Y67692895D01*
X36597105Y67550935D01*
X36597105Y67550934D01*
X36597103Y67550932D01*
X36546423Y67481178D01*
X36479095Y67388509D01*
X36410485Y67253854D01*
X36362510Y67203058D01*
X36294689Y67186263D01*
X36228554Y67208801D01*
X36189515Y67253854D01*
X36121038Y67388246D01*
X36120905Y67388508D01*
X36002897Y67550932D01*
X35860932Y67692897D01*
X35698508Y67810905D01*
X35655743Y67832695D01*
X35519626Y67902051D01*
X35328680Y67964093D01*
X35130384Y67995500D01*
X34929616Y67995500D01*
X34830468Y67979797D01*
X34731319Y67964093D01*
X34540373Y67902051D01*
X34361491Y67810905D01*
X34321125Y67781577D01*
X34199068Y67692897D01*
X34199066Y67692895D01*
X34199065Y67692895D01*
X34057105Y67550935D01*
X34057105Y67550934D01*
X34057103Y67550932D01*
X34021649Y67502135D01*
X33939093Y67388507D01*
X33870203Y67253303D01*
X33822229Y67202508D01*
X33754408Y67185713D01*
X33688273Y67208251D01*
X33649234Y67253304D01*
X33580478Y67388246D01*
X33551576Y67428024D01*
X33551576Y67428025D01*
X32972962Y66849410D01*
X32955925Y66912993D01*
X32890099Y67027007D01*
X32797007Y67120099D01*
X32682993Y67185925D01*
X32619409Y67202963D01*
X33198023Y67781577D01*
X33198022Y67781578D01*
X33158246Y67810478D01*
X32979432Y67901588D01*
X32788559Y67963607D01*
X32590350Y67995000D01*
X32389650Y67995000D01*
X32191440Y67963607D01*
X32000567Y67901588D01*
X31821755Y67810479D01*
X31781976Y67781578D01*
X32360591Y67202963D01*
X32297007Y67185925D01*
X32182993Y67120099D01*
X32089901Y67027007D01*
X32024075Y66912993D01*
X32007037Y66849409D01*
X31428422Y67428024D01*
X31399521Y67388245D01*
X31330485Y67252753D01*
X31282510Y67201957D01*
X31214689Y67185162D01*
X31148554Y67207700D01*
X31109515Y67252753D01*
X31040478Y67388246D01*
X31011576Y67428024D01*
X31011576Y67428025D01*
X30432962Y66849410D01*
X30415925Y66912993D01*
X30350099Y67027007D01*
X30257007Y67120099D01*
X30142993Y67185925D01*
X30079409Y67202963D01*
X30658023Y67781578D01*
X30618246Y67810478D01*
X30439432Y67901588D01*
X30248559Y67963607D01*
X30050350Y67995000D01*
X29849650Y67995000D01*
X29651440Y67963607D01*
X29460567Y67901588D01*
X29281755Y67810479D01*
X29241976Y67781578D01*
X29820591Y67202963D01*
X29757007Y67185925D01*
X29642993Y67120099D01*
X29549901Y67027007D01*
X29484075Y66912993D01*
X29467037Y66849409D01*
X28888422Y67428024D01*
X28859521Y67388245D01*
X28790485Y67252753D01*
X28742510Y67201957D01*
X28674689Y67185162D01*
X28608554Y67207700D01*
X28569515Y67252753D01*
X28500478Y67388246D01*
X28471576Y67428024D01*
X28471576Y67428025D01*
X27892962Y66849410D01*
X27875925Y66912993D01*
X27810099Y67027007D01*
X27717007Y67120099D01*
X27602993Y67185925D01*
X27539409Y67202963D01*
X28118023Y67781578D01*
X28078246Y67810478D01*
X27899432Y67901588D01*
X27708559Y67963607D01*
X27510350Y67995000D01*
X27309650Y67995000D01*
X27111440Y67963607D01*
X26920567Y67901588D01*
X26741755Y67810479D01*
X26701976Y67781578D01*
X27280591Y67202963D01*
X27217007Y67185925D01*
X27102993Y67120099D01*
X27009901Y67027007D01*
X26944075Y66912993D01*
X26927037Y66849409D01*
X26348422Y67428024D01*
X26319521Y67388245D01*
X26250485Y67252753D01*
X26202510Y67201957D01*
X26134689Y67185162D01*
X26068554Y67207700D01*
X26029515Y67252753D01*
X25960478Y67388246D01*
X25931576Y67428024D01*
X25931576Y67428025D01*
X25352962Y66849410D01*
X25335925Y66912993D01*
X25270099Y67027007D01*
X25177007Y67120099D01*
X25062993Y67185925D01*
X24999409Y67202963D01*
X25578023Y67781578D01*
X25538246Y67810478D01*
X25359432Y67901588D01*
X25168559Y67963607D01*
X24970350Y67995000D01*
X24769650Y67995000D01*
X24571440Y67963607D01*
X24380567Y67901588D01*
X24201755Y67810479D01*
X24161976Y67781578D01*
X24740591Y67202963D01*
X24677007Y67185925D01*
X24562993Y67120099D01*
X24469901Y67027007D01*
X24404075Y66912993D01*
X24387037Y66849409D01*
X23808422Y67428024D01*
X23779520Y67388243D01*
X23710764Y67253303D01*
X23662790Y67202508D01*
X23594969Y67185713D01*
X23528834Y67208251D01*
X23489795Y67253304D01*
X23468545Y67295010D01*
X23420905Y67388508D01*
X23302897Y67550932D01*
X23160932Y67692897D01*
X22998508Y67810905D01*
X22955743Y67832695D01*
X22819626Y67902051D01*
X22628680Y67964093D01*
X22430384Y67995500D01*
X22229616Y67995500D01*
X22130468Y67979797D01*
X22031319Y67964093D01*
X21840373Y67902051D01*
X21661491Y67810905D01*
X21621125Y67781577D01*
X21499068Y67692897D01*
X21499066Y67692895D01*
X21499065Y67692895D01*
X21357105Y67550935D01*
X21357105Y67550934D01*
X21357103Y67550932D01*
X21306423Y67481178D01*
X21239095Y67388509D01*
X21170485Y67253854D01*
X21122510Y67203058D01*
X21054689Y67186263D01*
X20988554Y67208801D01*
X20949515Y67253854D01*
X20881038Y67388246D01*
X20880905Y67388508D01*
X20762897Y67550932D01*
X20620932Y67692897D01*
X20458508Y67810905D01*
X20415743Y67832695D01*
X20279626Y67902051D01*
X20088680Y67964093D01*
X19890384Y67995500D01*
X19689616Y67995500D01*
X19590468Y67979797D01*
X19491319Y67964093D01*
X19300373Y67902051D01*
X19121491Y67810905D01*
X19081125Y67781577D01*
X18959068Y67692897D01*
X18959066Y67692895D01*
X18959065Y67692895D01*
X18817105Y67550935D01*
X18817105Y67550934D01*
X18817103Y67550932D01*
X18766423Y67481178D01*
X18699095Y67388509D01*
X18630485Y67253854D01*
X18582510Y67203058D01*
X18514689Y67186263D01*
X18448554Y67208801D01*
X18409515Y67253854D01*
X18341038Y67388246D01*
X18340905Y67388508D01*
X18222897Y67550932D01*
X18080932Y67692897D01*
X17918508Y67810905D01*
X17875743Y67832695D01*
X17739626Y67902051D01*
X17548680Y67964093D01*
X17350384Y67995500D01*
X17149616Y67995500D01*
X17050468Y67979797D01*
X16951319Y67964093D01*
X16760373Y67902051D01*
X16581491Y67810905D01*
X16541125Y67781577D01*
X16419068Y67692897D01*
X16419066Y67692895D01*
X16419065Y67692895D01*
X16277105Y67550935D01*
X16277105Y67550934D01*
X16277103Y67550932D01*
X16241649Y67502135D01*
X16159093Y67388507D01*
X16090203Y67253303D01*
X16042229Y67202508D01*
X15974408Y67185713D01*
X15908273Y67208251D01*
X15869234Y67253304D01*
X15800478Y67388246D01*
X15771576Y67428024D01*
X15771576Y67428025D01*
X15192962Y66849410D01*
X15175925Y66912993D01*
X15110099Y67027007D01*
X15017007Y67120099D01*
X14902993Y67185925D01*
X14839409Y67202963D01*
X15418023Y67781577D01*
X15418022Y67781578D01*
X15378246Y67810478D01*
X15199432Y67901588D01*
X15008559Y67963607D01*
X14810350Y67995000D01*
X14609650Y67995000D01*
X14411440Y67963607D01*
X14220567Y67901588D01*
X14041755Y67810479D01*
X14001976Y67781578D01*
X14580591Y67202963D01*
X14517007Y67185925D01*
X14402993Y67120099D01*
X14309901Y67027007D01*
X14244075Y66912993D01*
X14227037Y66849409D01*
X13648422Y67428024D01*
X13619521Y67388245D01*
X13550485Y67252753D01*
X13502510Y67201957D01*
X13434689Y67185162D01*
X13368554Y67207700D01*
X13329515Y67252753D01*
X13260478Y67388246D01*
X13231576Y67428024D01*
X13231576Y67428025D01*
X12652962Y66849410D01*
X12635925Y66912993D01*
X12570099Y67027007D01*
X12477007Y67120099D01*
X12362993Y67185925D01*
X12299409Y67202963D01*
X12878023Y67781578D01*
X12838246Y67810478D01*
X12659432Y67901588D01*
X12468559Y67963607D01*
X12270350Y67995000D01*
X12069650Y67995000D01*
X11871440Y67963607D01*
X11680567Y67901588D01*
X11501755Y67810479D01*
X11461976Y67781578D01*
X12040591Y67202963D01*
X11977007Y67185925D01*
X11862993Y67120099D01*
X11769901Y67027007D01*
X11704075Y66912993D01*
X11687037Y66849409D01*
X11108422Y67428024D01*
X11079521Y67388245D01*
X10988412Y67209433D01*
X10926393Y67018560D01*
X10895000Y66820351D01*
X10895000Y66619650D01*
X10926393Y66421441D01*
X10988412Y66230568D01*
X11079522Y66051754D01*
X11108422Y66011978D01*
X11108423Y66011977D01*
X11687037Y66590592D01*
X11704075Y66527007D01*
X11769901Y66412993D01*
X11862993Y66319901D01*
X11977007Y66254075D01*
X12040590Y66237038D01*
X11461975Y65658424D01*
X11501754Y65629522D01*
X11636696Y65560766D01*
X11687492Y65512792D01*
X11704287Y65444971D01*
X11681750Y65378836D01*
X11636697Y65339797D01*
X11501493Y65270907D01*
X11387865Y65188351D01*
X11339068Y65152897D01*
X11339066Y65152895D01*
X11339065Y65152895D01*
X11197105Y65010935D01*
X11197105Y65010934D01*
X11197103Y65010932D01*
X11146423Y64941178D01*
X11079095Y64848509D01*
X10987949Y64669627D01*
X10925907Y64478681D01*
X10894500Y64280384D01*
X500000Y64280384D01*
X500000Y69373089D01*
X5364500Y69373089D01*
X5364500Y69146912D01*
X5364501Y69146896D01*
X5394023Y68922653D01*
X5452567Y68704166D01*
X5539120Y68495206D01*
X5539127Y68495191D01*
X5652220Y68299308D01*
X5789915Y68119860D01*
X5789921Y68119853D01*
X5949852Y67959922D01*
X5949859Y67959916D01*
X6129307Y67822221D01*
X6325190Y67709128D01*
X6325205Y67709121D01*
X6364374Y67692897D01*
X6534166Y67622567D01*
X6752649Y67564024D01*
X6976905Y67534500D01*
X6976912Y67534500D01*
X7203088Y67534500D01*
X7203095Y67534500D01*
X7427351Y67564024D01*
X7645834Y67622567D01*
X7854806Y67709126D01*
X8050693Y67822221D01*
X8230142Y67959917D01*
X8390083Y68119858D01*
X8527779Y68299307D01*
X8640874Y68495194D01*
X8727433Y68704166D01*
X8785976Y68922649D01*
X8815500Y69146905D01*
X8815500Y69373089D01*
X94264500Y69373089D01*
X94264500Y69146912D01*
X94264501Y69146896D01*
X94294023Y68922653D01*
X94352567Y68704166D01*
X94439120Y68495206D01*
X94439127Y68495191D01*
X94552220Y68299308D01*
X94689915Y68119860D01*
X94689921Y68119853D01*
X94849852Y67959922D01*
X94849859Y67959916D01*
X95029307Y67822221D01*
X95225190Y67709128D01*
X95225205Y67709121D01*
X95264374Y67692897D01*
X95434166Y67622567D01*
X95652649Y67564024D01*
X95876905Y67534500D01*
X95876912Y67534500D01*
X96103088Y67534500D01*
X96103095Y67534500D01*
X96327351Y67564024D01*
X96545834Y67622567D01*
X96754806Y67709126D01*
X96950693Y67822221D01*
X97130142Y67959917D01*
X97290083Y68119858D01*
X97427779Y68299307D01*
X97540874Y68495194D01*
X97627433Y68704166D01*
X97685976Y68922649D01*
X97715500Y69146905D01*
X97715500Y69373095D01*
X97685976Y69597351D01*
X97627433Y69815834D01*
X97540874Y70024806D01*
X97427779Y70220693D01*
X97290083Y70400142D01*
X97290078Y70400148D01*
X97130147Y70560079D01*
X97130140Y70560085D01*
X96950692Y70697780D01*
X96754809Y70810873D01*
X96754794Y70810880D01*
X96545834Y70897433D01*
X96327347Y70955977D01*
X96103104Y70985499D01*
X96103101Y70985500D01*
X96103095Y70985500D01*
X95876905Y70985500D01*
X95876899Y70985500D01*
X95876895Y70985499D01*
X95652652Y70955977D01*
X95434165Y70897433D01*
X95225205Y70810880D01*
X95225190Y70810873D01*
X95029307Y70697780D01*
X94849859Y70560085D01*
X94849852Y70560079D01*
X94689921Y70400148D01*
X94689915Y70400141D01*
X94552220Y70220693D01*
X94439127Y70024810D01*
X94439120Y70024795D01*
X94352567Y69815835D01*
X94294023Y69597348D01*
X94264501Y69373105D01*
X94264500Y69373089D01*
X8815500Y69373089D01*
X8815500Y69373095D01*
X8785976Y69597351D01*
X8727433Y69815834D01*
X8640874Y70024806D01*
X8527779Y70220693D01*
X8390083Y70400142D01*
X8390078Y70400148D01*
X8230147Y70560079D01*
X8230140Y70560085D01*
X8050692Y70697780D01*
X7854809Y70810873D01*
X7854794Y70810880D01*
X7645834Y70897433D01*
X7427347Y70955977D01*
X7203104Y70985499D01*
X7203101Y70985500D01*
X7203095Y70985500D01*
X6976905Y70985500D01*
X6976899Y70985500D01*
X6976895Y70985499D01*
X6752652Y70955977D01*
X6534165Y70897433D01*
X6325205Y70810880D01*
X6325190Y70810873D01*
X6129307Y70697780D01*
X5949859Y70560085D01*
X5949852Y70560079D01*
X5789921Y70400148D01*
X5789915Y70400141D01*
X5652220Y70220693D01*
X5539127Y70024810D01*
X5539120Y70024795D01*
X5452567Y69815835D01*
X5394023Y69597348D01*
X5364501Y69373105D01*
X5364500Y69373089D01*
X500000Y69373089D01*
X500000Y71376000D01*
X519685Y71443039D01*
X572489Y71488794D01*
X624000Y71500000D01*
X99376000Y71500000D01*
X99443039Y71480315D01*
G37*
G04 #@! TD.AperFunction*
M02*
