G04 #@! TF.GenerationSoftware,KiCad,Pcbnew,10.0.3*
G04 #@! TF.CreationDate,2026-06-09T14:37:22+09:00*
G04 #@! TF.ProjectId,VME_axpvme230_p2,564d455f-6178-4707-966d-653233305f70,0.0*
G04 #@! TF.SameCoordinates,PX4a62f80PY6edd590*
G04 #@! TF.FileFunction,Legend,Top*
G04 #@! TF.FilePolarity,Positive*
%FSLAX46Y46*%
G04 Gerber Fmt 4.6, Leading zero omitted, Abs format (unit mm)*
G04 Created by KiCad (PCBNEW 10.0.3) date 2026-06-09 14:37:22*
%MOMM*%
%LPD*%
G01*
G04 APERTURE LIST*
%ADD10C,0.125000*%
%ADD11C,0.150000*%
%ADD12C,0.250000*%
%ADD13C,0.300000*%
%ADD14C,0.120000*%
G04 APERTURE END LIST*
D10*
X1106403Y20418881D02*
X1677831Y20418881D01*
X1392117Y19418881D02*
X1392117Y20418881D01*
X1963546Y20323643D02*
X2011165Y20371262D01*
X2011165Y20371262D02*
X2106403Y20418881D01*
X2106403Y20418881D02*
X2344498Y20418881D01*
X2344498Y20418881D02*
X2439736Y20371262D01*
X2439736Y20371262D02*
X2487355Y20323643D01*
X2487355Y20323643D02*
X2534974Y20228405D01*
X2534974Y20228405D02*
X2534974Y20133167D01*
X2534974Y20133167D02*
X2487355Y19990310D01*
X2487355Y19990310D02*
X1915927Y19418881D01*
X1915927Y19418881D02*
X2534974Y19418881D01*
X2725451Y19323643D02*
X3487355Y19323643D01*
X3725451Y19942691D02*
X4058784Y19942691D01*
X4201641Y19418881D02*
X3725451Y19418881D01*
X3725451Y19418881D02*
X3725451Y20418881D01*
X3725451Y20418881D02*
X4201641Y20418881D01*
X4534975Y19418881D02*
X5058784Y20085548D01*
X4534975Y20085548D02*
X5058784Y19418881D01*
X5296880Y20085548D02*
X5677832Y20085548D01*
X5439737Y20418881D02*
X5439737Y19561739D01*
X5439737Y19561739D02*
X5487356Y19466500D01*
X5487356Y19466500D02*
X5582594Y19418881D01*
X5582594Y19418881D02*
X5677832Y19418881D01*
X5773071Y19323643D02*
X6534975Y19323643D01*
X6963547Y20418881D02*
X7154023Y20418881D01*
X7154023Y20418881D02*
X7249261Y20371262D01*
X7249261Y20371262D02*
X7344499Y20276024D01*
X7344499Y20276024D02*
X7392118Y20085548D01*
X7392118Y20085548D02*
X7392118Y19752215D01*
X7392118Y19752215D02*
X7344499Y19561739D01*
X7344499Y19561739D02*
X7249261Y19466500D01*
X7249261Y19466500D02*
X7154023Y19418881D01*
X7154023Y19418881D02*
X6963547Y19418881D01*
X6963547Y19418881D02*
X6868309Y19466500D01*
X6868309Y19466500D02*
X6773071Y19561739D01*
X6773071Y19561739D02*
X6725452Y19752215D01*
X6725452Y19752215D02*
X6725452Y20085548D01*
X6725452Y20085548D02*
X6773071Y20276024D01*
X6773071Y20276024D02*
X6868309Y20371262D01*
X6868309Y20371262D02*
X6963547Y20418881D01*
X7820690Y20085548D02*
X7820690Y19085548D01*
X7820690Y20037929D02*
X7915928Y20085548D01*
X7915928Y20085548D02*
X8106404Y20085548D01*
X8106404Y20085548D02*
X8201642Y20037929D01*
X8201642Y20037929D02*
X8249261Y19990310D01*
X8249261Y19990310D02*
X8296880Y19895072D01*
X8296880Y19895072D02*
X8296880Y19609358D01*
X8296880Y19609358D02*
X8249261Y19514120D01*
X8249261Y19514120D02*
X8201642Y19466500D01*
X8201642Y19466500D02*
X8106404Y19418881D01*
X8106404Y19418881D02*
X7915928Y19418881D01*
X7915928Y19418881D02*
X7820690Y19466500D01*
X1111165Y20696500D02*
X8387357Y20696500D01*
X1820688Y16878881D02*
X1487355Y17355072D01*
X1249260Y16878881D02*
X1249260Y17878881D01*
X1249260Y17878881D02*
X1630212Y17878881D01*
X1630212Y17878881D02*
X1725450Y17831262D01*
X1725450Y17831262D02*
X1773069Y17783643D01*
X1773069Y17783643D02*
X1820688Y17688405D01*
X1820688Y17688405D02*
X1820688Y17545548D01*
X1820688Y17545548D02*
X1773069Y17450310D01*
X1773069Y17450310D02*
X1725450Y17402691D01*
X1725450Y17402691D02*
X1630212Y17355072D01*
X1630212Y17355072D02*
X1249260Y17355072D01*
X2249260Y17402691D02*
X2582593Y17402691D01*
X2725450Y16878881D02*
X2249260Y16878881D01*
X2249260Y16878881D02*
X2249260Y17878881D01*
X2249260Y17878881D02*
X2725450Y17878881D01*
X3106403Y16926500D02*
X3249260Y16878881D01*
X3249260Y16878881D02*
X3487355Y16878881D01*
X3487355Y16878881D02*
X3582593Y16926500D01*
X3582593Y16926500D02*
X3630212Y16974120D01*
X3630212Y16974120D02*
X3677831Y17069358D01*
X3677831Y17069358D02*
X3677831Y17164596D01*
X3677831Y17164596D02*
X3630212Y17259834D01*
X3630212Y17259834D02*
X3582593Y17307453D01*
X3582593Y17307453D02*
X3487355Y17355072D01*
X3487355Y17355072D02*
X3296879Y17402691D01*
X3296879Y17402691D02*
X3201641Y17450310D01*
X3201641Y17450310D02*
X3154022Y17497929D01*
X3154022Y17497929D02*
X3106403Y17593167D01*
X3106403Y17593167D02*
X3106403Y17688405D01*
X3106403Y17688405D02*
X3154022Y17783643D01*
X3154022Y17783643D02*
X3201641Y17831262D01*
X3201641Y17831262D02*
X3296879Y17878881D01*
X3296879Y17878881D02*
X3534974Y17878881D01*
X3534974Y17878881D02*
X3677831Y17831262D01*
X4106403Y17402691D02*
X4439736Y17402691D01*
X4582593Y16878881D02*
X4106403Y16878881D01*
X4106403Y16878881D02*
X4106403Y17878881D01*
X4106403Y17878881D02*
X4582593Y17878881D01*
X4868308Y17878881D02*
X5439736Y17878881D01*
X5154022Y16878881D02*
X5154022Y17878881D01*
X1111165Y18156500D02*
X5434975Y18156500D01*
X1154022Y15338881D02*
X1392117Y14338881D01*
X1392117Y14338881D02*
X1582593Y15053167D01*
X1582593Y15053167D02*
X1773069Y14338881D01*
X1773069Y14338881D02*
X2011165Y15338881D01*
X2392117Y14338881D02*
X2392117Y15338881D01*
X2392117Y15338881D02*
X2630212Y15338881D01*
X2630212Y15338881D02*
X2773069Y15291262D01*
X2773069Y15291262D02*
X2868307Y15196024D01*
X2868307Y15196024D02*
X2915926Y15100786D01*
X2915926Y15100786D02*
X2963545Y14910310D01*
X2963545Y14910310D02*
X2963545Y14767453D01*
X2963545Y14767453D02*
X2915926Y14576977D01*
X2915926Y14576977D02*
X2868307Y14481739D01*
X2868307Y14481739D02*
X2773069Y14386500D01*
X2773069Y14386500D02*
X2630212Y14338881D01*
X2630212Y14338881D02*
X2392117Y14338881D01*
X4106403Y14386500D02*
X4249260Y14338881D01*
X4249260Y14338881D02*
X4487355Y14338881D01*
X4487355Y14338881D02*
X4582593Y14386500D01*
X4582593Y14386500D02*
X4630212Y14434120D01*
X4630212Y14434120D02*
X4677831Y14529358D01*
X4677831Y14529358D02*
X4677831Y14624596D01*
X4677831Y14624596D02*
X4630212Y14719834D01*
X4630212Y14719834D02*
X4582593Y14767453D01*
X4582593Y14767453D02*
X4487355Y14815072D01*
X4487355Y14815072D02*
X4296879Y14862691D01*
X4296879Y14862691D02*
X4201641Y14910310D01*
X4201641Y14910310D02*
X4154022Y14957929D01*
X4154022Y14957929D02*
X4106403Y15053167D01*
X4106403Y15053167D02*
X4106403Y15148405D01*
X4106403Y15148405D02*
X4154022Y15243643D01*
X4154022Y15243643D02*
X4201641Y15291262D01*
X4201641Y15291262D02*
X4296879Y15338881D01*
X4296879Y15338881D02*
X4534974Y15338881D01*
X4534974Y15338881D02*
X4677831Y15291262D01*
X4963546Y15338881D02*
X5534974Y15338881D01*
X5249260Y14338881D02*
X5249260Y15338881D01*
X5820689Y14624596D02*
X6296879Y14624596D01*
X5725451Y14338881D02*
X6058784Y15338881D01*
X6058784Y15338881D02*
X6392117Y14338881D01*
X6582594Y15338881D02*
X7154022Y15338881D01*
X6868308Y14338881D02*
X6868308Y15338881D01*
X19306759Y6478881D02*
X18973426Y6955072D01*
X18735331Y6478881D02*
X18735331Y7478881D01*
X18735331Y7478881D02*
X19116283Y7478881D01*
X19116283Y7478881D02*
X19211521Y7431262D01*
X19211521Y7431262D02*
X19259140Y7383643D01*
X19259140Y7383643D02*
X19306759Y7288405D01*
X19306759Y7288405D02*
X19306759Y7145548D01*
X19306759Y7145548D02*
X19259140Y7050310D01*
X19259140Y7050310D02*
X19211521Y7002691D01*
X19211521Y7002691D02*
X19116283Y6955072D01*
X19116283Y6955072D02*
X18735331Y6955072D01*
X19735331Y7002691D02*
X20068664Y7002691D01*
X20211521Y6478881D02*
X19735331Y6478881D01*
X19735331Y6478881D02*
X19735331Y7478881D01*
X19735331Y7478881D02*
X20211521Y7478881D01*
X20592474Y6526500D02*
X20735331Y6478881D01*
X20735331Y6478881D02*
X20973426Y6478881D01*
X20973426Y6478881D02*
X21068664Y6526500D01*
X21068664Y6526500D02*
X21116283Y6574120D01*
X21116283Y6574120D02*
X21163902Y6669358D01*
X21163902Y6669358D02*
X21163902Y6764596D01*
X21163902Y6764596D02*
X21116283Y6859834D01*
X21116283Y6859834D02*
X21068664Y6907453D01*
X21068664Y6907453D02*
X20973426Y6955072D01*
X20973426Y6955072D02*
X20782950Y7002691D01*
X20782950Y7002691D02*
X20687712Y7050310D01*
X20687712Y7050310D02*
X20640093Y7097929D01*
X20640093Y7097929D02*
X20592474Y7193167D01*
X20592474Y7193167D02*
X20592474Y7288405D01*
X20592474Y7288405D02*
X20640093Y7383643D01*
X20640093Y7383643D02*
X20687712Y7431262D01*
X20687712Y7431262D02*
X20782950Y7478881D01*
X20782950Y7478881D02*
X21021045Y7478881D01*
X21021045Y7478881D02*
X21163902Y7431262D01*
X21592474Y7002691D02*
X21925807Y7002691D01*
X22068664Y6478881D02*
X21592474Y6478881D01*
X21592474Y6478881D02*
X21592474Y7478881D01*
X21592474Y7478881D02*
X22068664Y7478881D01*
X22354379Y7478881D02*
X22925807Y7478881D01*
X22640093Y6478881D02*
X22640093Y7478881D01*
X1825952Y34508881D02*
X1492619Y34985072D01*
X1254524Y34508881D02*
X1254524Y35508881D01*
X1254524Y35508881D02*
X1635476Y35508881D01*
X1635476Y35508881D02*
X1730714Y35461262D01*
X1730714Y35461262D02*
X1778333Y35413643D01*
X1778333Y35413643D02*
X1825952Y35318405D01*
X1825952Y35318405D02*
X1825952Y35175548D01*
X1825952Y35175548D02*
X1778333Y35080310D01*
X1778333Y35080310D02*
X1730714Y35032691D01*
X1730714Y35032691D02*
X1635476Y34985072D01*
X1635476Y34985072D02*
X1254524Y34985072D01*
X2159286Y34508881D02*
X2683095Y35175548D01*
X2159286Y35175548D02*
X2683095Y34508881D01*
X2825953Y34413643D02*
X3587857Y34413643D01*
X3825953Y34508881D02*
X3825953Y35508881D01*
X3825953Y35508881D02*
X4064048Y35508881D01*
X4064048Y35508881D02*
X4206905Y35461262D01*
X4206905Y35461262D02*
X4302143Y35366024D01*
X4302143Y35366024D02*
X4349762Y35270786D01*
X4349762Y35270786D02*
X4397381Y35080310D01*
X4397381Y35080310D02*
X4397381Y34937453D01*
X4397381Y34937453D02*
X4349762Y34746977D01*
X4349762Y34746977D02*
X4302143Y34651739D01*
X4302143Y34651739D02*
X4206905Y34556500D01*
X4206905Y34556500D02*
X4064048Y34508881D01*
X4064048Y34508881D02*
X3825953Y34508881D01*
X5254524Y34508881D02*
X5254524Y35032691D01*
X5254524Y35032691D02*
X5206905Y35127929D01*
X5206905Y35127929D02*
X5111667Y35175548D01*
X5111667Y35175548D02*
X4921191Y35175548D01*
X4921191Y35175548D02*
X4825953Y35127929D01*
X5254524Y34556500D02*
X5159286Y34508881D01*
X5159286Y34508881D02*
X4921191Y34508881D01*
X4921191Y34508881D02*
X4825953Y34556500D01*
X4825953Y34556500D02*
X4778334Y34651739D01*
X4778334Y34651739D02*
X4778334Y34746977D01*
X4778334Y34746977D02*
X4825953Y34842215D01*
X4825953Y34842215D02*
X4921191Y34889834D01*
X4921191Y34889834D02*
X5159286Y34889834D01*
X5159286Y34889834D02*
X5254524Y34937453D01*
X5587858Y35175548D02*
X5968810Y35175548D01*
X5730715Y35508881D02*
X5730715Y34651739D01*
X5730715Y34651739D02*
X5778334Y34556500D01*
X5778334Y34556500D02*
X5873572Y34508881D01*
X5873572Y34508881D02*
X5968810Y34508881D01*
X6730715Y34508881D02*
X6730715Y35032691D01*
X6730715Y35032691D02*
X6683096Y35127929D01*
X6683096Y35127929D02*
X6587858Y35175548D01*
X6587858Y35175548D02*
X6397382Y35175548D01*
X6397382Y35175548D02*
X6302144Y35127929D01*
X6730715Y34556500D02*
X6635477Y34508881D01*
X6635477Y34508881D02*
X6397382Y34508881D01*
X6397382Y34508881D02*
X6302144Y34556500D01*
X6302144Y34556500D02*
X6254525Y34651739D01*
X6254525Y34651739D02*
X6254525Y34746977D01*
X6254525Y34746977D02*
X6302144Y34842215D01*
X6302144Y34842215D02*
X6397382Y34889834D01*
X6397382Y34889834D02*
X6635477Y34889834D01*
X6635477Y34889834D02*
X6730715Y34937453D01*
X1206905Y37056500D02*
X1349762Y37008881D01*
X1349762Y37008881D02*
X1587857Y37008881D01*
X1587857Y37008881D02*
X1683095Y37056500D01*
X1683095Y37056500D02*
X1730714Y37104120D01*
X1730714Y37104120D02*
X1778333Y37199358D01*
X1778333Y37199358D02*
X1778333Y37294596D01*
X1778333Y37294596D02*
X1730714Y37389834D01*
X1730714Y37389834D02*
X1683095Y37437453D01*
X1683095Y37437453D02*
X1587857Y37485072D01*
X1587857Y37485072D02*
X1397381Y37532691D01*
X1397381Y37532691D02*
X1302143Y37580310D01*
X1302143Y37580310D02*
X1254524Y37627929D01*
X1254524Y37627929D02*
X1206905Y37723167D01*
X1206905Y37723167D02*
X1206905Y37818405D01*
X1206905Y37818405D02*
X1254524Y37913643D01*
X1254524Y37913643D02*
X1302143Y37961262D01*
X1302143Y37961262D02*
X1397381Y38008881D01*
X1397381Y38008881D02*
X1635476Y38008881D01*
X1635476Y38008881D02*
X1778333Y37961262D01*
X2206905Y37008881D02*
X2206905Y37675548D01*
X2206905Y37485072D02*
X2254524Y37580310D01*
X2254524Y37580310D02*
X2302143Y37627929D01*
X2302143Y37627929D02*
X2397381Y37675548D01*
X2397381Y37675548D02*
X2492619Y37675548D01*
X2968810Y37008881D02*
X2873572Y37056500D01*
X2873572Y37056500D02*
X2825953Y37104120D01*
X2825953Y37104120D02*
X2778334Y37199358D01*
X2778334Y37199358D02*
X2778334Y37485072D01*
X2778334Y37485072D02*
X2825953Y37580310D01*
X2825953Y37580310D02*
X2873572Y37627929D01*
X2873572Y37627929D02*
X2968810Y37675548D01*
X2968810Y37675548D02*
X3111667Y37675548D01*
X3111667Y37675548D02*
X3206905Y37627929D01*
X3206905Y37627929D02*
X3254524Y37580310D01*
X3254524Y37580310D02*
X3302143Y37485072D01*
X3302143Y37485072D02*
X3302143Y37199358D01*
X3302143Y37199358D02*
X3254524Y37104120D01*
X3254524Y37104120D02*
X3206905Y37056500D01*
X3206905Y37056500D02*
X3111667Y37008881D01*
X3111667Y37008881D02*
X2968810Y37008881D01*
X3730715Y37008881D02*
X3730715Y37675548D01*
X3730715Y37580310D02*
X3778334Y37627929D01*
X3778334Y37627929D02*
X3873572Y37675548D01*
X3873572Y37675548D02*
X4016429Y37675548D01*
X4016429Y37675548D02*
X4111667Y37627929D01*
X4111667Y37627929D02*
X4159286Y37532691D01*
X4159286Y37532691D02*
X4159286Y37008881D01*
X4159286Y37532691D02*
X4206905Y37627929D01*
X4206905Y37627929D02*
X4302143Y37675548D01*
X4302143Y37675548D02*
X4445000Y37675548D01*
X4445000Y37675548D02*
X4540239Y37627929D01*
X4540239Y37627929D02*
X4587858Y37532691D01*
X4587858Y37532691D02*
X4587858Y37008881D01*
X4825953Y36913643D02*
X5587857Y36913643D01*
X5825953Y37008881D02*
X5825953Y38008881D01*
X5825953Y38008881D02*
X6064048Y38008881D01*
X6064048Y38008881D02*
X6206905Y37961262D01*
X6206905Y37961262D02*
X6302143Y37866024D01*
X6302143Y37866024D02*
X6349762Y37770786D01*
X6349762Y37770786D02*
X6397381Y37580310D01*
X6397381Y37580310D02*
X6397381Y37437453D01*
X6397381Y37437453D02*
X6349762Y37246977D01*
X6349762Y37246977D02*
X6302143Y37151739D01*
X6302143Y37151739D02*
X6206905Y37056500D01*
X6206905Y37056500D02*
X6064048Y37008881D01*
X6064048Y37008881D02*
X5825953Y37008881D01*
X6825953Y37008881D02*
X6825953Y37675548D01*
X6825953Y38008881D02*
X6778334Y37961262D01*
X6778334Y37961262D02*
X6825953Y37913643D01*
X6825953Y37913643D02*
X6873572Y37961262D01*
X6873572Y37961262D02*
X6825953Y38008881D01*
X6825953Y38008881D02*
X6825953Y37913643D01*
X7254524Y37056500D02*
X7349762Y37008881D01*
X7349762Y37008881D02*
X7540238Y37008881D01*
X7540238Y37008881D02*
X7635476Y37056500D01*
X7635476Y37056500D02*
X7683095Y37151739D01*
X7683095Y37151739D02*
X7683095Y37199358D01*
X7683095Y37199358D02*
X7635476Y37294596D01*
X7635476Y37294596D02*
X7540238Y37342215D01*
X7540238Y37342215D02*
X7397381Y37342215D01*
X7397381Y37342215D02*
X7302143Y37389834D01*
X7302143Y37389834D02*
X7254524Y37485072D01*
X7254524Y37485072D02*
X7254524Y37532691D01*
X7254524Y37532691D02*
X7302143Y37627929D01*
X7302143Y37627929D02*
X7397381Y37675548D01*
X7397381Y37675548D02*
X7540238Y37675548D01*
X7540238Y37675548D02*
X7635476Y37627929D01*
X95686175Y47215094D02*
X96686175Y47453189D01*
X96686175Y47453189D02*
X95971889Y47643665D01*
X95971889Y47643665D02*
X96686175Y47834141D01*
X96686175Y47834141D02*
X95686175Y48072236D01*
X96686175Y48453189D02*
X95686175Y48453189D01*
X95686175Y48453189D02*
X95686175Y48691284D01*
X95686175Y48691284D02*
X95733794Y48834141D01*
X95733794Y48834141D02*
X95829032Y48929379D01*
X95829032Y48929379D02*
X95924270Y48976998D01*
X95924270Y48976998D02*
X96114746Y49024617D01*
X96114746Y49024617D02*
X96257603Y49024617D01*
X96257603Y49024617D02*
X96448079Y48976998D01*
X96448079Y48976998D02*
X96543317Y48929379D01*
X96543317Y48929379D02*
X96638556Y48834141D01*
X96638556Y48834141D02*
X96686175Y48691284D01*
X96686175Y48691284D02*
X96686175Y48453189D01*
X96638556Y50167475D02*
X96686175Y50310332D01*
X96686175Y50310332D02*
X96686175Y50548427D01*
X96686175Y50548427D02*
X96638556Y50643665D01*
X96638556Y50643665D02*
X96590936Y50691284D01*
X96590936Y50691284D02*
X96495698Y50738903D01*
X96495698Y50738903D02*
X96400460Y50738903D01*
X96400460Y50738903D02*
X96305222Y50691284D01*
X96305222Y50691284D02*
X96257603Y50643665D01*
X96257603Y50643665D02*
X96209984Y50548427D01*
X96209984Y50548427D02*
X96162365Y50357951D01*
X96162365Y50357951D02*
X96114746Y50262713D01*
X96114746Y50262713D02*
X96067127Y50215094D01*
X96067127Y50215094D02*
X95971889Y50167475D01*
X95971889Y50167475D02*
X95876651Y50167475D01*
X95876651Y50167475D02*
X95781413Y50215094D01*
X95781413Y50215094D02*
X95733794Y50262713D01*
X95733794Y50262713D02*
X95686175Y50357951D01*
X95686175Y50357951D02*
X95686175Y50596046D01*
X95686175Y50596046D02*
X95733794Y50738903D01*
X95686175Y51024618D02*
X95686175Y51596046D01*
X96686175Y51310332D02*
X95686175Y51310332D01*
X96400460Y51881761D02*
X96400460Y52357951D01*
X96686175Y51786523D02*
X95686175Y52119856D01*
X95686175Y52119856D02*
X96686175Y52453189D01*
X95686175Y52643666D02*
X95686175Y53215094D01*
X96686175Y52929380D02*
X95686175Y52929380D01*
X95686175Y53548428D02*
X96495698Y53548428D01*
X96495698Y53548428D02*
X96590936Y53596047D01*
X96590936Y53596047D02*
X96638556Y53643666D01*
X96638556Y53643666D02*
X96686175Y53738904D01*
X96686175Y53738904D02*
X96686175Y53929380D01*
X96686175Y53929380D02*
X96638556Y54024618D01*
X96638556Y54024618D02*
X96590936Y54072237D01*
X96590936Y54072237D02*
X96495698Y54119856D01*
X96495698Y54119856D02*
X95686175Y54119856D01*
X96638556Y54548428D02*
X96686175Y54691285D01*
X96686175Y54691285D02*
X96686175Y54929380D01*
X96686175Y54929380D02*
X96638556Y55024618D01*
X96638556Y55024618D02*
X96590936Y55072237D01*
X96590936Y55072237D02*
X96495698Y55119856D01*
X96495698Y55119856D02*
X96400460Y55119856D01*
X96400460Y55119856D02*
X96305222Y55072237D01*
X96305222Y55072237D02*
X96257603Y55024618D01*
X96257603Y55024618D02*
X96209984Y54929380D01*
X96209984Y54929380D02*
X96162365Y54738904D01*
X96162365Y54738904D02*
X96114746Y54643666D01*
X96114746Y54643666D02*
X96067127Y54596047D01*
X96067127Y54596047D02*
X95971889Y54548428D01*
X95971889Y54548428D02*
X95876651Y54548428D01*
X95876651Y54548428D02*
X95781413Y54596047D01*
X95781413Y54596047D02*
X95733794Y54643666D01*
X95733794Y54643666D02*
X95686175Y54738904D01*
X95686175Y54738904D02*
X95686175Y54976999D01*
X95686175Y54976999D02*
X95733794Y55119856D01*
X98296119Y47834141D02*
X98296119Y47262713D01*
X98296119Y47548427D02*
X97296119Y47548427D01*
X97296119Y47548427D02*
X97438976Y47453189D01*
X97438976Y47453189D02*
X97534214Y47357951D01*
X97534214Y47357951D02*
X97581833Y47262713D01*
X97915166Y48262713D02*
X97915166Y49024617D01*
X97391357Y49453189D02*
X97343738Y49500808D01*
X97343738Y49500808D02*
X97296119Y49596046D01*
X97296119Y49596046D02*
X97296119Y49834141D01*
X97296119Y49834141D02*
X97343738Y49929379D01*
X97343738Y49929379D02*
X97391357Y49976998D01*
X97391357Y49976998D02*
X97486595Y50024617D01*
X97486595Y50024617D02*
X97581833Y50024617D01*
X97581833Y50024617D02*
X97724690Y49976998D01*
X97724690Y49976998D02*
X98296119Y49405570D01*
X98296119Y49405570D02*
X98296119Y50024617D01*
X98248500Y51167475D02*
X98296119Y51310332D01*
X98296119Y51310332D02*
X98296119Y51548427D01*
X98296119Y51548427D02*
X98248500Y51643665D01*
X98248500Y51643665D02*
X98200880Y51691284D01*
X98200880Y51691284D02*
X98105642Y51738903D01*
X98105642Y51738903D02*
X98010404Y51738903D01*
X98010404Y51738903D02*
X97915166Y51691284D01*
X97915166Y51691284D02*
X97867547Y51643665D01*
X97867547Y51643665D02*
X97819928Y51548427D01*
X97819928Y51548427D02*
X97772309Y51357951D01*
X97772309Y51357951D02*
X97724690Y51262713D01*
X97724690Y51262713D02*
X97677071Y51215094D01*
X97677071Y51215094D02*
X97581833Y51167475D01*
X97581833Y51167475D02*
X97486595Y51167475D01*
X97486595Y51167475D02*
X97391357Y51215094D01*
X97391357Y51215094D02*
X97343738Y51262713D01*
X97343738Y51262713D02*
X97296119Y51357951D01*
X97296119Y51357951D02*
X97296119Y51596046D01*
X97296119Y51596046D02*
X97343738Y51738903D01*
X98296119Y52167475D02*
X97296119Y52167475D01*
X97772309Y52167475D02*
X97772309Y52738903D01*
X98296119Y52738903D02*
X97296119Y52738903D01*
X97296119Y53405570D02*
X97296119Y53596046D01*
X97296119Y53596046D02*
X97343738Y53691284D01*
X97343738Y53691284D02*
X97438976Y53786522D01*
X97438976Y53786522D02*
X97629452Y53834141D01*
X97629452Y53834141D02*
X97962785Y53834141D01*
X97962785Y53834141D02*
X98153261Y53786522D01*
X98153261Y53786522D02*
X98248500Y53691284D01*
X98248500Y53691284D02*
X98296119Y53596046D01*
X98296119Y53596046D02*
X98296119Y53405570D01*
X98296119Y53405570D02*
X98248500Y53310332D01*
X98248500Y53310332D02*
X98153261Y53215094D01*
X98153261Y53215094D02*
X97962785Y53167475D01*
X97962785Y53167475D02*
X97629452Y53167475D01*
X97629452Y53167475D02*
X97438976Y53215094D01*
X97438976Y53215094D02*
X97343738Y53310332D01*
X97343738Y53310332D02*
X97296119Y53405570D01*
X98296119Y54834141D02*
X97819928Y54500808D01*
X98296119Y54262713D02*
X97296119Y54262713D01*
X97296119Y54262713D02*
X97296119Y54643665D01*
X97296119Y54643665D02*
X97343738Y54738903D01*
X97343738Y54738903D02*
X97391357Y54786522D01*
X97391357Y54786522D02*
X97486595Y54834141D01*
X97486595Y54834141D02*
X97629452Y54834141D01*
X97629452Y54834141D02*
X97724690Y54786522D01*
X97724690Y54786522D02*
X97772309Y54738903D01*
X97772309Y54738903D02*
X97819928Y54643665D01*
X97819928Y54643665D02*
X97819928Y54262713D01*
X97296119Y55119856D02*
X97296119Y55691284D01*
X98296119Y55405570D02*
X97296119Y55405570D01*
X97772309Y56024618D02*
X97772309Y56786522D01*
X98058023Y56786522D02*
X98058023Y56024618D01*
X98296119Y57262713D02*
X97296119Y57262713D01*
X97296119Y57262713D02*
X97296119Y57643665D01*
X97296119Y57643665D02*
X97343738Y57738903D01*
X97343738Y57738903D02*
X97391357Y57786522D01*
X97391357Y57786522D02*
X97486595Y57834141D01*
X97486595Y57834141D02*
X97629452Y57834141D01*
X97629452Y57834141D02*
X97724690Y57786522D01*
X97724690Y57786522D02*
X97772309Y57738903D01*
X97772309Y57738903D02*
X97819928Y57643665D01*
X97819928Y57643665D02*
X97819928Y57262713D01*
X97629452Y58691284D02*
X98296119Y58691284D01*
X97629452Y58262713D02*
X98153261Y58262713D01*
X98153261Y58262713D02*
X98248500Y58310332D01*
X98248500Y58310332D02*
X98296119Y58405570D01*
X98296119Y58405570D02*
X98296119Y58548427D01*
X98296119Y58548427D02*
X98248500Y58643665D01*
X98248500Y58643665D02*
X98200880Y58691284D01*
X98296119Y59310332D02*
X98248500Y59215094D01*
X98248500Y59215094D02*
X98153261Y59167475D01*
X98153261Y59167475D02*
X97296119Y59167475D01*
X98296119Y59834142D02*
X98248500Y59738904D01*
X98248500Y59738904D02*
X98153261Y59691285D01*
X98153261Y59691285D02*
X97296119Y59691285D01*
X97296119Y60215095D02*
X98105642Y60215095D01*
X98105642Y60215095D02*
X98200880Y60262714D01*
X98200880Y60262714D02*
X98248500Y60310333D01*
X98248500Y60310333D02*
X98296119Y60405571D01*
X98296119Y60405571D02*
X98296119Y60596047D01*
X98296119Y60596047D02*
X98248500Y60691285D01*
X98248500Y60691285D02*
X98200880Y60738904D01*
X98200880Y60738904D02*
X98105642Y60786523D01*
X98105642Y60786523D02*
X97296119Y60786523D01*
X98296119Y61262714D02*
X97296119Y61262714D01*
X97296119Y61262714D02*
X97296119Y61643666D01*
X97296119Y61643666D02*
X97343738Y61738904D01*
X97343738Y61738904D02*
X97391357Y61786523D01*
X97391357Y61786523D02*
X97486595Y61834142D01*
X97486595Y61834142D02*
X97629452Y61834142D01*
X97629452Y61834142D02*
X97724690Y61786523D01*
X97724690Y61786523D02*
X97772309Y61738904D01*
X97772309Y61738904D02*
X97819928Y61643666D01*
X97819928Y61643666D02*
X97819928Y61262714D01*
X1111667Y33008881D02*
X1683095Y33008881D01*
X1397381Y32008881D02*
X1397381Y33008881D01*
X1921191Y32008881D02*
X2445000Y32675548D01*
X1921191Y32675548D02*
X2445000Y32008881D01*
X2587858Y31913643D02*
X3349762Y31913643D01*
X3587858Y32008881D02*
X3587858Y33008881D01*
X3587858Y33008881D02*
X3825953Y33008881D01*
X3825953Y33008881D02*
X3968810Y32961262D01*
X3968810Y32961262D02*
X4064048Y32866024D01*
X4064048Y32866024D02*
X4111667Y32770786D01*
X4111667Y32770786D02*
X4159286Y32580310D01*
X4159286Y32580310D02*
X4159286Y32437453D01*
X4159286Y32437453D02*
X4111667Y32246977D01*
X4111667Y32246977D02*
X4064048Y32151739D01*
X4064048Y32151739D02*
X3968810Y32056500D01*
X3968810Y32056500D02*
X3825953Y32008881D01*
X3825953Y32008881D02*
X3587858Y32008881D01*
X5016429Y32008881D02*
X5016429Y32532691D01*
X5016429Y32532691D02*
X4968810Y32627929D01*
X4968810Y32627929D02*
X4873572Y32675548D01*
X4873572Y32675548D02*
X4683096Y32675548D01*
X4683096Y32675548D02*
X4587858Y32627929D01*
X5016429Y32056500D02*
X4921191Y32008881D01*
X4921191Y32008881D02*
X4683096Y32008881D01*
X4683096Y32008881D02*
X4587858Y32056500D01*
X4587858Y32056500D02*
X4540239Y32151739D01*
X4540239Y32151739D02*
X4540239Y32246977D01*
X4540239Y32246977D02*
X4587858Y32342215D01*
X4587858Y32342215D02*
X4683096Y32389834D01*
X4683096Y32389834D02*
X4921191Y32389834D01*
X4921191Y32389834D02*
X5016429Y32437453D01*
X5349763Y32675548D02*
X5730715Y32675548D01*
X5492620Y33008881D02*
X5492620Y32151739D01*
X5492620Y32151739D02*
X5540239Y32056500D01*
X5540239Y32056500D02*
X5635477Y32008881D01*
X5635477Y32008881D02*
X5730715Y32008881D01*
X6492620Y32008881D02*
X6492620Y32532691D01*
X6492620Y32532691D02*
X6445001Y32627929D01*
X6445001Y32627929D02*
X6349763Y32675548D01*
X6349763Y32675548D02*
X6159287Y32675548D01*
X6159287Y32675548D02*
X6064049Y32627929D01*
X6492620Y32056500D02*
X6397382Y32008881D01*
X6397382Y32008881D02*
X6159287Y32008881D01*
X6159287Y32008881D02*
X6064049Y32056500D01*
X6064049Y32056500D02*
X6016430Y32151739D01*
X6016430Y32151739D02*
X6016430Y32246977D01*
X6016430Y32246977D02*
X6064049Y32342215D01*
X6064049Y32342215D02*
X6159287Y32389834D01*
X6159287Y32389834D02*
X6397382Y32389834D01*
X6397382Y32389834D02*
X6492620Y32437453D01*
X1254524Y29508881D02*
X1254524Y30508881D01*
X1254524Y30508881D02*
X1635476Y30508881D01*
X1635476Y30508881D02*
X1730714Y30461262D01*
X1730714Y30461262D02*
X1778333Y30413643D01*
X1778333Y30413643D02*
X1825952Y30318405D01*
X1825952Y30318405D02*
X1825952Y30175548D01*
X1825952Y30175548D02*
X1778333Y30080310D01*
X1778333Y30080310D02*
X1730714Y30032691D01*
X1730714Y30032691D02*
X1635476Y29985072D01*
X1635476Y29985072D02*
X1254524Y29985072D01*
X2397381Y29508881D02*
X2302143Y29556500D01*
X2302143Y29556500D02*
X2254524Y29604120D01*
X2254524Y29604120D02*
X2206905Y29699358D01*
X2206905Y29699358D02*
X2206905Y29985072D01*
X2206905Y29985072D02*
X2254524Y30080310D01*
X2254524Y30080310D02*
X2302143Y30127929D01*
X2302143Y30127929D02*
X2397381Y30175548D01*
X2397381Y30175548D02*
X2540238Y30175548D01*
X2540238Y30175548D02*
X2635476Y30127929D01*
X2635476Y30127929D02*
X2683095Y30080310D01*
X2683095Y30080310D02*
X2730714Y29985072D01*
X2730714Y29985072D02*
X2730714Y29699358D01*
X2730714Y29699358D02*
X2683095Y29604120D01*
X2683095Y29604120D02*
X2635476Y29556500D01*
X2635476Y29556500D02*
X2540238Y29508881D01*
X2540238Y29508881D02*
X2397381Y29508881D01*
X3159286Y29508881D02*
X3159286Y30175548D01*
X3159286Y29985072D02*
X3206905Y30080310D01*
X3206905Y30080310D02*
X3254524Y30127929D01*
X3254524Y30127929D02*
X3349762Y30175548D01*
X3349762Y30175548D02*
X3445000Y30175548D01*
X3635477Y30175548D02*
X4016429Y30175548D01*
X3778334Y30508881D02*
X3778334Y29651739D01*
X3778334Y29651739D02*
X3825953Y29556500D01*
X3825953Y29556500D02*
X3921191Y29508881D01*
X3921191Y29508881D02*
X4016429Y29508881D01*
X4111668Y29413643D02*
X4873572Y29413643D01*
X5111668Y30032691D02*
X5445001Y30032691D01*
X5587858Y29508881D02*
X5111668Y29508881D01*
X5111668Y29508881D02*
X5111668Y30508881D01*
X5111668Y30508881D02*
X5587858Y30508881D01*
X6016430Y30175548D02*
X6016430Y29508881D01*
X6016430Y30080310D02*
X6064049Y30127929D01*
X6064049Y30127929D02*
X6159287Y30175548D01*
X6159287Y30175548D02*
X6302144Y30175548D01*
X6302144Y30175548D02*
X6397382Y30127929D01*
X6397382Y30127929D02*
X6445001Y30032691D01*
X6445001Y30032691D02*
X6445001Y29508881D01*
X6921192Y29508881D02*
X6921192Y30508881D01*
X6921192Y30127929D02*
X7016430Y30175548D01*
X7016430Y30175548D02*
X7206906Y30175548D01*
X7206906Y30175548D02*
X7302144Y30127929D01*
X7302144Y30127929D02*
X7349763Y30080310D01*
X7349763Y30080310D02*
X7397382Y29985072D01*
X7397382Y29985072D02*
X7397382Y29699358D01*
X7397382Y29699358D02*
X7349763Y29604120D01*
X7349763Y29604120D02*
X7302144Y29556500D01*
X7302144Y29556500D02*
X7206906Y29508881D01*
X7206906Y29508881D02*
X7016430Y29508881D01*
X7016430Y29508881D02*
X6921192Y29556500D01*
X1116429Y30786500D02*
X7487859Y30786500D01*
X1111667Y23008881D02*
X1683095Y23008881D01*
X1397381Y22008881D02*
X1397381Y23008881D01*
X2540238Y22008881D02*
X1968810Y22008881D01*
X2254524Y22008881D02*
X2254524Y23008881D01*
X2254524Y23008881D02*
X2159286Y22866024D01*
X2159286Y22866024D02*
X2064048Y22770786D01*
X2064048Y22770786D02*
X1968810Y22723167D01*
X2730715Y21913643D02*
X3492619Y21913643D01*
X3730715Y22532691D02*
X4064048Y22532691D01*
X4206905Y22008881D02*
X3730715Y22008881D01*
X3730715Y22008881D02*
X3730715Y23008881D01*
X3730715Y23008881D02*
X4206905Y23008881D01*
X4540239Y22008881D02*
X5064048Y22675548D01*
X4540239Y22675548D02*
X5064048Y22008881D01*
X5302144Y22675548D02*
X5683096Y22675548D01*
X5445001Y23008881D02*
X5445001Y22151739D01*
X5445001Y22151739D02*
X5492620Y22056500D01*
X5492620Y22056500D02*
X5587858Y22008881D01*
X5587858Y22008881D02*
X5683096Y22008881D01*
X5778335Y21913643D02*
X6540239Y21913643D01*
X6968811Y23008881D02*
X7159287Y23008881D01*
X7159287Y23008881D02*
X7254525Y22961262D01*
X7254525Y22961262D02*
X7349763Y22866024D01*
X7349763Y22866024D02*
X7397382Y22675548D01*
X7397382Y22675548D02*
X7397382Y22342215D01*
X7397382Y22342215D02*
X7349763Y22151739D01*
X7349763Y22151739D02*
X7254525Y22056500D01*
X7254525Y22056500D02*
X7159287Y22008881D01*
X7159287Y22008881D02*
X6968811Y22008881D01*
X6968811Y22008881D02*
X6873573Y22056500D01*
X6873573Y22056500D02*
X6778335Y22151739D01*
X6778335Y22151739D02*
X6730716Y22342215D01*
X6730716Y22342215D02*
X6730716Y22675548D01*
X6730716Y22675548D02*
X6778335Y22866024D01*
X6778335Y22866024D02*
X6873573Y22961262D01*
X6873573Y22961262D02*
X6968811Y23008881D01*
X7825954Y22675548D02*
X7825954Y21675548D01*
X7825954Y22627929D02*
X7921192Y22675548D01*
X7921192Y22675548D02*
X8111668Y22675548D01*
X8111668Y22675548D02*
X8206906Y22627929D01*
X8206906Y22627929D02*
X8254525Y22580310D01*
X8254525Y22580310D02*
X8302144Y22485072D01*
X8302144Y22485072D02*
X8302144Y22199358D01*
X8302144Y22199358D02*
X8254525Y22104120D01*
X8254525Y22104120D02*
X8206906Y22056500D01*
X8206906Y22056500D02*
X8111668Y22008881D01*
X8111668Y22008881D02*
X7921192Y22008881D01*
X7921192Y22008881D02*
X7825954Y22056500D01*
X1116429Y23286500D02*
X8392621Y23286500D01*
X1111667Y28088881D02*
X1683095Y28088881D01*
X1397381Y27088881D02*
X1397381Y28088881D01*
X1778334Y26993643D02*
X2540238Y26993643D01*
X2778334Y27088881D02*
X2778334Y28088881D01*
X2778334Y28088881D02*
X3111667Y27374596D01*
X3111667Y27374596D02*
X3445000Y28088881D01*
X3445000Y28088881D02*
X3445000Y27088881D01*
X4349762Y27088881D02*
X4349762Y27612691D01*
X4349762Y27612691D02*
X4302143Y27707929D01*
X4302143Y27707929D02*
X4206905Y27755548D01*
X4206905Y27755548D02*
X4016429Y27755548D01*
X4016429Y27755548D02*
X3921191Y27707929D01*
X4349762Y27136500D02*
X4254524Y27088881D01*
X4254524Y27088881D02*
X4016429Y27088881D01*
X4016429Y27088881D02*
X3921191Y27136500D01*
X3921191Y27136500D02*
X3873572Y27231739D01*
X3873572Y27231739D02*
X3873572Y27326977D01*
X3873572Y27326977D02*
X3921191Y27422215D01*
X3921191Y27422215D02*
X4016429Y27469834D01*
X4016429Y27469834D02*
X4254524Y27469834D01*
X4254524Y27469834D02*
X4349762Y27517453D01*
X4825953Y27755548D02*
X4825953Y26898405D01*
X4825953Y26898405D02*
X4778334Y26803167D01*
X4778334Y26803167D02*
X4683096Y26755548D01*
X4683096Y26755548D02*
X4635477Y26755548D01*
X4825953Y28088881D02*
X4778334Y28041262D01*
X4778334Y28041262D02*
X4825953Y27993643D01*
X4825953Y27993643D02*
X4873572Y28041262D01*
X4873572Y28041262D02*
X4825953Y28088881D01*
X4825953Y28088881D02*
X4825953Y27993643D01*
X5445000Y27088881D02*
X5349762Y27136500D01*
X5349762Y27136500D02*
X5302143Y27184120D01*
X5302143Y27184120D02*
X5254524Y27279358D01*
X5254524Y27279358D02*
X5254524Y27565072D01*
X5254524Y27565072D02*
X5302143Y27660310D01*
X5302143Y27660310D02*
X5349762Y27707929D01*
X5349762Y27707929D02*
X5445000Y27755548D01*
X5445000Y27755548D02*
X5587857Y27755548D01*
X5587857Y27755548D02*
X5683095Y27707929D01*
X5683095Y27707929D02*
X5730714Y27660310D01*
X5730714Y27660310D02*
X5778333Y27565072D01*
X5778333Y27565072D02*
X5778333Y27279358D01*
X5778333Y27279358D02*
X5730714Y27184120D01*
X5730714Y27184120D02*
X5683095Y27136500D01*
X5683095Y27136500D02*
X5587857Y27088881D01*
X5587857Y27088881D02*
X5445000Y27088881D01*
X6206905Y27088881D02*
X6206905Y27755548D01*
X6206905Y27565072D02*
X6254524Y27660310D01*
X6254524Y27660310D02*
X6302143Y27707929D01*
X6302143Y27707929D02*
X6397381Y27755548D01*
X6397381Y27755548D02*
X6492619Y27755548D01*
X6587858Y26993643D02*
X7349762Y26993643D01*
X7587858Y27088881D02*
X7587858Y28088881D01*
X8064048Y27755548D02*
X8064048Y26755548D01*
X8064048Y27707929D02*
X8159286Y27755548D01*
X8159286Y27755548D02*
X8349762Y27755548D01*
X8349762Y27755548D02*
X8445000Y27707929D01*
X8445000Y27707929D02*
X8492619Y27660310D01*
X8492619Y27660310D02*
X8540238Y27565072D01*
X8540238Y27565072D02*
X8540238Y27279358D01*
X8540238Y27279358D02*
X8492619Y27184120D01*
X8492619Y27184120D02*
X8445000Y27136500D01*
X8445000Y27136500D02*
X8349762Y27088881D01*
X8349762Y27088881D02*
X8159286Y27088881D01*
X8159286Y27088881D02*
X8064048Y27136500D01*
X1116429Y28366500D02*
X8630715Y28366500D01*
X1111667Y25508881D02*
X1683095Y25508881D01*
X1397381Y24508881D02*
X1397381Y25508881D01*
X1778334Y24413643D02*
X2540238Y24413643D01*
X2778334Y24508881D02*
X2778334Y25508881D01*
X2778334Y25508881D02*
X3111667Y24794596D01*
X3111667Y24794596D02*
X3445000Y25508881D01*
X3445000Y25508881D02*
X3445000Y24508881D01*
X3921191Y24508881D02*
X3921191Y25175548D01*
X3921191Y25508881D02*
X3873572Y25461262D01*
X3873572Y25461262D02*
X3921191Y25413643D01*
X3921191Y25413643D02*
X3968810Y25461262D01*
X3968810Y25461262D02*
X3921191Y25508881D01*
X3921191Y25508881D02*
X3921191Y25413643D01*
X4397381Y25175548D02*
X4397381Y24508881D01*
X4397381Y25080310D02*
X4445000Y25127929D01*
X4445000Y25127929D02*
X4540238Y25175548D01*
X4540238Y25175548D02*
X4683095Y25175548D01*
X4683095Y25175548D02*
X4778333Y25127929D01*
X4778333Y25127929D02*
X4825952Y25032691D01*
X4825952Y25032691D02*
X4825952Y24508881D01*
X5445000Y24508881D02*
X5349762Y24556500D01*
X5349762Y24556500D02*
X5302143Y24604120D01*
X5302143Y24604120D02*
X5254524Y24699358D01*
X5254524Y24699358D02*
X5254524Y24985072D01*
X5254524Y24985072D02*
X5302143Y25080310D01*
X5302143Y25080310D02*
X5349762Y25127929D01*
X5349762Y25127929D02*
X5445000Y25175548D01*
X5445000Y25175548D02*
X5587857Y25175548D01*
X5587857Y25175548D02*
X5683095Y25127929D01*
X5683095Y25127929D02*
X5730714Y25080310D01*
X5730714Y25080310D02*
X5778333Y24985072D01*
X5778333Y24985072D02*
X5778333Y24699358D01*
X5778333Y24699358D02*
X5730714Y24604120D01*
X5730714Y24604120D02*
X5683095Y24556500D01*
X5683095Y24556500D02*
X5587857Y24508881D01*
X5587857Y24508881D02*
X5445000Y24508881D01*
X6206905Y24508881D02*
X6206905Y25175548D01*
X6206905Y24985072D02*
X6254524Y25080310D01*
X6254524Y25080310D02*
X6302143Y25127929D01*
X6302143Y25127929D02*
X6397381Y25175548D01*
X6397381Y25175548D02*
X6492619Y25175548D01*
X6587858Y24413643D02*
X7349762Y24413643D01*
X7587858Y24508881D02*
X7587858Y25508881D01*
X8064048Y25175548D02*
X8064048Y24175548D01*
X8064048Y25127929D02*
X8159286Y25175548D01*
X8159286Y25175548D02*
X8349762Y25175548D01*
X8349762Y25175548D02*
X8445000Y25127929D01*
X8445000Y25127929D02*
X8492619Y25080310D01*
X8492619Y25080310D02*
X8540238Y24985072D01*
X8540238Y24985072D02*
X8540238Y24699358D01*
X8540238Y24699358D02*
X8492619Y24604120D01*
X8492619Y24604120D02*
X8445000Y24556500D01*
X8445000Y24556500D02*
X8349762Y24508881D01*
X8349762Y24508881D02*
X8159286Y24508881D01*
X8159286Y24508881D02*
X8064048Y24556500D01*
X1116429Y25786500D02*
X8630715Y25786500D01*
D11*
X14306779Y55121134D02*
X15068684Y55121134D01*
X14687731Y54740181D02*
X14687731Y55502086D01*
X22418922Y52905125D02*
X22752255Y51905125D01*
X22752255Y51905125D02*
X23085588Y52905125D01*
X23418922Y51905125D02*
X23418922Y52905125D01*
X23418922Y52905125D02*
X23752255Y52190840D01*
X23752255Y52190840D02*
X24085588Y52905125D01*
X24085588Y52905125D02*
X24085588Y51905125D01*
X24561779Y52428935D02*
X24895112Y52428935D01*
X25037969Y51905125D02*
X24561779Y51905125D01*
X24561779Y51905125D02*
X24561779Y52905125D01*
X24561779Y52905125D02*
X25037969Y52905125D01*
X26228446Y51905125D02*
X26228446Y52905125D01*
X26228446Y52905125D02*
X26561779Y52190840D01*
X26561779Y52190840D02*
X26895112Y52905125D01*
X26895112Y52905125D02*
X26895112Y51905125D01*
X27323684Y52190840D02*
X27799874Y52190840D01*
X27228446Y51905125D02*
X27561779Y52905125D01*
X27561779Y52905125D02*
X27895112Y51905125D01*
X28180827Y51952744D02*
X28323684Y51905125D01*
X28323684Y51905125D02*
X28561779Y51905125D01*
X28561779Y51905125D02*
X28657017Y51952744D01*
X28657017Y51952744D02*
X28704636Y52000364D01*
X28704636Y52000364D02*
X28752255Y52095602D01*
X28752255Y52095602D02*
X28752255Y52190840D01*
X28752255Y52190840D02*
X28704636Y52286078D01*
X28704636Y52286078D02*
X28657017Y52333697D01*
X28657017Y52333697D02*
X28561779Y52381316D01*
X28561779Y52381316D02*
X28371303Y52428935D01*
X28371303Y52428935D02*
X28276065Y52476554D01*
X28276065Y52476554D02*
X28228446Y52524173D01*
X28228446Y52524173D02*
X28180827Y52619411D01*
X28180827Y52619411D02*
X28180827Y52714649D01*
X28180827Y52714649D02*
X28228446Y52809887D01*
X28228446Y52809887D02*
X28276065Y52857506D01*
X28276065Y52857506D02*
X28371303Y52905125D01*
X28371303Y52905125D02*
X28609398Y52905125D01*
X28609398Y52905125D02*
X28752255Y52857506D01*
X29037970Y52905125D02*
X29609398Y52905125D01*
X29323684Y51905125D02*
X29323684Y52905125D01*
X29942732Y52428935D02*
X30276065Y52428935D01*
X30418922Y51905125D02*
X29942732Y51905125D01*
X29942732Y51905125D02*
X29942732Y52905125D01*
X29942732Y52905125D02*
X30418922Y52905125D01*
X31418922Y51905125D02*
X31085589Y52381316D01*
X30847494Y51905125D02*
X30847494Y52905125D01*
X30847494Y52905125D02*
X31228446Y52905125D01*
X31228446Y52905125D02*
X31323684Y52857506D01*
X31323684Y52857506D02*
X31371303Y52809887D01*
X31371303Y52809887D02*
X31418922Y52714649D01*
X31418922Y52714649D02*
X31418922Y52571792D01*
X31418922Y52571792D02*
X31371303Y52476554D01*
X31371303Y52476554D02*
X31323684Y52428935D01*
X31323684Y52428935D02*
X31228446Y52381316D01*
X31228446Y52381316D02*
X30847494Y52381316D01*
X22752255Y51295181D02*
X22942731Y51295181D01*
X22942731Y51295181D02*
X23037969Y51247562D01*
X23037969Y51247562D02*
X23133207Y51152324D01*
X23133207Y51152324D02*
X23180826Y50961848D01*
X23180826Y50961848D02*
X23180826Y50628515D01*
X23180826Y50628515D02*
X23133207Y50438039D01*
X23133207Y50438039D02*
X23037969Y50342800D01*
X23037969Y50342800D02*
X22942731Y50295181D01*
X22942731Y50295181D02*
X22752255Y50295181D01*
X22752255Y50295181D02*
X22657017Y50342800D01*
X22657017Y50342800D02*
X22561779Y50438039D01*
X22561779Y50438039D02*
X22514160Y50628515D01*
X22514160Y50628515D02*
X22514160Y50961848D01*
X22514160Y50961848D02*
X22561779Y51152324D01*
X22561779Y51152324D02*
X22657017Y51247562D01*
X22657017Y51247562D02*
X22752255Y51295181D01*
X23609398Y50295181D02*
X23609398Y51295181D01*
X23609398Y51295181D02*
X23990350Y51295181D01*
X23990350Y51295181D02*
X24085588Y51247562D01*
X24085588Y51247562D02*
X24133207Y51199943D01*
X24133207Y51199943D02*
X24180826Y51104705D01*
X24180826Y51104705D02*
X24180826Y50961848D01*
X24180826Y50961848D02*
X24133207Y50866610D01*
X24133207Y50866610D02*
X24085588Y50818991D01*
X24085588Y50818991D02*
X23990350Y50771372D01*
X23990350Y50771372D02*
X23609398Y50771372D01*
X24609398Y50818991D02*
X24942731Y50818991D01*
X25085588Y50295181D02*
X24609398Y50295181D01*
X24609398Y50295181D02*
X24609398Y51295181D01*
X24609398Y51295181D02*
X25085588Y51295181D01*
X25514160Y50295181D02*
X25514160Y51295181D01*
X25514160Y51295181D02*
X26085588Y50295181D01*
X26085588Y50295181D02*
X26085588Y51295181D01*
X26561779Y50818991D02*
X27323684Y50818991D01*
X27323684Y50533277D02*
X26561779Y50533277D01*
X27752255Y50342800D02*
X27895112Y50295181D01*
X27895112Y50295181D02*
X28133207Y50295181D01*
X28133207Y50295181D02*
X28228445Y50342800D01*
X28228445Y50342800D02*
X28276064Y50390420D01*
X28276064Y50390420D02*
X28323683Y50485658D01*
X28323683Y50485658D02*
X28323683Y50580896D01*
X28323683Y50580896D02*
X28276064Y50676134D01*
X28276064Y50676134D02*
X28228445Y50723753D01*
X28228445Y50723753D02*
X28133207Y50771372D01*
X28133207Y50771372D02*
X27942731Y50818991D01*
X27942731Y50818991D02*
X27847493Y50866610D01*
X27847493Y50866610D02*
X27799874Y50914229D01*
X27799874Y50914229D02*
X27752255Y51009467D01*
X27752255Y51009467D02*
X27752255Y51104705D01*
X27752255Y51104705D02*
X27799874Y51199943D01*
X27799874Y51199943D02*
X27847493Y51247562D01*
X27847493Y51247562D02*
X27942731Y51295181D01*
X27942731Y51295181D02*
X28180826Y51295181D01*
X28180826Y51295181D02*
X28323683Y51247562D01*
X29228445Y50295181D02*
X28752255Y50295181D01*
X28752255Y50295181D02*
X28752255Y51295181D01*
X29514160Y50580896D02*
X29990350Y50580896D01*
X29418922Y50295181D02*
X29752255Y51295181D01*
X29752255Y51295181D02*
X30085588Y50295181D01*
X30276065Y51295181D02*
X30609398Y50295181D01*
X30609398Y50295181D02*
X30942731Y51295181D01*
X31276065Y50818991D02*
X31609398Y50818991D01*
X31752255Y50295181D02*
X31276065Y50295181D01*
X31276065Y50295181D02*
X31276065Y51295181D01*
X31276065Y51295181D02*
X31752255Y51295181D01*
D12*
X7583044Y64936581D02*
X8154473Y64936581D01*
X7468758Y64593724D02*
X7868758Y65793724D01*
X7868758Y65793724D02*
X8268758Y64593724D01*
X8554472Y65793724D02*
X9297329Y65793724D01*
X9297329Y65793724D02*
X8897329Y65336581D01*
X8897329Y65336581D02*
X9068758Y65336581D01*
X9068758Y65336581D02*
X9183044Y65279438D01*
X9183044Y65279438D02*
X9240186Y65222295D01*
X9240186Y65222295D02*
X9297329Y65108009D01*
X9297329Y65108009D02*
X9297329Y64822295D01*
X9297329Y64822295D02*
X9240186Y64708009D01*
X9240186Y64708009D02*
X9183044Y64650866D01*
X9183044Y64650866D02*
X9068758Y64593724D01*
X9068758Y64593724D02*
X8725901Y64593724D01*
X8725901Y64593724D02*
X8611615Y64650866D01*
X8611615Y64650866D02*
X8554472Y64708009D01*
X9754472Y65679438D02*
X9811615Y65736581D01*
X9811615Y65736581D02*
X9925901Y65793724D01*
X9925901Y65793724D02*
X10211615Y65793724D01*
X10211615Y65793724D02*
X10325901Y65736581D01*
X10325901Y65736581D02*
X10383043Y65679438D01*
X10383043Y65679438D02*
X10440186Y65565152D01*
X10440186Y65565152D02*
X10440186Y65450866D01*
X10440186Y65450866D02*
X10383043Y65279438D01*
X10383043Y65279438D02*
X9697329Y64593724D01*
X9697329Y64593724D02*
X10440186Y64593724D01*
X8040187Y63290362D02*
X8211615Y63233219D01*
X8211615Y63233219D02*
X8268758Y63176076D01*
X8268758Y63176076D02*
X8325901Y63061791D01*
X8325901Y63061791D02*
X8325901Y62890362D01*
X8325901Y62890362D02*
X8268758Y62776076D01*
X8268758Y62776076D02*
X8211615Y62718933D01*
X8211615Y62718933D02*
X8097330Y62661791D01*
X8097330Y62661791D02*
X7640187Y62661791D01*
X7640187Y62661791D02*
X7640187Y63861791D01*
X7640187Y63861791D02*
X8040187Y63861791D01*
X8040187Y63861791D02*
X8154473Y63804648D01*
X8154473Y63804648D02*
X8211615Y63747505D01*
X8211615Y63747505D02*
X8268758Y63633219D01*
X8268758Y63633219D02*
X8268758Y63518933D01*
X8268758Y63518933D02*
X8211615Y63404648D01*
X8211615Y63404648D02*
X8154473Y63347505D01*
X8154473Y63347505D02*
X8040187Y63290362D01*
X8040187Y63290362D02*
X7640187Y63290362D01*
X8725901Y63861791D02*
X9468758Y63861791D01*
X9468758Y63861791D02*
X9068758Y63404648D01*
X9068758Y63404648D02*
X9240187Y63404648D01*
X9240187Y63404648D02*
X9354473Y63347505D01*
X9354473Y63347505D02*
X9411615Y63290362D01*
X9411615Y63290362D02*
X9468758Y63176076D01*
X9468758Y63176076D02*
X9468758Y62890362D01*
X9468758Y62890362D02*
X9411615Y62776076D01*
X9411615Y62776076D02*
X9354473Y62718933D01*
X9354473Y62718933D02*
X9240187Y62661791D01*
X9240187Y62661791D02*
X8897330Y62661791D01*
X8897330Y62661791D02*
X8783044Y62718933D01*
X8783044Y62718933D02*
X8725901Y62776076D01*
X9925901Y63747505D02*
X9983044Y63804648D01*
X9983044Y63804648D02*
X10097330Y63861791D01*
X10097330Y63861791D02*
X10383044Y63861791D01*
X10383044Y63861791D02*
X10497330Y63804648D01*
X10497330Y63804648D02*
X10554472Y63747505D01*
X10554472Y63747505D02*
X10611615Y63633219D01*
X10611615Y63633219D02*
X10611615Y63518933D01*
X10611615Y63518933D02*
X10554472Y63347505D01*
X10554472Y63347505D02*
X9868758Y62661791D01*
X9868758Y62661791D02*
X10611615Y62661791D01*
X8325901Y60844143D02*
X8268758Y60787000D01*
X8268758Y60787000D02*
X8097330Y60729858D01*
X8097330Y60729858D02*
X7983044Y60729858D01*
X7983044Y60729858D02*
X7811615Y60787000D01*
X7811615Y60787000D02*
X7697330Y60901286D01*
X7697330Y60901286D02*
X7640187Y61015572D01*
X7640187Y61015572D02*
X7583044Y61244143D01*
X7583044Y61244143D02*
X7583044Y61415572D01*
X7583044Y61415572D02*
X7640187Y61644143D01*
X7640187Y61644143D02*
X7697330Y61758429D01*
X7697330Y61758429D02*
X7811615Y61872715D01*
X7811615Y61872715D02*
X7983044Y61929858D01*
X7983044Y61929858D02*
X8097330Y61929858D01*
X8097330Y61929858D02*
X8268758Y61872715D01*
X8268758Y61872715D02*
X8325901Y61815572D01*
X8725901Y61929858D02*
X9468758Y61929858D01*
X9468758Y61929858D02*
X9068758Y61472715D01*
X9068758Y61472715D02*
X9240187Y61472715D01*
X9240187Y61472715D02*
X9354473Y61415572D01*
X9354473Y61415572D02*
X9411615Y61358429D01*
X9411615Y61358429D02*
X9468758Y61244143D01*
X9468758Y61244143D02*
X9468758Y60958429D01*
X9468758Y60958429D02*
X9411615Y60844143D01*
X9411615Y60844143D02*
X9354473Y60787000D01*
X9354473Y60787000D02*
X9240187Y60729858D01*
X9240187Y60729858D02*
X8897330Y60729858D01*
X8897330Y60729858D02*
X8783044Y60787000D01*
X8783044Y60787000D02*
X8725901Y60844143D01*
X9925901Y61815572D02*
X9983044Y61872715D01*
X9983044Y61872715D02*
X10097330Y61929858D01*
X10097330Y61929858D02*
X10383044Y61929858D01*
X10383044Y61929858D02*
X10497330Y61872715D01*
X10497330Y61872715D02*
X10554472Y61815572D01*
X10554472Y61815572D02*
X10611615Y61701286D01*
X10611615Y61701286D02*
X10611615Y61587000D01*
X10611615Y61587000D02*
X10554472Y61415572D01*
X10554472Y61415572D02*
X9868758Y60729858D01*
X9868758Y60729858D02*
X10611615Y60729858D01*
X10080187Y59082000D02*
X10994473Y59082000D01*
X10537330Y58624858D02*
X10537330Y59539143D01*
X12137329Y59824858D02*
X11565901Y59824858D01*
X11565901Y59824858D02*
X11508758Y59253429D01*
X11508758Y59253429D02*
X11565901Y59310572D01*
X11565901Y59310572D02*
X11680187Y59367715D01*
X11680187Y59367715D02*
X11965901Y59367715D01*
X11965901Y59367715D02*
X12080187Y59310572D01*
X12080187Y59310572D02*
X12137329Y59253429D01*
X12137329Y59253429D02*
X12194472Y59139143D01*
X12194472Y59139143D02*
X12194472Y58853429D01*
X12194472Y58853429D02*
X12137329Y58739143D01*
X12137329Y58739143D02*
X12080187Y58682000D01*
X12080187Y58682000D02*
X11965901Y58624858D01*
X11965901Y58624858D02*
X11680187Y58624858D01*
X11680187Y58624858D02*
X11565901Y58682000D01*
X11565901Y58682000D02*
X11508758Y58739143D01*
X12537329Y59824858D02*
X12937329Y58624858D01*
X12937329Y58624858D02*
X13337329Y59824858D01*
X10080187Y55272000D02*
X10994473Y55272000D01*
X10537330Y54814858D02*
X10537330Y55729143D01*
X12137329Y56014858D02*
X11565901Y56014858D01*
X11565901Y56014858D02*
X11508758Y55443429D01*
X11508758Y55443429D02*
X11565901Y55500572D01*
X11565901Y55500572D02*
X11680187Y55557715D01*
X11680187Y55557715D02*
X11965901Y55557715D01*
X11965901Y55557715D02*
X12080187Y55500572D01*
X12080187Y55500572D02*
X12137329Y55443429D01*
X12137329Y55443429D02*
X12194472Y55329143D01*
X12194472Y55329143D02*
X12194472Y55043429D01*
X12194472Y55043429D02*
X12137329Y54929143D01*
X12137329Y54929143D02*
X12080187Y54872000D01*
X12080187Y54872000D02*
X11965901Y54814858D01*
X11965901Y54814858D02*
X11680187Y54814858D01*
X11680187Y54814858D02*
X11565901Y54872000D01*
X11565901Y54872000D02*
X11508758Y54929143D01*
X12537329Y56014858D02*
X12937329Y54814858D01*
X12937329Y54814858D02*
X13337329Y56014858D01*
X10080187Y51004858D02*
X10080187Y52204858D01*
X10080187Y52204858D02*
X10765901Y51004858D01*
X10765901Y51004858D02*
X10765901Y52204858D01*
X12023044Y51119143D02*
X11965901Y51062000D01*
X11965901Y51062000D02*
X11794473Y51004858D01*
X11794473Y51004858D02*
X11680187Y51004858D01*
X11680187Y51004858D02*
X11508758Y51062000D01*
X11508758Y51062000D02*
X11394473Y51176286D01*
X11394473Y51176286D02*
X11337330Y51290572D01*
X11337330Y51290572D02*
X11280187Y51519143D01*
X11280187Y51519143D02*
X11280187Y51690572D01*
X11280187Y51690572D02*
X11337330Y51919143D01*
X11337330Y51919143D02*
X11394473Y52033429D01*
X11394473Y52033429D02*
X11508758Y52147715D01*
X11508758Y52147715D02*
X11680187Y52204858D01*
X11680187Y52204858D02*
X11794473Y52204858D01*
X11794473Y52204858D02*
X11965901Y52147715D01*
X11965901Y52147715D02*
X12023044Y52090572D01*
X10708758Y48337715D02*
X10594473Y48394858D01*
X10594473Y48394858D02*
X10423044Y48394858D01*
X10423044Y48394858D02*
X10251615Y48337715D01*
X10251615Y48337715D02*
X10137330Y48223429D01*
X10137330Y48223429D02*
X10080187Y48109143D01*
X10080187Y48109143D02*
X10023044Y47880572D01*
X10023044Y47880572D02*
X10023044Y47709143D01*
X10023044Y47709143D02*
X10080187Y47480572D01*
X10080187Y47480572D02*
X10137330Y47366286D01*
X10137330Y47366286D02*
X10251615Y47252000D01*
X10251615Y47252000D02*
X10423044Y47194858D01*
X10423044Y47194858D02*
X10537330Y47194858D01*
X10537330Y47194858D02*
X10708758Y47252000D01*
X10708758Y47252000D02*
X10765901Y47309143D01*
X10765901Y47309143D02*
X10765901Y47709143D01*
X10765901Y47709143D02*
X10537330Y47709143D01*
X11280187Y47194858D02*
X11280187Y48394858D01*
X11280187Y48394858D02*
X11965901Y47194858D01*
X11965901Y47194858D02*
X11965901Y48394858D01*
X12537330Y47194858D02*
X12537330Y48394858D01*
X12537330Y48394858D02*
X12823044Y48394858D01*
X12823044Y48394858D02*
X12994473Y48337715D01*
X12994473Y48337715D02*
X13108758Y48223429D01*
X13108758Y48223429D02*
X13165901Y48109143D01*
X13165901Y48109143D02*
X13223044Y47880572D01*
X13223044Y47880572D02*
X13223044Y47709143D01*
X13223044Y47709143D02*
X13165901Y47480572D01*
X13165901Y47480572D02*
X13108758Y47366286D01*
X13108758Y47366286D02*
X12994473Y47252000D01*
X12994473Y47252000D02*
X12823044Y47194858D01*
X12823044Y47194858D02*
X12537330Y47194858D01*
X10708758Y43892715D02*
X10594473Y43949858D01*
X10594473Y43949858D02*
X10423044Y43949858D01*
X10423044Y43949858D02*
X10251615Y43892715D01*
X10251615Y43892715D02*
X10137330Y43778429D01*
X10137330Y43778429D02*
X10080187Y43664143D01*
X10080187Y43664143D02*
X10023044Y43435572D01*
X10023044Y43435572D02*
X10023044Y43264143D01*
X10023044Y43264143D02*
X10080187Y43035572D01*
X10080187Y43035572D02*
X10137330Y42921286D01*
X10137330Y42921286D02*
X10251615Y42807000D01*
X10251615Y42807000D02*
X10423044Y42749858D01*
X10423044Y42749858D02*
X10537330Y42749858D01*
X10537330Y42749858D02*
X10708758Y42807000D01*
X10708758Y42807000D02*
X10765901Y42864143D01*
X10765901Y42864143D02*
X10765901Y43264143D01*
X10765901Y43264143D02*
X10537330Y43264143D01*
X11280187Y42749858D02*
X11280187Y43949858D01*
X11280187Y43949858D02*
X11965901Y42749858D01*
X11965901Y42749858D02*
X11965901Y43949858D01*
X12537330Y42749858D02*
X12537330Y43949858D01*
X12537330Y43949858D02*
X12823044Y43949858D01*
X12823044Y43949858D02*
X12994473Y43892715D01*
X12994473Y43892715D02*
X13108758Y43778429D01*
X13108758Y43778429D02*
X13165901Y43664143D01*
X13165901Y43664143D02*
X13223044Y43435572D01*
X13223044Y43435572D02*
X13223044Y43264143D01*
X13223044Y43264143D02*
X13165901Y43035572D01*
X13165901Y43035572D02*
X13108758Y42921286D01*
X13108758Y42921286D02*
X12994473Y42807000D01*
X12994473Y42807000D02*
X12823044Y42749858D01*
X12823044Y42749858D02*
X12537330Y42749858D01*
X93163044Y64736581D02*
X93734473Y64736581D01*
X93048758Y64393724D02*
X93448758Y65593724D01*
X93448758Y65593724D02*
X93848758Y64393724D01*
X94877329Y64393724D02*
X94191615Y64393724D01*
X94534472Y64393724D02*
X94534472Y65593724D01*
X94534472Y65593724D02*
X94420186Y65422295D01*
X94420186Y65422295D02*
X94305901Y65308009D01*
X94305901Y65308009D02*
X94191615Y65250866D01*
X93620187Y63090362D02*
X93791615Y63033219D01*
X93791615Y63033219D02*
X93848758Y62976076D01*
X93848758Y62976076D02*
X93905901Y62861791D01*
X93905901Y62861791D02*
X93905901Y62690362D01*
X93905901Y62690362D02*
X93848758Y62576076D01*
X93848758Y62576076D02*
X93791615Y62518933D01*
X93791615Y62518933D02*
X93677330Y62461791D01*
X93677330Y62461791D02*
X93220187Y62461791D01*
X93220187Y62461791D02*
X93220187Y63661791D01*
X93220187Y63661791D02*
X93620187Y63661791D01*
X93620187Y63661791D02*
X93734473Y63604648D01*
X93734473Y63604648D02*
X93791615Y63547505D01*
X93791615Y63547505D02*
X93848758Y63433219D01*
X93848758Y63433219D02*
X93848758Y63318933D01*
X93848758Y63318933D02*
X93791615Y63204648D01*
X93791615Y63204648D02*
X93734473Y63147505D01*
X93734473Y63147505D02*
X93620187Y63090362D01*
X93620187Y63090362D02*
X93220187Y63090362D01*
X95048758Y62461791D02*
X94363044Y62461791D01*
X94705901Y62461791D02*
X94705901Y63661791D01*
X94705901Y63661791D02*
X94591615Y63490362D01*
X94591615Y63490362D02*
X94477330Y63376076D01*
X94477330Y63376076D02*
X94363044Y63318933D01*
X93905901Y60644143D02*
X93848758Y60587000D01*
X93848758Y60587000D02*
X93677330Y60529858D01*
X93677330Y60529858D02*
X93563044Y60529858D01*
X93563044Y60529858D02*
X93391615Y60587000D01*
X93391615Y60587000D02*
X93277330Y60701286D01*
X93277330Y60701286D02*
X93220187Y60815572D01*
X93220187Y60815572D02*
X93163044Y61044143D01*
X93163044Y61044143D02*
X93163044Y61215572D01*
X93163044Y61215572D02*
X93220187Y61444143D01*
X93220187Y61444143D02*
X93277330Y61558429D01*
X93277330Y61558429D02*
X93391615Y61672715D01*
X93391615Y61672715D02*
X93563044Y61729858D01*
X93563044Y61729858D02*
X93677330Y61729858D01*
X93677330Y61729858D02*
X93848758Y61672715D01*
X93848758Y61672715D02*
X93905901Y61615572D01*
X95048758Y60529858D02*
X94363044Y60529858D01*
X94705901Y60529858D02*
X94705901Y61729858D01*
X94705901Y61729858D02*
X94591615Y61558429D01*
X94591615Y61558429D02*
X94477330Y61444143D01*
X94477330Y61444143D02*
X94363044Y61387000D01*
D13*
X48812143Y14240600D02*
X49026429Y14169172D01*
X49026429Y14169172D02*
X49383571Y14169172D01*
X49383571Y14169172D02*
X49526429Y14240600D01*
X49526429Y14240600D02*
X49597857Y14312029D01*
X49597857Y14312029D02*
X49669286Y14454886D01*
X49669286Y14454886D02*
X49669286Y14597743D01*
X49669286Y14597743D02*
X49597857Y14740600D01*
X49597857Y14740600D02*
X49526429Y14812029D01*
X49526429Y14812029D02*
X49383571Y14883458D01*
X49383571Y14883458D02*
X49097857Y14954886D01*
X49097857Y14954886D02*
X48955000Y15026315D01*
X48955000Y15026315D02*
X48883571Y15097743D01*
X48883571Y15097743D02*
X48812143Y15240600D01*
X48812143Y15240600D02*
X48812143Y15383458D01*
X48812143Y15383458D02*
X48883571Y15526315D01*
X48883571Y15526315D02*
X48955000Y15597743D01*
X48955000Y15597743D02*
X49097857Y15669172D01*
X49097857Y15669172D02*
X49455000Y15669172D01*
X49455000Y15669172D02*
X49669286Y15597743D01*
X51169285Y14312029D02*
X51097857Y14240600D01*
X51097857Y14240600D02*
X50883571Y14169172D01*
X50883571Y14169172D02*
X50740714Y14169172D01*
X50740714Y14169172D02*
X50526428Y14240600D01*
X50526428Y14240600D02*
X50383571Y14383458D01*
X50383571Y14383458D02*
X50312142Y14526315D01*
X50312142Y14526315D02*
X50240714Y14812029D01*
X50240714Y14812029D02*
X50240714Y15026315D01*
X50240714Y15026315D02*
X50312142Y15312029D01*
X50312142Y15312029D02*
X50383571Y15454886D01*
X50383571Y15454886D02*
X50526428Y15597743D01*
X50526428Y15597743D02*
X50740714Y15669172D01*
X50740714Y15669172D02*
X50883571Y15669172D01*
X50883571Y15669172D02*
X51097857Y15597743D01*
X51097857Y15597743D02*
X51169285Y15526315D01*
X51740714Y14240600D02*
X51955000Y14169172D01*
X51955000Y14169172D02*
X52312142Y14169172D01*
X52312142Y14169172D02*
X52455000Y14240600D01*
X52455000Y14240600D02*
X52526428Y14312029D01*
X52526428Y14312029D02*
X52597857Y14454886D01*
X52597857Y14454886D02*
X52597857Y14597743D01*
X52597857Y14597743D02*
X52526428Y14740600D01*
X52526428Y14740600D02*
X52455000Y14812029D01*
X52455000Y14812029D02*
X52312142Y14883458D01*
X52312142Y14883458D02*
X52026428Y14954886D01*
X52026428Y14954886D02*
X51883571Y15026315D01*
X51883571Y15026315D02*
X51812142Y15097743D01*
X51812142Y15097743D02*
X51740714Y15240600D01*
X51740714Y15240600D02*
X51740714Y15383458D01*
X51740714Y15383458D02*
X51812142Y15526315D01*
X51812142Y15526315D02*
X51883571Y15597743D01*
X51883571Y15597743D02*
X52026428Y15669172D01*
X52026428Y15669172D02*
X52383571Y15669172D01*
X52383571Y15669172D02*
X52597857Y15597743D01*
X53240713Y14169172D02*
X53240713Y15669172D01*
X53954999Y14740600D02*
X55097857Y14740600D01*
X55740714Y15526315D02*
X55812142Y15597743D01*
X55812142Y15597743D02*
X55955000Y15669172D01*
X55955000Y15669172D02*
X56312142Y15669172D01*
X56312142Y15669172D02*
X56455000Y15597743D01*
X56455000Y15597743D02*
X56526428Y15526315D01*
X56526428Y15526315D02*
X56597857Y15383458D01*
X56597857Y15383458D02*
X56597857Y15240600D01*
X56597857Y15240600D02*
X56526428Y15026315D01*
X56526428Y15026315D02*
X55669285Y14169172D01*
X55669285Y14169172D02*
X56597857Y14169172D01*
X22923574Y1897743D02*
X23637860Y1897743D01*
X22780717Y1469172D02*
X23280717Y2969172D01*
X23280717Y2969172D02*
X23780717Y1469172D01*
X24137859Y2969172D02*
X25137859Y1469172D01*
X25137859Y2969172D02*
X24137859Y1469172D01*
X25709287Y1469172D02*
X25709287Y2969172D01*
X25709287Y2969172D02*
X26280716Y2969172D01*
X26280716Y2969172D02*
X26423573Y2897743D01*
X26423573Y2897743D02*
X26495002Y2826315D01*
X26495002Y2826315D02*
X26566430Y2683458D01*
X26566430Y2683458D02*
X26566430Y2469172D01*
X26566430Y2469172D02*
X26495002Y2326315D01*
X26495002Y2326315D02*
X26423573Y2254886D01*
X26423573Y2254886D02*
X26280716Y2183458D01*
X26280716Y2183458D02*
X25709287Y2183458D01*
X27066430Y2469172D02*
X27423573Y1469172D01*
X27423573Y1469172D02*
X27780716Y2469172D01*
X28352144Y1469172D02*
X28352144Y2469172D01*
X28352144Y2326315D02*
X28423573Y2397743D01*
X28423573Y2397743D02*
X28566430Y2469172D01*
X28566430Y2469172D02*
X28780716Y2469172D01*
X28780716Y2469172D02*
X28923573Y2397743D01*
X28923573Y2397743D02*
X28995002Y2254886D01*
X28995002Y2254886D02*
X28995002Y1469172D01*
X28995002Y2254886D02*
X29066430Y2397743D01*
X29066430Y2397743D02*
X29209287Y2469172D01*
X29209287Y2469172D02*
X29423573Y2469172D01*
X29423573Y2469172D02*
X29566430Y2397743D01*
X29566430Y2397743D02*
X29637859Y2254886D01*
X29637859Y2254886D02*
X29637859Y1469172D01*
X30923573Y1540600D02*
X30780716Y1469172D01*
X30780716Y1469172D02*
X30495002Y1469172D01*
X30495002Y1469172D02*
X30352144Y1540600D01*
X30352144Y1540600D02*
X30280716Y1683458D01*
X30280716Y1683458D02*
X30280716Y2254886D01*
X30280716Y2254886D02*
X30352144Y2397743D01*
X30352144Y2397743D02*
X30495002Y2469172D01*
X30495002Y2469172D02*
X30780716Y2469172D01*
X30780716Y2469172D02*
X30923573Y2397743D01*
X30923573Y2397743D02*
X30995002Y2254886D01*
X30995002Y2254886D02*
X30995002Y2112029D01*
X30995002Y2112029D02*
X30280716Y1969172D01*
X33280715Y2254886D02*
X33495001Y2183458D01*
X33495001Y2183458D02*
X33566430Y2112029D01*
X33566430Y2112029D02*
X33637858Y1969172D01*
X33637858Y1969172D02*
X33637858Y1754886D01*
X33637858Y1754886D02*
X33566430Y1612029D01*
X33566430Y1612029D02*
X33495001Y1540600D01*
X33495001Y1540600D02*
X33352144Y1469172D01*
X33352144Y1469172D02*
X32780715Y1469172D01*
X32780715Y1469172D02*
X32780715Y2969172D01*
X32780715Y2969172D02*
X33280715Y2969172D01*
X33280715Y2969172D02*
X33423573Y2897743D01*
X33423573Y2897743D02*
X33495001Y2826315D01*
X33495001Y2826315D02*
X33566430Y2683458D01*
X33566430Y2683458D02*
X33566430Y2540600D01*
X33566430Y2540600D02*
X33495001Y2397743D01*
X33495001Y2397743D02*
X33423573Y2326315D01*
X33423573Y2326315D02*
X33280715Y2254886D01*
X33280715Y2254886D02*
X32780715Y2254886D01*
X34280715Y1469172D02*
X34280715Y2469172D01*
X34280715Y2183458D02*
X34352144Y2326315D01*
X34352144Y2326315D02*
X34423573Y2397743D01*
X34423573Y2397743D02*
X34566430Y2469172D01*
X34566430Y2469172D02*
X34709287Y2469172D01*
X35780715Y1540600D02*
X35637858Y1469172D01*
X35637858Y1469172D02*
X35352144Y1469172D01*
X35352144Y1469172D02*
X35209286Y1540600D01*
X35209286Y1540600D02*
X35137858Y1683458D01*
X35137858Y1683458D02*
X35137858Y2254886D01*
X35137858Y2254886D02*
X35209286Y2397743D01*
X35209286Y2397743D02*
X35352144Y2469172D01*
X35352144Y2469172D02*
X35637858Y2469172D01*
X35637858Y2469172D02*
X35780715Y2397743D01*
X35780715Y2397743D02*
X35852144Y2254886D01*
X35852144Y2254886D02*
X35852144Y2112029D01*
X35852144Y2112029D02*
X35137858Y1969172D01*
X37137858Y1469172D02*
X37137858Y2254886D01*
X37137858Y2254886D02*
X37066429Y2397743D01*
X37066429Y2397743D02*
X36923572Y2469172D01*
X36923572Y2469172D02*
X36637858Y2469172D01*
X36637858Y2469172D02*
X36495000Y2397743D01*
X37137858Y1540600D02*
X36995000Y1469172D01*
X36995000Y1469172D02*
X36637858Y1469172D01*
X36637858Y1469172D02*
X36495000Y1540600D01*
X36495000Y1540600D02*
X36423572Y1683458D01*
X36423572Y1683458D02*
X36423572Y1826315D01*
X36423572Y1826315D02*
X36495000Y1969172D01*
X36495000Y1969172D02*
X36637858Y2040600D01*
X36637858Y2040600D02*
X36995000Y2040600D01*
X36995000Y2040600D02*
X37137858Y2112029D01*
X37852143Y1469172D02*
X37852143Y2969172D01*
X37995001Y2040600D02*
X38423572Y1469172D01*
X38423572Y2469172D02*
X37852143Y1897743D01*
X39280715Y1469172D02*
X39137858Y1540600D01*
X39137858Y1540600D02*
X39066429Y1612029D01*
X39066429Y1612029D02*
X38995001Y1754886D01*
X38995001Y1754886D02*
X38995001Y2183458D01*
X38995001Y2183458D02*
X39066429Y2326315D01*
X39066429Y2326315D02*
X39137858Y2397743D01*
X39137858Y2397743D02*
X39280715Y2469172D01*
X39280715Y2469172D02*
X39495001Y2469172D01*
X39495001Y2469172D02*
X39637858Y2397743D01*
X39637858Y2397743D02*
X39709287Y2326315D01*
X39709287Y2326315D02*
X39780715Y2183458D01*
X39780715Y2183458D02*
X39780715Y1754886D01*
X39780715Y1754886D02*
X39709287Y1612029D01*
X39709287Y1612029D02*
X39637858Y1540600D01*
X39637858Y1540600D02*
X39495001Y1469172D01*
X39495001Y1469172D02*
X39280715Y1469172D01*
X41066430Y2469172D02*
X41066430Y1469172D01*
X40423572Y2469172D02*
X40423572Y1683458D01*
X40423572Y1683458D02*
X40495001Y1540600D01*
X40495001Y1540600D02*
X40637858Y1469172D01*
X40637858Y1469172D02*
X40852144Y1469172D01*
X40852144Y1469172D02*
X40995001Y1540600D01*
X40995001Y1540600D02*
X41066430Y1612029D01*
X41566430Y2469172D02*
X42137858Y2469172D01*
X41780715Y2969172D02*
X41780715Y1683458D01*
X41780715Y1683458D02*
X41852144Y1540600D01*
X41852144Y1540600D02*
X41995001Y1469172D01*
X41995001Y1469172D02*
X42137858Y1469172D01*
X43780715Y1469172D02*
X43780715Y2969172D01*
X43780715Y2397743D02*
X43923573Y2469172D01*
X43923573Y2469172D02*
X44209287Y2469172D01*
X44209287Y2469172D02*
X44352144Y2397743D01*
X44352144Y2397743D02*
X44423573Y2326315D01*
X44423573Y2326315D02*
X44495001Y2183458D01*
X44495001Y2183458D02*
X44495001Y1754886D01*
X44495001Y1754886D02*
X44423573Y1612029D01*
X44423573Y1612029D02*
X44352144Y1540600D01*
X44352144Y1540600D02*
X44209287Y1469172D01*
X44209287Y1469172D02*
X43923573Y1469172D01*
X43923573Y1469172D02*
X43780715Y1540600D01*
X45352144Y1469172D02*
X45209287Y1540600D01*
X45209287Y1540600D02*
X45137858Y1612029D01*
X45137858Y1612029D02*
X45066430Y1754886D01*
X45066430Y1754886D02*
X45066430Y2183458D01*
X45066430Y2183458D02*
X45137858Y2326315D01*
X45137858Y2326315D02*
X45209287Y2397743D01*
X45209287Y2397743D02*
X45352144Y2469172D01*
X45352144Y2469172D02*
X45566430Y2469172D01*
X45566430Y2469172D02*
X45709287Y2397743D01*
X45709287Y2397743D02*
X45780716Y2326315D01*
X45780716Y2326315D02*
X45852144Y2183458D01*
X45852144Y2183458D02*
X45852144Y1754886D01*
X45852144Y1754886D02*
X45780716Y1612029D01*
X45780716Y1612029D02*
X45709287Y1540600D01*
X45709287Y1540600D02*
X45566430Y1469172D01*
X45566430Y1469172D02*
X45352144Y1469172D01*
X47137859Y1469172D02*
X47137859Y2254886D01*
X47137859Y2254886D02*
X47066430Y2397743D01*
X47066430Y2397743D02*
X46923573Y2469172D01*
X46923573Y2469172D02*
X46637859Y2469172D01*
X46637859Y2469172D02*
X46495001Y2397743D01*
X47137859Y1540600D02*
X46995001Y1469172D01*
X46995001Y1469172D02*
X46637859Y1469172D01*
X46637859Y1469172D02*
X46495001Y1540600D01*
X46495001Y1540600D02*
X46423573Y1683458D01*
X46423573Y1683458D02*
X46423573Y1826315D01*
X46423573Y1826315D02*
X46495001Y1969172D01*
X46495001Y1969172D02*
X46637859Y2040600D01*
X46637859Y2040600D02*
X46995001Y2040600D01*
X46995001Y2040600D02*
X47137859Y2112029D01*
X47852144Y1469172D02*
X47852144Y2469172D01*
X47852144Y2183458D02*
X47923573Y2326315D01*
X47923573Y2326315D02*
X47995002Y2397743D01*
X47995002Y2397743D02*
X48137859Y2469172D01*
X48137859Y2469172D02*
X48280716Y2469172D01*
X49423573Y1469172D02*
X49423573Y2969172D01*
X49423573Y1540600D02*
X49280715Y1469172D01*
X49280715Y1469172D02*
X48995001Y1469172D01*
X48995001Y1469172D02*
X48852144Y1540600D01*
X48852144Y1540600D02*
X48780715Y1612029D01*
X48780715Y1612029D02*
X48709287Y1754886D01*
X48709287Y1754886D02*
X48709287Y2183458D01*
X48709287Y2183458D02*
X48780715Y2326315D01*
X48780715Y2326315D02*
X48852144Y2397743D01*
X48852144Y2397743D02*
X48995001Y2469172D01*
X48995001Y2469172D02*
X49280715Y2469172D01*
X49280715Y2469172D02*
X49423573Y2397743D01*
X52137858Y1469172D02*
X51637858Y2183458D01*
X51280715Y1469172D02*
X51280715Y2969172D01*
X51280715Y2969172D02*
X51852144Y2969172D01*
X51852144Y2969172D02*
X51995001Y2897743D01*
X51995001Y2897743D02*
X52066430Y2826315D01*
X52066430Y2826315D02*
X52137858Y2683458D01*
X52137858Y2683458D02*
X52137858Y2469172D01*
X52137858Y2469172D02*
X52066430Y2326315D01*
X52066430Y2326315D02*
X51995001Y2254886D01*
X51995001Y2254886D02*
X51852144Y2183458D01*
X51852144Y2183458D02*
X51280715Y2183458D01*
X53352144Y1540600D02*
X53209287Y1469172D01*
X53209287Y1469172D02*
X52923573Y1469172D01*
X52923573Y1469172D02*
X52780715Y1540600D01*
X52780715Y1540600D02*
X52709287Y1683458D01*
X52709287Y1683458D02*
X52709287Y2254886D01*
X52709287Y2254886D02*
X52780715Y2397743D01*
X52780715Y2397743D02*
X52923573Y2469172D01*
X52923573Y2469172D02*
X53209287Y2469172D01*
X53209287Y2469172D02*
X53352144Y2397743D01*
X53352144Y2397743D02*
X53423573Y2254886D01*
X53423573Y2254886D02*
X53423573Y2112029D01*
X53423573Y2112029D02*
X52709287Y1969172D01*
X53923572Y2469172D02*
X54280715Y1469172D01*
X54280715Y1469172D02*
X54637858Y2469172D01*
X55209286Y1612029D02*
X55280715Y1540600D01*
X55280715Y1540600D02*
X55209286Y1469172D01*
X55209286Y1469172D02*
X55137858Y1540600D01*
X55137858Y1540600D02*
X55209286Y1612029D01*
X55209286Y1612029D02*
X55209286Y1469172D01*
X56209287Y2969172D02*
X56352144Y2969172D01*
X56352144Y2969172D02*
X56495001Y2897743D01*
X56495001Y2897743D02*
X56566430Y2826315D01*
X56566430Y2826315D02*
X56637858Y2683458D01*
X56637858Y2683458D02*
X56709287Y2397743D01*
X56709287Y2397743D02*
X56709287Y2040600D01*
X56709287Y2040600D02*
X56637858Y1754886D01*
X56637858Y1754886D02*
X56566430Y1612029D01*
X56566430Y1612029D02*
X56495001Y1540600D01*
X56495001Y1540600D02*
X56352144Y1469172D01*
X56352144Y1469172D02*
X56209287Y1469172D01*
X56209287Y1469172D02*
X56066430Y1540600D01*
X56066430Y1540600D02*
X55995001Y1612029D01*
X55995001Y1612029D02*
X55923572Y1754886D01*
X55923572Y1754886D02*
X55852144Y2040600D01*
X55852144Y2040600D02*
X55852144Y2397743D01*
X55852144Y2397743D02*
X55923572Y2683458D01*
X55923572Y2683458D02*
X55995001Y2826315D01*
X55995001Y2826315D02*
X56066430Y2897743D01*
X56066430Y2897743D02*
X56209287Y2969172D01*
X57352143Y1612029D02*
X57423572Y1540600D01*
X57423572Y1540600D02*
X57352143Y1469172D01*
X57352143Y1469172D02*
X57280715Y1540600D01*
X57280715Y1540600D02*
X57352143Y1612029D01*
X57352143Y1612029D02*
X57352143Y1469172D01*
X58352144Y2969172D02*
X58495001Y2969172D01*
X58495001Y2969172D02*
X58637858Y2897743D01*
X58637858Y2897743D02*
X58709287Y2826315D01*
X58709287Y2826315D02*
X58780715Y2683458D01*
X58780715Y2683458D02*
X58852144Y2397743D01*
X58852144Y2397743D02*
X58852144Y2040600D01*
X58852144Y2040600D02*
X58780715Y1754886D01*
X58780715Y1754886D02*
X58709287Y1612029D01*
X58709287Y1612029D02*
X58637858Y1540600D01*
X58637858Y1540600D02*
X58495001Y1469172D01*
X58495001Y1469172D02*
X58352144Y1469172D01*
X58352144Y1469172D02*
X58209287Y1540600D01*
X58209287Y1540600D02*
X58137858Y1612029D01*
X58137858Y1612029D02*
X58066429Y1754886D01*
X58066429Y1754886D02*
X57995001Y2040600D01*
X57995001Y2040600D02*
X57995001Y2397743D01*
X57995001Y2397743D02*
X58066429Y2683458D01*
X58066429Y2683458D02*
X58137858Y2826315D01*
X58137858Y2826315D02*
X58209287Y2897743D01*
X58209287Y2897743D02*
X58352144Y2969172D01*
X61566429Y2183458D02*
X61495000Y2254886D01*
X61495000Y2254886D02*
X61352143Y2326315D01*
X61352143Y2326315D02*
X61209286Y2326315D01*
X61209286Y2326315D02*
X61066429Y2254886D01*
X61066429Y2254886D02*
X60995000Y2183458D01*
X60995000Y2183458D02*
X60923572Y2040600D01*
X60923572Y2040600D02*
X60923572Y1897743D01*
X60923572Y1897743D02*
X60995000Y1754886D01*
X60995000Y1754886D02*
X61066429Y1683458D01*
X61066429Y1683458D02*
X61209286Y1612029D01*
X61209286Y1612029D02*
X61352143Y1612029D01*
X61352143Y1612029D02*
X61495000Y1683458D01*
X61495000Y1683458D02*
X61566429Y1754886D01*
X61566429Y2326315D02*
X61566429Y1754886D01*
X61566429Y1754886D02*
X61637857Y1683458D01*
X61637857Y1683458D02*
X61709286Y1683458D01*
X61709286Y1683458D02*
X61852143Y1754886D01*
X61852143Y1754886D02*
X61923572Y1897743D01*
X61923572Y1897743D02*
X61923572Y2254886D01*
X61923572Y2254886D02*
X61780715Y2469172D01*
X61780715Y2469172D02*
X61566429Y2612029D01*
X61566429Y2612029D02*
X61280715Y2683458D01*
X61280715Y2683458D02*
X60995000Y2612029D01*
X60995000Y2612029D02*
X60780715Y2469172D01*
X60780715Y2469172D02*
X60637857Y2254886D01*
X60637857Y2254886D02*
X60566429Y1969172D01*
X60566429Y1969172D02*
X60637857Y1683458D01*
X60637857Y1683458D02*
X60780715Y1469172D01*
X60780715Y1469172D02*
X60995000Y1326315D01*
X60995000Y1326315D02*
X61280715Y1254886D01*
X61280715Y1254886D02*
X61566429Y1326315D01*
X61566429Y1326315D02*
X61780715Y1469172D01*
X62566428Y1469172D02*
X62566428Y2969172D01*
X62709286Y2040600D02*
X63137857Y1469172D01*
X63137857Y2469172D02*
X62566428Y1897743D01*
X64423572Y1469172D02*
X64423572Y2254886D01*
X64423572Y2254886D02*
X64352143Y2397743D01*
X64352143Y2397743D02*
X64209286Y2469172D01*
X64209286Y2469172D02*
X63923572Y2469172D01*
X63923572Y2469172D02*
X63780714Y2397743D01*
X64423572Y1540600D02*
X64280714Y1469172D01*
X64280714Y1469172D02*
X63923572Y1469172D01*
X63923572Y1469172D02*
X63780714Y1540600D01*
X63780714Y1540600D02*
X63709286Y1683458D01*
X63709286Y1683458D02*
X63709286Y1826315D01*
X63709286Y1826315D02*
X63780714Y1969172D01*
X63780714Y1969172D02*
X63923572Y2040600D01*
X63923572Y2040600D02*
X64280714Y2040600D01*
X64280714Y2040600D02*
X64423572Y2112029D01*
X65137857Y2469172D02*
X65137857Y1469172D01*
X65137857Y2326315D02*
X65209286Y2397743D01*
X65209286Y2397743D02*
X65352143Y2469172D01*
X65352143Y2469172D02*
X65566429Y2469172D01*
X65566429Y2469172D02*
X65709286Y2397743D01*
X65709286Y2397743D02*
X65780715Y2254886D01*
X65780715Y2254886D02*
X65780715Y1469172D01*
X66495000Y2469172D02*
X66495000Y969172D01*
X66495000Y2397743D02*
X66637858Y2469172D01*
X66637858Y2469172D02*
X66923572Y2469172D01*
X66923572Y2469172D02*
X67066429Y2397743D01*
X67066429Y2397743D02*
X67137858Y2326315D01*
X67137858Y2326315D02*
X67209286Y2183458D01*
X67209286Y2183458D02*
X67209286Y1754886D01*
X67209286Y1754886D02*
X67137858Y1612029D01*
X67137858Y1612029D02*
X67066429Y1540600D01*
X67066429Y1540600D02*
X66923572Y1469172D01*
X66923572Y1469172D02*
X66637858Y1469172D01*
X66637858Y1469172D02*
X66495000Y1540600D01*
X68495001Y1469172D02*
X68495001Y2254886D01*
X68495001Y2254886D02*
X68423572Y2397743D01*
X68423572Y2397743D02*
X68280715Y2469172D01*
X68280715Y2469172D02*
X67995001Y2469172D01*
X67995001Y2469172D02*
X67852143Y2397743D01*
X68495001Y1540600D02*
X68352143Y1469172D01*
X68352143Y1469172D02*
X67995001Y1469172D01*
X67995001Y1469172D02*
X67852143Y1540600D01*
X67852143Y1540600D02*
X67780715Y1683458D01*
X67780715Y1683458D02*
X67780715Y1826315D01*
X67780715Y1826315D02*
X67852143Y1969172D01*
X67852143Y1969172D02*
X67995001Y2040600D01*
X67995001Y2040600D02*
X68352143Y2040600D01*
X68352143Y2040600D02*
X68495001Y2112029D01*
X69209286Y2469172D02*
X69209286Y969172D01*
X69209286Y2397743D02*
X69352144Y2469172D01*
X69352144Y2469172D02*
X69637858Y2469172D01*
X69637858Y2469172D02*
X69780715Y2397743D01*
X69780715Y2397743D02*
X69852144Y2326315D01*
X69852144Y2326315D02*
X69923572Y2183458D01*
X69923572Y2183458D02*
X69923572Y1754886D01*
X69923572Y1754886D02*
X69852144Y1612029D01*
X69852144Y1612029D02*
X69780715Y1540600D01*
X69780715Y1540600D02*
X69637858Y1469172D01*
X69637858Y1469172D02*
X69352144Y1469172D01*
X69352144Y1469172D02*
X69209286Y1540600D01*
X71209287Y1469172D02*
X71209287Y2254886D01*
X71209287Y2254886D02*
X71137858Y2397743D01*
X71137858Y2397743D02*
X70995001Y2469172D01*
X70995001Y2469172D02*
X70709287Y2469172D01*
X70709287Y2469172D02*
X70566429Y2397743D01*
X71209287Y1540600D02*
X71066429Y1469172D01*
X71066429Y1469172D02*
X70709287Y1469172D01*
X70709287Y1469172D02*
X70566429Y1540600D01*
X70566429Y1540600D02*
X70495001Y1683458D01*
X70495001Y1683458D02*
X70495001Y1826315D01*
X70495001Y1826315D02*
X70566429Y1969172D01*
X70566429Y1969172D02*
X70709287Y2040600D01*
X70709287Y2040600D02*
X71066429Y2040600D01*
X71066429Y2040600D02*
X71209287Y2112029D01*
X72995001Y2826315D02*
X73066429Y2897743D01*
X73066429Y2897743D02*
X73209287Y2969172D01*
X73209287Y2969172D02*
X73566429Y2969172D01*
X73566429Y2969172D02*
X73709287Y2897743D01*
X73709287Y2897743D02*
X73780715Y2826315D01*
X73780715Y2826315D02*
X73852144Y2683458D01*
X73852144Y2683458D02*
X73852144Y2540600D01*
X73852144Y2540600D02*
X73780715Y2326315D01*
X73780715Y2326315D02*
X72923572Y1469172D01*
X72923572Y1469172D02*
X73852144Y1469172D01*
X74780715Y2969172D02*
X74923572Y2969172D01*
X74923572Y2969172D02*
X75066429Y2897743D01*
X75066429Y2897743D02*
X75137858Y2826315D01*
X75137858Y2826315D02*
X75209286Y2683458D01*
X75209286Y2683458D02*
X75280715Y2397743D01*
X75280715Y2397743D02*
X75280715Y2040600D01*
X75280715Y2040600D02*
X75209286Y1754886D01*
X75209286Y1754886D02*
X75137858Y1612029D01*
X75137858Y1612029D02*
X75066429Y1540600D01*
X75066429Y1540600D02*
X74923572Y1469172D01*
X74923572Y1469172D02*
X74780715Y1469172D01*
X74780715Y1469172D02*
X74637858Y1540600D01*
X74637858Y1540600D02*
X74566429Y1612029D01*
X74566429Y1612029D02*
X74495000Y1754886D01*
X74495000Y1754886D02*
X74423572Y2040600D01*
X74423572Y2040600D02*
X74423572Y2397743D01*
X74423572Y2397743D02*
X74495000Y2683458D01*
X74495000Y2683458D02*
X74566429Y2826315D01*
X74566429Y2826315D02*
X74637858Y2897743D01*
X74637858Y2897743D02*
X74780715Y2969172D01*
X75852143Y2826315D02*
X75923571Y2897743D01*
X75923571Y2897743D02*
X76066429Y2969172D01*
X76066429Y2969172D02*
X76423571Y2969172D01*
X76423571Y2969172D02*
X76566429Y2897743D01*
X76566429Y2897743D02*
X76637857Y2826315D01*
X76637857Y2826315D02*
X76709286Y2683458D01*
X76709286Y2683458D02*
X76709286Y2540600D01*
X76709286Y2540600D02*
X76637857Y2326315D01*
X76637857Y2326315D02*
X75780714Y1469172D01*
X75780714Y1469172D02*
X76709286Y1469172D01*
X77995000Y2969172D02*
X77709285Y2969172D01*
X77709285Y2969172D02*
X77566428Y2897743D01*
X77566428Y2897743D02*
X77495000Y2826315D01*
X77495000Y2826315D02*
X77352142Y2612029D01*
X77352142Y2612029D02*
X77280714Y2326315D01*
X77280714Y2326315D02*
X77280714Y1754886D01*
X77280714Y1754886D02*
X77352142Y1612029D01*
X77352142Y1612029D02*
X77423571Y1540600D01*
X77423571Y1540600D02*
X77566428Y1469172D01*
X77566428Y1469172D02*
X77852142Y1469172D01*
X77852142Y1469172D02*
X77995000Y1540600D01*
X77995000Y1540600D02*
X78066428Y1612029D01*
X78066428Y1612029D02*
X78137857Y1754886D01*
X78137857Y1754886D02*
X78137857Y2112029D01*
X78137857Y2112029D02*
X78066428Y2254886D01*
X78066428Y2254886D02*
X77995000Y2326315D01*
X77995000Y2326315D02*
X77852142Y2397743D01*
X77852142Y2397743D02*
X77566428Y2397743D01*
X77566428Y2397743D02*
X77423571Y2326315D01*
X77423571Y2326315D02*
X77352142Y2254886D01*
X77352142Y2254886D02*
X77280714Y2112029D01*
X78780713Y2040600D02*
X79923571Y2040600D01*
X80923571Y2969172D02*
X81066428Y2969172D01*
X81066428Y2969172D02*
X81209285Y2897743D01*
X81209285Y2897743D02*
X81280714Y2826315D01*
X81280714Y2826315D02*
X81352142Y2683458D01*
X81352142Y2683458D02*
X81423571Y2397743D01*
X81423571Y2397743D02*
X81423571Y2040600D01*
X81423571Y2040600D02*
X81352142Y1754886D01*
X81352142Y1754886D02*
X81280714Y1612029D01*
X81280714Y1612029D02*
X81209285Y1540600D01*
X81209285Y1540600D02*
X81066428Y1469172D01*
X81066428Y1469172D02*
X80923571Y1469172D01*
X80923571Y1469172D02*
X80780714Y1540600D01*
X80780714Y1540600D02*
X80709285Y1612029D01*
X80709285Y1612029D02*
X80637856Y1754886D01*
X80637856Y1754886D02*
X80566428Y2040600D01*
X80566428Y2040600D02*
X80566428Y2397743D01*
X80566428Y2397743D02*
X80637856Y2683458D01*
X80637856Y2683458D02*
X80709285Y2826315D01*
X80709285Y2826315D02*
X80780714Y2897743D01*
X80780714Y2897743D02*
X80923571Y2969172D01*
X82709285Y2969172D02*
X82423570Y2969172D01*
X82423570Y2969172D02*
X82280713Y2897743D01*
X82280713Y2897743D02*
X82209285Y2826315D01*
X82209285Y2826315D02*
X82066427Y2612029D01*
X82066427Y2612029D02*
X81994999Y2326315D01*
X81994999Y2326315D02*
X81994999Y1754886D01*
X81994999Y1754886D02*
X82066427Y1612029D01*
X82066427Y1612029D02*
X82137856Y1540600D01*
X82137856Y1540600D02*
X82280713Y1469172D01*
X82280713Y1469172D02*
X82566427Y1469172D01*
X82566427Y1469172D02*
X82709285Y1540600D01*
X82709285Y1540600D02*
X82780713Y1612029D01*
X82780713Y1612029D02*
X82852142Y1754886D01*
X82852142Y1754886D02*
X82852142Y2112029D01*
X82852142Y2112029D02*
X82780713Y2254886D01*
X82780713Y2254886D02*
X82709285Y2326315D01*
X82709285Y2326315D02*
X82566427Y2397743D01*
X82566427Y2397743D02*
X82280713Y2397743D01*
X82280713Y2397743D02*
X82137856Y2326315D01*
X82137856Y2326315D02*
X82066427Y2254886D01*
X82066427Y2254886D02*
X81994999Y2112029D01*
X83494998Y2040600D02*
X84637856Y2040600D01*
X85637856Y2969172D02*
X85780713Y2969172D01*
X85780713Y2969172D02*
X85923570Y2897743D01*
X85923570Y2897743D02*
X85994999Y2826315D01*
X85994999Y2826315D02*
X86066427Y2683458D01*
X86066427Y2683458D02*
X86137856Y2397743D01*
X86137856Y2397743D02*
X86137856Y2040600D01*
X86137856Y2040600D02*
X86066427Y1754886D01*
X86066427Y1754886D02*
X85994999Y1612029D01*
X85994999Y1612029D02*
X85923570Y1540600D01*
X85923570Y1540600D02*
X85780713Y1469172D01*
X85780713Y1469172D02*
X85637856Y1469172D01*
X85637856Y1469172D02*
X85494999Y1540600D01*
X85494999Y1540600D02*
X85423570Y1612029D01*
X85423570Y1612029D02*
X85352141Y1754886D01*
X85352141Y1754886D02*
X85280713Y2040600D01*
X85280713Y2040600D02*
X85280713Y2397743D01*
X85280713Y2397743D02*
X85352141Y2683458D01*
X85352141Y2683458D02*
X85423570Y2826315D01*
X85423570Y2826315D02*
X85494999Y2897743D01*
X85494999Y2897743D02*
X85637856Y2969172D01*
X86994998Y2326315D02*
X86852141Y2397743D01*
X86852141Y2397743D02*
X86780712Y2469172D01*
X86780712Y2469172D02*
X86709284Y2612029D01*
X86709284Y2612029D02*
X86709284Y2683458D01*
X86709284Y2683458D02*
X86780712Y2826315D01*
X86780712Y2826315D02*
X86852141Y2897743D01*
X86852141Y2897743D02*
X86994998Y2969172D01*
X86994998Y2969172D02*
X87280712Y2969172D01*
X87280712Y2969172D02*
X87423570Y2897743D01*
X87423570Y2897743D02*
X87494998Y2826315D01*
X87494998Y2826315D02*
X87566427Y2683458D01*
X87566427Y2683458D02*
X87566427Y2612029D01*
X87566427Y2612029D02*
X87494998Y2469172D01*
X87494998Y2469172D02*
X87423570Y2397743D01*
X87423570Y2397743D02*
X87280712Y2326315D01*
X87280712Y2326315D02*
X86994998Y2326315D01*
X86994998Y2326315D02*
X86852141Y2254886D01*
X86852141Y2254886D02*
X86780712Y2183458D01*
X86780712Y2183458D02*
X86709284Y2040600D01*
X86709284Y2040600D02*
X86709284Y1754886D01*
X86709284Y1754886D02*
X86780712Y1612029D01*
X86780712Y1612029D02*
X86852141Y1540600D01*
X86852141Y1540600D02*
X86994998Y1469172D01*
X86994998Y1469172D02*
X87280712Y1469172D01*
X87280712Y1469172D02*
X87423570Y1540600D01*
X87423570Y1540600D02*
X87494998Y1612029D01*
X87494998Y1612029D02*
X87566427Y1754886D01*
X87566427Y1754886D02*
X87566427Y2040600D01*
X87566427Y2040600D02*
X87494998Y2183458D01*
X87494998Y2183458D02*
X87423570Y2254886D01*
X87423570Y2254886D02*
X87280712Y2326315D01*
D11*
X93819819Y20896667D02*
X94534104Y20896667D01*
X94534104Y20896667D02*
X94676961Y20849048D01*
X94676961Y20849048D02*
X94772200Y20753810D01*
X94772200Y20753810D02*
X94819819Y20610953D01*
X94819819Y20610953D02*
X94819819Y20515715D01*
X94153152Y21801429D02*
X94819819Y21801429D01*
X93772200Y21563334D02*
X94486485Y21325239D01*
X94486485Y21325239D02*
X94486485Y21944286D01*
X23433333Y58740420D02*
X23385714Y58692800D01*
X23385714Y58692800D02*
X23242857Y58645181D01*
X23242857Y58645181D02*
X23147619Y58645181D01*
X23147619Y58645181D02*
X23004762Y58692800D01*
X23004762Y58692800D02*
X22909524Y58788039D01*
X22909524Y58788039D02*
X22861905Y58883277D01*
X22861905Y58883277D02*
X22814286Y59073753D01*
X22814286Y59073753D02*
X22814286Y59216610D01*
X22814286Y59216610D02*
X22861905Y59407086D01*
X22861905Y59407086D02*
X22909524Y59502324D01*
X22909524Y59502324D02*
X23004762Y59597562D01*
X23004762Y59597562D02*
X23147619Y59645181D01*
X23147619Y59645181D02*
X23242857Y59645181D01*
X23242857Y59645181D02*
X23385714Y59597562D01*
X23385714Y59597562D02*
X23433333Y59549943D01*
X24385714Y58645181D02*
X23814286Y58645181D01*
X24100000Y58645181D02*
X24100000Y59645181D01*
X24100000Y59645181D02*
X24004762Y59502324D01*
X24004762Y59502324D02*
X23909524Y59407086D01*
X23909524Y59407086D02*
X23814286Y59359467D01*
X12636667Y2327800D02*
X12779524Y2280181D01*
X12779524Y2280181D02*
X13017619Y2280181D01*
X13017619Y2280181D02*
X13112857Y2327800D01*
X13112857Y2327800D02*
X13160476Y2375420D01*
X13160476Y2375420D02*
X13208095Y2470658D01*
X13208095Y2470658D02*
X13208095Y2565896D01*
X13208095Y2565896D02*
X13160476Y2661134D01*
X13160476Y2661134D02*
X13112857Y2708753D01*
X13112857Y2708753D02*
X13017619Y2756372D01*
X13017619Y2756372D02*
X12827143Y2803991D01*
X12827143Y2803991D02*
X12731905Y2851610D01*
X12731905Y2851610D02*
X12684286Y2899229D01*
X12684286Y2899229D02*
X12636667Y2994467D01*
X12636667Y2994467D02*
X12636667Y3089705D01*
X12636667Y3089705D02*
X12684286Y3184943D01*
X12684286Y3184943D02*
X12731905Y3232562D01*
X12731905Y3232562D02*
X12827143Y3280181D01*
X12827143Y3280181D02*
X13065238Y3280181D01*
X13065238Y3280181D02*
X13208095Y3232562D01*
X13541429Y3280181D02*
X13779524Y2280181D01*
X13779524Y2280181D02*
X13970000Y2994467D01*
X13970000Y2994467D02*
X14160476Y2280181D01*
X14160476Y2280181D02*
X14398572Y3280181D01*
X15303333Y2280181D02*
X14731905Y2280181D01*
X15017619Y2280181D02*
X15017619Y3280181D01*
X15017619Y3280181D02*
X14922381Y3137324D01*
X14922381Y3137324D02*
X14827143Y3042086D01*
X14827143Y3042086D02*
X14731905Y2994467D01*
X17488333Y53660420D02*
X17440714Y53612800D01*
X17440714Y53612800D02*
X17297857Y53565181D01*
X17297857Y53565181D02*
X17202619Y53565181D01*
X17202619Y53565181D02*
X17059762Y53612800D01*
X17059762Y53612800D02*
X16964524Y53708039D01*
X16964524Y53708039D02*
X16916905Y53803277D01*
X16916905Y53803277D02*
X16869286Y53993753D01*
X16869286Y53993753D02*
X16869286Y54136610D01*
X16869286Y54136610D02*
X16916905Y54327086D01*
X16916905Y54327086D02*
X16964524Y54422324D01*
X16964524Y54422324D02*
X17059762Y54517562D01*
X17059762Y54517562D02*
X17202619Y54565181D01*
X17202619Y54565181D02*
X17297857Y54565181D01*
X17297857Y54565181D02*
X17440714Y54517562D01*
X17440714Y54517562D02*
X17488333Y54469943D01*
X17869286Y54469943D02*
X17916905Y54517562D01*
X17916905Y54517562D02*
X18012143Y54565181D01*
X18012143Y54565181D02*
X18250238Y54565181D01*
X18250238Y54565181D02*
X18345476Y54517562D01*
X18345476Y54517562D02*
X18393095Y54469943D01*
X18393095Y54469943D02*
X18440714Y54374705D01*
X18440714Y54374705D02*
X18440714Y54279467D01*
X18440714Y54279467D02*
X18393095Y54136610D01*
X18393095Y54136610D02*
X17821667Y53565181D01*
X17821667Y53565181D02*
X18440714Y53565181D01*
X11731666Y12770181D02*
X11731666Y12055896D01*
X11731666Y12055896D02*
X11684047Y11913039D01*
X11684047Y11913039D02*
X11588809Y11817800D01*
X11588809Y11817800D02*
X11445952Y11770181D01*
X11445952Y11770181D02*
X11350714Y11770181D01*
X12731666Y11770181D02*
X12160238Y11770181D01*
X12445952Y11770181D02*
X12445952Y12770181D01*
X12445952Y12770181D02*
X12350714Y12627324D01*
X12350714Y12627324D02*
X12255476Y12532086D01*
X12255476Y12532086D02*
X12160238Y12484467D01*
X96804819Y37933334D02*
X96328628Y37600001D01*
X96804819Y37361906D02*
X95804819Y37361906D01*
X95804819Y37361906D02*
X95804819Y37742858D01*
X95804819Y37742858D02*
X95852438Y37838096D01*
X95852438Y37838096D02*
X95900057Y37885715D01*
X95900057Y37885715D02*
X95995295Y37933334D01*
X95995295Y37933334D02*
X96138152Y37933334D01*
X96138152Y37933334D02*
X96233390Y37885715D01*
X96233390Y37885715D02*
X96281009Y37838096D01*
X96281009Y37838096D02*
X96328628Y37742858D01*
X96328628Y37742858D02*
X96328628Y37361906D01*
X96804819Y38885715D02*
X96804819Y38314287D01*
X96804819Y38600001D02*
X95804819Y38600001D01*
X95804819Y38600001D02*
X95947676Y38504763D01*
X95947676Y38504763D02*
X96042914Y38409525D01*
X96042914Y38409525D02*
X96090533Y38314287D01*
X96291666Y65995181D02*
X96291666Y65280896D01*
X96291666Y65280896D02*
X96244047Y65138039D01*
X96244047Y65138039D02*
X96148809Y65042800D01*
X96148809Y65042800D02*
X96005952Y64995181D01*
X96005952Y64995181D02*
X95910714Y64995181D01*
X96720238Y65899943D02*
X96767857Y65947562D01*
X96767857Y65947562D02*
X96863095Y65995181D01*
X96863095Y65995181D02*
X97101190Y65995181D01*
X97101190Y65995181D02*
X97196428Y65947562D01*
X97196428Y65947562D02*
X97244047Y65899943D01*
X97244047Y65899943D02*
X97291666Y65804705D01*
X97291666Y65804705D02*
X97291666Y65709467D01*
X97291666Y65709467D02*
X97244047Y65566610D01*
X97244047Y65566610D02*
X96672619Y64995181D01*
X96672619Y64995181D02*
X97291666Y64995181D01*
X62126905Y12175181D02*
X62126905Y13175181D01*
X62126905Y13175181D02*
X62365000Y13175181D01*
X62365000Y13175181D02*
X62507857Y13127562D01*
X62507857Y13127562D02*
X62603095Y13032324D01*
X62603095Y13032324D02*
X62650714Y12937086D01*
X62650714Y12937086D02*
X62698333Y12746610D01*
X62698333Y12746610D02*
X62698333Y12603753D01*
X62698333Y12603753D02*
X62650714Y12413277D01*
X62650714Y12413277D02*
X62603095Y12318039D01*
X62603095Y12318039D02*
X62507857Y12222800D01*
X62507857Y12222800D02*
X62365000Y12175181D01*
X62365000Y12175181D02*
X62126905Y12175181D01*
X63650714Y12175181D02*
X63079286Y12175181D01*
X63365000Y12175181D02*
X63365000Y13175181D01*
X63365000Y13175181D02*
X63269762Y13032324D01*
X63269762Y13032324D02*
X63174524Y12937086D01*
X63174524Y12937086D02*
X63079286Y12889467D01*
X57523095Y11605181D02*
X57523095Y12605181D01*
X58094523Y11605181D02*
X57665952Y12176610D01*
X58094523Y12605181D02*
X57523095Y12033753D01*
X14214819Y50601667D02*
X14929104Y50601667D01*
X14929104Y50601667D02*
X15071961Y50554048D01*
X15071961Y50554048D02*
X15167200Y50458810D01*
X15167200Y50458810D02*
X15214819Y50315953D01*
X15214819Y50315953D02*
X15214819Y50220715D01*
X15214819Y51077858D02*
X14214819Y51077858D01*
X14214819Y51077858D02*
X14214819Y51458810D01*
X14214819Y51458810D02*
X14262438Y51554048D01*
X14262438Y51554048D02*
X14310057Y51601667D01*
X14310057Y51601667D02*
X14405295Y51649286D01*
X14405295Y51649286D02*
X14548152Y51649286D01*
X14548152Y51649286D02*
X14643390Y51601667D01*
X14643390Y51601667D02*
X14691009Y51554048D01*
X14691009Y51554048D02*
X14738628Y51458810D01*
X14738628Y51458810D02*
X14738628Y51077858D01*
X14310057Y52030239D02*
X14262438Y52077858D01*
X14262438Y52077858D02*
X14214819Y52173096D01*
X14214819Y52173096D02*
X14214819Y52411191D01*
X14214819Y52411191D02*
X14262438Y52506429D01*
X14262438Y52506429D02*
X14310057Y52554048D01*
X14310057Y52554048D02*
X14405295Y52601667D01*
X14405295Y52601667D02*
X14500533Y52601667D01*
X14500533Y52601667D02*
X14643390Y52554048D01*
X14643390Y52554048D02*
X15214819Y51982620D01*
X15214819Y51982620D02*
X15214819Y52601667D01*
X93146666Y46425181D02*
X93146666Y45710896D01*
X93146666Y45710896D02*
X93099047Y45568039D01*
X93099047Y45568039D02*
X93003809Y45472800D01*
X93003809Y45472800D02*
X92860952Y45425181D01*
X92860952Y45425181D02*
X92765714Y45425181D01*
X93622857Y45425181D02*
X93622857Y46425181D01*
X93622857Y46425181D02*
X94003809Y46425181D01*
X94003809Y46425181D02*
X94099047Y46377562D01*
X94099047Y46377562D02*
X94146666Y46329943D01*
X94146666Y46329943D02*
X94194285Y46234705D01*
X94194285Y46234705D02*
X94194285Y46091848D01*
X94194285Y46091848D02*
X94146666Y45996610D01*
X94146666Y45996610D02*
X94099047Y45948991D01*
X94099047Y45948991D02*
X94003809Y45901372D01*
X94003809Y45901372D02*
X93622857Y45901372D01*
X95146666Y45425181D02*
X94575238Y45425181D01*
X94860952Y45425181D02*
X94860952Y46425181D01*
X94860952Y46425181D02*
X94765714Y46282324D01*
X94765714Y46282324D02*
X94670476Y46187086D01*
X94670476Y46187086D02*
X94575238Y46139467D01*
D14*
X22095000Y25790000D02*
X93475000Y25790000D01*
X22095000Y16670000D02*
X22095000Y25790000D01*
X23395000Y24480000D02*
X55735000Y24480000D01*
X23395000Y17980000D02*
X23395000Y24480000D01*
X55735000Y24480000D02*
X55735000Y25790000D01*
X59835000Y25790000D02*
X59835000Y24480000D01*
X59835000Y24480000D02*
X92175000Y24480000D01*
X87765000Y27180000D02*
X88265000Y26180000D01*
X88265000Y26180000D02*
X88765000Y27180000D01*
X88765000Y27180000D02*
X87765000Y27180000D01*
X92175000Y24480000D02*
X92175000Y17980000D01*
X92175000Y17980000D02*
X23395000Y17980000D01*
X93475000Y25790000D02*
X93475000Y16670000D01*
X93475000Y16670000D02*
X22095000Y16670000D01*
X21780000Y58365000D02*
X21780000Y58120000D01*
X21780000Y58365000D02*
X25420000Y58365000D01*
X21780000Y56270000D02*
X21780000Y56025000D01*
X21780000Y56025000D02*
X25420000Y56025000D01*
X25420000Y58365000D02*
X25420000Y58120000D01*
X25420000Y56270000D02*
X25420000Y56025000D01*
X10470000Y7735000D02*
X10470000Y6235000D01*
X11720000Y3735000D02*
X16220000Y3735000D01*
X16220000Y10235000D02*
X11720000Y10235000D01*
X17470000Y6235000D02*
X17470000Y7735000D01*
X18620000Y57195000D02*
G75*
G02*
X14380000Y57195000I-2120000J0D01*
G01*
X14380000Y57195000D02*
G75*
G02*
X18620000Y57195000I2120000J0D01*
G01*
X275000Y59922500D02*
X7295000Y59922500D01*
X275000Y39962500D02*
X275000Y59922500D01*
X4885000Y60722500D02*
X5485000Y60722500D01*
X5185000Y60122500D02*
X4885000Y60722500D01*
X5485000Y60722500D02*
X5185000Y60122500D01*
X7295000Y59922500D02*
X7295000Y58722500D01*
X7295000Y58722500D02*
X8995000Y58722500D01*
X7295000Y41162500D02*
X7295000Y39962500D01*
X7295000Y39962500D02*
X275000Y39962500D01*
X8995000Y58722500D02*
X8995000Y41162500D01*
X8995000Y41162500D02*
X7295000Y41162500D01*
X9415000Y13225000D02*
X9415000Y38845000D01*
X12065000Y15875000D02*
X12065000Y13225000D01*
X12065000Y13225000D02*
X9415000Y13225000D01*
X14715000Y38845000D02*
X9415000Y38845000D01*
X14715000Y15875000D02*
X12065000Y15875000D01*
X14715000Y15875000D02*
X14715000Y38845000D01*
X14715000Y14605000D02*
X14715000Y13225000D01*
X14715000Y13225000D02*
X13335000Y13225000D01*
X93980000Y42140000D02*
X93980000Y41370000D01*
X93980000Y34060000D02*
X93980000Y34830000D01*
X92610000Y41370000D02*
X95350000Y41370000D01*
X95350000Y34830000D01*
X92610000Y34830000D01*
X92610000Y41370000D01*
X4280000Y72020000D02*
X4280000Y66460000D01*
X4280000Y66460000D02*
X9800000Y66460000D01*
X9800000Y66460000D02*
X9800000Y67460000D01*
X11300000Y67460000D02*
X9800000Y67460000D01*
X13840000Y67460000D02*
X13039000Y67460000D01*
X16380000Y67460000D02*
X15579000Y67460000D01*
X18920000Y67460000D02*
X18119000Y67460000D01*
X21460000Y67460000D02*
X20659000Y67460000D01*
X24000000Y67460000D02*
X23199000Y67460000D01*
X26540000Y67460000D02*
X25739000Y67460000D01*
X29080000Y67460000D02*
X28279000Y67460000D01*
X31620000Y67460000D02*
X30819000Y67460000D01*
X34160000Y67460000D02*
X33359000Y67460000D01*
X36700000Y67460000D02*
X35899000Y67460000D01*
X39240000Y67460000D02*
X38439000Y67460000D01*
X41780000Y67460000D02*
X40979000Y67460000D01*
X44320000Y67460000D02*
X43519000Y67460000D01*
X46860000Y67460000D02*
X46059000Y67460000D01*
X49400000Y67460000D02*
X48599000Y67460000D01*
X51940000Y67460000D02*
X51139000Y67460000D01*
X54480000Y67460000D02*
X53679000Y67460000D01*
X57020000Y67460000D02*
X56219000Y67460000D01*
X59560000Y67460000D02*
X58759000Y67460000D01*
X62100000Y67460000D02*
X61299000Y67460000D01*
X64640000Y67460000D02*
X63839000Y67460000D01*
X67180000Y67460000D02*
X66379000Y67460000D01*
X69720000Y67460000D02*
X68919000Y67460000D01*
X72260000Y67460000D02*
X71459000Y67460000D01*
X74800000Y67460000D02*
X73999000Y67460000D01*
X77340000Y67460000D02*
X76539000Y67460000D01*
X79880000Y67460000D02*
X79079000Y67460000D01*
X82420000Y67460000D02*
X81619000Y67460000D01*
X84960000Y67460000D02*
X84159000Y67460000D01*
X87500000Y67460000D02*
X86699000Y67460000D01*
X89815000Y67460000D02*
X89239000Y67460000D01*
X92005000Y66720000D02*
X92605000Y67020000D01*
X92605000Y67020000D02*
X92605000Y66420000D01*
X92605000Y66420000D02*
X92005000Y66720000D01*
X93280000Y66460000D02*
X93280000Y67460000D01*
X93281000Y67460000D02*
X92005000Y67460000D01*
X98800000Y72020000D02*
X98800000Y66460000D01*
X98800000Y66460000D02*
X93280000Y66460000D01*
X58925000Y10160000D02*
X60145000Y10160000D01*
X60925000Y11630000D02*
X60925000Y8690000D01*
X61045000Y11630000D02*
X61045000Y8690000D01*
X61165000Y11630000D02*
X61165000Y8690000D01*
X66805000Y10160000D02*
X65585000Y10160000D01*
X60145000Y11630000D02*
X65585000Y11630000D01*
X65585000Y8690000D01*
X60145000Y8690000D01*
X60145000Y11630000D01*
X15760000Y50055000D02*
X15760000Y51435000D01*
X17140000Y50055000D02*
X15760000Y50055000D01*
X18410000Y52815000D02*
X21060000Y52815000D01*
X18410000Y50055000D02*
X18410000Y52815000D01*
X18410000Y50055000D02*
X21060000Y50055000D01*
X21060000Y50055000D02*
X21060000Y52815000D01*
X92600000Y49530000D02*
X92600000Y54720000D01*
X95360000Y54720000D02*
X92600000Y54720000D01*
X95360000Y49530000D02*
X92600000Y49530000D01*
X95360000Y49530000D02*
X95360000Y54720000D01*
X95360000Y48260000D02*
X95360000Y46880000D01*
X95360000Y46880000D02*
X93980000Y46880000D01*
M02*
