M48
; DRILL file KiCad 10.0.4-10.0.4~ubuntu22.04.1 date 2026-07-11T10:55:18
; FORMAT={-:-/ absolute / metric / decimal}
; #@! TF.CreationDate,2026-07-11T10:55:18+09:00
; #@! TF.GenerationSoftware,Kicad,Pcbnew,10.0.4-10.0.4~ubuntu22.04.1
; #@! TF.FileFunction,MixedPlating,1,4
FMAT,2
METRIC
; #@! TA.AperFunction,Plated,PTH,ComponentDrill
T1C0.600
; #@! TA.AperFunction,Plated,PTH,ComponentDrill
T2C0.800
; #@! TA.AperFunction,Plated,PTH,ComponentDrill
T3C0.900
; #@! TA.AperFunction,Plated,PTH,ComponentDrill
T4C1.000
; #@! TA.AperFunction,NonPlated,NPTH,ComponentDrill
T5C2.850
%
G90
G05
T1
X88.035Y20.955
X89.535Y20.955
T2
X8.255Y47.625
X8.255Y42.545
X10.795Y47.625
X10.795Y42.545
X13.335Y47.625
X13.335Y42.545
X15.875Y47.625
X15.875Y42.545
X18.415Y47.625
X18.415Y42.545
X20.955Y47.625
X20.955Y42.545
X23.495Y47.625
X23.495Y42.545
X26.035Y47.625
X26.035Y42.545
X28.575Y47.625
X28.575Y42.545
X34.925Y47.625
X34.925Y42.545
X37.465Y47.625
X37.465Y42.545
X40.005Y47.625
X40.005Y42.545
X42.545Y47.625
X42.545Y42.545
X45.085Y47.625
X45.085Y42.545
X51.435Y47.625
X51.435Y42.545
X53.975Y47.625
X53.975Y42.545
X56.515Y47.625
X56.515Y42.545
X59.055Y47.625
X59.055Y42.545
X61.595Y47.625
X61.595Y42.545
X64.135Y47.625
X64.135Y42.545
X66.675Y47.625
X66.675Y42.545
X69.215Y47.625
X69.215Y42.545
X71.755Y47.625
X71.755Y42.545
X79.375Y47.625
X79.375Y40.005
X81.955Y20.955
X84.455Y20.955
X94.615Y46.355
X94.615Y38.735
T3
X75.565Y47.625
X75.565Y40.005
T4
X10.795Y33.655
X10.795Y31.115
X10.795Y28.575
X10.795Y22.225
X10.795Y19.685
X10.795Y13.335
X10.795Y10.795
X10.795Y8.255
X13.335Y33.655
X13.335Y31.115
X13.335Y28.575
X13.335Y22.225
X13.335Y19.685
X13.335Y13.335
X13.335Y10.795
X13.335Y8.255
X15.875Y33.655
X15.875Y31.115
X15.875Y28.575
X15.875Y22.225
X15.875Y19.685
X15.875Y13.335
X15.875Y10.795
X15.875Y8.255
X18.415Y33.655
X18.415Y31.115
X18.415Y28.575
X18.415Y22.225
X18.415Y19.685
X18.415Y13.335
X18.415Y10.795
X18.415Y8.255
X20.955Y33.655
X20.955Y31.115
X20.955Y28.575
X20.955Y22.225
X20.955Y19.685
X20.955Y13.335
X20.955Y10.795
X20.955Y8.255
X23.495Y33.655
X23.495Y31.115
X23.495Y28.575
X23.495Y22.225
X23.495Y19.685
X23.495Y13.335
X23.495Y10.795
X23.495Y8.255
X26.035Y33.655
X26.035Y31.115
X26.035Y28.575
X26.035Y22.225
X26.035Y19.685
X26.035Y13.335
X26.035Y10.795
X26.035Y8.255
X28.575Y33.655
X28.575Y31.115
X28.575Y28.575
X28.575Y22.225
X28.575Y19.685
X28.575Y13.335
X28.575Y10.795
X28.575Y8.255
X31.115Y33.655
X31.115Y31.115
X31.115Y28.575
X31.115Y22.225
X31.115Y19.685
X31.115Y13.335
X31.115Y10.795
X31.115Y8.255
X33.655Y33.655
X33.655Y31.115
X33.655Y28.575
X33.655Y22.225
X33.655Y19.685
X33.655Y13.335
X33.655Y10.795
X33.655Y8.255
X33.655Y2.54
X36.195Y33.655
X36.195Y31.115
X36.195Y28.575
X36.195Y22.225
X36.195Y19.685
X36.195Y13.335
X36.195Y10.795
X36.195Y8.255
X36.195Y2.54
X38.735Y33.655
X38.735Y31.115
X38.735Y28.575
X38.735Y22.225
X38.735Y19.685
X38.735Y13.335
X38.735Y10.795
X38.735Y8.255
X38.735Y2.54
X41.275Y33.655
X41.275Y31.115
X41.275Y28.575
X41.275Y22.225
X41.275Y19.685
X41.275Y13.335
X41.275Y10.795
X41.275Y8.255
X41.275Y2.54
X43.815Y33.655
X43.815Y31.115
X43.815Y28.575
X43.815Y22.225
X43.815Y19.685
X43.815Y13.335
X43.815Y10.795
X43.815Y8.255
X43.815Y2.54
X46.355Y33.655
X46.355Y31.115
X46.355Y28.575
X46.355Y22.225
X46.355Y19.685
X46.355Y13.335
X46.355Y10.795
X46.355Y8.255
X46.355Y2.54
X48.895Y33.655
X48.895Y31.115
X48.895Y28.575
X48.895Y22.225
X48.895Y19.685
X48.895Y13.335
X48.895Y10.795
X48.895Y8.255
X48.895Y2.54
X51.435Y33.655
X51.435Y31.115
X51.435Y28.575
X51.435Y22.225
X51.435Y19.685
X51.435Y13.335
X51.435Y10.795
X51.435Y8.255
X51.435Y2.54
X53.975Y33.655
X53.975Y31.115
X53.975Y28.575
X53.975Y22.225
X53.975Y19.685
X53.975Y13.335
X53.975Y10.795
X53.975Y8.255
X53.975Y2.54
X56.515Y33.655
X56.515Y31.115
X56.515Y28.575
X56.515Y22.225
X56.515Y19.685
X56.515Y13.335
X56.515Y10.795
X56.515Y8.255
X56.515Y2.54
X59.055Y33.655
X59.055Y31.115
X59.055Y28.575
X59.055Y22.225
X59.055Y19.685
X59.055Y13.335
X59.055Y10.795
X59.055Y8.255
X59.055Y2.54
X61.595Y33.655
X61.595Y31.115
X61.595Y28.575
X61.595Y22.225
X61.595Y19.685
X61.595Y13.335
X61.595Y10.795
X61.595Y8.255
X61.595Y2.54
X64.135Y33.655
X64.135Y31.115
X64.135Y28.575
X64.135Y22.225
X64.135Y19.685
X64.135Y13.335
X64.135Y10.795
X64.135Y8.255
X66.675Y33.655
X66.675Y31.115
X66.675Y28.575
X66.675Y22.225
X66.675Y19.685
X66.675Y13.335
X66.675Y10.795
X66.675Y8.255
X69.215Y33.655
X69.215Y31.115
X69.215Y28.575
X69.215Y22.225
X69.215Y19.685
X69.215Y13.335
X69.215Y10.795
X69.215Y8.255
X71.755Y33.655
X71.755Y31.115
X71.755Y28.575
X71.755Y22.225
X71.755Y19.685
X71.755Y13.335
X71.755Y10.795
X71.755Y8.255
X74.295Y33.655
X74.295Y31.115
X74.295Y28.575
X74.295Y13.335
X74.295Y10.795
X74.295Y8.255
X76.835Y33.655
X76.835Y31.115
X76.835Y28.575
X76.835Y13.335
X76.835Y10.795
X76.835Y8.255
X79.375Y33.655
X79.375Y31.115
X79.375Y28.575
X79.375Y13.335
X79.375Y10.795
X79.375Y8.255
X81.915Y33.655
X81.915Y31.115
X81.915Y28.575
X81.915Y13.335
X81.915Y10.795
X81.915Y8.255
X84.455Y46.355
X84.455Y43.815
X84.455Y33.655
X84.455Y31.115
X84.455Y28.575
X84.455Y13.335
X84.455Y10.795
X84.455Y8.255
X86.995Y46.355
X86.995Y43.815
X86.995Y33.655
X86.995Y31.115
X86.995Y28.575
X86.995Y13.335
X86.995Y10.795
X86.995Y8.255
X89.535Y46.355
X89.535Y43.815
X89.535Y33.655
X89.535Y31.115
X89.535Y28.575
X89.535Y13.335
X89.535Y10.795
X89.535Y8.255
T5
X5.165Y30.815
X5.165Y10.495
X95.165Y30.815
X95.165Y10.495
M30
