G04 #@! TF.GenerationSoftware,KiCad,Pcbnew,10.0.4-10.0.4~ubuntu22.04.1*
G04 #@! TF.CreationDate,2026-07-11T10:55:15+09:00*
G04 #@! TF.ProjectId,VME_axpvme230_p2_dual,564d455f-6178-4707-966d-653233305f70,0.1*
G04 #@! TF.SameCoordinates,PX4a62f80PY6f130f0*
G04 #@! TF.FileFunction,Soldermask,Top*
G04 #@! TF.FilePolarity,Negative*
%FSLAX46Y46*%
G04 Gerber Fmt 4.6, Leading zero omitted, Abs format (unit mm)*
G04 Created by KiCad (PCBNEW 10.0.4-10.0.4~ubuntu22.04.1) date 2026-07-11 10:55:15*
%MOMM*%
%LPD*%
G01*
G04 APERTURE LIST*
G04 Aperture macros list*
%AMRoundRect*
0 Rectangle with rounded corners*
0 $1 Rounding radius*
0 $2 $3 $4 $5 $6 $7 $8 $9 X,Y pos of 4 corners*
0 Add a 4 corners polygon primitive as box body*
4,1,4,$2,$3,$4,$5,$6,$7,$8,$9,$2,$3,0*
0 Add four circle primitives for the rounded corners*
1,1,$1+$1,$2,$3*
1,1,$1+$1,$4,$5*
1,1,$1+$1,$6,$7*
1,1,$1+$1,$8,$9*
0 Add four rect primitives between the rounded corners*
20,1,$1+$1,$2,$3,$4,$5,0*
20,1,$1+$1,$4,$5,$6,$7,0*
20,1,$1+$1,$6,$7,$8,$9,0*
20,1,$1+$1,$8,$9,$2,$3,0*%
G04 Aperture macros list end*
%ADD10RoundRect,0.250000X-0.600000X0.600000X-0.600000X-0.600000X0.600000X-0.600000X0.600000X0.600000X0*%
%ADD11C,1.700000*%
%ADD12R,1.600000X1.600000*%
%ADD13C,1.600000*%
%ADD14C,1.200000*%
%ADD15R,1.700000X1.700000*%
%ADD16RoundRect,0.250000X0.650000X-0.650000X0.650000X0.650000X-0.650000X0.650000X-0.650000X-0.650000X0*%
%ADD17C,1.800000*%
%ADD18C,2.850000*%
%ADD19RoundRect,0.249999X0.525001X-0.525001X0.525001X0.525001X-0.525001X0.525001X-0.525001X-0.525001X0*%
%ADD20C,1.550000*%
G04 APERTURE END LIST*
D10*
X71755000Y22225000D03*
D11*
X71755000Y19685000D03*
X69215000Y22225000D03*
X69215000Y19685000D03*
X66675000Y22225000D03*
X66675000Y19685000D03*
X64135000Y22225000D03*
X64135000Y19685000D03*
X61595000Y22225000D03*
X61595000Y19685000D03*
X59055000Y22225000D03*
X59055000Y19685000D03*
X56515000Y22225000D03*
X56515000Y19685000D03*
X53975000Y22225000D03*
X53975000Y19685000D03*
X51435000Y22225000D03*
X51435000Y19685000D03*
X48895000Y22225000D03*
X48895000Y19685000D03*
X46355000Y22225000D03*
X46355000Y19685000D03*
X43815000Y22225000D03*
X43815000Y19685000D03*
X41275000Y22225000D03*
X41275000Y19685000D03*
X38735000Y22225000D03*
X38735000Y19685000D03*
X36195000Y22225000D03*
X36195000Y19685000D03*
X33655000Y22225000D03*
X33655000Y19685000D03*
X31115000Y22225000D03*
X31115000Y19685000D03*
X28575000Y22225000D03*
X28575000Y19685000D03*
X26035000Y22225000D03*
X26035000Y19685000D03*
X23495000Y22225000D03*
X23495000Y19685000D03*
X20955000Y22225000D03*
X20955000Y19685000D03*
X18415000Y22225000D03*
X18415000Y19685000D03*
X15875000Y22225000D03*
X15875000Y19685000D03*
X13335000Y22225000D03*
X13335000Y19685000D03*
X10795000Y22225000D03*
X10795000Y19685000D03*
D12*
X71755000Y47625000D03*
D13*
X69215000Y47625000D03*
X66675000Y47625000D03*
X64135000Y47625000D03*
X61595000Y47625000D03*
X59055000Y47625000D03*
X56515000Y47625000D03*
X53975000Y47625000D03*
X51435000Y47625000D03*
D12*
X51435000Y42545000D03*
D13*
X53975000Y42545000D03*
X56515000Y42545000D03*
X59055000Y42545000D03*
X61595000Y42545000D03*
X64135000Y42545000D03*
X66675000Y42545000D03*
X69215000Y42545000D03*
X71755000Y42545000D03*
X84455000Y20955000D03*
X81955000Y20955000D03*
D14*
X89535000Y20955000D03*
X88035000Y20955000D03*
D12*
X28575000Y47625000D03*
D13*
X26035000Y47625000D03*
X23495000Y47625000D03*
X20955000Y47625000D03*
X18415000Y47625000D03*
X15875000Y47625000D03*
X13335000Y47625000D03*
X10795000Y47625000D03*
X8255000Y47625000D03*
X79375000Y47625000D03*
X79375000Y40005000D03*
D15*
X84455000Y43815000D03*
D11*
X84455000Y46355000D03*
X86995000Y43815000D03*
X86995000Y46355000D03*
X89535000Y43815000D03*
X89535000Y46355000D03*
D12*
X8255000Y42545000D03*
D13*
X10795000Y42545000D03*
X13335000Y42545000D03*
X15875000Y42545000D03*
X18415000Y42545000D03*
X20955000Y42545000D03*
X23495000Y42545000D03*
X26035000Y42545000D03*
X28575000Y42545000D03*
D12*
X34925000Y42545000D03*
D13*
X37465000Y42545000D03*
X40005000Y42545000D03*
X42545000Y42545000D03*
X45085000Y42545000D03*
X94615000Y46355000D03*
X94615000Y38735000D03*
D15*
X33655000Y2540000D03*
D11*
X36195000Y2540000D03*
X38735000Y2540000D03*
X41275000Y2540000D03*
X43815000Y2540000D03*
X46355000Y2540000D03*
X48895000Y2540000D03*
X51435000Y2540000D03*
X53975000Y2540000D03*
X56515000Y2540000D03*
X59055000Y2540000D03*
X61595000Y2540000D03*
D16*
X75565000Y40005000D03*
D17*
X75565000Y47625000D03*
D12*
X45085000Y47625000D03*
D13*
X42545000Y47625000D03*
X40005000Y47625000D03*
X37465000Y47625000D03*
X34925000Y47625000D03*
D18*
X5165000Y10495000D03*
X95165000Y10495000D03*
D19*
X89535000Y8255000D03*
D20*
X86995000Y8255000D03*
X84455000Y8255000D03*
X81915000Y8255000D03*
X79375000Y8255000D03*
X76835000Y8255000D03*
X74295000Y8255000D03*
X71755000Y8255000D03*
X69215000Y8255000D03*
X66675000Y8255000D03*
X64135000Y8255000D03*
X61595000Y8255000D03*
X59055000Y8255000D03*
X56515000Y8255000D03*
X53975000Y8255000D03*
X51435000Y8255000D03*
X48895000Y8255000D03*
X46355000Y8255000D03*
X43815000Y8255000D03*
X41275000Y8255000D03*
X38735000Y8255000D03*
X36195000Y8255000D03*
X33655000Y8255000D03*
X31115000Y8255000D03*
X28575000Y8255000D03*
X26035000Y8255000D03*
X23495000Y8255000D03*
X20955000Y8255000D03*
X18415000Y8255000D03*
X15875000Y8255000D03*
X13335000Y8255000D03*
X10795000Y8255000D03*
X89535000Y10795000D03*
X86995000Y10795000D03*
X84455000Y10795000D03*
X81915000Y10795000D03*
X79375000Y10795000D03*
X76835000Y10795000D03*
X74295000Y10795000D03*
X71755000Y10795000D03*
X69215000Y10795000D03*
X66675000Y10795000D03*
X64135000Y10795000D03*
X61595000Y10795000D03*
X59055000Y10795000D03*
X56515000Y10795000D03*
X53975000Y10795000D03*
X51435000Y10795000D03*
X48895000Y10795000D03*
X46355000Y10795000D03*
X43815000Y10795000D03*
X41275000Y10795000D03*
X38735000Y10795000D03*
X36195000Y10795000D03*
X33655000Y10795000D03*
X31115000Y10795000D03*
X28575000Y10795000D03*
X26035000Y10795000D03*
X23495000Y10795000D03*
X20955000Y10795000D03*
X18415000Y10795000D03*
X15875000Y10795000D03*
X13335000Y10795000D03*
X10795000Y10795000D03*
X89535000Y13335000D03*
X86995000Y13335000D03*
X84455000Y13335000D03*
X81915000Y13335000D03*
X79375000Y13335000D03*
X76835000Y13335000D03*
X74295000Y13335000D03*
X71755000Y13335000D03*
X69215000Y13335000D03*
X66675000Y13335000D03*
X64135000Y13335000D03*
X61595000Y13335000D03*
X59055000Y13335000D03*
X56515000Y13335000D03*
X53975000Y13335000D03*
X51435000Y13335000D03*
X48895000Y13335000D03*
X46355000Y13335000D03*
X43815000Y13335000D03*
X41275000Y13335000D03*
X38735000Y13335000D03*
X36195000Y13335000D03*
X33655000Y13335000D03*
X31115000Y13335000D03*
X28575000Y13335000D03*
X26035000Y13335000D03*
X23495000Y13335000D03*
X20955000Y13335000D03*
X18415000Y13335000D03*
X15875000Y13335000D03*
X13335000Y13335000D03*
X10795000Y13335000D03*
D18*
X5165000Y30815000D03*
X95165000Y30815000D03*
D19*
X89535000Y28575000D03*
D20*
X86995000Y28575000D03*
X84455000Y28575000D03*
X81915000Y28575000D03*
X79375000Y28575000D03*
X76835000Y28575000D03*
X74295000Y28575000D03*
X71755000Y28575000D03*
X69215000Y28575000D03*
X66675000Y28575000D03*
X64135000Y28575000D03*
X61595000Y28575000D03*
X59055000Y28575000D03*
X56515000Y28575000D03*
X53975000Y28575000D03*
X51435000Y28575000D03*
X48895000Y28575000D03*
X46355000Y28575000D03*
X43815000Y28575000D03*
X41275000Y28575000D03*
X38735000Y28575000D03*
X36195000Y28575000D03*
X33655000Y28575000D03*
X31115000Y28575000D03*
X28575000Y28575000D03*
X26035000Y28575000D03*
X23495000Y28575000D03*
X20955000Y28575000D03*
X18415000Y28575000D03*
X15875000Y28575000D03*
X13335000Y28575000D03*
X10795000Y28575000D03*
X89535000Y31115000D03*
X86995000Y31115000D03*
X84455000Y31115000D03*
X81915000Y31115000D03*
X79375000Y31115000D03*
X76835000Y31115000D03*
X74295000Y31115000D03*
X71755000Y31115000D03*
X69215000Y31115000D03*
X66675000Y31115000D03*
X64135000Y31115000D03*
X61595000Y31115000D03*
X59055000Y31115000D03*
X56515000Y31115000D03*
X53975000Y31115000D03*
X51435000Y31115000D03*
X48895000Y31115000D03*
X46355000Y31115000D03*
X43815000Y31115000D03*
X41275000Y31115000D03*
X38735000Y31115000D03*
X36195000Y31115000D03*
X33655000Y31115000D03*
X31115000Y31115000D03*
X28575000Y31115000D03*
X26035000Y31115000D03*
X23495000Y31115000D03*
X20955000Y31115000D03*
X18415000Y31115000D03*
X15875000Y31115000D03*
X13335000Y31115000D03*
X10795000Y31115000D03*
X89535000Y33655000D03*
X86995000Y33655000D03*
X84455000Y33655000D03*
X81915000Y33655000D03*
X79375000Y33655000D03*
X76835000Y33655000D03*
X74295000Y33655000D03*
X71755000Y33655000D03*
X69215000Y33655000D03*
X66675000Y33655000D03*
X64135000Y33655000D03*
X61595000Y33655000D03*
X59055000Y33655000D03*
X56515000Y33655000D03*
X53975000Y33655000D03*
X51435000Y33655000D03*
X48895000Y33655000D03*
X46355000Y33655000D03*
X43815000Y33655000D03*
X41275000Y33655000D03*
X38735000Y33655000D03*
X36195000Y33655000D03*
X33655000Y33655000D03*
X31115000Y33655000D03*
X28575000Y33655000D03*
X26035000Y33655000D03*
X23495000Y33655000D03*
X20955000Y33655000D03*
X18415000Y33655000D03*
X15875000Y33655000D03*
X13335000Y33655000D03*
X10795000Y33655000D03*
M02*
