G04 #@! TF.GenerationSoftware,KiCad,Pcbnew,10.0.4-10.0.4~ubuntu22.04.1*
G04 #@! TF.CreationDate,2026-07-11T10:55:15+09:00*
G04 #@! TF.ProjectId,VME_axpvme230_p2_dual,564d455f-6178-4707-966d-653233305f70,0.1*
G04 #@! TF.SameCoordinates,PX4a62f80PY6f130f0*
G04 #@! TF.FileFunction,Legend,Top*
G04 #@! TF.FilePolarity,Positive*
%FSLAX46Y46*%
G04 Gerber Fmt 4.6, Leading zero omitted, Abs format (unit mm)*
G04 Created by KiCad (PCBNEW 10.0.4-10.0.4~ubuntu22.04.1) date 2026-07-11 10:55:15*
%MOMM*%
%LPD*%
G01*
G04 APERTURE LIST*
%ADD10C,0.125000*%
%ADD11C,0.150000*%
%ADD12C,0.300000*%
%ADD13C,0.120000*%
G04 APERTURE END LIST*
D10*
X34148880Y5553479D02*
X34148880Y6029669D01*
X34148880Y6029669D02*
X33672690Y6077288D01*
X33672690Y6077288D02*
X33720309Y6029669D01*
X33720309Y6029669D02*
X33767928Y5934431D01*
X33767928Y5934431D02*
X33767928Y5696336D01*
X33767928Y5696336D02*
X33720309Y5601098D01*
X33720309Y5601098D02*
X33672690Y5553479D01*
X33672690Y5553479D02*
X33577452Y5505860D01*
X33577452Y5505860D02*
X33339357Y5505860D01*
X33339357Y5505860D02*
X33244119Y5553479D01*
X33244119Y5553479D02*
X33196500Y5601098D01*
X33196500Y5601098D02*
X33148880Y5696336D01*
X33148880Y5696336D02*
X33148880Y5934431D01*
X33148880Y5934431D02*
X33196500Y6029669D01*
X33196500Y6029669D02*
X33244119Y6077288D01*
X34148880Y5220145D02*
X33148880Y4886812D01*
X33148880Y4886812D02*
X34148880Y4553479D01*
X35736500Y6077288D02*
X35688880Y5934431D01*
X35688880Y5934431D02*
X35688880Y5696336D01*
X35688880Y5696336D02*
X35736500Y5601098D01*
X35736500Y5601098D02*
X35784119Y5553479D01*
X35784119Y5553479D02*
X35879357Y5505860D01*
X35879357Y5505860D02*
X35974595Y5505860D01*
X35974595Y5505860D02*
X36069833Y5553479D01*
X36069833Y5553479D02*
X36117452Y5601098D01*
X36117452Y5601098D02*
X36165071Y5696336D01*
X36165071Y5696336D02*
X36212690Y5886812D01*
X36212690Y5886812D02*
X36260309Y5982050D01*
X36260309Y5982050D02*
X36307928Y6029669D01*
X36307928Y6029669D02*
X36403166Y6077288D01*
X36403166Y6077288D02*
X36498404Y6077288D01*
X36498404Y6077288D02*
X36593642Y6029669D01*
X36593642Y6029669D02*
X36641261Y5982050D01*
X36641261Y5982050D02*
X36688880Y5886812D01*
X36688880Y5886812D02*
X36688880Y5648717D01*
X36688880Y5648717D02*
X36641261Y5505860D01*
X35688880Y5077288D02*
X36688880Y5077288D01*
X36688880Y5077288D02*
X36688880Y4839193D01*
X36688880Y4839193D02*
X36641261Y4696336D01*
X36641261Y4696336D02*
X36546023Y4601098D01*
X36546023Y4601098D02*
X36450785Y4553479D01*
X36450785Y4553479D02*
X36260309Y4505860D01*
X36260309Y4505860D02*
X36117452Y4505860D01*
X36117452Y4505860D02*
X35926976Y4553479D01*
X35926976Y4553479D02*
X35831738Y4601098D01*
X35831738Y4601098D02*
X35736500Y4696336D01*
X35736500Y4696336D02*
X35688880Y4839193D01*
X35688880Y4839193D02*
X35688880Y5077288D01*
X38228880Y5458241D02*
X38705071Y5791574D01*
X38228880Y6029669D02*
X39228880Y6029669D01*
X39228880Y6029669D02*
X39228880Y5648717D01*
X39228880Y5648717D02*
X39181261Y5553479D01*
X39181261Y5553479D02*
X39133642Y5505860D01*
X39133642Y5505860D02*
X39038404Y5458241D01*
X39038404Y5458241D02*
X38895547Y5458241D01*
X38895547Y5458241D02*
X38800309Y5505860D01*
X38800309Y5505860D02*
X38752690Y5553479D01*
X38752690Y5553479D02*
X38705071Y5648717D01*
X38705071Y5648717D02*
X38705071Y6029669D01*
X38228880Y5029669D02*
X39228880Y5029669D01*
X39228880Y5029669D02*
X39228880Y4791574D01*
X39228880Y4791574D02*
X39181261Y4648717D01*
X39181261Y4648717D02*
X39086023Y4553479D01*
X39086023Y4553479D02*
X38990785Y4505860D01*
X38990785Y4505860D02*
X38800309Y4458241D01*
X38800309Y4458241D02*
X38657452Y4458241D01*
X38657452Y4458241D02*
X38466976Y4505860D01*
X38466976Y4505860D02*
X38371738Y4553479D01*
X38371738Y4553479D02*
X38276500Y4648717D01*
X38276500Y4648717D02*
X38228880Y4791574D01*
X38228880Y4791574D02*
X38228880Y5029669D01*
X41768880Y6172526D02*
X41768880Y5601098D01*
X40768880Y5886812D02*
X41768880Y5886812D01*
X40768880Y5267764D02*
X41768880Y5267764D01*
X41768880Y5267764D02*
X41768880Y5029669D01*
X41768880Y5029669D02*
X41721261Y4886812D01*
X41721261Y4886812D02*
X41626023Y4791574D01*
X41626023Y4791574D02*
X41530785Y4743955D01*
X41530785Y4743955D02*
X41340309Y4696336D01*
X41340309Y4696336D02*
X41197452Y4696336D01*
X41197452Y4696336D02*
X41006976Y4743955D01*
X41006976Y4743955D02*
X40911738Y4791574D01*
X40911738Y4791574D02*
X40816500Y4886812D01*
X40816500Y4886812D02*
X40768880Y5029669D01*
X40768880Y5029669D02*
X40768880Y5267764D01*
X43308880Y6029669D02*
X44308880Y6029669D01*
X44308880Y6029669D02*
X44308880Y5648717D01*
X44308880Y5648717D02*
X44261261Y5553479D01*
X44261261Y5553479D02*
X44213642Y5505860D01*
X44213642Y5505860D02*
X44118404Y5458241D01*
X44118404Y5458241D02*
X43975547Y5458241D01*
X43975547Y5458241D02*
X43880309Y5505860D01*
X43880309Y5505860D02*
X43832690Y5553479D01*
X43832690Y5553479D02*
X43785071Y5648717D01*
X43785071Y5648717D02*
X43785071Y6029669D01*
X43832690Y5029669D02*
X43832690Y4696336D01*
X43308880Y4553479D02*
X43308880Y5029669D01*
X43308880Y5029669D02*
X44308880Y5029669D01*
X44308880Y5029669D02*
X44308880Y4553479D01*
X45848880Y6029669D02*
X46848880Y6029669D01*
X46848880Y6029669D02*
X46134595Y5696336D01*
X46134595Y5696336D02*
X46848880Y5363003D01*
X46848880Y5363003D02*
X45848880Y5363003D01*
X46515547Y4886812D02*
X45658404Y4886812D01*
X45658404Y4886812D02*
X45563166Y4934431D01*
X45563166Y4934431D02*
X45515547Y5029669D01*
X45515547Y5029669D02*
X45515547Y5077288D01*
X46848880Y4886812D02*
X46801261Y4934431D01*
X46801261Y4934431D02*
X46753642Y4886812D01*
X46753642Y4886812D02*
X46801261Y4839193D01*
X46801261Y4839193D02*
X46848880Y4886812D01*
X46848880Y4886812D02*
X46753642Y4886812D01*
X48388880Y6029669D02*
X49388880Y6029669D01*
X49388880Y6029669D02*
X48674595Y5696336D01*
X48674595Y5696336D02*
X49388880Y5363003D01*
X49388880Y5363003D02*
X48388880Y5363003D01*
X49055547Y4886812D02*
X48388880Y4886812D01*
X48960309Y4886812D02*
X49007928Y4839193D01*
X49007928Y4839193D02*
X49055547Y4743955D01*
X49055547Y4743955D02*
X49055547Y4601098D01*
X49055547Y4601098D02*
X49007928Y4505860D01*
X49007928Y4505860D02*
X48912690Y4458241D01*
X48912690Y4458241D02*
X48388880Y4458241D01*
X51928880Y6172526D02*
X51928880Y5601098D01*
X50928880Y5886812D02*
X51928880Y5886812D01*
X50928880Y4743955D02*
X50928880Y5315383D01*
X50928880Y5029669D02*
X51928880Y5029669D01*
X51928880Y5029669D02*
X51786023Y5124907D01*
X51786023Y5124907D02*
X51690785Y5220145D01*
X51690785Y5220145D02*
X51643166Y5315383D01*
X54468880Y6172526D02*
X54468880Y5601098D01*
X53468880Y5886812D02*
X54468880Y5886812D01*
X54373642Y5315383D02*
X54421261Y5267764D01*
X54421261Y5267764D02*
X54468880Y5172526D01*
X54468880Y5172526D02*
X54468880Y4934431D01*
X54468880Y4934431D02*
X54421261Y4839193D01*
X54421261Y4839193D02*
X54373642Y4791574D01*
X54373642Y4791574D02*
X54278404Y4743955D01*
X54278404Y4743955D02*
X54183166Y4743955D01*
X54183166Y4743955D02*
X54040309Y4791574D01*
X54040309Y4791574D02*
X53468880Y5363002D01*
X53468880Y5363002D02*
X53468880Y4743955D01*
X56008880Y5458241D02*
X56485071Y5791574D01*
X56008880Y6029669D02*
X57008880Y6029669D01*
X57008880Y6029669D02*
X57008880Y5648717D01*
X57008880Y5648717D02*
X56961261Y5553479D01*
X56961261Y5553479D02*
X56913642Y5505860D01*
X56913642Y5505860D02*
X56818404Y5458241D01*
X56818404Y5458241D02*
X56675547Y5458241D01*
X56675547Y5458241D02*
X56580309Y5505860D01*
X56580309Y5505860D02*
X56532690Y5553479D01*
X56532690Y5553479D02*
X56485071Y5648717D01*
X56485071Y5648717D02*
X56485071Y6029669D01*
X56056500Y5077288D02*
X56008880Y4934431D01*
X56008880Y4934431D02*
X56008880Y4696336D01*
X56008880Y4696336D02*
X56056500Y4601098D01*
X56056500Y4601098D02*
X56104119Y4553479D01*
X56104119Y4553479D02*
X56199357Y4505860D01*
X56199357Y4505860D02*
X56294595Y4505860D01*
X56294595Y4505860D02*
X56389833Y4553479D01*
X56389833Y4553479D02*
X56437452Y4601098D01*
X56437452Y4601098D02*
X56485071Y4696336D01*
X56485071Y4696336D02*
X56532690Y4886812D01*
X56532690Y4886812D02*
X56580309Y4982050D01*
X56580309Y4982050D02*
X56627928Y5029669D01*
X56627928Y5029669D02*
X56723166Y5077288D01*
X56723166Y5077288D02*
X56818404Y5077288D01*
X56818404Y5077288D02*
X56913642Y5029669D01*
X56913642Y5029669D02*
X56961261Y4982050D01*
X56961261Y4982050D02*
X57008880Y4886812D01*
X57008880Y4886812D02*
X57008880Y4648717D01*
X57008880Y4648717D02*
X56961261Y4505860D01*
X59548880Y6124907D02*
X58548880Y5886812D01*
X58548880Y5886812D02*
X59263166Y5696336D01*
X59263166Y5696336D02*
X58548880Y5505860D01*
X58548880Y5505860D02*
X59548880Y5267764D01*
X58548880Y4886812D02*
X59548880Y4886812D01*
X59548880Y4886812D02*
X59548880Y4648717D01*
X59548880Y4648717D02*
X59501261Y4505860D01*
X59501261Y4505860D02*
X59406023Y4410622D01*
X59406023Y4410622D02*
X59310785Y4363003D01*
X59310785Y4363003D02*
X59120309Y4315384D01*
X59120309Y4315384D02*
X58977452Y4315384D01*
X58977452Y4315384D02*
X58786976Y4363003D01*
X58786976Y4363003D02*
X58691738Y4410622D01*
X58691738Y4410622D02*
X58596500Y4505860D01*
X58596500Y4505860D02*
X58548880Y4648717D01*
X58548880Y4648717D02*
X58548880Y4886812D01*
X62041261Y5505860D02*
X62088880Y5601098D01*
X62088880Y5601098D02*
X62088880Y5743955D01*
X62088880Y5743955D02*
X62041261Y5886812D01*
X62041261Y5886812D02*
X61946023Y5982050D01*
X61946023Y5982050D02*
X61850785Y6029669D01*
X61850785Y6029669D02*
X61660309Y6077288D01*
X61660309Y6077288D02*
X61517452Y6077288D01*
X61517452Y6077288D02*
X61326976Y6029669D01*
X61326976Y6029669D02*
X61231738Y5982050D01*
X61231738Y5982050D02*
X61136500Y5886812D01*
X61136500Y5886812D02*
X61088880Y5743955D01*
X61088880Y5743955D02*
X61088880Y5648717D01*
X61088880Y5648717D02*
X61136500Y5505860D01*
X61136500Y5505860D02*
X61184119Y5458241D01*
X61184119Y5458241D02*
X61517452Y5458241D01*
X61517452Y5458241D02*
X61517452Y5648717D01*
X61088880Y5029669D02*
X62088880Y5029669D01*
X62088880Y5029669D02*
X62088880Y4791574D01*
X62088880Y4791574D02*
X62041261Y4648717D01*
X62041261Y4648717D02*
X61946023Y4553479D01*
X61946023Y4553479D02*
X61850785Y4505860D01*
X61850785Y4505860D02*
X61660309Y4458241D01*
X61660309Y4458241D02*
X61517452Y4458241D01*
X61517452Y4458241D02*
X61326976Y4505860D01*
X61326976Y4505860D02*
X61231738Y4553479D01*
X61231738Y4553479D02*
X61136500Y4648717D01*
X61136500Y4648717D02*
X61088880Y4791574D01*
X61088880Y4791574D02*
X61088880Y5029669D01*
D11*
X90468220Y18538867D02*
X89706316Y18538867D01*
X90087268Y18919820D02*
X90087268Y18157915D01*
X84147255Y49310372D02*
X84204398Y49367515D01*
X84204398Y49367515D02*
X84318684Y49424658D01*
X84318684Y49424658D02*
X84604398Y49424658D01*
X84604398Y49424658D02*
X84718684Y49367515D01*
X84718684Y49367515D02*
X84775826Y49310372D01*
X84775826Y49310372D02*
X84832969Y49196086D01*
X84832969Y49196086D02*
X84832969Y49081800D01*
X84832969Y49081800D02*
X84775826Y48910372D01*
X84775826Y48910372D02*
X84090112Y48224658D01*
X84090112Y48224658D02*
X84832969Y48224658D01*
X84832969Y40794658D02*
X84147255Y40794658D01*
X84490112Y40794658D02*
X84490112Y41994658D01*
X84490112Y41994658D02*
X84375826Y41823229D01*
X84375826Y41823229D02*
X84261541Y41708943D01*
X84261541Y41708943D02*
X84147255Y41651800D01*
X87258684Y49024658D02*
X87258684Y48224658D01*
X86972969Y49481800D02*
X86687255Y48624658D01*
X86687255Y48624658D02*
X87430112Y48624658D01*
X86630112Y41994658D02*
X87372969Y41994658D01*
X87372969Y41994658D02*
X86972969Y41537515D01*
X86972969Y41537515D02*
X87144398Y41537515D01*
X87144398Y41537515D02*
X87258684Y41480372D01*
X87258684Y41480372D02*
X87315826Y41423229D01*
X87315826Y41423229D02*
X87372969Y41308943D01*
X87372969Y41308943D02*
X87372969Y41023229D01*
X87372969Y41023229D02*
X87315826Y40908943D01*
X87315826Y40908943D02*
X87258684Y40851800D01*
X87258684Y40851800D02*
X87144398Y40794658D01*
X87144398Y40794658D02*
X86801541Y40794658D01*
X86801541Y40794658D02*
X86687255Y40851800D01*
X86687255Y40851800D02*
X86630112Y40908943D01*
X89798684Y49424658D02*
X89570112Y49424658D01*
X89570112Y49424658D02*
X89455826Y49367515D01*
X89455826Y49367515D02*
X89398684Y49310372D01*
X89398684Y49310372D02*
X89284398Y49138943D01*
X89284398Y49138943D02*
X89227255Y48910372D01*
X89227255Y48910372D02*
X89227255Y48453229D01*
X89227255Y48453229D02*
X89284398Y48338943D01*
X89284398Y48338943D02*
X89341541Y48281800D01*
X89341541Y48281800D02*
X89455826Y48224658D01*
X89455826Y48224658D02*
X89684398Y48224658D01*
X89684398Y48224658D02*
X89798684Y48281800D01*
X89798684Y48281800D02*
X89855826Y48338943D01*
X89855826Y48338943D02*
X89912969Y48453229D01*
X89912969Y48453229D02*
X89912969Y48738943D01*
X89912969Y48738943D02*
X89855826Y48853229D01*
X89855826Y48853229D02*
X89798684Y48910372D01*
X89798684Y48910372D02*
X89684398Y48967515D01*
X89684398Y48967515D02*
X89455826Y48967515D01*
X89455826Y48967515D02*
X89341541Y48910372D01*
X89341541Y48910372D02*
X89284398Y48853229D01*
X89284398Y48853229D02*
X89227255Y48738943D01*
X89855826Y41994658D02*
X89284398Y41994658D01*
X89284398Y41994658D02*
X89227255Y41423229D01*
X89227255Y41423229D02*
X89284398Y41480372D01*
X89284398Y41480372D02*
X89398684Y41537515D01*
X89398684Y41537515D02*
X89684398Y41537515D01*
X89684398Y41537515D02*
X89798684Y41480372D01*
X89798684Y41480372D02*
X89855826Y41423229D01*
X89855826Y41423229D02*
X89912969Y41308943D01*
X89912969Y41308943D02*
X89912969Y41023229D01*
X89912969Y41023229D02*
X89855826Y40908943D01*
X89855826Y40908943D02*
X89798684Y40851800D01*
X89798684Y40851800D02*
X89684398Y40794658D01*
X89684398Y40794658D02*
X89398684Y40794658D01*
X89398684Y40794658D02*
X89284398Y40851800D01*
X89284398Y40851800D02*
X89227255Y40908943D01*
D12*
X3036431Y37457743D02*
X3750717Y37457743D01*
X2893574Y37029172D02*
X3393574Y38529172D01*
X3393574Y38529172D02*
X3893574Y37029172D01*
X4250716Y38529172D02*
X5250716Y37029172D01*
X5250716Y38529172D02*
X4250716Y37029172D01*
X5822144Y37029172D02*
X5822144Y38529172D01*
X5822144Y38529172D02*
X6393573Y38529172D01*
X6393573Y38529172D02*
X6536430Y38457743D01*
X6536430Y38457743D02*
X6607859Y38386315D01*
X6607859Y38386315D02*
X6679287Y38243458D01*
X6679287Y38243458D02*
X6679287Y38029172D01*
X6679287Y38029172D02*
X6607859Y37886315D01*
X6607859Y37886315D02*
X6536430Y37814886D01*
X6536430Y37814886D02*
X6393573Y37743458D01*
X6393573Y37743458D02*
X5822144Y37743458D01*
X7179287Y38029172D02*
X7536430Y37029172D01*
X7536430Y37029172D02*
X7893573Y38029172D01*
X8465001Y37029172D02*
X8465001Y38029172D01*
X8465001Y37886315D02*
X8536430Y37957743D01*
X8536430Y37957743D02*
X8679287Y38029172D01*
X8679287Y38029172D02*
X8893573Y38029172D01*
X8893573Y38029172D02*
X9036430Y37957743D01*
X9036430Y37957743D02*
X9107859Y37814886D01*
X9107859Y37814886D02*
X9107859Y37029172D01*
X9107859Y37814886D02*
X9179287Y37957743D01*
X9179287Y37957743D02*
X9322144Y38029172D01*
X9322144Y38029172D02*
X9536430Y38029172D01*
X9536430Y38029172D02*
X9679287Y37957743D01*
X9679287Y37957743D02*
X9750716Y37814886D01*
X9750716Y37814886D02*
X9750716Y37029172D01*
X11036430Y37100600D02*
X10893573Y37029172D01*
X10893573Y37029172D02*
X10607859Y37029172D01*
X10607859Y37029172D02*
X10465001Y37100600D01*
X10465001Y37100600D02*
X10393573Y37243458D01*
X10393573Y37243458D02*
X10393573Y37814886D01*
X10393573Y37814886D02*
X10465001Y37957743D01*
X10465001Y37957743D02*
X10607859Y38029172D01*
X10607859Y38029172D02*
X10893573Y38029172D01*
X10893573Y38029172D02*
X11036430Y37957743D01*
X11036430Y37957743D02*
X11107859Y37814886D01*
X11107859Y37814886D02*
X11107859Y37672029D01*
X11107859Y37672029D02*
X10393573Y37529172D01*
X12893572Y37029172D02*
X12893572Y38529172D01*
X12893572Y38529172D02*
X13250715Y38529172D01*
X13250715Y38529172D02*
X13465001Y38457743D01*
X13465001Y38457743D02*
X13607858Y38314886D01*
X13607858Y38314886D02*
X13679287Y38172029D01*
X13679287Y38172029D02*
X13750715Y37886315D01*
X13750715Y37886315D02*
X13750715Y37672029D01*
X13750715Y37672029D02*
X13679287Y37386315D01*
X13679287Y37386315D02*
X13607858Y37243458D01*
X13607858Y37243458D02*
X13465001Y37100600D01*
X13465001Y37100600D02*
X13250715Y37029172D01*
X13250715Y37029172D02*
X12893572Y37029172D01*
X15036430Y38029172D02*
X15036430Y37029172D01*
X14393572Y38029172D02*
X14393572Y37243458D01*
X14393572Y37243458D02*
X14465001Y37100600D01*
X14465001Y37100600D02*
X14607858Y37029172D01*
X14607858Y37029172D02*
X14822144Y37029172D01*
X14822144Y37029172D02*
X14965001Y37100600D01*
X14965001Y37100600D02*
X15036430Y37172029D01*
X16393573Y37029172D02*
X16393573Y37814886D01*
X16393573Y37814886D02*
X16322144Y37957743D01*
X16322144Y37957743D02*
X16179287Y38029172D01*
X16179287Y38029172D02*
X15893573Y38029172D01*
X15893573Y38029172D02*
X15750715Y37957743D01*
X16393573Y37100600D02*
X16250715Y37029172D01*
X16250715Y37029172D02*
X15893573Y37029172D01*
X15893573Y37029172D02*
X15750715Y37100600D01*
X15750715Y37100600D02*
X15679287Y37243458D01*
X15679287Y37243458D02*
X15679287Y37386315D01*
X15679287Y37386315D02*
X15750715Y37529172D01*
X15750715Y37529172D02*
X15893573Y37600600D01*
X15893573Y37600600D02*
X16250715Y37600600D01*
X16250715Y37600600D02*
X16393573Y37672029D01*
X17322144Y37029172D02*
X17179287Y37100600D01*
X17179287Y37100600D02*
X17107858Y37243458D01*
X17107858Y37243458D02*
X17107858Y38529172D01*
X18965001Y37100600D02*
X19179287Y37029172D01*
X19179287Y37029172D02*
X19536429Y37029172D01*
X19536429Y37029172D02*
X19679287Y37100600D01*
X19679287Y37100600D02*
X19750715Y37172029D01*
X19750715Y37172029D02*
X19822144Y37314886D01*
X19822144Y37314886D02*
X19822144Y37457743D01*
X19822144Y37457743D02*
X19750715Y37600600D01*
X19750715Y37600600D02*
X19679287Y37672029D01*
X19679287Y37672029D02*
X19536429Y37743458D01*
X19536429Y37743458D02*
X19250715Y37814886D01*
X19250715Y37814886D02*
X19107858Y37886315D01*
X19107858Y37886315D02*
X19036429Y37957743D01*
X19036429Y37957743D02*
X18965001Y38100600D01*
X18965001Y38100600D02*
X18965001Y38243458D01*
X18965001Y38243458D02*
X19036429Y38386315D01*
X19036429Y38386315D02*
X19107858Y38457743D01*
X19107858Y38457743D02*
X19250715Y38529172D01*
X19250715Y38529172D02*
X19607858Y38529172D01*
X19607858Y38529172D02*
X19822144Y38457743D01*
X20679286Y37029172D02*
X20536429Y37100600D01*
X20536429Y37100600D02*
X20465000Y37243458D01*
X20465000Y37243458D02*
X20465000Y38529172D01*
X21465000Y37029172D02*
X21322143Y37100600D01*
X21322143Y37100600D02*
X21250714Y37172029D01*
X21250714Y37172029D02*
X21179286Y37314886D01*
X21179286Y37314886D02*
X21179286Y37743458D01*
X21179286Y37743458D02*
X21250714Y37886315D01*
X21250714Y37886315D02*
X21322143Y37957743D01*
X21322143Y37957743D02*
X21465000Y38029172D01*
X21465000Y38029172D02*
X21679286Y38029172D01*
X21679286Y38029172D02*
X21822143Y37957743D01*
X21822143Y37957743D02*
X21893572Y37886315D01*
X21893572Y37886315D02*
X21965000Y37743458D01*
X21965000Y37743458D02*
X21965000Y37314886D01*
X21965000Y37314886D02*
X21893572Y37172029D01*
X21893572Y37172029D02*
X21822143Y37100600D01*
X21822143Y37100600D02*
X21679286Y37029172D01*
X21679286Y37029172D02*
X21465000Y37029172D01*
X22393572Y38029172D02*
X22965000Y38029172D01*
X22607857Y38529172D02*
X22607857Y37243458D01*
X22607857Y37243458D02*
X22679286Y37100600D01*
X22679286Y37100600D02*
X22822143Y37029172D01*
X22822143Y37029172D02*
X22965000Y37029172D01*
X25107857Y37814886D02*
X25322143Y37743458D01*
X25322143Y37743458D02*
X25393572Y37672029D01*
X25393572Y37672029D02*
X25465000Y37529172D01*
X25465000Y37529172D02*
X25465000Y37314886D01*
X25465000Y37314886D02*
X25393572Y37172029D01*
X25393572Y37172029D02*
X25322143Y37100600D01*
X25322143Y37100600D02*
X25179286Y37029172D01*
X25179286Y37029172D02*
X24607857Y37029172D01*
X24607857Y37029172D02*
X24607857Y38529172D01*
X24607857Y38529172D02*
X25107857Y38529172D01*
X25107857Y38529172D02*
X25250715Y38457743D01*
X25250715Y38457743D02*
X25322143Y38386315D01*
X25322143Y38386315D02*
X25393572Y38243458D01*
X25393572Y38243458D02*
X25393572Y38100600D01*
X25393572Y38100600D02*
X25322143Y37957743D01*
X25322143Y37957743D02*
X25250715Y37886315D01*
X25250715Y37886315D02*
X25107857Y37814886D01*
X25107857Y37814886D02*
X24607857Y37814886D01*
X26107857Y37029172D02*
X26107857Y38029172D01*
X26107857Y37743458D02*
X26179286Y37886315D01*
X26179286Y37886315D02*
X26250715Y37957743D01*
X26250715Y37957743D02*
X26393572Y38029172D01*
X26393572Y38029172D02*
X26536429Y38029172D01*
X27607857Y37100600D02*
X27465000Y37029172D01*
X27465000Y37029172D02*
X27179286Y37029172D01*
X27179286Y37029172D02*
X27036428Y37100600D01*
X27036428Y37100600D02*
X26965000Y37243458D01*
X26965000Y37243458D02*
X26965000Y37814886D01*
X26965000Y37814886D02*
X27036428Y37957743D01*
X27036428Y37957743D02*
X27179286Y38029172D01*
X27179286Y38029172D02*
X27465000Y38029172D01*
X27465000Y38029172D02*
X27607857Y37957743D01*
X27607857Y37957743D02*
X27679286Y37814886D01*
X27679286Y37814886D02*
X27679286Y37672029D01*
X27679286Y37672029D02*
X26965000Y37529172D01*
X28965000Y37029172D02*
X28965000Y37814886D01*
X28965000Y37814886D02*
X28893571Y37957743D01*
X28893571Y37957743D02*
X28750714Y38029172D01*
X28750714Y38029172D02*
X28465000Y38029172D01*
X28465000Y38029172D02*
X28322142Y37957743D01*
X28965000Y37100600D02*
X28822142Y37029172D01*
X28822142Y37029172D02*
X28465000Y37029172D01*
X28465000Y37029172D02*
X28322142Y37100600D01*
X28322142Y37100600D02*
X28250714Y37243458D01*
X28250714Y37243458D02*
X28250714Y37386315D01*
X28250714Y37386315D02*
X28322142Y37529172D01*
X28322142Y37529172D02*
X28465000Y37600600D01*
X28465000Y37600600D02*
X28822142Y37600600D01*
X28822142Y37600600D02*
X28965000Y37672029D01*
X29679285Y37029172D02*
X29679285Y38529172D01*
X29822143Y37600600D02*
X30250714Y37029172D01*
X30250714Y38029172D02*
X29679285Y37457743D01*
X31107857Y37029172D02*
X30965000Y37100600D01*
X30965000Y37100600D02*
X30893571Y37172029D01*
X30893571Y37172029D02*
X30822143Y37314886D01*
X30822143Y37314886D02*
X30822143Y37743458D01*
X30822143Y37743458D02*
X30893571Y37886315D01*
X30893571Y37886315D02*
X30965000Y37957743D01*
X30965000Y37957743D02*
X31107857Y38029172D01*
X31107857Y38029172D02*
X31322143Y38029172D01*
X31322143Y38029172D02*
X31465000Y37957743D01*
X31465000Y37957743D02*
X31536429Y37886315D01*
X31536429Y37886315D02*
X31607857Y37743458D01*
X31607857Y37743458D02*
X31607857Y37314886D01*
X31607857Y37314886D02*
X31536429Y37172029D01*
X31536429Y37172029D02*
X31465000Y37100600D01*
X31465000Y37100600D02*
X31322143Y37029172D01*
X31322143Y37029172D02*
X31107857Y37029172D01*
X32893572Y38029172D02*
X32893572Y37029172D01*
X32250714Y38029172D02*
X32250714Y37243458D01*
X32250714Y37243458D02*
X32322143Y37100600D01*
X32322143Y37100600D02*
X32465000Y37029172D01*
X32465000Y37029172D02*
X32679286Y37029172D01*
X32679286Y37029172D02*
X32822143Y37100600D01*
X32822143Y37100600D02*
X32893572Y37172029D01*
X33393572Y38029172D02*
X33965000Y38029172D01*
X33607857Y38529172D02*
X33607857Y37243458D01*
X33607857Y37243458D02*
X33679286Y37100600D01*
X33679286Y37100600D02*
X33822143Y37029172D01*
X33822143Y37029172D02*
X33965000Y37029172D01*
X36465000Y37029172D02*
X35965000Y37743458D01*
X35607857Y37029172D02*
X35607857Y38529172D01*
X35607857Y38529172D02*
X36179286Y38529172D01*
X36179286Y38529172D02*
X36322143Y38457743D01*
X36322143Y38457743D02*
X36393572Y38386315D01*
X36393572Y38386315D02*
X36465000Y38243458D01*
X36465000Y38243458D02*
X36465000Y38029172D01*
X36465000Y38029172D02*
X36393572Y37886315D01*
X36393572Y37886315D02*
X36322143Y37814886D01*
X36322143Y37814886D02*
X36179286Y37743458D01*
X36179286Y37743458D02*
X35607857Y37743458D01*
X37679286Y37100600D02*
X37536429Y37029172D01*
X37536429Y37029172D02*
X37250715Y37029172D01*
X37250715Y37029172D02*
X37107857Y37100600D01*
X37107857Y37100600D02*
X37036429Y37243458D01*
X37036429Y37243458D02*
X37036429Y37814886D01*
X37036429Y37814886D02*
X37107857Y37957743D01*
X37107857Y37957743D02*
X37250715Y38029172D01*
X37250715Y38029172D02*
X37536429Y38029172D01*
X37536429Y38029172D02*
X37679286Y37957743D01*
X37679286Y37957743D02*
X37750715Y37814886D01*
X37750715Y37814886D02*
X37750715Y37672029D01*
X37750715Y37672029D02*
X37036429Y37529172D01*
X38250714Y38029172D02*
X38607857Y37029172D01*
X38607857Y37029172D02*
X38965000Y38029172D01*
X39536428Y37172029D02*
X39607857Y37100600D01*
X39607857Y37100600D02*
X39536428Y37029172D01*
X39536428Y37029172D02*
X39465000Y37100600D01*
X39465000Y37100600D02*
X39536428Y37172029D01*
X39536428Y37172029D02*
X39536428Y37029172D01*
X40536429Y38529172D02*
X40679286Y38529172D01*
X40679286Y38529172D02*
X40822143Y38457743D01*
X40822143Y38457743D02*
X40893572Y38386315D01*
X40893572Y38386315D02*
X40965000Y38243458D01*
X40965000Y38243458D02*
X41036429Y37957743D01*
X41036429Y37957743D02*
X41036429Y37600600D01*
X41036429Y37600600D02*
X40965000Y37314886D01*
X40965000Y37314886D02*
X40893572Y37172029D01*
X40893572Y37172029D02*
X40822143Y37100600D01*
X40822143Y37100600D02*
X40679286Y37029172D01*
X40679286Y37029172D02*
X40536429Y37029172D01*
X40536429Y37029172D02*
X40393572Y37100600D01*
X40393572Y37100600D02*
X40322143Y37172029D01*
X40322143Y37172029D02*
X40250714Y37314886D01*
X40250714Y37314886D02*
X40179286Y37600600D01*
X40179286Y37600600D02*
X40179286Y37957743D01*
X40179286Y37957743D02*
X40250714Y38243458D01*
X40250714Y38243458D02*
X40322143Y38386315D01*
X40322143Y38386315D02*
X40393572Y38457743D01*
X40393572Y38457743D02*
X40536429Y38529172D01*
X41679285Y37172029D02*
X41750714Y37100600D01*
X41750714Y37100600D02*
X41679285Y37029172D01*
X41679285Y37029172D02*
X41607857Y37100600D01*
X41607857Y37100600D02*
X41679285Y37172029D01*
X41679285Y37172029D02*
X41679285Y37029172D01*
X43179286Y37029172D02*
X42322143Y37029172D01*
X42750714Y37029172D02*
X42750714Y38529172D01*
X42750714Y38529172D02*
X42607857Y38314886D01*
X42607857Y38314886D02*
X42465000Y38172029D01*
X42465000Y38172029D02*
X42322143Y38100600D01*
X45893571Y37743458D02*
X45822142Y37814886D01*
X45822142Y37814886D02*
X45679285Y37886315D01*
X45679285Y37886315D02*
X45536428Y37886315D01*
X45536428Y37886315D02*
X45393571Y37814886D01*
X45393571Y37814886D02*
X45322142Y37743458D01*
X45322142Y37743458D02*
X45250714Y37600600D01*
X45250714Y37600600D02*
X45250714Y37457743D01*
X45250714Y37457743D02*
X45322142Y37314886D01*
X45322142Y37314886D02*
X45393571Y37243458D01*
X45393571Y37243458D02*
X45536428Y37172029D01*
X45536428Y37172029D02*
X45679285Y37172029D01*
X45679285Y37172029D02*
X45822142Y37243458D01*
X45822142Y37243458D02*
X45893571Y37314886D01*
X45893571Y37886315D02*
X45893571Y37314886D01*
X45893571Y37314886D02*
X45964999Y37243458D01*
X45964999Y37243458D02*
X46036428Y37243458D01*
X46036428Y37243458D02*
X46179285Y37314886D01*
X46179285Y37314886D02*
X46250714Y37457743D01*
X46250714Y37457743D02*
X46250714Y37814886D01*
X46250714Y37814886D02*
X46107857Y38029172D01*
X46107857Y38029172D02*
X45893571Y38172029D01*
X45893571Y38172029D02*
X45607857Y38243458D01*
X45607857Y38243458D02*
X45322142Y38172029D01*
X45322142Y38172029D02*
X45107857Y38029172D01*
X45107857Y38029172D02*
X44964999Y37814886D01*
X44964999Y37814886D02*
X44893571Y37529172D01*
X44893571Y37529172D02*
X44964999Y37243458D01*
X44964999Y37243458D02*
X45107857Y37029172D01*
X45107857Y37029172D02*
X45322142Y36886315D01*
X45322142Y36886315D02*
X45607857Y36814886D01*
X45607857Y36814886D02*
X45893571Y36886315D01*
X45893571Y36886315D02*
X46107857Y37029172D01*
X46893570Y37029172D02*
X46893570Y38529172D01*
X47036428Y37600600D02*
X47464999Y37029172D01*
X47464999Y38029172D02*
X46893570Y37457743D01*
X48750714Y37029172D02*
X48750714Y37814886D01*
X48750714Y37814886D02*
X48679285Y37957743D01*
X48679285Y37957743D02*
X48536428Y38029172D01*
X48536428Y38029172D02*
X48250714Y38029172D01*
X48250714Y38029172D02*
X48107856Y37957743D01*
X48750714Y37100600D02*
X48607856Y37029172D01*
X48607856Y37029172D02*
X48250714Y37029172D01*
X48250714Y37029172D02*
X48107856Y37100600D01*
X48107856Y37100600D02*
X48036428Y37243458D01*
X48036428Y37243458D02*
X48036428Y37386315D01*
X48036428Y37386315D02*
X48107856Y37529172D01*
X48107856Y37529172D02*
X48250714Y37600600D01*
X48250714Y37600600D02*
X48607856Y37600600D01*
X48607856Y37600600D02*
X48750714Y37672029D01*
X49464999Y38029172D02*
X49464999Y37029172D01*
X49464999Y37886315D02*
X49536428Y37957743D01*
X49536428Y37957743D02*
X49679285Y38029172D01*
X49679285Y38029172D02*
X49893571Y38029172D01*
X49893571Y38029172D02*
X50036428Y37957743D01*
X50036428Y37957743D02*
X50107857Y37814886D01*
X50107857Y37814886D02*
X50107857Y37029172D01*
X50822142Y38029172D02*
X50822142Y36529172D01*
X50822142Y37957743D02*
X50965000Y38029172D01*
X50965000Y38029172D02*
X51250714Y38029172D01*
X51250714Y38029172D02*
X51393571Y37957743D01*
X51393571Y37957743D02*
X51465000Y37886315D01*
X51465000Y37886315D02*
X51536428Y37743458D01*
X51536428Y37743458D02*
X51536428Y37314886D01*
X51536428Y37314886D02*
X51465000Y37172029D01*
X51465000Y37172029D02*
X51393571Y37100600D01*
X51393571Y37100600D02*
X51250714Y37029172D01*
X51250714Y37029172D02*
X50965000Y37029172D01*
X50965000Y37029172D02*
X50822142Y37100600D01*
X52822143Y37029172D02*
X52822143Y37814886D01*
X52822143Y37814886D02*
X52750714Y37957743D01*
X52750714Y37957743D02*
X52607857Y38029172D01*
X52607857Y38029172D02*
X52322143Y38029172D01*
X52322143Y38029172D02*
X52179285Y37957743D01*
X52822143Y37100600D02*
X52679285Y37029172D01*
X52679285Y37029172D02*
X52322143Y37029172D01*
X52322143Y37029172D02*
X52179285Y37100600D01*
X52179285Y37100600D02*
X52107857Y37243458D01*
X52107857Y37243458D02*
X52107857Y37386315D01*
X52107857Y37386315D02*
X52179285Y37529172D01*
X52179285Y37529172D02*
X52322143Y37600600D01*
X52322143Y37600600D02*
X52679285Y37600600D01*
X52679285Y37600600D02*
X52822143Y37672029D01*
X53536428Y38029172D02*
X53536428Y36529172D01*
X53536428Y37957743D02*
X53679286Y38029172D01*
X53679286Y38029172D02*
X53965000Y38029172D01*
X53965000Y38029172D02*
X54107857Y37957743D01*
X54107857Y37957743D02*
X54179286Y37886315D01*
X54179286Y37886315D02*
X54250714Y37743458D01*
X54250714Y37743458D02*
X54250714Y37314886D01*
X54250714Y37314886D02*
X54179286Y37172029D01*
X54179286Y37172029D02*
X54107857Y37100600D01*
X54107857Y37100600D02*
X53965000Y37029172D01*
X53965000Y37029172D02*
X53679286Y37029172D01*
X53679286Y37029172D02*
X53536428Y37100600D01*
X55536429Y37029172D02*
X55536429Y37814886D01*
X55536429Y37814886D02*
X55465000Y37957743D01*
X55465000Y37957743D02*
X55322143Y38029172D01*
X55322143Y38029172D02*
X55036429Y38029172D01*
X55036429Y38029172D02*
X54893571Y37957743D01*
X55536429Y37100600D02*
X55393571Y37029172D01*
X55393571Y37029172D02*
X55036429Y37029172D01*
X55036429Y37029172D02*
X54893571Y37100600D01*
X54893571Y37100600D02*
X54822143Y37243458D01*
X54822143Y37243458D02*
X54822143Y37386315D01*
X54822143Y37386315D02*
X54893571Y37529172D01*
X54893571Y37529172D02*
X55036429Y37600600D01*
X55036429Y37600600D02*
X55393571Y37600600D01*
X55393571Y37600600D02*
X55536429Y37672029D01*
X57322143Y38386315D02*
X57393571Y38457743D01*
X57393571Y38457743D02*
X57536429Y38529172D01*
X57536429Y38529172D02*
X57893571Y38529172D01*
X57893571Y38529172D02*
X58036429Y38457743D01*
X58036429Y38457743D02*
X58107857Y38386315D01*
X58107857Y38386315D02*
X58179286Y38243458D01*
X58179286Y38243458D02*
X58179286Y38100600D01*
X58179286Y38100600D02*
X58107857Y37886315D01*
X58107857Y37886315D02*
X57250714Y37029172D01*
X57250714Y37029172D02*
X58179286Y37029172D01*
X59107857Y38529172D02*
X59250714Y38529172D01*
X59250714Y38529172D02*
X59393571Y38457743D01*
X59393571Y38457743D02*
X59465000Y38386315D01*
X59465000Y38386315D02*
X59536428Y38243458D01*
X59536428Y38243458D02*
X59607857Y37957743D01*
X59607857Y37957743D02*
X59607857Y37600600D01*
X59607857Y37600600D02*
X59536428Y37314886D01*
X59536428Y37314886D02*
X59465000Y37172029D01*
X59465000Y37172029D02*
X59393571Y37100600D01*
X59393571Y37100600D02*
X59250714Y37029172D01*
X59250714Y37029172D02*
X59107857Y37029172D01*
X59107857Y37029172D02*
X58965000Y37100600D01*
X58965000Y37100600D02*
X58893571Y37172029D01*
X58893571Y37172029D02*
X58822142Y37314886D01*
X58822142Y37314886D02*
X58750714Y37600600D01*
X58750714Y37600600D02*
X58750714Y37957743D01*
X58750714Y37957743D02*
X58822142Y38243458D01*
X58822142Y38243458D02*
X58893571Y38386315D01*
X58893571Y38386315D02*
X58965000Y38457743D01*
X58965000Y38457743D02*
X59107857Y38529172D01*
X60179285Y38386315D02*
X60250713Y38457743D01*
X60250713Y38457743D02*
X60393571Y38529172D01*
X60393571Y38529172D02*
X60750713Y38529172D01*
X60750713Y38529172D02*
X60893571Y38457743D01*
X60893571Y38457743D02*
X60964999Y38386315D01*
X60964999Y38386315D02*
X61036428Y38243458D01*
X61036428Y38243458D02*
X61036428Y38100600D01*
X61036428Y38100600D02*
X60964999Y37886315D01*
X60964999Y37886315D02*
X60107856Y37029172D01*
X60107856Y37029172D02*
X61036428Y37029172D01*
X62322142Y38529172D02*
X62036427Y38529172D01*
X62036427Y38529172D02*
X61893570Y38457743D01*
X61893570Y38457743D02*
X61822142Y38386315D01*
X61822142Y38386315D02*
X61679284Y38172029D01*
X61679284Y38172029D02*
X61607856Y37886315D01*
X61607856Y37886315D02*
X61607856Y37314886D01*
X61607856Y37314886D02*
X61679284Y37172029D01*
X61679284Y37172029D02*
X61750713Y37100600D01*
X61750713Y37100600D02*
X61893570Y37029172D01*
X61893570Y37029172D02*
X62179284Y37029172D01*
X62179284Y37029172D02*
X62322142Y37100600D01*
X62322142Y37100600D02*
X62393570Y37172029D01*
X62393570Y37172029D02*
X62464999Y37314886D01*
X62464999Y37314886D02*
X62464999Y37672029D01*
X62464999Y37672029D02*
X62393570Y37814886D01*
X62393570Y37814886D02*
X62322142Y37886315D01*
X62322142Y37886315D02*
X62179284Y37957743D01*
X62179284Y37957743D02*
X61893570Y37957743D01*
X61893570Y37957743D02*
X61750713Y37886315D01*
X61750713Y37886315D02*
X61679284Y37814886D01*
X61679284Y37814886D02*
X61607856Y37672029D01*
X63107855Y37600600D02*
X64250713Y37600600D01*
X65250713Y38529172D02*
X65393570Y38529172D01*
X65393570Y38529172D02*
X65536427Y38457743D01*
X65536427Y38457743D02*
X65607856Y38386315D01*
X65607856Y38386315D02*
X65679284Y38243458D01*
X65679284Y38243458D02*
X65750713Y37957743D01*
X65750713Y37957743D02*
X65750713Y37600600D01*
X65750713Y37600600D02*
X65679284Y37314886D01*
X65679284Y37314886D02*
X65607856Y37172029D01*
X65607856Y37172029D02*
X65536427Y37100600D01*
X65536427Y37100600D02*
X65393570Y37029172D01*
X65393570Y37029172D02*
X65250713Y37029172D01*
X65250713Y37029172D02*
X65107856Y37100600D01*
X65107856Y37100600D02*
X65036427Y37172029D01*
X65036427Y37172029D02*
X64964998Y37314886D01*
X64964998Y37314886D02*
X64893570Y37600600D01*
X64893570Y37600600D02*
X64893570Y37957743D01*
X64893570Y37957743D02*
X64964998Y38243458D01*
X64964998Y38243458D02*
X65036427Y38386315D01*
X65036427Y38386315D02*
X65107856Y38457743D01*
X65107856Y38457743D02*
X65250713Y38529172D01*
X66250712Y38529172D02*
X67250712Y38529172D01*
X67250712Y38529172D02*
X66607855Y37029172D01*
X67822140Y37600600D02*
X68964998Y37600600D01*
X70464998Y37029172D02*
X69607855Y37029172D01*
X70036426Y37029172D02*
X70036426Y38529172D01*
X70036426Y38529172D02*
X69893569Y38314886D01*
X69893569Y38314886D02*
X69750712Y38172029D01*
X69750712Y38172029D02*
X69607855Y38100600D01*
X71893569Y37029172D02*
X71036426Y37029172D01*
X71464997Y37029172D02*
X71464997Y38529172D01*
X71464997Y38529172D02*
X71322140Y38314886D01*
X71322140Y38314886D02*
X71179283Y38172029D01*
X71179283Y38172029D02*
X71036426Y38100600D01*
D11*
X78406666Y21500181D02*
X78406666Y20785896D01*
X78406666Y20785896D02*
X78359047Y20643039D01*
X78359047Y20643039D02*
X78263809Y20547800D01*
X78263809Y20547800D02*
X78120952Y20500181D01*
X78120952Y20500181D02*
X78025714Y20500181D01*
X78787619Y21500181D02*
X79406666Y21500181D01*
X79406666Y21500181D02*
X79073333Y21119229D01*
X79073333Y21119229D02*
X79216190Y21119229D01*
X79216190Y21119229D02*
X79311428Y21071610D01*
X79311428Y21071610D02*
X79359047Y21023991D01*
X79359047Y21023991D02*
X79406666Y20928753D01*
X79406666Y20928753D02*
X79406666Y20690658D01*
X79406666Y20690658D02*
X79359047Y20595420D01*
X79359047Y20595420D02*
X79311428Y20547800D01*
X79311428Y20547800D02*
X79216190Y20500181D01*
X79216190Y20500181D02*
X78930476Y20500181D01*
X78930476Y20500181D02*
X78835238Y20547800D01*
X78835238Y20547800D02*
X78787619Y20595420D01*
X47569523Y47170181D02*
X47236190Y47646372D01*
X46998095Y47170181D02*
X46998095Y48170181D01*
X46998095Y48170181D02*
X47379047Y48170181D01*
X47379047Y48170181D02*
X47474285Y48122562D01*
X47474285Y48122562D02*
X47521904Y48074943D01*
X47521904Y48074943D02*
X47569523Y47979705D01*
X47569523Y47979705D02*
X47569523Y47836848D01*
X47569523Y47836848D02*
X47521904Y47741610D01*
X47521904Y47741610D02*
X47474285Y47693991D01*
X47474285Y47693991D02*
X47379047Y47646372D01*
X47379047Y47646372D02*
X46998095Y47646372D01*
X47998095Y47170181D02*
X47998095Y48170181D01*
X47998095Y48170181D02*
X48569523Y47170181D01*
X48569523Y47170181D02*
X48569523Y48170181D01*
X48998095Y48074943D02*
X49045714Y48122562D01*
X49045714Y48122562D02*
X49140952Y48170181D01*
X49140952Y48170181D02*
X49379047Y48170181D01*
X49379047Y48170181D02*
X49474285Y48122562D01*
X49474285Y48122562D02*
X49521904Y48074943D01*
X49521904Y48074943D02*
X49569523Y47979705D01*
X49569523Y47979705D02*
X49569523Y47884467D01*
X49569523Y47884467D02*
X49521904Y47741610D01*
X49521904Y47741610D02*
X48950476Y47170181D01*
X48950476Y47170181D02*
X49569523Y47170181D01*
X47569523Y42090181D02*
X47236190Y42566372D01*
X46998095Y42090181D02*
X46998095Y43090181D01*
X46998095Y43090181D02*
X47379047Y43090181D01*
X47379047Y43090181D02*
X47474285Y43042562D01*
X47474285Y43042562D02*
X47521904Y42994943D01*
X47521904Y42994943D02*
X47569523Y42899705D01*
X47569523Y42899705D02*
X47569523Y42756848D01*
X47569523Y42756848D02*
X47521904Y42661610D01*
X47521904Y42661610D02*
X47474285Y42613991D01*
X47474285Y42613991D02*
X47379047Y42566372D01*
X47379047Y42566372D02*
X46998095Y42566372D01*
X47998095Y42090181D02*
X47998095Y43090181D01*
X47998095Y43090181D02*
X48569523Y42090181D01*
X48569523Y42090181D02*
X48569523Y43090181D01*
X49569523Y42090181D02*
X48998095Y42090181D01*
X49283809Y42090181D02*
X49283809Y43090181D01*
X49283809Y43090181D02*
X49188571Y42947324D01*
X49188571Y42947324D02*
X49093333Y42852086D01*
X49093333Y42852086D02*
X48998095Y42804467D01*
X83038333Y23135420D02*
X82990714Y23087800D01*
X82990714Y23087800D02*
X82847857Y23040181D01*
X82847857Y23040181D02*
X82752619Y23040181D01*
X82752619Y23040181D02*
X82609762Y23087800D01*
X82609762Y23087800D02*
X82514524Y23183039D01*
X82514524Y23183039D02*
X82466905Y23278277D01*
X82466905Y23278277D02*
X82419286Y23468753D01*
X82419286Y23468753D02*
X82419286Y23611610D01*
X82419286Y23611610D02*
X82466905Y23802086D01*
X82466905Y23802086D02*
X82514524Y23897324D01*
X82514524Y23897324D02*
X82609762Y23992562D01*
X82609762Y23992562D02*
X82752619Y24040181D01*
X82752619Y24040181D02*
X82847857Y24040181D01*
X82847857Y24040181D02*
X82990714Y23992562D01*
X82990714Y23992562D02*
X83038333Y23944943D01*
X83990714Y23040181D02*
X83419286Y23040181D01*
X83705000Y23040181D02*
X83705000Y24040181D01*
X83705000Y24040181D02*
X83609762Y23897324D01*
X83609762Y23897324D02*
X83514524Y23802086D01*
X83514524Y23802086D02*
X83419286Y23754467D01*
X92543333Y20595420D02*
X92495714Y20547800D01*
X92495714Y20547800D02*
X92352857Y20500181D01*
X92352857Y20500181D02*
X92257619Y20500181D01*
X92257619Y20500181D02*
X92114762Y20547800D01*
X92114762Y20547800D02*
X92019524Y20643039D01*
X92019524Y20643039D02*
X91971905Y20738277D01*
X91971905Y20738277D02*
X91924286Y20928753D01*
X91924286Y20928753D02*
X91924286Y21071610D01*
X91924286Y21071610D02*
X91971905Y21262086D01*
X91971905Y21262086D02*
X92019524Y21357324D01*
X92019524Y21357324D02*
X92114762Y21452562D01*
X92114762Y21452562D02*
X92257619Y21500181D01*
X92257619Y21500181D02*
X92352857Y21500181D01*
X92352857Y21500181D02*
X92495714Y21452562D01*
X92495714Y21452562D02*
X92543333Y21404943D01*
X92924286Y21404943D02*
X92971905Y21452562D01*
X92971905Y21452562D02*
X93067143Y21500181D01*
X93067143Y21500181D02*
X93305238Y21500181D01*
X93305238Y21500181D02*
X93400476Y21452562D01*
X93400476Y21452562D02*
X93448095Y21404943D01*
X93448095Y21404943D02*
X93495714Y21309705D01*
X93495714Y21309705D02*
X93495714Y21214467D01*
X93495714Y21214467D02*
X93448095Y21071610D01*
X93448095Y21071610D02*
X92876667Y20500181D01*
X92876667Y20500181D02*
X93495714Y20500181D01*
X4389523Y47170181D02*
X4056190Y47646372D01*
X3818095Y47170181D02*
X3818095Y48170181D01*
X3818095Y48170181D02*
X4199047Y48170181D01*
X4199047Y48170181D02*
X4294285Y48122562D01*
X4294285Y48122562D02*
X4341904Y48074943D01*
X4341904Y48074943D02*
X4389523Y47979705D01*
X4389523Y47979705D02*
X4389523Y47836848D01*
X4389523Y47836848D02*
X4341904Y47741610D01*
X4341904Y47741610D02*
X4294285Y47693991D01*
X4294285Y47693991D02*
X4199047Y47646372D01*
X4199047Y47646372D02*
X3818095Y47646372D01*
X4818095Y47170181D02*
X4818095Y48170181D01*
X4818095Y48170181D02*
X5389523Y47170181D01*
X5389523Y47170181D02*
X5389523Y48170181D01*
X6294285Y48170181D02*
X6103809Y48170181D01*
X6103809Y48170181D02*
X6008571Y48122562D01*
X6008571Y48122562D02*
X5960952Y48074943D01*
X5960952Y48074943D02*
X5865714Y47932086D01*
X5865714Y47932086D02*
X5818095Y47741610D01*
X5818095Y47741610D02*
X5818095Y47360658D01*
X5818095Y47360658D02*
X5865714Y47265420D01*
X5865714Y47265420D02*
X5913333Y47217800D01*
X5913333Y47217800D02*
X6008571Y47170181D01*
X6008571Y47170181D02*
X6199047Y47170181D01*
X6199047Y47170181D02*
X6294285Y47217800D01*
X6294285Y47217800D02*
X6341904Y47265420D01*
X6341904Y47265420D02*
X6389523Y47360658D01*
X6389523Y47360658D02*
X6389523Y47598753D01*
X6389523Y47598753D02*
X6341904Y47693991D01*
X6341904Y47693991D02*
X6294285Y47741610D01*
X6294285Y47741610D02*
X6199047Y47789229D01*
X6199047Y47789229D02*
X6008571Y47789229D01*
X6008571Y47789229D02*
X5913333Y47741610D01*
X5913333Y47741610D02*
X5865714Y47693991D01*
X5865714Y47693991D02*
X5818095Y47598753D01*
X79208333Y37010181D02*
X78875000Y37486372D01*
X78636905Y37010181D02*
X78636905Y38010181D01*
X78636905Y38010181D02*
X79017857Y38010181D01*
X79017857Y38010181D02*
X79113095Y37962562D01*
X79113095Y37962562D02*
X79160714Y37914943D01*
X79160714Y37914943D02*
X79208333Y37819705D01*
X79208333Y37819705D02*
X79208333Y37676848D01*
X79208333Y37676848D02*
X79160714Y37581610D01*
X79160714Y37581610D02*
X79113095Y37533991D01*
X79113095Y37533991D02*
X79017857Y37486372D01*
X79017857Y37486372D02*
X78636905Y37486372D01*
X79589286Y37914943D02*
X79636905Y37962562D01*
X79636905Y37962562D02*
X79732143Y38010181D01*
X79732143Y38010181D02*
X79970238Y38010181D01*
X79970238Y38010181D02*
X80065476Y37962562D01*
X80065476Y37962562D02*
X80113095Y37914943D01*
X80113095Y37914943D02*
X80160714Y37819705D01*
X80160714Y37819705D02*
X80160714Y37724467D01*
X80160714Y37724467D02*
X80113095Y37581610D01*
X80113095Y37581610D02*
X79541667Y37010181D01*
X79541667Y37010181D02*
X80160714Y37010181D01*
X86161666Y39915181D02*
X86161666Y39200896D01*
X86161666Y39200896D02*
X86114047Y39058039D01*
X86114047Y39058039D02*
X86018809Y38962800D01*
X86018809Y38962800D02*
X85875952Y38915181D01*
X85875952Y38915181D02*
X85780714Y38915181D01*
X86637857Y38915181D02*
X86637857Y39915181D01*
X86637857Y39915181D02*
X87018809Y39915181D01*
X87018809Y39915181D02*
X87114047Y39867562D01*
X87114047Y39867562D02*
X87161666Y39819943D01*
X87161666Y39819943D02*
X87209285Y39724705D01*
X87209285Y39724705D02*
X87209285Y39581848D01*
X87209285Y39581848D02*
X87161666Y39486610D01*
X87161666Y39486610D02*
X87114047Y39438991D01*
X87114047Y39438991D02*
X87018809Y39391372D01*
X87018809Y39391372D02*
X86637857Y39391372D01*
X88161666Y38915181D02*
X87590238Y38915181D01*
X87875952Y38915181D02*
X87875952Y39915181D01*
X87875952Y39915181D02*
X87780714Y39772324D01*
X87780714Y39772324D02*
X87685476Y39677086D01*
X87685476Y39677086D02*
X87590238Y39629467D01*
X4389523Y42090181D02*
X4056190Y42566372D01*
X3818095Y42090181D02*
X3818095Y43090181D01*
X3818095Y43090181D02*
X4199047Y43090181D01*
X4199047Y43090181D02*
X4294285Y43042562D01*
X4294285Y43042562D02*
X4341904Y42994943D01*
X4341904Y42994943D02*
X4389523Y42899705D01*
X4389523Y42899705D02*
X4389523Y42756848D01*
X4389523Y42756848D02*
X4341904Y42661610D01*
X4341904Y42661610D02*
X4294285Y42613991D01*
X4294285Y42613991D02*
X4199047Y42566372D01*
X4199047Y42566372D02*
X3818095Y42566372D01*
X4818095Y42090181D02*
X4818095Y43090181D01*
X4818095Y43090181D02*
X5389523Y42090181D01*
X5389523Y42090181D02*
X5389523Y43090181D01*
X6341904Y43090181D02*
X5865714Y43090181D01*
X5865714Y43090181D02*
X5818095Y42613991D01*
X5818095Y42613991D02*
X5865714Y42661610D01*
X5865714Y42661610D02*
X5960952Y42709229D01*
X5960952Y42709229D02*
X6199047Y42709229D01*
X6199047Y42709229D02*
X6294285Y42661610D01*
X6294285Y42661610D02*
X6341904Y42613991D01*
X6341904Y42613991D02*
X6389523Y42518753D01*
X6389523Y42518753D02*
X6389523Y42280658D01*
X6389523Y42280658D02*
X6341904Y42185420D01*
X6341904Y42185420D02*
X6294285Y42137800D01*
X6294285Y42137800D02*
X6199047Y42090181D01*
X6199047Y42090181D02*
X5960952Y42090181D01*
X5960952Y42090181D02*
X5865714Y42137800D01*
X5865714Y42137800D02*
X5818095Y42185420D01*
X31059523Y42090181D02*
X30726190Y42566372D01*
X30488095Y42090181D02*
X30488095Y43090181D01*
X30488095Y43090181D02*
X30869047Y43090181D01*
X30869047Y43090181D02*
X30964285Y43042562D01*
X30964285Y43042562D02*
X31011904Y42994943D01*
X31011904Y42994943D02*
X31059523Y42899705D01*
X31059523Y42899705D02*
X31059523Y42756848D01*
X31059523Y42756848D02*
X31011904Y42661610D01*
X31011904Y42661610D02*
X30964285Y42613991D01*
X30964285Y42613991D02*
X30869047Y42566372D01*
X30869047Y42566372D02*
X30488095Y42566372D01*
X31488095Y42090181D02*
X31488095Y43090181D01*
X31488095Y43090181D02*
X32059523Y42090181D01*
X32059523Y42090181D02*
X32059523Y43090181D01*
X32440476Y43090181D02*
X33059523Y43090181D01*
X33059523Y43090181D02*
X32726190Y42709229D01*
X32726190Y42709229D02*
X32869047Y42709229D01*
X32869047Y42709229D02*
X32964285Y42661610D01*
X32964285Y42661610D02*
X33011904Y42613991D01*
X33011904Y42613991D02*
X33059523Y42518753D01*
X33059523Y42518753D02*
X33059523Y42280658D01*
X33059523Y42280658D02*
X33011904Y42185420D01*
X33011904Y42185420D02*
X32964285Y42137800D01*
X32964285Y42137800D02*
X32869047Y42090181D01*
X32869047Y42090181D02*
X32583333Y42090181D01*
X32583333Y42090181D02*
X32488095Y42137800D01*
X32488095Y42137800D02*
X32440476Y42185420D01*
X94448333Y48440181D02*
X94115000Y48916372D01*
X93876905Y48440181D02*
X93876905Y49440181D01*
X93876905Y49440181D02*
X94257857Y49440181D01*
X94257857Y49440181D02*
X94353095Y49392562D01*
X94353095Y49392562D02*
X94400714Y49344943D01*
X94400714Y49344943D02*
X94448333Y49249705D01*
X94448333Y49249705D02*
X94448333Y49106848D01*
X94448333Y49106848D02*
X94400714Y49011610D01*
X94400714Y49011610D02*
X94353095Y48963991D01*
X94353095Y48963991D02*
X94257857Y48916372D01*
X94257857Y48916372D02*
X93876905Y48916372D01*
X95400714Y48440181D02*
X94829286Y48440181D01*
X95115000Y48440181D02*
X95115000Y49440181D01*
X95115000Y49440181D02*
X95019762Y49297324D01*
X95019762Y49297324D02*
X94924524Y49202086D01*
X94924524Y49202086D02*
X94829286Y49154467D01*
X29646666Y3085181D02*
X29646666Y2370896D01*
X29646666Y2370896D02*
X29599047Y2228039D01*
X29599047Y2228039D02*
X29503809Y2132800D01*
X29503809Y2132800D02*
X29360952Y2085181D01*
X29360952Y2085181D02*
X29265714Y2085181D01*
X30122857Y2085181D02*
X30122857Y3085181D01*
X30122857Y3085181D02*
X30503809Y3085181D01*
X30503809Y3085181D02*
X30599047Y3037562D01*
X30599047Y3037562D02*
X30646666Y2989943D01*
X30646666Y2989943D02*
X30694285Y2894705D01*
X30694285Y2894705D02*
X30694285Y2751848D01*
X30694285Y2751848D02*
X30646666Y2656610D01*
X30646666Y2656610D02*
X30599047Y2608991D01*
X30599047Y2608991D02*
X30503809Y2561372D01*
X30503809Y2561372D02*
X30122857Y2561372D01*
X31075238Y2989943D02*
X31122857Y3037562D01*
X31122857Y3037562D02*
X31218095Y3085181D01*
X31218095Y3085181D02*
X31456190Y3085181D01*
X31456190Y3085181D02*
X31551428Y3037562D01*
X31551428Y3037562D02*
X31599047Y2989943D01*
X31599047Y2989943D02*
X31646666Y2894705D01*
X31646666Y2894705D02*
X31646666Y2799467D01*
X31646666Y2799467D02*
X31599047Y2656610D01*
X31599047Y2656610D02*
X31027619Y2085181D01*
X31027619Y2085181D02*
X31646666Y2085181D01*
X74826905Y37010181D02*
X74826905Y38010181D01*
X74826905Y38010181D02*
X75065000Y38010181D01*
X75065000Y38010181D02*
X75207857Y37962562D01*
X75207857Y37962562D02*
X75303095Y37867324D01*
X75303095Y37867324D02*
X75350714Y37772086D01*
X75350714Y37772086D02*
X75398333Y37581610D01*
X75398333Y37581610D02*
X75398333Y37438753D01*
X75398333Y37438753D02*
X75350714Y37248277D01*
X75350714Y37248277D02*
X75303095Y37153039D01*
X75303095Y37153039D02*
X75207857Y37057800D01*
X75207857Y37057800D02*
X75065000Y37010181D01*
X75065000Y37010181D02*
X74826905Y37010181D01*
X76350714Y37010181D02*
X75779286Y37010181D01*
X76065000Y37010181D02*
X76065000Y38010181D01*
X76065000Y38010181D02*
X75969762Y37867324D01*
X75969762Y37867324D02*
X75874524Y37772086D01*
X75874524Y37772086D02*
X75779286Y37724467D01*
X74119819Y39743096D02*
X73119819Y39743096D01*
X74119819Y40314524D02*
X73548390Y39885953D01*
X73119819Y40314524D02*
X73691247Y39743096D01*
X31059523Y47170181D02*
X30726190Y47646372D01*
X30488095Y47170181D02*
X30488095Y48170181D01*
X30488095Y48170181D02*
X30869047Y48170181D01*
X30869047Y48170181D02*
X30964285Y48122562D01*
X30964285Y48122562D02*
X31011904Y48074943D01*
X31011904Y48074943D02*
X31059523Y47979705D01*
X31059523Y47979705D02*
X31059523Y47836848D01*
X31059523Y47836848D02*
X31011904Y47741610D01*
X31011904Y47741610D02*
X30964285Y47693991D01*
X30964285Y47693991D02*
X30869047Y47646372D01*
X30869047Y47646372D02*
X30488095Y47646372D01*
X31488095Y47170181D02*
X31488095Y48170181D01*
X31488095Y48170181D02*
X32059523Y47170181D01*
X32059523Y47170181D02*
X32059523Y48170181D01*
X32964285Y47836848D02*
X32964285Y47170181D01*
X32726190Y48217800D02*
X32488095Y47503515D01*
X32488095Y47503515D02*
X33107142Y47503515D01*
D13*
X5585000Y25515000D02*
X76965000Y25515000D01*
X5585000Y16395000D02*
X5585000Y25515000D01*
X6885000Y24205000D02*
X39225000Y24205000D01*
X6885000Y17705000D02*
X6885000Y24205000D01*
X39225000Y24205000D02*
X39225000Y25515000D01*
X43325000Y25515000D02*
X43325000Y24205000D01*
X43325000Y24205000D02*
X75665000Y24205000D01*
X71255000Y26905000D02*
X71755000Y25905000D01*
X71755000Y25905000D02*
X72255000Y26905000D01*
X72255000Y26905000D02*
X71255000Y26905000D01*
X75665000Y24205000D02*
X75665000Y17705000D01*
X75665000Y17705000D02*
X6885000Y17705000D01*
X76965000Y25515000D02*
X76965000Y16395000D01*
X76965000Y16395000D02*
X5585000Y16395000D01*
X70485000Y46315000D02*
X70485000Y48935000D01*
X50085000Y48935000D02*
X73105000Y48935000D01*
X73105000Y46315000D01*
X50085000Y46315000D01*
X50085000Y48935000D01*
X52705000Y43855000D02*
X52705000Y41235000D01*
X50085000Y43855000D02*
X73105000Y43855000D01*
X73105000Y41235000D01*
X50085000Y41235000D01*
X50085000Y43855000D01*
X81385000Y22125000D02*
X85025000Y22125000D01*
X81385000Y21825000D02*
X81385000Y22125000D01*
X81385000Y19785000D02*
X81385000Y20085000D01*
X85025000Y22125000D02*
X85025000Y21825000D01*
X85025000Y20085000D02*
X85025000Y19785000D01*
X85025000Y19785000D02*
X81385000Y19785000D01*
X90905000Y20955000D02*
G75*
G02*
X86665000Y20955000I-2120000J0D01*
G01*
X86665000Y20955000D02*
G75*
G02*
X90905000Y20955000I2120000J0D01*
G01*
X27305000Y46315000D02*
X27305000Y48935000D01*
X6905000Y48935000D02*
X29925000Y48935000D01*
X29925000Y46315000D01*
X6905000Y46315000D01*
X6905000Y48935000D01*
X78005000Y47085000D02*
X78005000Y40545000D01*
X78005000Y40545000D02*
X78335000Y40545000D01*
X78335000Y47085000D02*
X78005000Y47085000D01*
X80415000Y47085000D02*
X80745000Y47085000D01*
X80745000Y47085000D02*
X80745000Y40545000D01*
X80745000Y40545000D02*
X80415000Y40545000D01*
X83075000Y47735000D02*
X90915000Y47735000D01*
X83075000Y45085000D02*
X83075000Y47735000D01*
X83075000Y42435000D02*
X83075000Y43815000D01*
X84455000Y42435000D02*
X83075000Y42435000D01*
X85725000Y45085000D02*
X83075000Y45085000D01*
X85725000Y42435000D02*
X85725000Y45085000D01*
X85725000Y42435000D02*
X90915000Y42435000D01*
X90915000Y42435000D02*
X90915000Y47735000D01*
X9525000Y43855000D02*
X9525000Y41235000D01*
X6905000Y43855000D02*
X29925000Y43855000D01*
X29925000Y41235000D01*
X6905000Y41235000D01*
X6905000Y43855000D01*
X36195000Y43855000D02*
X36195000Y41235000D01*
X33575000Y43855000D02*
X46435000Y43855000D01*
X46435000Y41235000D01*
X33575000Y41235000D01*
X33575000Y43855000D01*
X93245000Y45815000D02*
X93245000Y39275000D01*
X93245000Y39275000D02*
X93575000Y39275000D01*
X93575000Y45815000D02*
X93245000Y45815000D01*
X95655000Y45815000D02*
X95985000Y45815000D01*
X95985000Y45815000D02*
X95985000Y39275000D01*
X95985000Y39275000D02*
X95655000Y39275000D01*
X32275000Y1160000D02*
X32275000Y2540000D01*
X33655000Y1160000D02*
X32275000Y1160000D01*
X34925000Y3920000D02*
X62975000Y3920000D01*
X34925000Y1160000D02*
X34925000Y3920000D01*
X34925000Y1160000D02*
X62975000Y1160000D01*
X62975000Y1160000D02*
X62975000Y3920000D01*
X74095000Y46535000D02*
X74425000Y46535000D01*
X74095000Y42115000D02*
X77035000Y42115000D01*
X74095000Y41995000D02*
X77035000Y41995000D01*
X74095000Y41875000D02*
X77035000Y41875000D01*
X74095000Y41095000D02*
X74095000Y46535000D01*
X74425000Y41095000D02*
X74095000Y41095000D01*
X76705000Y41095000D02*
X77035000Y41095000D01*
X77035000Y46535000D02*
X76705000Y46535000D01*
X77035000Y41095000D02*
X77035000Y46535000D01*
X43815000Y46315000D02*
X43815000Y48935000D01*
X33575000Y48935000D02*
X46435000Y48935000D01*
X46435000Y46315000D01*
X33575000Y46315000D01*
X33575000Y48935000D01*
M02*
